<?xml version="1.0" encoding="UTF-8"?><svg xmlns="http://www.w3.org/2000/svg" xmlns:xlink="http://www.w3.org/1999/xlink" viewBox="0 0 361 361"><defs><style>.i{fill:url(#h);}.j,.k,.l{fill:none;}.m{fill:#f9cd17;}.n{fill:#f96360;}.o{fill:#fff;}.p{fill:#f1f1f1;}.q{fill:#b4cd9b;}.r{fill:#8bbbb9;}.s{fill:#aeadd5;}.t{fill:#a4a4a4;}.u{fill:#ccc2b8;}.v{fill:#dcd8ba;}.w{fill:#246dad;}.x{fill:#221f1d;}.y{fill:#7173b0;}.a`{fill:#4f51a9;}.aa{fill:#d1d1d1;}.aa,.ab{mix-blend-mode:multiply;}.k{clip-path:url(#c);}.l{clip-path:url(#g);}.ac{clip-path:url(#b);}.ad{clip-path:url(#f);}.ae{isolation:isolate;}</style><clipPath id="c"><path class="j" d="M206.43,0l154.57,154.57v51.86l-154.57,154.57h-51.86L0,206.43v-51.86L154.57,0h51.86Z"/></clipPath><clipPath id="b"><path class="k" d="M206.43,0l154.57,154.57v51.86l-154.57,154.57h-51.86L0,206.43v-51.86L154.57,0h51.86Z"/></clipPath><clipPath id="g"><path class="j" d="M206.43,0l154.57,154.57v51.86l-154.57,154.57h-51.86L0,206.43v-51.86L154.57,0h51.86Z"/></clipPath><clipPath id="f"><path class="l" d="M206.43,0l154.57,154.57v51.86l-154.57,154.57h-51.86L0,206.43v-51.86L154.57,0h51.86Z"/></clipPath><linearGradient id="h" x1="-37.82" y1="316.18" x2="113.15" y2="316.18" gradientTransform="translate(-97.48 -91.95) rotate(-39.67) scale(1 1.05)" gradientUnits="userSpaceOnUse"><stop offset="0" stop-color="#fff"/><stop offset=".05" stop-color="#ececec"/><stop offset=".12" stop-color="#dbdbdb"/><stop offset=".19" stop-color="#d0d0d0"/><stop offset=".27" stop-color="#cdcdcd"/><stop offset=".6" stop-color="#fff"/><stop offset=".99" stop-color="#cecece"/><stop offset="1" stop-color="#cdcdcd"/></linearGradient></defs><g class="ae"><g id="a"><g class="ac"><g><polygon class="p" points="-31.44 50.35 -31.44 143.02 2.68 68.86 -31.44 50.35"/><polygon class="p" points="-31.44 -13.97 -31.44 27.84 10.97 50.85 40.79 -13.97 -31.44 -13.97"/><polygon class="p" points="51.67 -13.97 -31.44 166.68 -31.44 174.39 54.04 -13.97 51.67 -13.97"/><path class="p" d="M127.89-13.97c.19,1.39,.27,2.75,.27,4.05-.05,3.07-.34,5.57-1.37,7.78-1.78,3.55-1.91,4.43-13.02,25.43-1.91,3.6-2.62,6.92-2.62,10.06-.14,8.43,5.69,16.1,9.71,20.27l16.87-33.03L171.33-13.97h-43.44Z"/><path class="p" d="M79.64-13.97L42.06,69.35l55.76,29.35,19.51-38.18c-4.57-4.2-13.4-13.89-13.61-27.17,0-4.3,1.03-8.93,3.49-13.54C118.35-1.23,118.22-1.59,120.15-5.45c.14-.14,.64-2.22,.59-4.46,0-1.29-.12-2.7-.37-4.05h-40.74Z"/><polygon class="p" points="312.38 251.57 263.28 203.04 232.12 298.21 349.46 295.28 312.38 251.57"/><polygon class="p" points="-13.88 193.39 28.04 211.5 80.37 106.29 35.95 82.91 -13.88 193.39"/><path class="p" d="M134.82,398.34c3.49-28.28,7.33-58.77,10.74-85.61l-17.14,.43-7.69,81.34,14.09,3.84Z"/><polygon class="p" points="124.25 273.03 128.32 221.56 118.53 206.43 108.35 211.6 -31.44 295.91 -31.44 304.77 122.04 300.95 123.65 280.7 93.76 269.83 96.3 262.86 124.25 273.03"/><polygon class="p" points="-16.94 200.15 -31.44 232.3 -31.44 268.86 18.77 243.31 25.02 218.29 -16.94 200.15"/><path class="p" d="M317.82,246.51l4.53,5.34,22.46-49.18c-2.29-1.38-4.73-2.89-7.24-4.54-11.88-7.84-25.36-18.25-31.9-30.16-3.94-7.26-12.05-21.35-21.03-36.77l-20.23,11.64-3.7-6.43,20.19-11.62c-1.92-3.29-3.86-6.61-5.79-9.9l-56.25,33.83,36.22,35.79,24.02-24.02,5.25,5.25-23.99,23.99,12.52,12.37,17.44-16.34,5.07,5.41-17.23,16.15,39.67,39.2Z"/><path class="p" d="M360.8,78.79l-9.5-9.73-69.83,42c1.95,3.33,3.91,6.69,5.86,10.02l73.47-42.29Z"/><path class="p" d="M254.12,64.61c3.18,5.37,11.54,19.53,21.09,35.79l67.2-40.41-41.87-42.73-46.42,47.35Z"/><path class="p" d="M155.44,235.69l.05-.26s0-.02,.05-.3c.04-.28,.11-.73,.18-1.33,.13-1.19,.28-2.96,.27-5.09,.02-5.36-.93-12.89-4.66-19.55-1.54-2.78-4.67-8.16-8.69-15l-17.47,8.89,10.74,16.6-6.42,81.12,17.65-.44c4.72-36.98,8.27-64.38,8.27-64.39l.03-.24Z"/><path class="p" d="M291.17,7.69l-15.01,12.01L235.9-13.97h-54.22l-37.85,38.94-17.31,33.88,83.24,80.9,59.11-35.55c-8.61-14.67-16.27-27.63-20.02-33.98l-39.89,40.47-5.29-5.21L295.35,11.96l-4.18-4.27Z"/><path class="p" d="M359.62,202.51l16.41-36.98-5.61-1.08-16.07,35.2c.83,.46,1.62,.89,2.35,1.29,1.11,.6,2.08,1.12,2.93,1.57Z"/><path class="p" d="M392.44,111.2l-26.28-26.93-75.09,43.22c8.98,15.43,17.1,29.54,21.11,36.94,6.19,11.67,23.09,23.77,35.73,31.45l15.41-33.76-27.24-16.23,3.8-6.37,26.54,15.81,15.78-34.57,6.75,3.08-15.37,33.65,5.52,1.06,13.33-30.05v-17.32Z"/><path class="p" d="M356.6,209.3c-1.41-.74-3.23-1.71-5.35-2.9l-23.6,51.69,4.8,5.66,24.15-54.46Z"/><path class="p" d="M259.34,418.73l8.66-42.22-19.26-2.24-9.79,32.75-.03,.09v.02l-7.11-2.11v-.02h0l.05-.15,11.34-38.69,.22,.03,9.86-32.96-.53-23.02-.61-.12-5.02,.13-2.53,21.79-9.36,31.84-7.12-2.1,9.18-31.24,2.34-20.11-55.58,1.39-7.85,94.22c19.89,3.36,45.04,7.4,68.94,10.6,4.59,.62,9.35,1.34,14.22,2.14Z"/><path class="p" d="M176.58,311.96l-16.01,.4c-.91,7.13-1.84,14.53-2.8,22.1-2.76,21.86-5.67,45.06-8.36,66.87,5.1,.91,11.73,2.09,19.45,3.41l7.73-92.78Z"/><path class="p" d="M102.39,200.76l32.56-19.64c-4.86-8.2-10.23-17.23-15.44-25.96-11.06-18.55-21.41-35.81-24.68-41.27l-7.9-4.16-52.07,104.71,21.96,9.49,45.56-23.18Z"/><path class="p" d="M203.18,143.72L122.98,65.77l-18.59,36.39,1.03,.54,1.07,1.78c.03,.05,25.29,42.15,42.75,71.67l53.94-32.43Z"/><path class="p" d="M313.57-9.56c17.7,18.74,36.84,35.87,55.99,53.21l.1-.06-55.02-55.44c-.1,.34-.22,.66-.31,1-.13,.47-.4,.9-.77,1.28Z"/><polygon class="p" points="370.12 322.6 392.44 329.91 392.44 306.58 372.03 307.09 352.56 368.07 370.12 322.6"/><path class="p" d="M392.44,452.19v-22.21l-4.82-1.58,4.82-14.75v-15.17l-45.2-13.76-11.91,37.3-7.06-2.26h0l.39-1.23,13.7-43.06h.05l21.78-68.19-27.68,.69-28.96,104.02-7.15-1.99,28.35-101.84-38.87,.97-8.22,49.31-7.32-1.22,7.98-47.9-22.19,.55,.57,24.35-9.82,32.82,26,3.03-10.24,49.9c47.12,8.32,102.57,23.4,125.78,32.21Z"/><path class="p" d="M224.25,298.4l33.14-101.19-45.09-44.56-56.77,34.14c4.01,6.82,7.16,12.24,8.78,15.16,5.43,9.81,6.52,19.8,6.53,26.75,0,4.85-.55,8.28-.73,9.32-.12,.9-.64,4.91-1.46,11.31l19.95,7.76-3.52,42.28,39.18-.98Z"/><polygon class="p" points="392.44 185.51 378.09 179.16 337.78 270.05 358.99 295.05 379.53 294.53 380.03 278.62 387.65 257.66 387.66 257.66 392.44 259.4 392.44 185.51"/><polygon class="p" points="27.53 238.85 48.23 228.32 31.93 221.27 27.53 238.85"/><path class="p" d="M162.15,299.95l15.46-.39,3.13-37.56-13.08-5.09c-1.41,10.94-3.33,25.89-5.52,43.03Z"/><polygon class="p" points="-31.44 317.14 -31.44 353.04 113.46 392.52 120.95 313.35 -31.44 317.14"/><polygon class="p" points="64.9 -13.97 -31.44 198.32 -31.44 208.25 68.79 -13.97 64.9 -13.97"/><path class="p" d="M-31.44,360.73v16.78c16.18,3.14,32.43,5.93,48.49,9.84,29.03,7.05,56.49,17.74,86.06,22.94,9.88,1.74,19.73,3.61,29.57,5.49,.4-3.29,.81-6.62,1.22-10L-31.44,360.73Z"/><polygon class="p" points="337.08 -13.97 336.37 -13.97 334.13 -9.75 380.6 37.07 392.44 30.11 392.44 18.29 377.54 26.5 337.08 -13.97"/><polygon class="v" points="235.9 -13.97 276.16 19.7 291.17 7.69 269.95 -13.97 235.9 -13.97"/><polygon class="u" points="337.08 -13.97 377.54 26.5 392.44 18.29 392.44 -11.36 390.54 -13.97 337.08 -13.97"/><polygon class="q" points="392.44 329.91 370.12 322.6 352.56 368.07 349.65 377.18 372.24 384.57 392.44 390.72 392.44 329.91"/><path class="r" d="M313.57-9.56c.37-.39,.64-.82,.77-1.28,.09-.34,.21-.66,.31-1l-2.11-2.13h-25.27l66.05,67.4,16.26-9.78c-19.15-17.34-38.29-34.47-55.99-53.21Z"/><polygon class="o" points="54.04 -13.97 -31.44 174.39 -31.44 198.32 64.9 -13.97 54.04 -13.97"/><path class="o" d="M334.13-9.75l2.23-4.21h-23.84l2.11,2.13,55.02,55.44-.1,.06-16.26,9.78L287.26-13.97h-17.31l21.22,21.66,4.18,4.27-91.7,93.54,5.29,5.21,39.89-40.47c3.75,6.35,11.41,19.31,20.02,33.98l-59.11,35.55L126.51,58.86l17.31-33.88L181.68-13.97h-10.35l-33.6,34.56-16.87,33.03c-4.02-4.17-9.85-11.84-9.71-20.27,0-3.15,.71-6.46,2.62-10.06C124.88,2.29,125.01,1.42,126.79-2.14c1.04-2.21,1.33-4.71,1.37-7.78,0-1.29-.09-2.66-.27-4.05h-7.51c.25,1.35,.37,2.76,.37,4.05,.04,2.24-.46,4.33-.59,4.46-1.93,3.86-1.8,4.22-12.94,25.27-2.45,4.61-3.49,9.24-3.49,13.54,.2,13.28,9.04,22.97,13.61,27.17l-19.51,38.18-55.76-29.35L79.64-13.97h-10.85L-31.44,208.25v24.05l14.5-32.15,41.96,18.14-6.25,25.03-50.21,25.54v27.05L108.35,211.6l10.18-5.18,9.79,15.14-4.07,51.46-27.95-10.16-2.54,6.97,29.88,10.87-1.6,20.25-153.48,3.82v12.37l152.39-3.8-7.49,79.17L-31.44,353.04v7.69l165.35,45.05c-.42,3.38-.82,6.71-1.22,10-.45,3.66-.88,7.26-1.31,10.78-2.33,19.3-4.32,36.28-5.65,48.56-3.22,29.81-10.51,57.82-17,78.3-3.25,10.25-6.28,18.61-8.5,24.39-2.22,5.78-3.58,8.87-3.58,8.88,0,0-4.49,10.12-11.83,26.75l.19-1.49-116.42-14.49v7.48l53.34,6.64-2.24,62.67-51.1-11.69v7.61l82.92,18.97c-6.6,15.06-13.54,30.92-20.53,46.95l-38.09-19.3-3.36,6.62,38.47,19.5c-3.65,8.38-7.3,16.78-10.92,25.12l-48.5-21.09v8.09l16.59,7.21-10.39,25.71,6.87,2.78,10.32-25.53,22.16,9.63c-4.24,9.79-8.4,19.44-12.44,28.83H17.82c.35-.81,.7-1.62,1.05-2.43l4.12,2.43h14.59l-15.74-9.29c10.71-24.82,22.08-50.93,32.97-75.83,5.26-12.03,10.4-23.76,15.31-34.94l53.63,12.25-10.01,96.25-57.75-29.9-2.27,4.39h0l59.6,30.86-.21,6.21h4.95l.13-3.69,7.12,3.69h10.76l-17.6-9.12,4.58-44.02,80.65,39.21-4.9,13.93h5.23l4.13-11.75,24.18,11.75h11.31l-33.83-16.45,19.57-55.62,60.76,22.27-22.22,49.8h5.42l8.49-19.03,3.68,1.85,34.15,17.18h11l-43.06-21.66-3.75-1.89,10.99-24.64,63.5,20.1-12.3,28.09h8.1l11.31-25.84,14.59,4.62c-1.54,6.49-3.75,13.68-6.4,21.22h7.85c2.27-6.65,4.2-13.04,5.63-18.98l5.32,1.68v-5.18l-25-7.91,9.19-21,15.81,5.56v-5.24l-13.82-4.86,11.33-25.87,2.49,.92v-29.17l-5.9,16.47-27.45-10.08,33.35-100.86v-23.62l-40.32,121.92-9.86-3.62,23.54-67.48-7.01-2.44-23.5,67.36-9.24-3.39,5.54-155.54,60.84,22.95v-5.28l-60.66-22.88v-.29l6.05-56.42,.13-1.21-4.91-.53-.05,.5-6.02,56.13-61.08-23.04,8.15-41.52-4.85-.95h0l-9.69,49.38-46.68-15.06-.91-.13,6.93-41.55-4.88-.81-6.95,41.68-17.14-2.41,.12-.57,5.78-44.57-4.9-.64-5.76,44.43-.14,.65-23.93-3.36,7.51-43.45-4.87-.84-18.98,109.76-3.29,71.64-1.29,5.09-40.54-12.31c6.62-14.99,10.62-24,10.63-24.03,.16-.43,23.49-53.61,30.26-115.95,1.3-11.98,3.24-28.55,5.52-47.42,.42-3.51,.86-7.09,1.3-10.74,.39-3.24,.8-6.52,1.2-9.85,19.05,3.41,58.77,10.3,95.64,15.25,50.23,6.71,122.07,25.92,146.89,35.63,.47,.18,.94,.36,1.41,.54v-7.94c-23.21-8.8-78.65-23.89-125.78-32.21l10.24-49.9-26-3.03,9.82-32.82-.57-24.35,22.19-.55-7.98,47.9,7.32,1.22,8.22-49.31,38.87-.97-28.35,101.84,7.15,1.99,28.96-104.02,27.68-.69-21.78,68.2h-.05l-13.7,43.04-.39,1.22h0l7.06,2.26,11.91-37.3,45.2,13.76v-7.75l-20.2-6.15-22.74-6.92,.15-.47,2.91-9.11,19.47-60.98,20.41-.51v-12.37l-5.47,.14,.45-14.32,1.54-4.23,3.49,.65v-7.55l-.92-.17,.92-2.52v-6.82l-4.78-1.74h0l-7.62,20.96-.49,15.91-20.55,.51-21.2-25,40.31-90.89,14.34,6.35v-8.11l-11.34-5.02,11.34-25.56v-18.3l-13.33,30.05-5.52-1.06,15.37-33.65-6.75-3.08-15.78,34.57-26.54-15.81-3.8,6.37,27.24,16.23-15.41,33.76c-12.64-7.69-29.54-19.79-35.73-31.45-4.01-7.39-12.13-21.51-21.11-36.94l75.09-43.22,26.28,26.93v-17.7l-30.25-30.99,16.41-9.87,13.84,14.11v-17.66l-2.89-2.94,2.89-1.7v-14.34l-11.83,6.96-46.47-46.82ZM54.51,682.2l-28.55-6.53,1.07,.04,2.26-63.23,53.01,6.6c-7.38,16.7-17.06,38.68-27.79,63.12Zm171.86,43.01l-23.14-8.48-1.7,4.64,23.19,8.5-19.4,55.15-47.92-23.29,9.29-19.36-4.46-2.14-9.28,19.33-29.39-14.29,4.95-47.55,15.59,7.49-1.77,8.83c-.49,.9-1.42,2.94-1.42,5.78-.05,4.06,2.14,9.44,9.14,14.11,6.67,4.5,17.67,8.71,36,11.83l-7.48,26.19,4.75,1.36,8.22-28.77,15.64-38.15,4.9-11.95-.15-.06,22.5,7.91-4.23,12.01-3.84,10.92Zm-80.51-5.38c0-1.12,.25-2.05,.49-2.68,.12-.31,.24-.56,.31-.71,.08-.14,.09-.14,.08-.14l.28-.42,3.31-16.57c1.65-2.88,3.41-5.24,5.25-7.2,6.26-6.67,13.45-8.53,20.16-8.59,5.1,0,9.86,1.18,13.32,2.38,3.47,1.19,5.51,2.35,5.52,2.34l.17,.09,12.65,4.45-14.84,36.2-4.93,12.04c-18.4-3.05-29.01-7.23-34.83-11.18-6.01-4.14-6.92-7.63-6.96-10.02Zm146.33,29.51l-61.18-22.43,3.88-11.02,4.21-11.97,53.5,18.8,10.41,3.66-10.81,22.96Zm-98.61-108.11l8.67-44.16,37.27,18.45-16.72,36.24-.95,2.05-29.01-8.81,.74-3.77Zm-4.71-1.7l-.79,4.03-24.14-7.33,1.71-5.06,15.12-44.72,16.88,8.35-8.78,44.73Zm93.45-9.68l10.33-28.94,30.64,14.87,.4-.82-1.19,33.38-40.18-18.48Zm39.99,23.84l-1.08,30.29-57.3-17.39-13.72-4.16,.2-.71,10.38-36.32,61.51,28.3Zm-44.51-25.92l-15.55-7.15,9.89-29.67,16.04,7.78-10.37,29.04Zm-20.07-9.23l-12.2-5.61,5.62-32.16,16.49,8-9.92,29.76Zm-16.83-7.84l-37.67-18.65,6.11-31.12,2.06,.55,35.14,17.05-5.63,32.17Zm-13.43,42.75l16.51-35.79,12.27,5.65-10.5,36.74-.27,.95-18.86-5.73,.84-1.82Zm20.86,16.16l60.75,18.44,10.48,3.18-14.44,30.66-10.39-3.65-54.12-19.02,7.72-29.61Zm111.99,101.4l-63.41-20.07,10.78-22.9,61.91,21.76-9.29,21.21Zm22.64-51.72l-11.37,25.97-61.79-21.71,12.49-26.53,60.66,22.28Zm-118.03-212.13l61.78,23.3-2.85,80.09-29.39-14.26,18.97-41.89-4.5-2.04h0l-18.91,41.77-16.1-7.81,19.73-42.61-4.48-2.08h0l-19.69,42.53-17.42-8.45,4.69-26.84,8.19-41.71Zm-53.83-8.31l.63,.09,46.81,15.1-4.94,25.15-48.36-5.29,5.85-35.06Zm-50.9-7.16l23.72,3.34-7.85,36.41,4.83,1.04,7.93-36.76,17.37,2.44-6.68,40.09,53.14,5.81-.77,3.9-4.46,25.5-34.28-16.64-61.38-16.36,8.43-48.77Zm-10.58,61.15l1.29-7.49,53.64,14.3-5.91,30.12-38.84-19.22-12.57,34.41,2.4-52.12Zm-3.3,71.79l.34-7.36,1.18,.43,14.72-40.27,13.74,6.8-15.31,45.25-1.79,5.31-12.28-3.73-2.06-.63,1.47-5.81Zm-3.29,13.01l1.63,.5,98.94,30.04-7.67,29.4-39.18-13.77c-1.53-.8-10.27-5.19-21.01-5.21-7.04-.05-15.04,2.06-21.94,8.34-2.91,2.65-5.63,6.02-7.99,10.32l-.18,.33-.03,.13-15.85-7.61,2.61-10.32,3.72-14.69,6.94-27.46Zm-4.73-1.44l-13.24,52.33-51.91-11.86c7.65-17.41,14.62-33.23,20.41-46.34,1.05-2.37,2.04-4.62,3-6.8l41.74,12.67ZM254.12,64.61l46.42-47.35,41.87,42.73-67.2,40.41c-9.55-16.26-17.91-30.42-21.09-35.79Zm-41.82,88.05l45.09,44.56-33.14,101.19-39.18,.98,3.52-42.28-19.95-7.76c.83-6.39,1.35-10.4,1.46-11.31,.19-1.04,.73-4.47,.73-9.32-.01-6.95-1.1-16.94-6.53-26.75-1.62-2.92-4.77-8.34-8.78-15.16l56.77-34.14Zm-31.56,109.34l-3.13,37.56-15.46,.39c2.19-17.14,4.11-32.1,5.52-43.03l13.08,5.09ZM122.98,65.77l80.2,77.94-53.94,32.43c-17.46-29.52-42.73-71.62-42.75-71.67l-1.07-1.78-1.03-.54,18.59-36.39ZM-13.88,193.39L35.95,82.91l44.42,23.38L28.04,211.5l-41.92-18.12Zm41.42,45.47l4.39-17.58,16.31,7.05-20.7,10.53Zm74.86-38.09l-45.56,23.18-21.96-9.49,52.07-104.71,7.9,4.16c3.27,5.46,13.62,22.72,24.68,41.27,5.21,8.73,10.58,17.76,15.44,25.96l-32.56,19.64Zm32.43,197.58l-14.09-3.84,7.69-81.34,17.14-.43c-3.41,26.84-7.25,57.33-10.74,85.61Zm12.32-98.02l-17.65,.44,6.42-81.12-10.74-16.6,17.47-8.89c4.02,6.84,7.15,12.23,8.69,15,3.73,6.67,4.67,14.19,4.66,19.55,0,2.13-.14,3.9-.27,5.09-.07,.6-.14,1.05-.18,1.33-.04,.28-.06,.3-.05,.3l-.05,.26-.03,.24s-3.55,27.41-8.27,64.39Zm2.26,101c2.69-21.82,5.6-45.02,8.36-66.87,.96-7.57,1.9-14.97,2.8-22.1l16.01-.4-7.73,92.78c-7.72-1.33-14.35-2.5-19.45-3.41Zm94.01-35.15l-.22-.03-11.34,38.69-.05,.15h0v.02l7.1,2.11v-.02l.03-.09,9.79-32.75,19.26,2.24-8.66,42.22c-4.87-.8-9.63-1.52-14.22-2.14-23.89-3.2-49.05-7.24-68.94-10.6l7.85-94.22,55.58-1.39-2.34,20.11-9.18,31.24,7.12,2.1,9.36-31.84,2.53-21.79,5.02-.13,.61,.12,.53,23.02-9.86,32.96Zm106.05-70.9l-117.34,2.92,31.16-95.16,49.1,48.53,37.08,43.71Zm20.95-130.83l5.61,1.08-16.41,36.98c-.85-.45-1.82-.97-2.93-1.57-.73-.39-1.52-.82-2.35-1.29l16.07-35.2Zm-19.16,41.96c2.12,1.19,3.93,2.16,5.35,2.9l-24.15,54.46-4.8-5.66,23.6-51.69Zm-45.59-38.44c6.54,11.91,20.02,22.31,31.9,30.16,2.51,1.65,4.95,3.16,7.24,4.54l-22.46,49.18-4.53-5.34-39.67-39.2,17.23-16.15-5.07-5.41-17.44,16.34-12.52-12.37,23.99-23.99-5.25-5.25-24.02,24.02-36.22-35.79,56.25-33.83c1.93,3.29,3.87,6.61,5.79,9.9l-20.19,11.62,3.7,6.43,20.23-11.64c8.98,15.42,17.08,29.51,21.03,36.77Zm-18.34-46.89c-1.95-3.33-3.91-6.69-5.86-10.02l69.83-42,9.5,9.73-73.47,42.29Z"/><polygon class="o" points="40.79 -13.97 10.97 50.85 -31.44 27.84 -31.44 50.35 2.68 68.86 -31.44 143.02 -31.44 166.68 51.67 -13.97 40.79 -13.97"/></g></g></g><g id="d"/><g id="e"><g class="ad"><g><path class="y" d="M230.65,262.04s-21.02,14.54-33.37,18.93c-2.43,.87-20.47,8.68-20.47,8.68,0,0,2.95,19.66,21.56,17.26,5.6-.73,41.82-8.04,46.18-14.87,4.35-6.84-13.89-30-13.89-30Z"/><path class="t" d="M190.57,312.46c.72,.87,1.63,1.55,2.68,1.98,1.53,.62,3.72,1.21,4.97,.19,1.4-1.15,1.18-3.45,.8-5.04-.23-.99-.69-1.92-1.33-2.71L62.8,137.25c-2.44-3.07-6.93-3.54-9.96-1.04h0c-3,2.47-3.41,6.91-.92,9.9l138.65,166.36Z"/><path class="aa" d="M135.98,229.61s-1.8,2.75-3.93,4.44c-2.27,1.79-5,2.54-5,2.54l-15.73-17.74,8.66-9.08,16,19.84Z"/><path class="y" d="M173.56,290.74s-5.13,6.51-2.7,11.6c2.44,5.1,16.6,9.96,14.79,3.39-1.82-6.57-12.09-14.99-12.09-14.99Z"/><path class="y" d="M320.8,325.29s15.85-9.35,25.21-34.47c9.37-25.12,32.4-30.07,57.49-29.04,0,0-12.37,4.69-14.98,15.65-3.17,13.32,4.96,47.66-20.71,57.37-29.3,11.12-47.02-9.51-47.02-9.51Z"/><path class="y" d="M362.11,270.07c-3.65,2.36-6.87,5.31-9.53,8.75,22.25,8.67,26.76,43.3,20.73,53.22,8.1-5.25,11.52-13.74,13.01-22.71-2.67-27-18.96-36.79-24.21-39.26Z"/><path class="y" d="M343.78,296.27c-1.47,3.28-3.14,6.46-5.02,9.52,10.47,13.12,6,28.47,4.88,31.7,3.09,.54,6.24,.73,9.38,.56,9.12-21.16-6.82-39-9.25-41.77Z"/><path class="a`" d="M338.76,305.78c-.88,1.43-1.77,2.78-2.65,4.04-.8,1.42-5.05,7.6-6.3,9.08l5.96,16.38c2.55,.99,5.19,1.73,7.88,2.2,1.11-3.24,5.59-18.59-4.88-31.7Z"/><path class="a`" d="M352.58,278.82c-2.79,3.64-5.01,7.69-6.57,12-.71,1.9-1.45,3.72-2.23,5.45,2.43,2.78,18.37,20.62,9.24,41.76,5.07-.3,10.06-1.38,14.79-3.22,1.93-.72,3.77-1.65,5.5-2.76,6.02-9.94,1.51-44.58-20.73-53.24Z"/><path class="y" d="M293.43,251.91s-22.94,6.3-30.72,7.46-31.47,1.79-31.47,1.79c0,0-18.4,25.94-18.73,71.04-.01,1.58,.08,3.16,.29,4.73l4.52,34.48c.51,3.89,3.91,6.64,7.59,6.1l30.21-4.49c1.62-.25,3.09-1.1,4.12-2.38,1.03-1.28,1.55-2.89,1.46-4.53-.94-14.74,15.51-16.46,15.51-16.46,0,0,16.21-3.13,19.63,11.24,.39,1.6,1.35,2.99,2.71,3.91,1.36,.92,3.01,1.31,4.64,1.08l30.21-4.49c3.66-.54,6.13-4.17,5.49-8.04l-6.08-36.49c28.41-37.87-39.31-64.95-39.31-64.95"/><path class="n" d="M290.37,293.22l-40.27,54.33,.62,.46,40.27-54.33-.62-.46Z"/><path class="o" d="M289.73,273.22c-1.4-.1-2.79,.22-4.01,.91-1.22,.69-2.21,1.72-2.84,2.97-.63,1.25-.89,2.65-.73,4.05,.16,1.39,.73,2.7,1.63,3.78l-29.99,40.46,2.92,2.16,30.03-40.51c.65,.24,1.33,.39,2.02,.44,.94,.06,1.87-.06,2.76-.36,.89-.3,1.71-.77,2.41-1.39,.71-.62,1.28-1.37,1.7-2.21,.42-.84,.66-1.75,.73-2.69,.06-.94-.06-1.87-.36-2.76-.3-.89-.77-1.71-1.39-2.42-.62-.71-1.37-1.28-2.21-1.7-.84-.42-1.75-.66-2.69-.73h0Zm3.02,7.36c-.05,.69-.3,1.36-.72,1.91-.42,.55-1,.96-1.66,1.18-.66,.22-1.37,.24-2.04,.06-.67-.18-1.27-.56-1.73-1.08-.46-.52-.75-1.17-.84-1.86-.09-.69,.03-1.39,.34-2.01,.31-.62,.79-1.14,1.39-1.48,.6-.35,1.29-.5,1.98-.46,.46,.03,.91,.15,1.32,.36,.41,.2,.78,.49,1.08,.83,.3,.35,.54,.75,.68,1.19,.15,.44,.21,.9,.18,1.36h0Z"/><path class="o" d="M264.69,288.17c-13.74,2.04-20.66,13.51-18.77,26.23,.96,6.44,4.2,11.97,9.07,15.46l5.05-6.82c-2.66-2.22-4.48-5.67-5.12-9.98-1.28-8.63,2.86-15.82,10.93-17.02,8.07-1.2,14.12,4.47,15.4,13.1s-2.88,15.3-11.01,16.51c-1.32,.2-2.67,.22-4,.05l-5.25,7.08c3.38,1,6.94,1.23,10.42,.67,13.74-2.04,20.72-13.52,18.92-25.67-1.89-12.72-11.91-21.66-25.65-19.62Z"/><path class="n" d="M260.05,323.04l-5.05,6.82c.99,.71,2.05,1.33,3.16,1.84l5.03-6.79c-1.14-.46-2.19-1.09-3.14-1.87h0Z"/><path class="x" d="M294.85,261.81c14.94,15.47,31.12,34.27,37.9,55.05,.11-.15,.35-.47,.58-.8,.23-.33,.54-.78,.54-.78-6.6-20.22-24.63-39.85-39.03-53.47Z"/><g><g><path class="w" d="M232.34,128.51c-58.43,8.17-58.27,87.61-116.37,96.17-21.08-25.41-42.15-50.82-63.22-76.23,58.44-8.16,58.28-87.6,116.37-96.17,21.08,25.41,42.15,50.82,63.22,76.23Z"/><path class="m" d="M194.54,82.92c-32.67,4.69-46.92,31.77-63.48,56.06-8.44-10.17-16.87-20.35-25.31-30.52-3.8,5.58-7.72,11.02-12.01,16.01,8.44,10.18,16.88,20.36,25.32,30.54-10.33,12.05-22.78,21.52-40.9,24.08,4.34,5.23,8.67,10.46,13.01,15.69,18.11-2.59,30.54-12.08,40.86-24.13,8.24,9.94,16.48,19.87,24.72,29.81,4.27-5.01,8.18-10.46,11.98-16.05-8.24-9.93-16.47-19.87-24.71-29.8,16.55-24.3,30.83-51.36,63.53-56-4.34-5.23-8.67-10.46-13.01-15.69Z"/></g><g class="ab"><path class="i" d="M232.34,128.51c-58.43,8.17-58.27,87.61-116.37,96.17-21.08-25.41-42.15-50.82-63.22-76.23,58.44-8.16,58.28-87.6,116.37-96.17,21.08,25.41,42.15,50.82,63.22,76.23Z"/></g></g><path class="a`" d="M328.17,205.54c39.77-51.51,22.96-69.94,22.96-69.94-27.59-9.83-58.74,15.17-58.74,15.17,0,0,26.98,18.08,35.78,54.77Z"/><path class="n" d="M328.17,205.54c39.77-51.51,22.96-69.94,22.96-69.94-8.95-1.5-23.75,6.5-30.62,10.83-4.73,2.98-18.37,12.75-18.37,12.75,8.66,8.69,20.7,24.1,26.02,46.36Z"/><path class="a`" d="M186.18,199c-34.87-54.95-16.43-71.76-16.43-71.76,28.38-7.25,57.09,20.51,57.09,20.51,0,0-28.52,15.52-40.66,51.25Z"/><path class="n" d="M186.18,199c-34.87-54.95-16.43-71.76-16.43-71.76,9.04-.67,23.04,8.65,29.49,13.59,4.43,3.4,17.1,14.39,17.1,14.39-9.39,7.85-22.79,22.1-30.15,43.77Z"/><path class="y" d="M328.17,205.54c-14.01-65.52-68.08-64.79-68.08-64.79,0,0-53.77-5.73-73.74,58.22-.29,.91-.08,1.65-.05,2.92l69.61,21.9v.15l.35,.02,71.69-15.49c.15-1.28,.42-1.99,.22-2.93Z"/><path class="s" d="M354.23,243.06c-3.11-1.04-11.75-5.25-9.59-7.24,3.16-2.89,6.59-6.19,6.59-6.19-6.07-1.02-23.45-17.41-23.28-21.17-8.82-14.58-44.91-45.35-65.94,13.14,0,0-3.42-1.4-5.67-1.56-2.26-.05-5.78,1.03-5.78,1.03-15.56-60.17-54.31-32.85-64.46-19.14-.17,3.76-18.99,18.48-25.13,18.94,0,0,3.1,3.6,5.99,6.77,2,2.18-7.02,5.59-10.22,6.33,0,0,13.35,29.79,97.28,36.21,84.2,1.32,100.21-27.12,100.21-27.12Z"/><path class="a`" d="M243.64,227.68c-8.02-56.46-45.65-36.14-53.04-22.13-4.95,9.39-3.95,13.98-13.57,21.55-4.4,3.46-6.78,13.86,10.74,19.65,15.34,5.06,30.83,7.48,43.4-1.53,4.92-3.52,13.2-12.44,12.47-17.55Z"/><path class="x" d="M215.5,234.94c7.78,.36,14.38-5.66,14.74-13.44,.36-7.78-5.66-14.38-13.44-14.74-7.78-.36-14.38,5.66-14.74,13.44-.36,7.78,5.66,14.38,13.44,14.74Z"/><path class="o" d="M220.56,220.38c2.8,.13,5.18-2.04,5.31-4.84,.13-2.8-2.04-5.18-4.84-5.31-2.8-.13-5.18,2.04-5.31,4.84-.13,2.8,2.04,5.18,4.84,5.31Z"/><path class="o" d="M210.98,222.42c1.24,.06,2.3-.91,2.36-2.15,.06-1.24-.9-2.3-2.15-2.36-1.24-.06-2.3,.91-2.36,2.15-.06,1.24,.9,2.3,2.15,2.36Z"/><path class="a`" d="M268.31,228.82c13.17-55.48,48.78-31.79,54.85-17.16,4.07,9.81,2.65,14.29,11.53,22.7,4.07,3.85,5.48,14.43-12.5,18.58-15.74,3.63-31.38,4.61-43.07-5.51-4.57-3.96-12-13.6-10.81-18.62Z"/><path class="x" d="M295.67,238.63c7.78,.36,14.38-5.66,14.74-13.44,.36-7.78-5.66-14.38-13.44-14.74-7.78-.36-14.38,5.66-14.74,13.44-.36,7.78,5.66,14.38,13.44,14.74Z"/><path class="o" d="M291.97,223.67c2.8,.13,5.18-2.04,5.3-4.84,.13-2.8-2.04-5.18-4.84-5.31-2.8-.13-5.18,2.04-5.3,4.84-.13,2.8,2.04,5.18,4.84,5.31Z"/><path class="o" d="M301.31,226.58c1.24,.06,2.3-.91,2.36-2.15,.06-1.25-.91-2.3-2.15-2.36-1.25-.06-2.3,.91-2.36,2.15-.06,1.24,.91,2.3,2.15,2.36Z"/><path class="x" d="M265.2,248.96c-.24-.01-.47,.07-.64,.23-.18,.16-.28,.38-.29,.62-.04,1.11-.51,2.17-1.32,2.93-.81,.76-1.89,1.17-3.01,1.14-1.11-.04-2.17-.51-2.93-1.32-.76-.81-1.17-1.89-1.14-3.01l.34-7.39,4.88-5.32c.06-.13,.1-.27,.09-.41,0-.14-.05-.28-.13-.4-.08-.12-.19-.21-.32-.28-.13-.06-.27-.09-.41-.08l-9.37-.43c-.14-.02-.28,0-.41,.05-.13,.05-.25,.14-.33,.25-.09,.11-.14,.24-.16,.38-.02,.14,0,.28,.05,.41l4.37,5.74-.34,7.48c-.12,1.08-.65,2.07-1.48,2.77-.83,.7-1.91,1.04-2.99,.96-1.08-.08-2.1-.58-2.82-1.39-.73-.81-1.11-1.87-1.07-2.96,0-.23-.1-.44-.25-.61-.16-.16-.37-.26-.6-.27-.23-.01-.45,.07-.62,.21-.17,.15-.28,.35-.31,.58-.06,1.3,.3,2.58,1.03,3.65,.73,1.07,1.79,1.88,3.02,2.29,1.23,.42,2.56,.42,3.8,.01,1.23-.41,2.3-1.21,3.04-2.27,.64,1.13,1.63,2.03,2.82,2.55,1.19,.52,2.52,.64,3.78,.34,1.26-.3,2.39-1.01,3.22-2.01,.83-1,1.3-2.25,1.36-3.54,0-.23-.08-.46-.23-.63-.16-.17-.37-.28-.61-.29h0Z"/><path class="x" d="M263.29,201.48s-4.01-.86-6.04-.96c-2.02-.09-6.1,.4-6.1,.4-41.93-17.35-78.94-8.82-82.47-7.93-.08,.02-.15,.07-.2,.13-.05,.06-.08,.14-.09,.23l-.56,12.19c0,.09,.03,.19,.09,.26,.06,.07,.14,.12,.24,.14,6.34,1.08,5.5,5.28,5.5,5.28-.28,6.07,2.27,16.65,2.27,16.65,0,0,4.69,22.85,24.84,25.47,0,0,27.14,4.97,40.16-13.69,6.64-9.52,10.16-22.51,11.61-24.81,1.45-2.3,4.16-2.17,4.16-2.17,0,0,2.7,.12,3.94,2.55,1.24,2.42,3.55,15.67,9.29,25.77,11.25,19.78,38.72,17.33,38.72,17.33,20.3-.76,27.08-23.08,27.08-23.08,0,0,3.52-10.31,3.8-16.37,0,0-.46-4.26,5.95-4.75,.09,0,.18-.05,.25-.11,.07-.07,.11-.16,.11-.25l.56-12.2c0-.08-.02-.16-.06-.23-.05-.07-.11-.12-.19-.15-3.44-1.2-39.51-13.1-82.85,.32Zm-33.03,42.4c-13.56,8.5-28.35,6.46-35.63,3.43-8.39-3.5-17.85-16.03-13.63-41.51,0,0,2.15-10.04,24.38-8.67,22.24,1.36,35.47,4.59,38.59,12.94,1.81,4.8-1.18,25.96-13.72,33.81h0Zm85.06,8.99c-7.55,2.35-22.44,3.02-35.17-6.69-11.76-8.97-12.79-30.32-10.55-34.95,3.88-8.02,17.35-10.01,39.62-9.34s23.48,10.88,23.48,10.88c1.85,25.78-8.71,37.39-17.39,40.1h0Z"/></g></g><g><path class="n" d="M101.41,232.44c0,9.12-16.2,33.19-16.2,33.19,0,0-16.2-24.07-16.2-33.19,0-9.12,7.25-16.52,16.2-16.52,8.95,0,16.2,7.4,16.2,16.52Z"/><path class="o" d="M92.83,231.71c0,4.29-3.41,7.76-7.61,7.76-4.21,0-7.61-3.48-7.61-7.76,0-4.29,3.41-7.76,7.61-7.76,4.21,0,7.61,3.48,7.61,7.76Z"/></g></g></g></svg>