<svg width="288" height="288" viewBox="0 0 288 288" fill="none" xmlns="http://www.w3.org/2000/svg">
<path fill-rule="evenodd" clip-rule="evenodd" d="M75.7427 182.412H211.787V46H75.7427V182.412ZM177.294 142.398C177.117 142.466 176.598 142.528 176.071 142.59C174.981 142.719 173.857 142.853 175.65 143.057C176.505 143.153 176.219 143.235 175.736 143.373C175.276 143.505 174.637 143.688 174.642 143.982C174.971 143.973 175.402 144.35 175.741 144.647C175.967 144.846 176.153 145.008 176.24 144.995C176.255 145.073 175.857 145.221 175.491 145.357C175.11 145.499 174.762 145.628 174.944 145.654C175.704 145.762 175.314 145.839 174.808 145.94C174.362 146.029 173.827 146.136 173.909 146.296C174.127 146.729 174.105 146.905 174.093 147.006C174.077 147.133 174.076 147.14 174.594 147.39C175.091 147.631 174.944 148.507 174.618 148.581C174.419 148.626 174.285 148.7 174.159 148.769C174.015 148.848 173.882 148.922 173.674 148.941C173.621 149.296 173.299 149.461 172.873 149.522L172.821 149.541L172.821 149.541C171.911 149.881 170.896 150.261 169.917 150.361C169.764 150.377 169.649 150.392 169.554 150.405C169.248 150.447 169.149 150.46 168.66 150.367C167.974 150.456 166.928 150.513 166.243 150.448C165.677 150.586 157.208 151.083 156.499 150.987C155.936 151.108 152.546 151.224 151.852 151.125C151.148 151.259 145.27 151.418 144.661 151.347C143.947 151.472 142.847 151.522 142.128 151.426C141.416 151.565 140.311 151.591 139.59 151.508C138.891 151.641 123.353 151.268 122.595 151.151C121.862 151.243 118.228 151.121 117.507 150.996C116.903 151.086 115.995 151.025 115.389 150.931C114.686 151.032 113.589 150.976 112.904 150.785C112.812 150.759 112.727 150.742 112.649 150.727C112.394 150.677 112.213 150.641 112.084 150.341C112.042 150.242 112.015 150.155 111.992 150.078L111.992 150.078C111.94 149.901 111.902 149.776 111.722 149.68C111.416 149.517 111.398 148.822 111.599 148.561C111.425 148.191 111.466 147.657 111.509 147.09C111.549 146.558 111.592 145.998 111.462 145.519C111.355 145.129 111.457 145.011 111.621 144.82C111.705 144.723 111.806 144.607 111.903 144.425C111.566 144.447 111.494 143.845 111.533 143.734C111.621 143.48 111.621 143.28 111.621 143.095C111.621 142.826 111.62 142.591 111.897 142.277C111.991 142.171 112.039 142.07 112.08 141.985C112.162 141.814 112.217 141.699 112.549 141.699C112.911 141.699 113.348 141.701 113.704 141.759C114.477 141.698 115.483 141.736 116.25 141.855C117.822 141.747 124.898 142.007 126.426 142.25C127.887 142.148 129.634 142.25 131.09 142.426C131.906 142.384 139.439 142.309 146.659 142.238L146.662 142.238L146.664 142.238L146.666 142.238L146.67 142.238L146.672 142.238L146.676 142.238L146.678 142.238C153.289 142.172 159.632 142.109 160.312 142.077C160.753 142.055 161.21 142.021 161.674 141.987C162.855 141.899 164.079 141.808 165.195 141.918C166.314 141.732 167.749 141.844 168.851 142.059C169.318 142.042 169.671 141.955 170.012 141.871C170.414 141.772 170.8 141.677 171.337 141.706C171.381 141.634 172.137 141.777 172.644 141.872C172.863 141.914 173.036 141.946 173.085 141.949C173.196 141.757 174.097 141.853 174.614 141.908L174.615 141.908C174.741 141.922 174.845 141.933 174.908 141.936C175.259 141.961 177.617 142.272 177.294 142.398ZM178.419 131.193C178.259 131.033 178.15 130.852 178.087 130.641C178.465 130.948 181.366 133.18 181.591 132.98C181.351 132.804 180.368 131.916 179.164 130.828L179.163 130.828C177.438 129.268 175.259 127.298 174.159 126.428C171.089 124 168.024 121.552 165.147 118.938C161.174 115.328 157.041 111.834 152.891 108.327L152.891 108.327C151.403 107.069 149.914 105.81 148.429 104.544L148.44 104.537C148.738 104.36 149.071 104.163 149.233 103.982C149.444 103.744 149.71 103.663 149.987 103.579C150.2 103.514 150.419 103.448 150.624 103.306C150.631 103.301 150.65 103.291 150.677 103.277L150.737 103.246L150.738 103.246L150.738 103.246C151.002 103.112 151.601 102.809 151.389 102.694C151.639 102.59 151.819 102.408 151.995 102.23C152.231 101.992 152.459 101.761 152.841 101.738L152.824 101.758C152.931 101.674 153.03 101.582 153.129 101.491C153.213 101.413 153.297 101.335 153.386 101.262C154.319 100.502 155.286 99.7885 156.287 99.1193C156.494 98.9822 156.69 98.8297 156.886 98.6773C157.263 98.3843 157.64 98.0915 158.09 97.9077L158.086 97.9163C158.31 97.6109 158.625 97.4441 158.94 97.2776C159.1 97.1932 159.259 97.1089 159.406 97.0067C159.789 96.7353 160.162 96.4528 160.534 96.1707L160.534 96.1706C160.958 95.8499 161.381 95.5299 161.815 95.2276C161.866 95.1922 161.917 95.1564 161.969 95.1204L162.064 95.0536C162.483 94.7599 162.913 94.4579 163.388 94.2289C163.647 94.1078 163.886 93.9364 164.126 93.764C164.33 93.6174 164.535 93.4701 164.755 93.3522C165.057 93.1924 165.318 92.968 165.578 92.7437C165.97 92.4066 166.361 92.0697 166.892 91.9527C167.047 91.9183 167.16 91.8167 167.273 91.7145L167.296 91.6942L167.32 91.6725C167.505 91.5052 167.707 91.3621 167.91 91.2188L167.91 91.2188C168.065 91.1094 168.22 90.9999 168.367 90.8796C168.814 90.5179 169.311 90.2317 169.809 89.9452C170.337 89.6409 170.866 89.3363 171.336 88.9408C171.452 88.8409 171.588 88.8051 171.721 88.7701C171.861 88.7332 171.997 88.6973 172.104 88.5886C172.617 88.0681 173.235 87.7075 173.853 87.3465C174.213 87.1364 174.573 86.9262 174.913 86.6842C175.118 86.5397 175.334 86.4138 175.55 86.288C175.962 86.0484 176.373 85.8092 176.699 85.4428C175.979 85.8145 175.296 86.2497 174.613 86.6846C173.822 87.1877 173.033 87.6905 172.188 88.0939C172.308 87.8474 172.499 87.7041 172.713 87.5617C173.228 87.2188 173.735 86.8603 174.217 86.4666C174.724 86.0565 175.229 85.6385 175.684 85.1524C175.748 85.0789 175.835 85.0332 175.922 84.9871C176.029 84.9307 176.137 84.8737 176.207 84.7642C175.768 84.5823 175.746 84.5954 175.37 84.8255C175.334 84.8479 175.294 84.8723 175.25 84.8988C174.317 85.4538 172.059 86.858 171.438 87.2932C171.217 87.4472 170.981 87.5614 170.743 87.6758C170.442 87.8212 170.139 87.967 169.868 88.1957C169.099 88.8461 168.202 89.3345 167.291 89.7736L167.264 89.7869C167.132 89.8497 167.039 89.8945 166.949 89.7173C166.865 89.5558 166.968 89.5152 167.055 89.4811C167.078 89.4719 167.1 89.4632 167.117 89.4527C167.733 89.0449 168.355 88.6395 168.987 88.2606C169.203 88.1299 170.908 87.0928 171.53 86.6975C172.038 86.3733 172.526 86.0174 173.014 85.6614C173.923 84.9988 174.833 84.3355 175.87 83.8743C175.889 83.8656 175.913 83.8584 175.939 83.8506C176.042 83.8194 176.176 83.7791 176.148 83.6058C176.127 83.4654 176.05 83.5065 175.974 83.5478C175.903 83.5859 175.831 83.6242 175.803 83.5197C175.838 83.4909 175.873 83.4621 175.907 83.4332C175.955 83.3933 176.003 83.3534 176.051 83.3136L176.051 83.3132L176.051 83.313C176.286 83.1165 176.518 82.9224 176.76 82.7432C176.824 82.6971 176.888 82.6488 176.951 82.6005C177.212 82.402 177.475 82.2018 177.809 82.1382C177.895 82.1194 177.897 82.056 177.872 81.9903C177.841 81.9112 177.787 81.9159 177.723 81.9496C177.695 81.9632 177.667 81.9771 177.64 81.9911L177.576 82.0231C177.427 82.0986 177.278 82.1746 177.125 82.2329C177.094 82.2451 177.062 82.2612 177.029 82.2776C176.878 82.3528 176.717 82.4328 176.61 82.1578C176.526 81.9422 176.656 81.8897 176.774 81.8417C176.815 81.8248 176.855 81.8085 176.884 81.786C177.132 81.5929 177.392 81.4156 177.65 81.2396L177.65 81.2395L177.651 81.2394L177.651 81.2393L177.651 81.2389L177.651 81.2388L177.651 81.2387L177.652 81.2386L177.652 81.2385L177.652 81.2382L177.652 81.2381L177.653 81.2377C177.709 81.1996 177.765 81.1616 177.82 81.1234C177.864 81.0934 177.908 81.0632 177.951 81.033C177.754 81.0757 177.565 81.1539 177.381 81.2303C177.133 81.333 176.894 81.4323 176.652 81.4377C176.167 81.447 175.734 81.5902 175.301 81.7334C175.156 81.7813 175.012 81.8292 174.865 81.8721C174.721 81.9164 174.596 81.9943 174.468 82.0736C174.296 82.1804 174.12 82.2899 173.887 82.3245C174.027 82.1259 174.204 81.9735 174.378 81.8243C174.635 81.6036 174.883 81.3897 174.991 81.0432C174.972 81.0432 174.953 81.0412 174.933 81.0392C174.889 81.0348 174.846 81.0304 174.813 81.0471L174.483 81.2252C173.926 81.5249 173.369 81.8241 172.819 82.1398C172.599 82.2681 172.369 82.3253 172.244 82.1045C172.152 81.9516 172.297 81.8633 172.421 81.7877C172.454 81.7678 172.485 81.7487 172.51 81.7296C172.738 81.562 172.994 81.4478 173.249 81.334L173.249 81.3339C173.391 81.2703 173.534 81.2067 173.67 81.134C173.941 80.9895 174.19 80.8171 174.439 80.6452C174.613 80.5247 174.787 80.4044 174.968 80.2941C175.351 80.0613 175.732 79.8137 176.112 79.5663C176.283 79.4551 176.453 79.344 176.624 79.2343C175.789 79.4688 175.046 79.894 174.304 80.3181C173.704 80.6613 173.105 81.0038 172.46 81.2443C172.435 81.185 172.463 81.1375 172.489 81.0935C172.521 81.0393 172.551 80.9904 172.473 80.9312C172.121 81.1574 171.759 81.3508 171.318 81.3703C171.413 81.2609 171.533 81.1784 171.653 81.0966C171.868 80.9489 172.079 80.8036 172.131 80.507C172.131 80.499 172.147 80.4949 172.162 80.4912C172.166 80.4902 172.17 80.4892 172.173 80.4882C172.294 80.4239 172.416 80.3614 172.538 80.2988L172.538 80.2987C172.848 80.14 173.159 79.9809 173.445 79.79C173.647 79.6601 173.862 79.5523 174.082 79.4419C174.444 79.2603 174.82 79.0721 175.173 78.7678C174.852 78.7928 174.604 78.9277 174.367 79.0561C174.182 79.1567 174.004 79.2534 173.804 79.2899C173.883 79.2226 173.966 79.1606 174.048 79.0986C174.271 78.9311 174.493 78.7636 174.656 78.4923C174.412 78.5092 174.229 78.621 174.052 78.7286C173.984 78.77 173.917 78.8107 173.848 78.8453C173.817 78.8607 173.834 78.8255 173.864 78.765C173.916 78.6594 174.005 78.4766 173.938 78.3522C173.907 78.2935 173.774 78.3574 173.603 78.44C173.355 78.559 173.027 78.7168 172.807 78.6026C172.932 78.4911 173.061 78.3892 173.189 78.2875L173.189 78.2874C173.454 78.0773 173.718 77.8679 173.951 77.5757C173.446 77.5863 173.04 77.8032 172.665 78.0034C172.568 78.0556 172.472 78.1066 172.378 78.1526C171.006 78.8197 169.678 79.5664 168.351 80.3121L168.349 80.3133C168.007 80.5052 167.666 80.697 167.324 80.8874C165.946 81.6506 164.589 82.445 163.263 83.2904L163.239 83.3054C163.208 83.3253 163.179 83.3446 163.15 83.3634L163.15 83.3638C162.971 83.4801 162.828 83.5736 162.667 83.6269C162.366 83.7211 162.119 83.9043 161.875 84.0855C161.728 84.1949 161.582 84.3036 161.425 84.3916C160.459 84.9341 159.526 85.5235 158.615 86.1308C158.338 86.3144 158.061 86.4976 157.784 86.6808L157.776 86.6862C156.491 87.5364 155.209 88.3845 153.935 89.2453C153.721 89.3899 153.507 89.5339 153.293 89.6779L153.292 89.6788L153.288 89.6812L153.287 89.6817C152.347 90.3136 151.405 90.9466 150.505 91.6396C150.159 91.904 149.797 92.1491 149.435 92.3944L149.435 92.3947L149.434 92.3948L149.434 92.3949L149.434 92.395L149.434 92.3951L149.434 92.3952L149.433 92.3954L149.433 92.3955L149.433 92.3956C149.192 92.5588 148.951 92.7221 148.714 92.8912C148.478 93.0585 148.241 93.2254 148.004 93.3922L148.002 93.394C146.99 94.1069 145.981 94.8181 144.985 95.5509C144.545 95.8792 144.098 96.1974 143.65 96.5155L143.649 96.516C143.113 96.897 142.578 97.2777 142.057 97.6752C141.786 97.8834 141.512 98.09 141.24 98.2935C138.933 96.2868 136.651 94.3787 134.355 92.459L134.355 92.4589L134.354 92.4588L134.354 92.4583L134.353 92.4573C132.013 90.5012 129.659 88.533 127.249 86.4361L126.844 86.0837L126.465 85.7541C124.423 83.9804 122.377 82.2024 120.408 80.3403C120.251 80.1919 120.097 80.0348 119.942 79.8766C119.417 79.3418 118.88 78.7945 118.167 78.5275C117.831 78.4014 117.585 78.4735 117.39 78.5302C117.26 78.5683 117.153 78.5995 117.059 78.5596C116.265 78.2332 113.74 82.1867 113.764 82.1538C113.605 82.3892 113.356 82.6578 113.086 82.9495L113.086 82.9496C112.409 83.6803 111.597 84.5557 111.74 85.4154C111.983 86.871 114.03 88.4774 115.452 89.5938C115.723 89.806 115.97 90.0004 116.179 90.1728C117.339 91.1343 118.46 91.9537 119.573 92.7662C120.883 93.7236 122.181 94.6714 123.513 95.8311C124.033 96.2844 124.55 96.7426 125.067 97.2001L125.067 97.2004C126.102 98.1165 127.133 99.0298 128.178 99.8958C129.214 100.756 130.301 101.712 131.354 102.64C131.907 103.126 132.45 103.604 132.973 104.056C133.145 104.206 133.312 104.351 133.481 104.496L133.525 104.534C132.795 105.139 132.088 105.751 131.377 106.366L131.376 106.367L131.376 106.367L131.376 106.367C130.827 106.843 130.275 107.32 129.708 107.798C129.56 107.924 129.233 108.198 128.798 108.563L128.798 108.563C126.936 110.123 123.082 113.354 122.622 113.852C122.293 114.207 121.881 114.473 121.469 114.739C121.066 115 120.662 115.261 120.338 115.605C120.085 115.876 119.802 116.124 119.517 116.374C119.298 116.566 119.079 116.758 118.872 116.962C118.747 117.085 118.63 117.22 118.514 117.354C118.252 117.657 117.99 117.96 117.628 118.128C117.07 118.382 116.608 118.768 116.154 119.147C116.041 119.241 115.928 119.335 115.814 119.427C115.059 120.033 114.392 120.753 113.731 121.466L113.731 121.466C113.627 121.578 113.524 121.689 113.421 121.799C113.368 121.855 113.313 121.911 113.257 121.967C112.925 122.302 112.573 122.657 112.613 123.179C112.632 123.41 112.644 123.643 112.657 123.875V123.876C112.697 124.626 112.737 125.378 112.994 126.106C113.273 126.899 113.501 127.699 113.287 128.539C113.27 128.606 113.275 128.695 113.295 128.768C113.552 129.879 114.334 131.399 114.612 131.763C114.803 132.009 115.063 132.286 115.4 132.386L115.44 132.398C115.834 132.514 115.836 132.515 115.798 132.941C115.92 132.87 116.042 132.804 116.163 132.739C116.429 132.596 116.687 132.457 116.914 132.284C117.023 132.2 117.124 132.107 117.224 132.014C117.39 131.862 117.555 131.709 117.758 131.594C118.018 131.45 118.269 131.269 118.48 131.058C119.153 130.375 118.533 130.663 118.02 130.903C117.573 131.111 117.206 131.282 117.841 130.743C118.459 130.219 119.068 129.681 119.676 129.144C120.389 128.513 121.103 127.883 121.834 127.273C122.597 126.633 123.334 125.966 124.072 125.298L124.072 125.298L124.072 125.298L124.072 125.298L124.072 125.298L124.072 125.298L124.072 125.298L124.072 125.298L124.072 125.298L124.072 125.297L124.073 125.297L124.073 125.297C124.527 124.886 124.981 124.475 125.442 124.07C127.04 122.665 128.648 121.271 130.256 119.876L130.257 119.876L130.257 119.876L130.257 119.876L130.257 119.876L130.257 119.876L130.258 119.875L130.258 119.875L130.258 119.875L130.258 119.875L130.258 119.875L130.289 119.848C130.49 119.671 130.7 119.508 130.915 119.342L130.916 119.341L130.917 119.341L130.917 119.341L130.917 119.34L130.918 119.34L130.919 119.339L130.923 119.336L130.924 119.335C130.97 119.3 131.015 119.264 131.061 119.229C131.108 119.192 131.156 119.155 131.203 119.117C131.255 119.247 131.207 119.311 131.157 119.376C131.124 119.419 131.091 119.463 131.085 119.526C131.682 119.073 132.242 118.585 132.8 118.1L132.8 118.1C133.373 117.601 133.944 117.104 134.549 116.649C135.493 115.939 136.427 115.199 137.231 114.345C137.413 114.152 137.614 114.021 137.811 113.893C137.938 113.81 138.063 113.728 138.181 113.632C138.256 113.572 138.466 113.397 138.752 113.158C139.425 112.598 140.516 111.69 141.25 111.11C141.462 111.305 141.672 111.501 141.883 111.697C142.236 112.025 142.59 112.354 142.954 112.686C143.673 113.344 145.286 114.764 145.792 115.186L145.836 115.223L145.921 115.296C146.46 115.758 148.158 117.211 148.328 117.079C147.975 116.773 147.638 116.45 147.301 116.128L147.3 116.127C146.889 115.734 146.477 115.34 146.035 114.975C147.033 115.174 151.878 119.333 152.603 119.991C152.943 119.382 155.017 121.255 155.588 121.771L155.658 121.834C157.695 123.674 159.816 125.446 161.955 127.163C161.922 126.994 161.845 126.867 161.765 126.737C161.718 126.661 161.671 126.583 161.631 126.494C161.569 126.353 161.403 126.125 161.199 125.845L161.198 125.844C161.096 125.705 160.985 125.552 160.872 125.39C161.848 125.86 162.703 126.661 163.535 127.44L163.535 127.44L163.535 127.44L163.535 127.44L163.535 127.44L163.535 127.44L163.535 127.44L163.535 127.441L163.536 127.441L163.536 127.441L163.536 127.441C163.969 127.847 164.396 128.247 164.831 128.591C164.721 128.365 164.679 128.128 164.708 127.877C164.867 128.036 166.224 128.975 166.355 128.903C166.752 128.679 166.974 128.887 167.259 129.153C167.408 129.291 167.573 129.446 167.789 129.563C168.757 130.091 169.71 130.857 170.67 131.627C171.302 132.135 171.937 132.645 172.581 133.091C172.38 132.877 172.119 132.645 171.842 132.399C171.162 131.795 170.386 131.105 170.169 130.383C170.174 130.4 170.245 130.424 170.318 130.447C170.392 130.472 170.468 130.497 170.476 130.517C170.343 130.189 165.34 125.434 165.24 125.475C165.926 125.187 166.458 125.768 166.953 126.308C167.349 126.74 167.721 127.147 168.129 127.058C167.855 126.785 167.579 126.514 167.3 126.243C167.612 126.104 168.246 126.829 168.607 127.241C168.771 127.429 168.879 127.552 168.873 127.498C169.169 127.816 169.52 128.067 169.924 128.258C169.875 128.21 169.858 128.153 169.874 128.089C169.974 128.049 170.433 128.444 170.816 128.775C171.043 128.97 171.243 129.143 171.326 129.188C171.577 129.337 171.96 129.696 172.385 130.095C173.137 130.803 174.021 131.634 174.536 131.63C174.31 131.465 174.131 131.262 174.003 131.023C174.406 131.304 174.784 131.614 175.162 131.924L175.162 131.924C175.691 132.358 176.219 132.791 176.815 133.145C176.643 132.976 176.497 132.79 176.371 132.586C176.423 132.611 176.572 132.731 176.76 132.884L176.76 132.884L176.76 132.884C177.216 133.253 177.906 133.811 178.027 133.669C178.308 133.329 176.266 131.611 174.929 130.486L174.928 130.486L174.928 130.486L174.928 130.486C174.261 129.925 173.769 129.512 173.828 129.49C173.906 129.408 173.318 128.957 173.149 128.828C173.127 128.81 173.112 128.799 173.107 128.795C173.191 128.814 173.084 128.662 172.941 128.461C172.726 128.157 172.43 127.739 172.591 127.623C172.62 127.598 173.55 128.264 174.55 128.98L174.552 128.981L174.552 128.981C175.724 129.82 176.992 130.727 177.018 130.673C177.123 130.48 176.291 129.903 175.438 129.312C174.625 128.748 173.791 128.171 173.731 127.898C174.337 128.311 174.924 128.748 175.51 129.185L175.511 129.185C176.454 129.888 177.398 130.59 178.419 131.193ZM75.7395 235.619H89.8857V241.67H68.864V213.202H75.7395V235.619ZM61.9025 241.67H40.5007V213.202H61.9025V219.168H47.3762V224.642H60.0502V230.482H47.3762V235.703H61.9025V241.67ZM95.7535 241.67H117.155V235.703H102.631V230.482H115.302V224.642H102.631V219.168H117.155V213.202H95.7535V241.67ZM33.8757 222.961C33.8757 220.139 32.761 217.532 30.7345 215.624C28.6448 213.653 25.7058 212.568 22.4585 212.568C15.8195 212.568 11 216.992 11 223.088C11 228.612 15.3347 232.728 21.5405 233.099L21.7427 233.112L21.699 233.18L16.3198 241.67H24.0346L31.4519 229.862C33.1278 227.202 33.8757 225.072 33.8757 222.961ZM27.5044 222.834C27.5044 220.193 25.2515 218.042 22.4804 218.042C19.71 218.042 17.4548 220.193 17.4548 222.834C17.4548 225.478 19.71 227.628 22.4804 227.628C25.2515 227.628 27.5044 225.478 27.5044 222.834ZM129.195 213.202L139.448 228.623L149.66 213.202H154.78V241.67H147.905V226.988L141.335 237.153H137.563L130.95 226.901L130.949 241.67H124.116V213.202H129.195ZM222.976 219.337H232.111V241.67H238.987V219.337H248.082V213.202H222.976V219.337ZM263.99 224.048L267.991 224.978C273.975 226.283 276.529 228.698 276.529 233.05C276.529 238.645 271.916 242.261 264.776 242.261C261.396 242.261 258.438 241.436 256.218 239.876C253.746 238.137 252.321 235.612 251.983 232.367H258.867C259.386 234.945 261.613 236.421 264.987 236.421C267.632 236.421 269.147 235.455 269.147 233.768C269.147 232.441 268.125 231.603 266.022 231.203L261.306 230.147C255.712 228.934 253.106 226.287 253.106 221.821C253.106 219.063 254.184 216.731 256.22 215.075C258.237 213.436 261.05 212.568 264.354 212.568C274.646 212.568 276.233 219.617 276.475 221.869H269.549C269.089 219.462 267.498 218.24 264.817 218.24C263.571 218.24 262.525 218.501 261.794 218.998C261.022 219.521 260.614 220.294 260.614 221.23C260.614 222.963 261.964 223.61 263.99 224.048ZM162.544 241.67H183.946V235.703H169.419V230.482H182.092V224.642H169.419V219.168H183.946V213.202H162.544V241.67ZM196.164 213.202L210.148 229.574V213.202H217.024V241.67H211.683L197.783 225.724V241.67H190.906V213.202H196.164Z" fill="#000203"/>
</svg>
