<svg width="850" height="629" viewBox="0 0 850 629" fill="none" xmlns="http://www.w3.org/2000/svg">
<path fill-rule="evenodd" clip-rule="evenodd" d="M207.251 436.675H642.749V0H207.251V436.675ZM532.333 308.586C531.766 308.804 530.105 309 528.419 309.2C524.93 309.613 521.329 310.04 527.07 310.695C529.808 311.003 528.891 311.265 527.346 311.707C525.872 312.129 523.828 312.714 523.842 313.657C524.897 313.627 526.275 314.834 527.36 315.784C528.086 316.42 528.681 316.941 528.959 316.899C529.006 317.149 527.734 317.622 526.56 318.058C525.341 318.512 524.228 318.926 524.809 319.009C527.241 319.353 525.993 319.601 524.373 319.924C522.948 320.208 521.234 320.549 521.495 321.063C522.195 322.447 522.125 323.012 522.085 323.335C522.035 323.743 522.032 323.765 523.689 324.566C525.281 325.335 524.811 328.142 523.767 328.377C523.129 328.52 522.7 328.757 522.295 328.98C521.837 329.233 521.41 329.469 520.745 329.53C520.573 330.665 519.544 331.194 518.179 331.389L518.014 331.451C515.1 332.54 511.85 333.755 508.716 334.075C508.227 334.126 507.859 334.176 507.554 334.217C506.575 334.35 506.258 334.393 504.693 334.095C502.499 334.381 499.151 334.564 496.957 334.353C495.145 334.797 468.035 336.385 465.766 336.08C463.962 336.468 453.109 336.839 450.888 336.521C448.636 336.949 429.82 337.458 427.869 337.232C425.585 337.63 422.061 337.791 419.76 337.485C417.481 337.931 413.945 338.014 411.636 337.748C409.397 338.172 359.658 336.979 357.234 336.606C354.888 336.899 343.253 336.508 340.947 336.11C339.012 336.398 336.106 336.2 334.165 335.902C331.913 336.225 328.402 336.044 326.211 335.433C325.915 335.35 325.644 335.296 325.394 335.247L325.394 335.247C324.579 335.087 324 334.973 323.585 334.012C323.449 333.695 323.366 333.416 323.292 333.168C323.123 332.602 323.004 332.202 322.425 331.895C321.448 331.374 321.391 329.149 322.033 328.312C321.477 327.13 321.607 325.419 321.744 323.603C321.873 321.901 322.009 320.108 321.593 318.575C321.253 317.327 321.579 316.949 322.104 316.339L322.105 316.339L322.105 316.339C322.374 316.027 322.695 315.655 323.005 315.075C321.928 315.143 321.695 313.216 321.82 312.86C322.104 312.049 322.103 311.407 322.103 310.817C322.102 309.954 322.102 309.203 322.987 308.197C323.288 307.857 323.441 307.536 323.573 307.261C323.833 306.716 324.01 306.348 325.074 306.348C326.233 306.348 327.633 306.353 328.77 306.538C331.246 306.343 334.465 306.466 336.921 306.847C341.954 306.501 364.606 307.333 369.496 308.112C374.174 307.784 379.766 308.112 384.426 308.673C387.039 308.54 411.152 308.301 434.264 308.072L434.281 308.071L434.298 308.071L434.307 308.071L434.321 308.071L434.333 308.071C455.491 307.861 475.793 307.66 477.97 307.556C479.383 307.488 480.846 307.379 482.33 307.268H482.331C486.111 306.986 490.029 306.694 493.603 307.047C497.184 306.453 501.777 306.812 505.305 307.498C506.799 307.446 507.929 307.168 509.023 306.899C510.309 306.582 511.545 306.277 513.264 306.368C513.405 306.141 515.825 306.596 517.449 306.902C518.15 307.034 518.702 307.138 518.859 307.147C519.214 306.534 522.1 306.841 523.754 307.017C524.16 307.06 524.492 307.095 524.694 307.107C525.818 307.185 533.367 308.182 532.333 308.586ZM535.933 272.715C535.421 272.204 535.071 271.623 534.871 270.949C536.081 271.931 545.369 279.077 546.089 278.436C545.318 277.874 542.172 275.031 538.318 271.547C532.795 266.555 525.818 260.249 522.297 257.464C512.469 249.691 502.659 241.854 493.448 233.485C480.728 221.929 467.498 210.746 454.214 199.517C449.453 195.493 444.684 191.462 439.931 187.407L439.966 187.386C440.921 186.82 441.986 186.19 442.504 185.61C443.179 184.847 444.032 184.588 444.919 184.319C445.601 184.112 446.302 183.899 446.957 183.445C446.978 183.431 447.023 183.406 447.089 183.372C447.15 183.34 447.23 183.299 447.322 183.253C448.167 182.825 450.086 181.854 449.406 181.486C450.208 181.153 450.784 180.57 451.346 180.002C452.101 179.238 452.831 178.499 454.054 178.427L454.002 178.489C454.343 178.22 454.66 177.927 454.977 177.634L454.978 177.633L454.978 177.633C455.247 177.385 455.515 177.137 455.798 176.903C458.787 174.468 461.88 172.185 465.086 170.043C465.747 169.604 466.375 169.116 467.003 168.628C468.21 167.69 469.416 166.753 470.856 166.164L470.846 166.192C471.561 165.214 472.571 164.68 473.579 164.148C474.09 163.877 474.601 163.608 475.072 163.28C476.295 162.411 477.49 161.507 478.683 160.604L478.683 160.603L478.684 160.603L478.684 160.602L478.685 160.602L478.686 160.602L478.686 160.601L478.687 160.601L478.687 160.6L478.688 160.6L478.688 160.6C480.042 159.574 481.393 158.551 482.781 157.585C483.046 157.402 483.311 157.216 483.578 157.028C484.919 156.088 486.297 155.121 487.816 154.388C488.645 154.001 489.41 153.452 490.179 152.9L490.18 152.9C490.833 152.431 491.49 151.959 492.194 151.582C493.16 151.07 493.995 150.352 494.829 149.634C496.082 148.555 497.335 147.476 499.033 147.102C499.53 146.992 499.891 146.666 500.255 146.339L500.258 146.336C500.307 146.292 500.356 146.248 500.405 146.205C500.996 145.669 501.645 145.211 502.294 144.752C502.789 144.402 503.285 144.052 503.756 143.666C505.186 142.509 506.777 141.592 508.37 140.675C510.063 139.701 511.757 138.726 513.259 137.46C513.632 137.14 514.067 137.026 514.492 136.913C514.939 136.796 515.376 136.681 515.718 136.333C517.36 134.667 519.338 133.512 521.318 132.357C522.47 131.684 523.623 131.011 524.711 130.236C525.365 129.774 526.058 129.371 526.75 128.968C528.069 128.201 529.385 127.435 530.428 126.263C528.124 127.452 525.936 128.845 523.749 130.238L523.748 130.238C521.219 131.848 518.691 133.458 515.988 134.749C516.373 133.96 516.982 133.501 517.669 133.045C519.316 131.948 520.94 130.8 522.482 129.54C524.106 128.227 525.721 126.889 527.177 125.333C527.384 125.098 527.661 124.951 527.94 124.804C528.282 124.623 528.628 124.441 528.852 124.09C527.447 123.508 527.378 123.55 526.174 124.286C526.057 124.358 525.929 124.436 525.788 124.521C522.802 126.298 515.573 130.793 513.586 132.186C512.88 132.679 512.122 133.044 511.363 133.411C510.398 133.876 509.43 134.343 508.561 135.075C506.1 137.157 503.229 138.72 500.312 140.126C500.282 140.14 500.253 140.154 500.224 140.168C499.804 140.37 499.505 140.513 499.218 139.946C498.946 139.429 499.278 139.299 499.555 139.19C499.589 139.176 499.622 139.163 499.653 139.15C499.691 139.134 499.725 139.117 499.755 139.099C501.727 137.793 503.718 136.495 505.74 135.283C506.432 134.864 511.89 131.544 513.881 130.279C515.506 129.241 517.069 128.102 518.633 126.962C521.543 124.841 524.456 122.718 527.775 121.241C527.836 121.214 527.913 121.19 527.995 121.165C528.326 121.066 528.752 120.937 528.664 120.382C528.597 119.933 528.352 120.064 528.105 120.196C527.878 120.318 527.65 120.441 527.56 120.106C527.742 119.956 527.922 119.806 528.102 119.656L528.344 119.453L528.352 119.447L528.353 119.445L528.355 119.444C529.106 118.815 529.848 118.194 530.623 117.621C530.829 117.473 531.032 117.319 531.235 117.164C532.069 116.528 532.911 115.887 533.982 115.684C534.257 115.624 534.262 115.421 534.182 115.21C534.084 114.957 533.912 114.972 533.704 115.08C533.549 115.157 533.393 115.236 533.237 115.315L533.236 115.315C532.76 115.557 532.28 115.8 531.793 115.987C531.693 116.026 531.589 116.078 531.484 116.13C531.001 116.371 530.486 116.627 530.144 115.747C529.875 115.056 530.289 114.888 530.667 114.735C530.8 114.681 530.928 114.629 531.021 114.556C531.816 113.936 532.651 113.367 533.48 112.802C533.801 112.584 534.12 112.366 534.437 112.146C533.806 112.283 533.201 112.533 532.611 112.778C531.818 113.106 531.051 113.424 530.279 113.441C528.724 113.471 527.339 113.929 525.952 114.388L525.952 114.388C525.489 114.541 525.026 114.695 524.556 114.832C524.095 114.974 523.695 115.223 523.286 115.477C522.737 115.819 522.173 116.17 521.428 116.28C521.875 115.645 522.442 115.157 522.998 114.679C523.819 113.972 524.615 113.288 524.961 112.179C524.927 112.179 524.892 112.176 524.856 112.174C524.829 112.171 524.801 112.168 524.774 112.166C524.635 112.152 524.496 112.138 524.391 112.191C524.039 112.381 523.686 112.571 523.334 112.761L523.333 112.761C521.55 113.721 519.77 114.679 518.007 115.689C517.305 116.1 516.567 116.283 516.168 115.576C515.873 115.086 516.337 114.804 516.734 114.562C516.839 114.498 516.939 114.437 517.02 114.376C517.749 113.839 518.567 113.474 519.383 113.109L519.383 113.109C519.839 112.905 520.295 112.702 520.733 112.469C521.6 112.007 522.397 111.455 523.193 110.905C523.751 110.519 524.307 110.134 524.886 109.781C526.113 109.036 527.331 108.243 528.548 107.451L528.55 107.45C529.096 107.094 529.642 106.739 530.189 106.388C527.516 107.139 525.136 108.5 522.762 109.858C520.841 110.956 518.924 112.053 516.857 112.822C516.777 112.633 516.867 112.481 516.951 112.34C517.055 112.166 517.148 112.01 516.9 111.82C515.773 112.544 514.613 113.163 513.204 113.226C513.507 112.876 513.892 112.611 514.273 112.349C514.962 111.877 515.64 111.412 515.805 110.462C515.805 110.437 515.858 110.423 515.904 110.412L515.905 110.411C515.918 110.408 515.93 110.405 515.94 110.402C516.326 110.196 516.716 109.996 517.107 109.796L517.108 109.796C518.101 109.288 519.096 108.778 520.011 108.167C520.658 107.751 521.346 107.406 522.051 107.053C523.21 106.471 524.412 105.869 525.543 104.895C524.517 104.975 523.721 105.407 522.964 105.817C522.37 106.14 521.8 106.449 521.16 106.566C521.414 106.351 521.678 106.152 521.942 105.954C522.654 105.418 523.367 104.881 523.887 104.013C523.107 104.067 522.52 104.425 521.954 104.769C521.737 104.902 521.523 105.032 521.303 105.143C521.202 105.192 521.257 105.079 521.352 104.886C521.518 104.548 521.805 103.963 521.59 103.564C521.491 103.376 521.065 103.581 520.516 103.845C519.724 104.226 518.674 104.731 517.969 104.366C518.37 104.009 518.782 103.683 519.192 103.357C520.041 102.684 520.886 102.014 521.63 101.079C520.014 101.112 518.715 101.807 517.516 102.448L517.515 102.448C517.203 102.615 516.897 102.778 516.595 102.925C512.205 105.061 507.952 107.451 503.704 109.838C502.609 110.454 501.514 111.069 500.417 111.68C496.007 114.123 491.661 116.666 487.416 119.372L487.344 119.418L487.259 119.473C487.189 119.519 487.121 119.563 487.054 119.607C486.483 119.98 486.025 120.279 485.509 120.45C484.545 120.751 483.756 121.337 482.975 121.917C482.504 122.268 482.036 122.616 481.534 122.898C478.443 124.634 475.454 126.521 472.538 128.465C471.643 129.058 470.748 129.65 469.854 130.241L469.851 130.243C465.738 132.965 461.635 135.679 457.557 138.435C456.868 138.901 456.177 139.366 455.485 139.83L455.485 139.831L455.485 139.831L455.484 139.831L455.484 139.831L455.483 139.832L455.483 139.832L455.483 139.832L455.482 139.833L455.482 139.833L455.482 139.833C452.471 141.855 449.456 143.881 446.577 146.099C445.469 146.946 444.31 147.731 443.15 148.516C442.377 149.04 441.604 149.564 440.845 150.106C440.103 150.63 439.361 151.154 438.619 151.676L438.561 151.717L438.559 151.719C435.322 154 432.093 156.275 428.906 158.62C427.498 159.671 426.065 160.69 424.633 161.708L424.631 161.71L424.63 161.71C422.914 162.929 421.2 164.148 419.533 165.42C418.665 166.087 417.788 166.748 416.919 167.4C409.532 160.976 402.227 154.868 394.877 148.722L394.877 148.722L394.877 148.722L394.877 148.722L394.876 148.722L394.876 148.722L394.876 148.721C387.385 142.458 379.848 136.156 372.132 129.442C371.297 128.715 370.461 127.989 369.624 127.262L369.621 127.259C363.085 121.581 356.534 115.89 350.232 109.928C349.729 109.453 349.235 108.951 348.739 108.444C347.059 106.732 345.34 104.98 343.058 104.126C341.982 103.722 341.193 103.953 340.571 104.134C340.154 104.256 339.813 104.356 339.51 104.228C336.968 103.183 328.887 115.839 328.962 115.734C328.455 116.487 327.658 117.347 326.793 118.281C324.625 120.62 322.028 123.423 322.485 126.175C323.262 130.834 329.814 135.977 334.367 139.55C335.233 140.23 336.026 140.852 336.694 141.404C340.407 144.482 343.997 147.105 347.558 149.706C351.753 152.77 355.907 155.805 360.17 159.517C361.836 160.968 363.493 162.435 365.147 163.9C368.459 166.833 371.76 169.756 375.103 172.529C378.421 175.283 381.899 178.343 385.272 181.311L385.273 181.311L385.273 181.312L385.275 181.313C387.043 182.869 388.782 184.399 390.454 185.846C391.053 186.37 391.635 186.871 392.223 187.377C389.883 189.314 387.619 191.274 385.342 193.245L385.34 193.246C383.583 194.768 381.817 196.295 380.003 197.825C379.528 198.228 378.483 199.104 377.09 200.272L377.089 200.273L377.088 200.274C371.128 205.27 358.791 215.612 357.319 217.204C356.266 218.341 354.947 219.193 353.629 220.044C352.337 220.88 351.046 221.714 350.007 222.816C349.198 223.683 348.29 224.479 347.379 225.279C346.679 225.893 345.977 226.509 345.315 227.161C344.914 227.554 344.541 227.985 344.168 228.416C343.33 229.386 342.492 230.356 341.331 230.892C339.545 231.706 338.067 232.94 336.613 234.154C336.251 234.457 335.89 234.758 335.527 235.051C333.108 236.991 330.972 239.296 328.856 241.579L328.856 241.579C328.526 241.935 328.196 242.291 327.865 242.645C327.696 242.824 327.52 243.002 327.341 243.182C326.276 244.256 325.15 245.39 325.279 247.06C325.339 247.802 325.379 248.547 325.418 249.292C325.546 251.695 325.674 254.102 326.498 256.431C327.39 258.969 328.12 261.53 327.438 264.219C327.38 264.434 327.398 264.72 327.46 264.953C328.285 268.511 330.789 273.377 331.678 274.539C332.291 275.329 333.12 276.216 334.2 276.536L334.33 276.575C335.59 276.946 335.595 276.947 335.474 278.31C335.864 278.085 336.255 277.874 336.641 277.666L336.641 277.666L336.641 277.666L336.642 277.666L336.642 277.666L336.642 277.666C337.494 277.207 338.32 276.761 339.047 276.208C339.396 275.938 339.718 275.641 340.04 275.345C340.57 274.857 341.099 274.369 341.749 273.998C342.581 273.537 343.383 272.958 344.06 272.284C346.214 270.096 344.231 271.021 342.587 271.787C341.156 272.454 339.983 273.001 342.014 271.275C343.994 269.596 345.942 267.876 347.889 266.155L347.892 266.152C350.175 264.136 352.458 262.119 354.798 260.167C357.238 258.12 359.599 255.982 361.96 253.845L361.961 253.845L361.961 253.844L361.962 253.844L361.962 253.843L361.963 253.843L361.964 253.843L361.964 253.842L361.965 253.842L361.965 253.841L361.966 253.841L361.966 253.84C363.42 252.524 364.873 251.208 366.345 249.914C371.468 245.41 376.623 240.941 381.781 236.47L381.863 236.399C382.506 235.83 383.182 235.307 383.872 234.774C384.175 234.539 384.482 234.302 384.789 234.059C384.956 234.476 384.8 234.679 384.64 234.888C384.535 235.025 384.428 235.165 384.411 235.369C386.321 233.918 388.114 232.357 389.899 230.804L389.899 230.803C391.735 229.206 393.562 227.616 395.499 226.159C398.52 223.886 401.511 221.516 404.085 218.782C404.668 218.165 405.31 217.747 405.94 217.336L405.94 217.336C406.347 217.071 406.748 216.809 407.126 216.499C407.365 216.308 408.039 215.747 408.955 214.984C411.107 213.191 414.599 210.282 416.951 208.426C417.628 209.051 418.302 209.678 418.979 210.308C420.106 211.356 421.24 212.411 422.404 213.473C424.705 215.58 429.87 220.125 431.489 221.476C431.579 221.551 431.72 221.672 431.903 221.828L431.904 221.829L431.904 221.829L431.904 221.829L431.904 221.83C433.632 223.308 439.064 227.958 439.608 227.534C438.478 226.554 437.399 225.522 436.319 224.489L436.318 224.489L436.318 224.488L436.318 224.488L436.318 224.488L436.318 224.488L436.318 224.488L436.317 224.488L436.317 224.487L436.317 224.487L436.317 224.487C435 223.228 433.683 221.967 432.269 220.799C435.463 221.438 450.973 234.75 453.292 236.858C454.38 234.907 461.021 240.903 462.847 242.553L462.848 242.553L462.994 242.685L463.072 242.756C469.592 248.646 476.384 254.319 483.23 259.814C483.125 259.273 482.877 258.868 482.623 258.453C482.473 258.207 482.32 257.958 482.193 257.674C481.995 257.221 481.464 256.493 480.808 255.594C480.482 255.147 480.125 254.658 479.762 254.139C482.889 255.645 485.625 258.208 488.287 260.702C489.675 262.002 491.043 263.284 492.436 264.387C492.084 263.662 491.949 262.903 492.041 262.102C492.551 262.61 496.897 265.614 497.314 265.386C498.586 264.668 499.298 265.333 500.21 266.185C500.685 266.629 501.214 267.123 501.904 267.499C505.003 269.187 508.055 271.639 511.127 274.107C513.151 275.732 515.184 277.365 517.245 278.791C516.601 278.105 515.766 277.363 514.88 276.576C512.702 274.641 510.22 272.435 509.523 270.122C509.542 270.179 509.769 270.253 510.001 270.329C510.239 270.407 510.482 270.487 510.508 270.55C510.08 269.501 494.065 254.279 493.746 254.412C495.943 253.491 497.646 255.35 499.229 257.078C500.498 258.463 501.689 259.762 502.994 259.478C502.117 258.606 501.232 257.737 500.34 256.87C501.339 256.426 503.369 258.746 504.523 260.065C505.05 260.667 505.394 261.061 505.375 260.889C506.325 261.906 507.447 262.71 508.741 263.319C508.584 263.166 508.529 262.983 508.579 262.781C508.9 262.65 510.37 263.917 511.596 264.975L511.597 264.976C512.323 265.601 512.962 266.153 513.229 266.298C514.032 266.773 515.256 267.924 516.615 269.201L516.616 269.202L516.617 269.202C519.026 271.467 521.856 274.127 523.504 274.116C522.78 273.587 522.207 272.938 521.797 272.172C523.088 273.072 524.298 274.065 525.509 275.057C527.201 276.444 528.893 277.831 530.798 278.964C530.249 278.423 529.781 277.829 529.379 277.175C529.545 277.255 530.021 277.64 530.624 278.128C532.084 279.31 534.292 281.096 534.679 280.64C535.579 279.552 529.04 274.053 524.758 270.452C522.623 268.657 521.049 267.333 521.238 267.263C521.486 267 519.603 265.556 519.065 265.144C518.992 265.088 518.944 265.051 518.929 265.038C519.197 265.099 518.855 264.615 518.399 263.972C517.709 262.998 516.761 261.66 517.277 261.287C517.369 261.209 520.349 263.341 523.553 265.634L523.555 265.635C527.308 268.321 531.366 271.225 531.448 271.052C531.784 270.432 529.123 268.588 526.392 266.695C523.787 264.89 521.119 263.041 520.928 262.169C522.863 263.489 524.739 264.885 526.615 266.282L526.616 266.282L526.617 266.283L526.617 266.284L526.618 266.284L526.619 266.285L526.62 266.285L526.62 266.286L526.621 266.286L526.622 266.287L526.623 266.287C529.644 268.536 532.665 270.785 535.933 272.715ZM207.241 606.998H252.525V626.369H185.231V535.24H207.241V606.998ZM162.947 626.369H94.4361V535.24H162.947V554.338H116.446V571.86H157.017V590.554H116.446V607.269H162.947V626.369ZM271.309 626.369H339.817V607.269H293.324V590.554H333.887V571.86H293.324V554.338H339.817V535.24H271.309V626.369ZM73.2285 566.478C73.2285 557.445 69.6601 549.101 63.1731 542.992C56.4838 536.683 47.0756 533.211 36.6805 533.211C15.4278 533.211 0 547.372 0 566.886C0 584.568 13.8761 597.745 33.7418 598.933L34.389 598.973L34.2491 599.193L17.0296 626.369H41.7256L65.4696 588.57C70.8346 580.055 73.2285 573.238 73.2285 566.478ZM52.8329 566.074C52.8329 557.618 45.6213 550.732 36.7504 550.732C27.882 550.732 20.6629 557.618 20.6629 566.074C20.6629 574.536 27.882 581.419 36.7504 581.419C45.6213 581.419 52.8329 574.536 52.8329 566.074ZM378.362 535.24L411.181 584.603L443.871 535.24H460.261V626.369H438.254V579.369L417.221 611.909H405.147L383.979 579.091L383.977 626.369H362.102V535.24H378.362ZM678.567 554.877H707.811V626.369H729.821V554.877H758.935V535.24H678.567V554.877ZM809.861 569.958L822.668 572.935C841.824 577.114 850 584.844 850 598.775C850 616.687 835.232 628.261 812.375 628.261C801.555 628.261 792.087 625.62 784.98 620.626C777.066 615.061 772.506 606.978 771.424 596.59H793.461C795.123 604.841 802.25 609.566 813.05 609.566C821.518 609.566 826.368 606.475 826.368 601.073C826.368 596.826 823.097 594.142 816.366 592.862L801.268 589.482C783.361 585.6 775.017 577.126 775.017 562.829C775.017 554 778.468 546.535 784.985 541.234C791.442 535.987 800.448 533.211 811.026 533.211C843.97 533.211 849.053 555.774 849.828 562.985H827.655C826.183 555.278 821.088 551.366 812.507 551.366C808.519 551.366 805.171 552.203 802.829 553.792C800.358 555.468 799.054 557.941 799.054 560.938C799.054 566.485 803.374 568.557 809.861 569.958ZM485.115 626.369H553.625V607.269H507.124V590.554H547.693V571.86H507.124V554.338H553.625V535.24H485.115V626.369ZM592.737 535.24L637.504 587.65V535.24H659.513V626.369H642.416L597.922 575.322V626.369H575.907V535.24H592.737Z" fill="#000203"/>
</svg>
