<svg xmlns="http://www.w3.org/2000/svg" viewBox="0 0 32 32"><defs><style>.cls-1{fill:#4f51a9;}.cls-2{fill:#f96360;}.cls-3{fill:#fff;}</style></defs><title>osfc_favicon</title><g id="Ebene_3" data-name="Ebene 3"><rect class="cls-1" width="32" height="32"/><rect class="cls-2" x="5.89" y="20.96" width="25.95" height="0.57" transform="translate(-9.5 19.56) rotate(-45)"/><path class="cls-3" d="M13.85,9.13C7.75,9.13,4,13.67,4,19.32a9.61,9.61,0,0,0,5.67,9.11l2.79-2.79C9.69,25,8,22.63,8,19.32c0-3.83,2.27-6.69,5.85-6.69s5.85,2.86,5.85,6.69-2.21,6.44-5.78,6.47l-3.07,3.06a11.09,11.09,0,0,0,3,.41,9.57,9.57,0,0,0,9.89-9.94C23.74,13.67,20,9.13,13.85,9.13Z"/><path class="cls-2" d="M9.51,23.9,6.86,26.54a8.85,8.85,0,0,0,2.81,1.89l2.79-2.79A5.26,5.26,0,0,1,9.51,23.9Z"/><path class="cls-3" d="M28.53,3.45A3.5,3.5,0,0,0,23,7.59L5.9,24.67l1.41,1.41L24.39,9a3.5,3.5,0,0,0,4.14-5.56ZM27.11,7a1.5,1.5,0,1,1,0-2.12A1.49,1.49,0,0,1,27.11,7Z"/></g></svg>