<svg
  width="782"
  height="454"
  viewBox="0 0 782 454"
  fill="none"
  xmlns="http://www.w3.org/2000/svg"
  aria-hidden="true"
  class="gadget-intro__illustration"
  style="--progress: 0"
>
  <g>
    <path
      d="M523.7 0.382812C547.95 0.382854 564.235 8.70215 564.235 8.70215L553.968 36.3164C553.939 36.3028 538.027 28.7043 524.939 28.7041C517.504 28.7041 510.601 30.651 510.601 36.6699C510.601 49.9449 568.483 47.6442 568.483 88.5332C568.483 116.147 539.808 127.829 518.744 127.829C490.845 127.829 472.458 114.796 472.367 114.731L484.581 88.3564C484.656 88.4044 501.433 99.1543 517.327 99.1543C527.24 99.1543 534.497 96.322 534.497 90.834C534.497 74.727 476.438 79.6827 476.438 37.5547C476.439 12.2419 501.928 0.382812 523.7 0.382812ZM630.438 0.382812C654.636 0.382924 670.902 8.66629 670.973 8.70215L660.707 36.3164C660.707 36.3164 644.776 28.7041 631.677 28.7041C624.243 28.7041 617.339 30.651 617.339 36.6699C617.339 49.9449 675.221 47.6442 675.221 88.5332C675.221 116.147 646.546 127.829 625.482 127.829C597.602 127.829 579.22 114.813 579.105 114.731L591.319 88.3564C591.421 88.4218 608.184 99.1543 624.066 99.1543C633.978 99.1542 641.236 96.3219 641.236 90.834C641.236 74.727 583.177 79.6827 583.177 37.5547C583.177 12.2419 608.667 0.382812 630.438 0.382812ZM179.605 2.15625C207.042 2.15647 224.565 21.2736 224.565 44.1074C224.565 75.2609 201.731 89.2449 181.021 89.2451H163.851V126.062H130.928V2.15625H179.605ZM292.561 2.15625C319.82 2.15625 337.521 21.2734 337.521 44.1074C337.521 64.4631 327.078 76.1458 317.165 81.6328L344.779 126.062H306.368L284.065 87.4746H276.984V126.062H244.061V2.15625H292.561ZM458.406 31.0088H398.931V49.5947H441.591V78.2695H398.931V97.21H460V126.062H366.008V2.15625H458.406V31.0088ZM163.851 60.2148H177.835C187.217 60.2148 192.349 53.6662 192.35 45.5234C192.35 37.3814 187.217 31.0088 177.835 31.0088H163.851V60.2148ZM276.984 58.4453H291.145C300.349 58.4453 305.306 51.8959 305.306 44.4609C305.306 37.381 300.349 31.0088 291.145 31.0088H276.984V58.4453Z"
      fill="white"
      class="gadget-intro__illustration-line"
      style="--i: 0"
    />
    <path
      d="M170.495 163.191C209.083 163.191 234.042 191.867 234.042 227.623C234.042 261.608 209.083 290.638 170.495 290.638C131.73 290.638 106.949 261.608 106.949 227.623C106.949 191.867 131.73 163.191 170.495 163.191ZM105.584 193.813H69.4736V288.867H36.5508V193.813H0.263672V164.961H105.584V193.813ZM494.851 164.961C522.288 164.961 539.812 184.078 539.812 206.912C539.812 238.066 516.977 252.049 496.267 252.049H479.097V288.867H446.174V164.961H494.851ZM651.703 193.813H592.229V212.399H634.887V241.075H592.229V260.015H653.296V288.867H559.305V164.961H651.703V193.813ZM748.147 205.319V164.961H781.071V288.867H748.147V248.155L707.435 209.744V288.867H674.512V164.961H705.665L748.147 205.319ZM170.495 192.044C151.732 192.044 140.227 207.267 140.227 227.623C140.227 247.625 151.732 261.785 170.495 261.785C189.081 261.785 200.587 247.625 200.587 227.623C200.587 207.267 189.081 192.044 170.495 192.044ZM479.097 223.02H493.081C502.463 223.02 507.596 216.471 507.596 208.328C507.596 200.186 502.463 193.814 493.081 193.813H479.097V223.02Z"
      fill="white"
      class="gadget-intro__illustration-line"
      style="--i: 1"
    />
    <path
      d="M325.558 404.064C325.558 417.34 334.94 424.597 345.029 424.597C354.942 424.597 364.146 417.34 364.146 404.064V327.773H397.247V405.657C397.247 434.687 370.873 453.45 345.029 453.45C319.186 453.45 292.635 434.687 292.635 405.657V327.773H325.558V404.064ZM88.8398 326C113.091 326 129.375 334.319 129.375 334.319L119.109 361.933C119.109 361.933 103.178 354.321 90.0791 354.321C82.6451 354.321 75.7422 356.269 75.7422 362.287C75.7425 375.562 133.624 373.262 133.624 414.15C133.624 441.764 104.948 453.446 83.8838 453.446C55.9169 453.446 37.5078 440.348 37.5078 440.348L49.7207 413.973C49.7207 413.973 66.5368 424.771 82.4678 424.771C92.3807 424.771 99.6376 421.939 99.6377 416.452C99.6377 400.344 41.5791 405.3 41.5791 363.172C41.5792 337.86 67.0679 326 88.8398 326ZM209.562 326C248.15 326 273.108 354.675 273.108 390.431C273.108 424.417 248.15 453.446 209.562 453.446C170.798 453.446 146.016 424.417 146.016 390.431C146.016 354.675 170.798 326 209.562 326ZM602.021 326C626.449 326 642.203 333.788 642.203 333.788L631.759 361.225C631.684 361.192 616.856 354.852 603.438 354.852C582.375 354.852 571.93 370.606 571.93 390.431C571.93 409.725 582.374 424.594 603.438 424.594C616.89 424.594 633.529 416.806 633.529 416.806L643.619 443.888C643.619 443.888 625.918 453.446 602.021 453.446C563.434 453.446 538.652 424.417 538.652 390.431C538.653 354.675 563.435 326 602.021 326ZM472.286 327.773C499.545 327.773 517.246 346.89 517.246 369.725C517.246 390.081 506.802 401.763 496.89 407.25L524.503 451.68H486.092L463.789 413.092H456.709V451.68H423.785V327.773H472.286ZM756.453 356.626H696.979V375.212H739.638V403.887H696.979V422.827H758.046V451.68H664.055V327.773H756.453V356.626ZM209.562 354.852C190.8 354.852 179.293 370.075 179.293 390.431C179.293 410.433 190.799 424.594 209.562 424.594C228.148 424.594 239.653 410.432 239.653 390.431C239.653 370.075 228.148 354.852 209.562 354.852ZM456.709 384.062H470.87C480.074 384.062 485.03 377.513 485.03 370.079C485.03 362.998 480.074 356.626 470.87 356.626H456.709V384.062Z"
      fill="white"
      class="gadget-intro__illustration-line"
      style="--i: 2"
    />
  </g>
  <g class="gadget-intro__keycap-wrapper">
    <g class="gadget-intro__keycap">
      <path
        d="m317.129 89.211 41.156 4.625 94.677 54.284 7.573 19.727a19.45 19.45 0 0 1-.185 14.314l-50.547 121.603c-4.443 10.707-17.064 15.402-27.434 10.222l-127.342-63.791c-10.373-5.205-14.797-17.633-10.039-28.202L300.631 98.62a16.17 16.17 0 0 1 16.523-9.412z"
        fill="#7174AE"
      />
      <mask
        id="a"
        style="mask-type: luminance"
        maskUnits="userSpaceOnUse"
        x="243"
        y="89"
        width="219"
        height="228"
      >
        <path
          d="m317.127 89.211 41.156 4.625 94.677 54.284 7.573 19.727a19.45 19.45 0 0 1-.185 14.314l-50.547 121.603c-4.443 10.707-17.064 15.402-27.433 10.222l-127.343-63.791c-10.373-5.205-14.797-17.633-10.039-28.202L300.629 98.62a16.17 16.17 0 0 1 16.523-9.412z"
          fill="#fff"
        />
      </mask>
      <g mask="url(#a)" fill="#AEAED4">
        <path
          d="m323.206 183.926-101.161 38.578 7.225 18.947 101.162-38.577zm58.759-91.695L276.07 69.691l-4.222 19.834 105.896 22.54zm80.597 62.847-55.068 127.413-8.028 42.702s57.472-47.642 59.128-52.194c1.656-4.553 21.623-104.782 21.623-104.782l-17.634-13.166z"
        />
      </g>
      <path
        d="m390.688 262.509-86.006-44.496c-6.68-3.448-9.588-11.448-6.693-18.387l40.784-97.671c3.264-7.829 12.533-11.16 20.044-7.212l87.496 45.94c6.713 3.519 9.562 11.65 6.52 18.606l-42.274 96.228c-3.36 7.641-12.445 10.851-19.868 7.017z"
        fill="#4F529F"
      />
      <path
        d="m416.545 173.137-87.317 29.664.342 1.006 87.317-29.663z"
        fill="#EC6463"
      />
      <path
        d="M431.355 150.208c-4.202-3.34-10.324-2.671-13.689 1.535a9.65 9.65 0 0 0-2.069 6.966l-65.009 22.083 1.598 4.693 65.103-22.119a9.9 9.9 0 0 0 1.936 2.063c4.202 3.341 10.324 2.671 13.689-1.535 3.341-4.202 2.671-10.323-1.534-13.689zm-2.338 10.609c-1.651 2.061-4.647 2.413-6.708.763s-2.414-4.646-.764-6.708c1.65-2.061 4.646-2.413 6.708-.763 2.061 1.65 2.414 4.646.764 6.708"
        fill="#fff"
      />
      <path
        d="M391.665 147.552c-16.993-8.361-33.646-.9-41.406 14.852-3.92 7.956-4.589 16.675-1.817 24.367l10.966-3.729c-1.258-4.558-.609-9.839 2.004-15.151 5.268-10.679 15.482-15.515 25.473-10.589s12.361 15.977 7.117 26.654-15.103 14.922-25.147 9.977c-1.745-.865-3.234-1.885-4.517-3.054l-11.396 3.879c2.775 3.484 6.467 6.511 11.171 8.821 16.993 8.361 33.726.941 41.146-14.099 7.763-15.728 3.452-33.548-13.517-41.912z"
        fill="#fff"
      />
      <path
        d="m359.401 183.045-10.966 3.729a28 28 0 0 0 2.102 4.534l10.919-3.699c-.913-1.412-1.613-2.923-2.052-4.54z"
        fill="#EC6463"
      />
      <path
        d="M332.522 276.587c-1.335 2.645-4.417 3.82-7.633 2.196s-4.118-4.852-2.8-7.462c1.39-2.755 4.517-3.985 7.754-2.351s4.083 4.835 2.679 7.617m-2.555-1.29a2.973 2.973 0 0 0-1.245-4.133 2.974 2.974 0 0 0-4.064 1.453 2.975 2.975 0 0 0 1.244 4.134 2.98 2.98 0 0 0 4.065-1.454m10.574 7.699c-.981 1.942-3.389 2.04-5.641.903a7.8 7.8 0 0 1-3.146-2.755l1.876-1.542a6.3 6.3 0 0 0 2.341 2.21c.537.271 1.519.534 1.846-.113.636-1.261-4.261-3.542-2.735-6.566.921-1.825 3.229-1.947 5.323-.89a9.9 9.9 0 0 1 2.893 2.177l-1.635 1.767a6.85 6.85 0 0 0-2.239-1.899c-.764-.386-1.406-.347-1.608.053-.709 1.439 4.348 3.439 2.725 6.655m9.663-.73-2.066-1.043-3.671 7.272-2.52-1.272 3.671-7.273-1.378-.695 1.137-2.252 1.377.696 1.019-2.018c1.105-2.19 2.878-2.108 4.325-1.378a4.7 4.7 0 0 1 1.938 1.843l-1.83 1.297a3.3 3.3 0 0 0-1.007-.845c-.303-.153-.721-.027-.999.524l-.932 1.845 2.066 1.043zm6.648 9.178-.475 2.413a7.6 7.6 0 0 1-3.509-.907c-3.374-1.703-4.026-4.625-2.562-7.524a5.397 5.397 0 0 1 7.557-2.372 7.05 7.05 0 0 1 2.631 2.114l-1.725 1.808a5.5 5.5 0 0 0-1.867-1.59 2.81 2.81 0 0 0-4.007 1.347c-.695 1.378-.647 3.13 1.089 4.006a7.1 7.1 0 0 0 2.868.705m2.806 1.341 2.686 1.356-1.356 2.686-2.686-1.356zm9.92-7.292 2.85-.955.948 2.864-2.86.924zm-3.159 14.081-2.513-1.269 4.807-9.524 2.514 1.269zm14.769 1.576c-1.335 2.644-4.41 3.823-7.626 2.199-3.216-1.623-4.125-4.856-2.807-7.466 1.39-2.754 4.524-3.981 7.761-2.347s4.077 4.831 2.672 7.614m-2.548-1.287a2.973 2.973 0 0 0-1.245-4.133 2.97 2.97 0 0 0-3.369.477 3 3 0 0 0-.696.976 3 3 0 0 0-.264 2.334 2.97 2.97 0 0 0 2.666 2.114 2.98 2.98 0 0 0 2.908-1.768"
        fill="#221F1D"
      />
      <path
        d="m315.891 86.368 37.204 4.417 101.161 55.59 7.714 20.095a19.8 19.8 0 0 1-.188 14.581l-51.489 123.871c-4.527 10.906-17.382 15.689-27.945 10.412l-129.718-64.98c-10.566-5.302-15.073-17.962-10.225-28.729l56.68-125.672a16.47 16.47 0 0 1 16.831-9.588z"
        fill="#7174AE"
      />
      <mask
        id="b"
        style="mask-type: luminance"
        maskUnits="userSpaceOnUse"
        x="240"
        y="86"
        width="224"
        height="232"
      >
        <path
          d="m315.889 86.366 36.387 4.008 101.979 55.999 7.714 20.095a19.8 19.8 0 0 1-.189 14.581L410.291 304.92c-4.526 10.906-17.382 15.689-27.945 10.412l-129.718-64.981c-10.566-5.302-15.072-17.962-10.225-28.728l56.68-125.673a16.47 16.47 0 0 1 16.831-9.587z"
          fill="#fff"
        />
      </mask>
      <g mask="url(#b)" fill="#AEAED4">
        <path
          d="m322.082 182.849-103.048 39.296 7.36 19.301 103.048-39.296zm45.343-94.075-107.871-22.96-4.3 20.204 107.87 22.96zm96.611 64.688-56.094 129.789-8.178 43.498s58.544-48.53 60.231-53.167 22.025-106.736 22.025-106.736l-17.962-13.412z"
        />
      </g>
      <path
        d="m390.822 262.898-87.611-45.326c-6.804-3.513-9.766-11.662-6.818-18.73l41.546-99.493c3.324-7.975 12.766-11.367 20.417-7.346l89.128 46.797c6.838 3.584 9.74 11.867 6.641 18.953l-43.063 98.023c-3.422 7.783-12.676 11.052-20.237 7.147z"
        fill="#4F529F"
      />
      <path
        d="m417.16 171.855-88.945 30.217.349 1.025 88.945-30.217z"
        fill="#EC6463"
      />
      <path
        d="M432.247 148.503c-4.281-3.403-10.516-2.721-13.944 1.562a9.83 9.83 0 0 0-2.109 7.097l-66.22 22.495 1.627 4.78 66.318-22.532a10 10 0 0 0 1.972 2.102c4.28 3.403 10.516 2.721 13.944-1.563 3.403-4.281 2.721-10.516-1.563-13.944zm-2.382 10.806c-1.681 2.1-4.733 2.459-6.833.778s-2.459-4.734-.778-6.833 4.733-2.459 6.833-.778 2.459 4.733.778 6.833"
        fill="#fff"
      />
      <path
        d="M391.817 145.797c-17.311-8.517-34.274-.917-42.179 15.129-3.993 8.104-4.674 16.986-1.851 24.821l11.171-3.798c-1.282-4.644-.62-10.023 2.041-15.434 5.367-10.878 15.771-15.804 25.948-10.786 10.178 5.018 12.592 16.275 7.25 27.15s-15.385 15.201-25.616 10.164c-1.777-.882-3.295-1.921-4.601-3.111l-11.609 3.951c2.826 3.549 6.588 6.632 11.379 8.986 17.311 8.517 34.355.959 41.914-14.362 7.907-16.022 3.516-34.174-13.769-42.694z"
        fill="#fff"
      />
      <path
        d="m358.95 181.952-11.17 3.798a28.5 28.5 0 0 0 2.141 4.619l11.123-3.768a16.5 16.5 0 0 1-2.091-4.624z"
        fill="#EC6463"
      />
    </g>
  </g>
</svg>
