<svg
  aria-hidden="true"
  xmlns="http://www.w3.org/2000/svg"
  width="100"
  height="110"
  viewBox="0 0 100 110"
  fill="none"
  aria-hidden="true"
  class="gadget-info__logo"
>
  <path
    fill="currentColor"
    fill-rule="evenodd"
    d="m0 23.3697 6.5193 5.8007.3892-.4547-2.422-2.1646 3.1031-3.4294c.5005-.5374.8202-1.0748.987-1.5846.1668-.5098.1807-.992.0417-1.4467-.139-.4547-.417-.868-.834-1.2401-.417-.372-.8619-.5924-1.3345-.6889-.4726-.0826-.9591-.0275-1.4595.1929-.5005.2205-1.0009.6063-1.4873 1.1436L0 23.3697Zm4.0876 2.848L.7923 23.287l3.1137-3.4171c.4032-.4409.8202-.7578 1.2233-.9369.4031-.1791.7923-.2342 1.1676-.1653.3754.0551.7228.248 1.0704.5511.3336.2894.556.62.6672.9921.1112.3582.0972.744-.0278 1.1711-.1251.4272-.4031.8543-.8063 1.309l-3.1128 3.4267Zm10.9251-6.2245c.9174-.1654 1.8348-.5925 2.7661-1.2539.9314-.6613 1.6264-1.3916 2.0712-2.1907.4448-.7992.6533-1.5983.5977-2.3975-.0556-.7991-.3336-1.5432-.834-2.2321-.5004-.6889-1.1259-1.1849-1.8766-1.4881-.7367-.3031-1.5707-.372-2.4742-.2066-.9175.1653-1.8349.5924-2.7662 1.2538-.9314.6614-1.6264 1.3916-2.0712 2.1908-.4448.7991-.6394 1.5983-.5977 2.4112.0417.7991.3197 1.5432.8201 2.2321.5004.6889 1.1259 1.1849 1.8766 1.4881.7506.2893 1.5846.3582 2.4882.1929Zm4.2952-3.6375c-.4031.7027-1.0147 1.364-1.8488 1.9565-.834.5925-1.6541.9645-2.4603 1.1298-.8063.1516-1.543.0965-2.1963-.1653-.6533-.248-1.2094-.6889-1.6542-1.2952-.4448-.6062-.6811-1.2676-.7228-1.9703-.0417-.7027.139-1.4054.5421-2.1219.3892-.7165 1.0147-1.3778 1.8488-1.9703.834-.5925 1.6541-.9645 2.4604-1.116.8062-.1516 1.5429-.0965 2.1962.1653.6534.248 1.2094.6889 1.6542 1.2952.4448.6062.6811 1.2676.7228 1.9703.0417.7027-.139 1.4054-.5421 2.1219Zm.0134-9.3852 6.3108 6.8479.7228-.2894.1529-6.214c.0139-.1791 0-.3307-.0139-.4823-.0139-.1515-.0417-.2755-.0834-.3857v-.0138l.0695-.0414v.0138c.0417.1103.1251.2343.2085.3445.0834.1102.1946.2342.3059.3582l4.4342 4.3953.7228-.2893-.1946-9.2729-.5977.2342.1946 8.0742c.0006.1519.0099.3037.0278.4546.0139.1241.0417.2343.0834.3307v.0138l-.0973.0413v-.0137c-.0417-.0965-.1112-.2067-.1807-.3032-.0695-.0964-.1668-.2066-.2919-.3306l-4.4621-4.4642-.6811.2755-.1251 6.283c0 .1653.0139.3169.0278.4409.0139.1378.0417.248.0834.3444v.0138l-.1112.0414v-.0138c-.0417-.0965-.0973-.2067-.1668-.3031-.0449-.0623-.1014-.1303-.1657-.2078a12.5415 12.5415 0 0 1-.1123-.1367L19.919 6.7363l-.5977.2342ZM35.585 1.3508l1.2788 8.584 7.9928-1.1712-.0834-.5236-7.3951 1.0887-.5351-3.5822 6.5401-.9786-.0695-.496-6.5466.9658-.5148-3.4458L43.6611.7034l-.0834-.5236-7.9927 1.171ZM47.345 0l-.4309 8.6666.6255.0137.1706-3.4342 4.5694.2377c.4727.0276.8341.0689 1.0843.1378.2502.0827.4587.1929.6116.372.1529.1654.3058.4409.4448.8129l.9035 2.2873.6951.0276-.9036-2.246c-.1668-.3995-.3197-.7027-.4587-.9093-.139-.2067-.3058-.3445-.5004-.4272-.1254-.0443-.2797-.083-.4628-.1086l.0077-.1185a2.3986 2.3986 0 0 0 .8443-.2413c.3892-.1929.695-.4685.9175-.8267.2224-.3721.3475-.7854.3753-1.2539.0278-.5098-.0695-.9645-.2919-1.3641-.2225-.3857-.57-.7027-1.0426-.9507S53.4473.2893 52.7523.2618L47.345 0Zm.3734 4.7349 4.8115.2391c.5699.0276 1.0564-.0413 1.4595-.1929.4031-.1516.7089-.3858.9174-.689.2085-.303.3197-.6613.3475-1.0884.0278-.4271-.0556-.7854-.2363-1.116-.1807-.317-.4587-.5787-.834-.7716-.3892-.193-.8618-.3032-1.4317-.3307L47.9288.551l-.2104 4.1839Zm12.0395-3.7036-2.1407 8.4186 7.8538 1.9702.1251-.5235-7.2561-1.805.8967-3.5287 6.4011 1.5997.1251-.496-6.4003-1.5995.854-3.3607 7.256 1.805.1251-.5236-7.8398-1.9565Zm11.399 3.2265L67.376 12.084l3.5029 1.6672c.9452.4546 1.8627.6751 2.7384.6751.8757 0 1.6402-.2205 2.2936-.6338.6672-.4271 1.1676-.9921 1.529-1.7361.3475-.7302.4865-1.4881.4031-2.2597-.0834-.7715-.417-1.5018-.9452-2.177-.5282-.6751-1.2788-1.24-2.238-1.6947l-3.5029-1.6672Zm2.377 9.6036c-.7645 0-1.5708-.1929-2.4187-.5925l-2.9608-1.4193 3.3222-6.8616 2.9608 1.4055c.8479.3995 1.5152.9094 1.9878 1.5018.4726.6063.7506 1.2401.834 1.9153.0834.6751-.0278 1.3364-.3475 1.984s-.7645 1.1574-1.3483 1.5156c-.5839.3583-1.265.5512-2.0295.5512Zm12.2458-1.42-5.7826 6.5172 4.7261 4.1335c.5144.4547 1.0009.7578 1.4596.9094.4587.1516.8757.1653 1.2649.0551.3892-.124.7367-.3582 1.0565-.7165.417-.4684.6116-.9645.5838-1.488-.0269-.5071-.2494-.9625-.6548-1.3786l.0793-.0888c.2387.1588.5122.2576.7979.2962.3058.0413.6116 0 .9174-.1102.3058-.1103.5838-.3032.834-.5925.4449-.5098.6256-1.0609.5422-1.6672-.0834-.6062-.4588-1.1987-1.126-1.7774l-4.6983-4.0922Zm.9869 11.0778c-.5004-.0137-1.0564-.3031-1.682-.8404l-4.2813-3.734 2.4066-2.7122 4.2795 3.7318c.6255.5374.9731 1.061 1.0565 1.5432.0834.4822-.0695.9507-.4588 1.3916-.3753.4271-.8201.6338-1.3205.62Zm-3.2181-7.6682 2.3285-2.6242 4.2257 3.6788c.5282.4685.8201.9232.8896 1.4054.0695.4822-.0695.9232-.4309 1.3227-.3614.3996-.7784.5925-1.2649.5925-.4865 0-.9869-.2342-1.5152-.6889l-4.2328-3.6863Zm8.7923 11.1388-2.3769 1.8326.3475.4822 2.377-1.8325 7.2838.0138-.4309-.565-6.005-.0137a3.546 3.546 0 0 0-.4309.0275c-.1112.0138-.1946.0414-.2641.0965l-.0139.0137-.0556-.0826.0139-.0138c.0695-.0551.1251-.124.1668-.2342.0556-.0965.0973-.248.139-.4134l1.4734-5.7594-.4448-.5649-1.7793 7.0132Zm-16.91 59.8659H24.3223V35h51.1085v51.8557ZM62.0132 71.7179c.198-.0237.393-.0471.4595-.073.1214-.0479-.7645-.1663-.8964-.1755-.0236-.0014-.0624-.0056-.1099-.0107-.1941-.0209-.5332-.0575-.5749.0154-.0184-.0011-.0836-.0135-.1662-.0292-.1905-.0363-.4738-.0903-.4904-.0633-.2017-.0108-.3468.0254-.4977.063-.1284.032-.261.065-.4363.0712-.4141-.0815-.9531-.1241-1.3733-.0536-.4193-.0418-.879-.0072-1.3224.0262a19.0017 19.0017 0 0 1-.5122.0342c-.2559.0124-2.6455.0364-5.1328.0613-2.7113.0272-5.5387.0556-5.8452.0714-.547-.0666-1.2033-.1056-1.7522-.0666-.5739-.0925-3.2323-.1913-3.8229-.1503-.2883-.0452-.666-.0598-.9566-.0366-.1334-.022-.2977-.0226-.4337-.0226-.1249 0-.1456.0437-.1762.1084-.0155.0327-.0335.0708-.0687.1112-.104.1194-.1039.2086-.1038.311 0 .0701.0001.1464-.0332.2427-.0146.0423.0127.2711.139.2631-.0364.0689-.0741.1131-.1056.1501-.0617.0724-.1.1173-.06.2655.0488.182.0328.3949.0177.597-.0161.2156-.0313.4189.0339.5593-.0754.0994-.0687.3636.046.4255.068.0364.082.0839.1018.1512a.8825.8825 0 0 0 .0343.1002c.0487.1142.1167.1277.2123.1467.0293.0058.0612.0121.0959.022.2572.0726.6692.094.9334.0556.2279.0355.5689.059.7959.0247.2707.0474 1.6361.0938 1.9115.059.2844.0443 6.1217.1859 6.3844.1356.271.0316.6859.0218.9534-.0312.2701.0363.6836.0173.9516-.0301.229.0268 2.4372-.0336 2.7015-.0845.2607.0378 1.5343-.0062 1.746-.0523.2663.0363 3.4478-.1524 3.6604-.205.2575.025.6505.0032.9079-.0307.1837.0354.2209.0303.3358.0145a4.1677 4.1677 0 0 1 .1364-.0169c.3676-.0379.7488-.182 1.0906-.3114l.0199-.0075c.1602-.0232.281-.086.3012-.2208.0779-.0073.128-.0352.1818-.0653.0475-.0265.0979-.0546.1728-.0716.1225-.0279.1777-.3612-.0091-.4525-.1945-.0952-.1941-.0978-.1882-.1463.0046-.0383.0128-.1054-.0693-.2697-.0306-.061.1704-.1015.3377-.1353.1901-.0383.3367-.0679.0511-.1087-.0681-.0098.0624-.059.2055-.1128.1377-.0518.2871-.1081.2816-.1377-.0327.005-.1024-.0568-.1876-.1323-.1273-.1129-.2891-.2563-.413-.2527-.0016-.1121.2384-.1815.4114-.2316.1812-.0524.2888-.0836-.0325-.1201-.6736-.0779-.2513-.1285.1581-.1776Zm.8821-4.3326a.4858.4858 0 0 1-.1246-.2098c.1419.1166 1.2319.9652 1.3164.8891-.0903-.0666-.4592-.404-.9111-.8173-.6483-.593-1.4676-1.3423-1.881-1.6732-1.1534-.923-2.3047-1.8537-3.3856-2.8475-1.4932-1.3726-3.0463-2.701-4.6056-4.0347a489.33 489.33 0 0 1-1.6751-1.4371l.0035-.0021c.1123-.0672.2376-.1423.2986-.2112.0792-.0907.1793-.1214.2833-.1534.0801-.0246.1624-.0499.2393-.1037a.5482.5482 0 0 1 .0431-.023c.0992-.0509.3239-.166.2443-.2097.0941-.0396.1617-.1087.2276-.1762.0887-.0908.1743-.1786.3178-.1871l-.0061.0074c.0402-.032.0774-.0669.1146-.1017a2.2567 2.2567 0 0 1 .0962-.0866c.3502-.2887.714-.5606 1.09-.8147.0776-.0521.1513-.1101.225-.1681.1417-.1113.2832-.2227.4522-.2925l-.0012.0033c.0839-.1161.2025-.1795.3208-.2428.06-.0321.1199-.0641.1751-.1029.1435-.1032.2837-.2106.4236-.3178.1592-.1219.318-.2436.4811-.3586a14.976 14.976 0 0 0 .0937-.0662c.1573-.1116.319-.2264.4972-.3134.0973-.046.187-.1111.2773-.1767.0767-.0557.1539-.1118.2365-.1566.1134-.0607.2113-.146.3092-.2313.147-.1281.294-.2562.4934-.3007.0582-.0131.1005-.0516.1432-.0904l.0178-.0161c.0694-.0637.1456-.1181.2219-.1726.0581-.0416.1162-.0831.1714-.1288.1678-.1376.3547-.2464.5418-.3554.1985-.1156.3972-.2313.5734-.3816.0438-.038.0949-.0516.1448-.065.0525-.0139.1037-.0276.1438-.0689.1927-.1979.4248-.3349.6571-.4721.1353-.0799.2706-.1599.3983-.2519.0767-.0548.1579-.1027.2391-.1504.1548-.0911.3094-.1821.4319-.3215-.2705.1413-.5273.3067-.784.4721-.2969.1913-.5935.3824-.9107.5357.0451-.0937.1167-.1482.1973-.2023.1933-.1303.3839-.2666.5648-.4163.1906-.1559.3801-.3148.551-.4996.0243-.0279.0567-.0453.0895-.0628.0401-.0214.0807-.0431.107-.0847-.1649-.0692-.1729-.0642-.3142.0232a8.8817 8.8817 0 0 1-.0453.0279c-.3504.211-1.1988.7448-1.432.9102-.0829.0586-.1718.102-.261.1455-.1132.0553-.2268.1107-.3287.1976-.2889.2473-.6258.4329-.968.5998l-.0105.005c-.0493.024-.0842.0409-.118-.0264-.0319-.0614.007-.0768.0396-.0897.0088-.0035.0171-.0068.0235-.0108.2313-.1551.4651-.3092.7023-.4532.0812-.0497.7217-.4439.9554-.5942.1907-.1233.3741-.2586.5577-.3939.3415-.2519.6833-.504 1.0728-.6793a.2086.2086 0 0 1 .0259-.009c.0388-.0119.0888-.0272.0785-.0931-.0079-.0534-.0367-.0378-.0656-.0221-.0266.0145-.0534.0291-.064-.0106.031-.0259.0618-.052.0924-.0779.0884-.0749.1759-.149.2671-.2173.0241-.0175.0478-.0358.0716-.0541.098-.0755.1968-.1517.3226-.1759.0322-.0071.0328-.0312.0234-.0562-.0114-.0301-.0316-.0283-.056-.0155-.0183.0091-.0367.0186-.0551.028-.0558.0287-.1121.0576-.1692.0797-.0117.0046-.0239.0108-.0363.017-.0567.0286-.1171.059-.1573-.0456-.0315-.0819.0171-.1019.0615-.1202a.1732.1732 0 0 0 .0415-.0211c.0936-.0738.1919-.1416.2896-.209.0373-.0257.0745-.0513.1113-.0772-.0741.0163-.1451.046-.2143.075-.0931.039-.1831.0767-.2737.0788-.1823.0036-.3448.0579-.5074.1123-.0545.0182-.1089.0365-.1642.0528-.0541.0169-.1011.0465-.149.0766-.0645.0406-.1306.0823-.2181.0954.0525-.0754.119-.1333.1841-.19.0965-.084.1899-.1653.2305-.2971-.0071 0-.0145-.0008-.022-.0015-.0163-.0017-.0325-.0033-.0448.003l-.1229.067c-.2097.1142-.4191.2282-.6264.3484-.0824.0488-.1689.0705-.2158-.0134-.0346-.0582.0199-.0917.0665-.1204.0123-.0076.0241-.0148.0335-.0221.0856-.0638.1817-.1072.2775-.1505.0535-.0242.1068-.0483.1582-.0759.1018-.055.1955-.1206.2889-.1859.0654-.0458.1306-.0915.1985-.1334.1445-.0888.2878-.1832.431-.2775.0638-.042.1275-.084.1913-.1254-.3136.0892-.5929.2508-.8715.412-.2255.1305-.4505.2607-.693.3521-.0095-.0226.0012-.0406.011-.0573.0122-.0206.0231-.0392-.006-.0617-.1323.086-.2683.1595-.4337.1669.0355-.0416.0807-.0729.1254-.104.0808-.0561.1604-.1114.1798-.2242 0-.0018.0023-.0031.0053-.0042.0033-.0011.0075-.002.0106-.0029a8.4711 8.4711 0 0 1 .1372-.0721c.1165-.0603.2332-.1208.3405-.1933.0759-.0494.1567-.0904.2394-.1323.136-.0691.2771-.1407.4099-.2563-.1205.0095-.2139.0608-.3028.1095-.0696.0383-.1366.0751-.2116.0889a2.0237 2.0237 0 0 1 .0916-.0726c.0836-.0637.1673-.1274.2283-.2306-.0915.0065-.1603.0489-.2266.0898a1.0305 1.0305 0 0 1-.0766.0444c-.0118.0059-.0054-.0075.0058-.0304.0194-.0401.0531-.1096.0279-.157-.0116-.0223-.0615.002-.126.0334-.093.0452-.2161.1052-.2989.0618.047-.0424.0952-.081.1434-.1197.0996-.0799.1988-.1595.2862-.2707-.1896.004-.342.0865-.4827.1626-.0367.0198-.0726.0392-.1082.0567-.516.254-1.0158.5382-1.5149.8221-.1278.0727-.2556.1454-.3836.2175-.5176.2901-1.0276.5921-1.5258.9135a5.4868 5.4868 0 0 0-.0425.0279c-.067.0442-.1208.0797-.1813.1-.1131.0358-.2057.1054-.2973.1743-.0553.0416-.1103.0829-.1693.1164-.3627.2062-.7134.4303-1.0557.6612-.1042.0699-.2084.1396-.3126.2093-.4835.3238-.966.6468-1.4454.9746-.081.0555-.1623.1107-.2436.166-.3533.2402-.7072.4808-1.045.7442-.13.1005-.266.1937-.4021.287a13.0686 13.0686 0 0 0-.2706.1888 339.831 339.831 0 0 1-.2659.1898c-.3807.2714-.7604.5422-1.1353.8212-.1653.1249-.3337.246-.5019.3671-.2013.1447-.4025.2894-.5981.4405a33.8283 33.8283 0 0 1-.3067.235c-.8668-.7628-1.7241-1.4881-2.5866-2.2178-.8792-.7438-1.7638-1.4923-2.6695-2.2897l-.2942-.2588c-.7672-.6744-1.5361-1.3504-2.2758-2.0585-.0592-.0565-.1172-.1163-.1755-.1764-.1972-.2033-.3989-.4112-.6665-.5127-.1262-.0479-.2188-.0205-.2918.001-.0489.0145-.089.0264-.1246.0112-.2982-.124-1.2466 1.3789-1.2378 1.3664-.0595.0895-.153.1916-.2546.3025-.2544.2778-.5592.6105-.5056.9373.0913.5533.8602 1.164 1.3945 1.5884.1016.0807.1947.1546.273.2201.4358.3655.8571.6769 1.2749.9858.4924.3639.9799.7243 1.4802 1.1651.195.172.389.3458.5827.5193.3891.3487.7771.6963 1.1698 1.0259.3888.3267.7964.6895 1.1917 1.0414.2082.1853.4129.3676.6098.54.0649.0573.128.1124.1915.1677l.0161.0141c-.2743.2299-.5398.4624-.8068.6963-.2065.1809-.414.3626-.6272.5445-.0559.048-.1789.1523-.343.2915-.6998.5936-2.1465 1.8207-2.3192 2.0097-.1236.135-.2784.2363-.433.3374-.1517.0992-.3032.1983-.425.3291-.0951.103-.2016.1975-.3085.2924-.0822.0729-.1646.1461-.2423.2235-.0471.0467-.0908.0979-.1346.1492-.0983.1151-.1966.2302-.3328.2939-.2098.0968-.3833.2434-.5541.3877-.0424.0358-.0846.0715-.1272.1062-.284.2305-.5349.5045-.7834.7759-.0386.0421-.0771.0842-.1157.126a3.6083 3.6083 0 0 1-.0614.0636c-.125.1275-.2572.2623-.2421.4606.0071.0881.0117.1765.0164.2649.015.2854.03.5712.1267.8479.1047.3015.1903.6055.1103.9248-.0068.0256-.0047.0595.0026.0872.0968.4225.3906 1.0003.495 1.1384.0719.0937.1692.199.2959.2371l.0151.0045c.1481.0441.1487.0443.1345.2062.0458-.0268.0919-.0519.1373-.0767.0999-.0544.1968-.1073.282-.1729a1.7845 1.7845 0 0 0 .1167-.1027c.0621-.0579.1242-.1158.2004-.1598a1.2396 1.2396 0 0 0 .2712-.2035c.2528-.2598.02-.15-.1729-.059-.1679.0792-.3057.1441-.0673-.0609.2325-.1993.461-.4036.6895-.6079.268-.2396.5361-.4793.8108-.7111.2865-.2432.5638-.4972.8409-.751.1707-.1564.3414-.3128.5143-.4666.602-.5354 1.2077-1.0668 1.8138-1.5985l.0073-.0064c.0756-.0676.1551-.1298.2361-.1932.0356-.0278.0714-.0559.1073-.0847.0196.0495.0013.0737-.0174.0984-.0124.0164-.0249.033-.0269.0572.2241-.1723.4345-.3576.6439-.5421.2155-.1898.4299-.3787.6573-.5517.3545-.2699.7055-.5513 1.0076-.876.0684-.0732.1438-.1229.2178-.1717.0477-.0315.0948-.0626.1391-.0993.0279-.0226.106-.0884.2124-.1781.2524-.2128.6638-.5596.9407-.7806.0793.0741.1583.1485.2375.2231.1325.1246.2657.25.4023.3762.2701.2502.8763.7899 1.0663.9503.0106.009.0274.0236.0492.0425.2033.1761.8398.7272.9036.677-.1325-.1162-.259-.2387-.3856-.3612-.1547-.1498-.3096-.2997-.4757-.4386.3748.0758 2.195 1.6567 2.4672 1.9069.1276-.2314.906.4795 1.121.6759l.0268.0245c.7651.6996 1.5621 1.3732 2.3657 2.0257-.0123-.0641-.0414-.1121-.0712-.1613a.8076.8076 0 0 1-.0505-.0928c-.0233-.0538-.0856-.1401-.1625-.2468-.0383-.0531-.0803-.1113-.1229-.173.367.1789.6881.4833 1.0005.7794.1629.1544.3235.3066.4869.4375a.4867.4867 0 0 1-.0463-.2713c.0598.0604.5698.4171.6188.3901.1492-.0853.2327-.0064.3398.0948.0557.0527.1178.1114.1989.156.3637.2005.7219.4917 1.0825.7847.2375.1931.476.387.7178.5563-.0755-.0814-.1735-.1695-.2774-.2629-.2556-.2298-.547-.4918-.6288-.7666.0022.0068.0288.0156.056.0246.028.0093.0566.0187.0595.0263-.0501-.1247-1.9296-1.9322-1.9671-1.9165.2578-.1094.4578.1115.6435.3166.1489.1644.2886.3188.4418.2851a37.9474 37.9474 0 0 0-.3114-.3098c.1172-.0527.3555.2229.491.3795.0617.0715.1021.1182.0999.0978.1118.1208.246.2188.395.2886a.064.064 0 0 1-.0191-.064c.0378-.0155.2102.135.3541.2605.0852.0744.1604.14.1917.1573.0943.0563.238.1931.3976.3448.2827.2689.6148.5848.8083.5835a.6774.6774 0 0 1-.2003-.2309c.1513.1069.2934.2248.4354.3426.1986.1647.3972.3295.6209.4641a1.1148 1.1148 0 0 1-.1666-.2125c.0195.0095.0754.0553.1463.1133.1713.1403.4303.3523.4757.2982.1057-.1292-.6617-.7822-1.1642-1.2098-.2506-.2133-.4354-.3705-.4132-.3788.0292-.0312-.1925-.2032-.2553-.2519-.0084-.0065-.014-.0108-.0157-.0123.0315.0073-.0087-.0502-.0622-.1266-.0809-.1156-.1922-.2746-.1316-.3188.0108-.0094.3607.244.7368.5164.4403.3188.9165.6637.9262.6431.0395-.0736-.2729-.2926-.5934-.5173-.3056-.2144-.6187-.4339-.6412-.5375.2276.157.4482.3232.6688.4894.3544.2669.7088.5339 1.0922.763ZM29.6355 107.082h-5.3144v-8.5215h-2.583v10.8215h7.8974v-2.3Zm-10.5126 2.3h-8.0402V98.5605h8.0402v2.2675h-5.4572v2.081h4.7613v2.22h-4.7613v1.985h5.4572v2.268Zm20.7569 0h-8.0399V98.5605h8.0399v2.2675h-5.4563v2.081h4.7604v2.22h-4.7604v1.985h5.4563v2.268Zm-31.286-7.112c0-1.073-.4187-2.064-1.18-2.789-.785-.7492-1.8891-1.1616-3.1091-1.1616C1.8106 98.3194 0 100.001 0 102.318c0 2.1 1.6284 3.665 3.9598 3.806l.076.005-.0164.026-2.0209 3.227h2.8983l2.7865-4.489c.6296-1.011.9105-1.82.9105-2.623Zm-4.2809-1.87c1.0411 0 1.8874.818 1.8874 1.822 0 1.005-.8464 1.822-1.8874 1.822-1.0408 0-1.888-.817-1.888-1.822 0-1.004.8472-1.822 1.888-1.822Zm40.0903-1.8395 3.8516 5.8615 3.8364-5.8615h1.9235v10.8215H51.432v-5.581l-2.4684 3.864h-1.417l-2.4841-3.897-.0003 5.614H42.495V98.5605h1.9082Zm38.6631 2.3315h-3.432v-2.3315h9.4317v2.3315h-3.4167v8.49h-2.583v-8.49Zm11.9762 1.791 1.503.354c2.2481.496 3.2076 1.414 3.2076 3.068 0 2.127-1.7331 3.502-4.4156 3.502-1.2698 0-2.3809-.314-3.2149-.907-.9288-.661-1.4639-1.621-1.5909-2.854h2.5862c.195.98 1.0314 1.541 2.2988 1.541.9939 0 1.5631-.367 1.5631-1.009 0-.504-.3839-.823-1.1739-.975l-1.7719-.401c-2.1014-.461-3.0806-1.468-3.0806-3.165 0-1.049.405-1.9352 1.1698-2.5648.7578-.6231 1.8146-.9528 3.056-.9528 3.8663 0 4.4627 2.6796 4.5536 3.5356h-2.602c-.1727-.915-.7707-1.38-1.7777-1.38-.4681 0-.861.1-1.1358.288-.29.2-.4431.493-.4431.849 0 .659.507.905 1.2683 1.071Zm-30.0709 6.699h-8.0402V98.5605h8.0402v2.2675h-5.4572v2.081h4.761v2.22h-4.761v1.985h5.4572v2.268Zm4.59-10.8215 5.2537 6.2235v-6.2235h2.5829v10.8215h-2.0064l-5.2217-6.062v6.062h-2.5836V98.5605h1.9751Z"
    clip-rule="evenodd"
  ></path>
</svg>
