<?xml version="1.0" encoding="utf-8"?>
<!-- Generator: Adobe Illustrator 26.4.0, SVG Export Plug-In . SVG Version: 6.00 Build 0)  -->
<svg version="1.1" id="Ebene_1" xmlns="http://www.w3.org/2000/svg" xmlns:xlink="http://www.w3.org/1999/xlink" x="0px" y="0px"
	 viewBox="0 0 453.5 85.7" style="enable-background:new 0 0 453.5 85.7;" xml:space="preserve">
<style type="text/css">
	.st0{fill:#1D1D1B;}
</style>
<path class="st0" d="M7,84.2V69.9h22.3V14.4h-1.1L11.4,36.4L0,27.5L19.8,1.4h27.3v68.4h17.6v14.4H7z M99.7,85.6
	c-10.8,0-18.9-3.8-24.1-11.3c-5.2-7.5-7.8-18-7.8-31.6s2.6-24,7.8-31.6C80.8,3.8,88.9,0,99.7,0c10.8,0,18.9,3.8,24.1,11.3
	c5.2,7.5,7.8,18,7.8,31.6s-2.6,24-7.8,31.6C118.6,81.9,110.5,85.6,99.7,85.6z M99.7,70.6c4.7,0,8-1.7,9.8-5.2
	c1.8-3.5,2.7-8.4,2.7-14.7V35c0-6.3-0.9-11.2-2.7-14.7c-1.8-3.5-5.1-5.2-9.8-5.2c-4.7,0-8,1.7-9.8,5.2c-1.8,3.5-2.7,8.4-2.7,14.7
	v15.7c0,6.3,0.9,11.2,2.7,14.7C91.7,68.8,95,70.6,99.7,70.6z M322.4,1.4h94.7c5.5,0,10.4,0.9,14.9,2.6c4.5,1.7,8.3,4.3,11.5,7.8
	c3.2,3.4,5.6,7.8,7.4,12.9c1.7,5.2,2.6,11.2,2.6,18.1c0,6.9-0.9,12.9-2.6,18.1c-1.7,5.2-4.2,9.5-7.4,12.9c-3.2,3.4-7,6-11.5,7.8
	c-4.5,1.7-9.5,2.6-14.9,2.6h-94.7V1.4z M417.1,68.2c5.4,0,9.6-1.5,12.7-4.5c3.1-3,4.6-7.8,4.6-14.5V36.4c0-6.6-1.5-11.5-4.6-14.5
	c-3.1-3-7.3-4.5-12.7-4.5h-76.7v50.8H417.1z M225.3,38L146.6,0.2v8.1l71.6,34.4v0.4l-71.6,34.4v8.1l78.7-37.8V38z M307.6,8.3V0.2
	L228.9,38v9.9l78.7,37.8v-8.1l-71.7-34.4v-0.4L307.6,8.3z"/>
</svg>
