<svg xmlns="http://www.w3.org/2000/svg" viewBox="0 0 242 242">
  <g fill="none" fill-rule="evenodd">
    <path fill="#CFEB5F" fill-rule="nonzero" d="M155 87.3c-7.2-4.2-9.3-2.8-15.7-7.8-10-8-22-17-33.9-19.5a1251 1251 0 0 0 8.7 7.2c-.1.2-.7 0-.7 0a31.8 31.8 0 0 0-12-2.3c-1 0-1.3.2-1.5.5 0 .1 0 .5.3 1 1.4 1.8 4.7 5.4 10.3 8.8 5.7 3.5 15.8 8.4 24.7 12.4 4 1.8 6.9 4.1 6 6.8-1 3-5 3.5-8.2 2.2-2.5-1-5-4.2-8.8-8.5-6.8-7.4-10-10.4-21.2-8.1C97.4 81 92.1 85.7 88 90.5a18.8 18.8 0 0 0-4.6 10s-.8-1.4 0-5c1.3-6.3-1.6-9-1.6-9-14.7 20.9 6.3 39.7 22.4 21.7 0 0-5.3 11.7-4.8 15.3-2.3.7-3.3 2.8.1 5.3 3.7 2.7 12.8 2.5 20-.6a58 58 0 0 0 25.7-23c1-1.7 2-2.4 2.7-2.7 1.1-.4 8.5 0 12-1.9.5.3 1.2.4 1.8.3 2.5-.2 4-3.1 4-3.1s-3.1-6-10.7-10.5Zm-27.8 29.9c-6.8 4.9-14.2 6.2-18.8 4.2a262 262 0 0 0 20.6-18.3s-2.2-5.6-6.2-2.2c-4 3.3-7.5 7.4-9 8.7-.8.9-2.3 2.4-3.2 1.7-1-.8 2.2-7.9 4.6-13.8 3.3-8-.5-10.6-5-10.3-4 .2-9.4 2.6-13.4 5-1 .6-1.8 1-2.1.8-.3-.3 0-.7.7-1.3 10.4-8.8 25.3-8.5 26.6-2.1 1 5.1-10 18-9.2 18.2l.5-.2c3.6-4.7 10.4-12 13-11.6 4.6.5 6.2 6.5 6.2 6.5L117 116.3c3.3.9 6.7 1.2 10.1.9Zm-56.8 26.9-1.8 3.1c-1-1-2.3-1.4-4-1.4-1.6 0-2.9.6-3.8 1.6-1 1-1.4 2.5-1.4 4.4 0 3.8 1.8 5.7 5.4 5.7 1.5 0 3-.6 4.2-1.6l1.5 3.3c-1 .7-2 1.2-3.2 1.5-1 .2-2.2.3-3.3.3a9 9 0 0 1-6.6-2.5 9.1 9.1 0 0 1-2.4-6.7c0-2.8.9-5.1 2.7-6.9a9.9 9.9 0 0 1 7.2-2.6c2 0 3.9.6 5.5 1.8Zm.7 7.5c0-2.7.8-5 2.4-6.7a8.2 8.2 0 0 1 6.3-2.6c2.8 0 5 .8 6.4 2.5 1.6 1.7 2.3 4 2.3 6.8 0 2.9-.8 5.2-2.3 6.9a8.2 8.2 0 0 1-6.4 2.5c-2.7 0-4.9-.9-6.4-2.6a10 10 0 0 1-2.3-6.8Zm4.4 0c0 4 1.5 6 4.3 6 1.3 0 2.4-.6 3.2-1.6.7-1 1.1-2.5 1.1-4.4 0-4-1.4-5.9-4.3-5.9-1.2 0-2.4.6-3.1 1.6a7 7 0 0 0-1.2 4.3Zm26.2-5c-.8-.5-1.6-.8-2.5-.8-1 0-1.9.5-2.6 1.4-.8.9-1.2 2-1.2 3.2v10.3h-4.2v-18h4.2v1.6a6 6 0 0 1 4.7-2c1.5 0 2.6.2 3.4.7l-1.8 3.6Zm18 6.3h-12.9c0 1.5.6 2.6 1.5 3.4 1 .8 2.1 1.2 3.7 1.2 2 0 3.4-.5 4.4-1.5l1.6 3.2c-1.5 1.2-3.7 1.8-6.6 1.8-2.8 0-5-.8-6.6-2.4a9 9 0 0 1-2.4-6.8c0-2.8.9-5 2.6-6.9 1.7-1.7 4-2.6 6.4-2.6 2.6 0 4.7.8 6.3 2.3a8 8 0 0 1 2.4 6c0 .8-.2 1.6-.4 2.3Zm-12.7-3.1h8.8c-.2-2.7-1.7-4-4.4-4-2.4 0-3.9 1.3-4.4 4Zm18 9.9-.9 1.3h-2.4v-25l4.3-1v8.3a7 7 0 0 1 3.7-1c2.6 0 4.7.8 6.4 2.5a8.8 8.8 0 0 1 2.4 6.4c0 3-.8 5.4-2.5 7.2a8.6 8.6 0 0 1-6.6 2.6c-1.5 0-3-.4-4.3-1.3Zm1-12.8v9.4c.6.8 1.5 1.2 2.5 1.1 2 0 3.5-.5 4.3-1.4.9-1 1.3-2.5 1.3-4.6 0-3.7-1.8-5.5-5.3-5.5-1.2 0-2.2.3-2.8 1Zm13.7 4.7c0-2.7.7-5 2.3-6.7a8.2 8.2 0 0 1 6.4-2.6c2.7 0 4.8.8 6.4 2.5 1.5 1.7 2.2 4 2.2 6.8 0 2.9-.7 5.2-2.3 6.9a8.2 8.2 0 0 1-6.3 2.5c-2.8 0-5-.9-6.5-2.6a10 10 0 0 1-2.3-6.8Zm4.3 0c0 4 1.5 6 4.4 6 1.2 0 2.4-.6 3-1.6.9-1 1.2-2.5 1.2-4.4 0-4-1.4-5.9-4.2-5.9-1.3 0-2.5.6-3.2 1.6a7 7 0 0 0-1.2 4.3Zm13.9 0c0-2.7.8-5 2.3-6.7a8.2 8.2 0 0 1 6.4-2.6c2.7 0 4.9.8 6.4 2.5s2.2 4 2.3 6.8c0 2.9-.8 5.2-2.4 6.9a8.2 8.2 0 0 1-6.3 2.5c-2.8 0-5-.9-6.5-2.6a10 10 0 0 1-2.2-6.8Zm4.4 0c0 4 1.4 6 4.3 6 1.2 0 2.4-.6 3.1-1.6.8-1 1.2-2.5 1.2-4.4 0-4-1.5-5.9-4.3-5.9-1.3 0-2.5.6-3.2 1.6a7 7 0 0 0-1.1 4.3Zm14.9-5.6h-2.1v-3.4h2.1V139l4.2-1.6v5.2h5v3.4h-5v8c0 1.2.2 2.1.6 2.7.4.5 1.1.8 2.2.7 1 0 2-.2 2.8-.8v3.9c-1 .3-2.4.5-4.2.5-1.8 0-3.2-.5-4.1-1.5-1-1-1.5-2.5-1.5-4.4v-9Z"/>
  </g>
</svg>