<?xml version="1.0" encoding="UTF-8"?>
<svg width="242px" height="242px" viewBox="0 0 242 242" version="1.1" xmlns="http://www.w3.org/2000/svg" xmlns:xlink="http://www.w3.org/1999/xlink">
    <title>Coreboot Logo</title>
    <defs/>
    <g id="Artboard" stroke="none" stroke-width="1" fill="none" fill-rule="evenodd" transform="translate(-76.000000, -76.000000)">
        <g id="logo" transform="translate(76.000000, 76.000000)">
            <rect id="Rectangle" fill="#FFFFFF" x="0" y="0" width="242" height="242"/>
            <g id="coreboot_logo" transform="translate(55.000000, 60.000000)" fill="#CFEB5F" fill-rule="nonzero">
                <path d="M99.9286848,27.2817226 C92.8078497,23.0729342 90.7327766,24.5398409 84.3394572,19.4646179 C74.3581628,11.5488056 62.2797495,2.5417243 50.4025052,0 C50.4025052,0 53.3043006,2.33882506 58.6697286,6.580516 C59.0472651,6.89309051 59.1464718,7.03841024 59.0720668,7.16179491 C58.9563257,7.35372663 58.4465136,7.13163421 58.4465136,7.13163421 C54.2963674,5.56053602 49.6116075,4.66394071 46.434238,4.87232372 C45.3843006,4.94087076 45.0563674,5.10812554 44.8992902,5.40699064 C44.8276409,5.54682661 44.8193737,5.92520628 45.1748643,6.39132616 C46.5527349,8.21741935 49.9037161,11.792833 55.4620459,15.1872825 C61.177453,18.674956 71.2662213,23.6240524 80.1920668,27.5888133 C84.1851357,29.3545851 87.0648852,31.7180871 86.1472234,34.4435175 C85.1248434,37.4787805 81.1868894,37.8928046 78.0177871,36.6370228 C75.4549478,35.6170428 73.057453,32.4172669 69.1663466,28.1371897 C62.4202923,20.6792715 59.2208768,17.7180393 48.0298121,19.9800917 C42.4191232,21.1179726 37.1253445,25.6859474 32.8925261,30.5061754 C30.0678914,34.0514284 28.7093111,37.0016931 28.2987056,40.5579136 C28.2987056,40.5579136 27.5270981,39.1458445 28.2987056,35.5402701 C29.6379958,29.2339423 26.7224217,26.530447 26.7224217,26.530447 C11.9626722,47.3687477 32.9586639,66.1917653 49.1458873,48.1556677 C49.1458873,48.1556677 43.8493528,59.8580186 44.2902714,63.510205 C42.0305637,64.2450293 41.0274739,66.3124081 44.4087683,68.8075204 C48.1014614,71.5329508 57.1761169,71.2971489 64.3327766,68.237209 C77.6926096,62.5231276 86.0204593,51.8764011 90.1485595,45.1149209 C91.1130689,43.5328552 92.1326931,42.7651283 92.8381628,42.5128752 C93.9101461,42.1290118 101.278998,42.5704547 104.729186,40.6209769 C105.323488,40.8888394 105.979718,40.9911854 106.627891,40.9171001 C109.127349,40.7279103 110.651273,37.7502268 110.651273,37.7502268 C110.651273,37.7502268 107.490438,31.7537316 99.9286848,27.2817226 Z M72.2279749,57.2011353 C65.382714,62.051524 57.9615031,63.4032716 53.3704384,61.3962143 C60.6318163,56.1592203 73.9888935,43.0585097 73.9888935,43.0585097 C73.9888935,43.0585097 71.7677662,37.4870061 67.7581628,40.8979069 C63.8780793,44.1881649 60.2956159,48.3201806 58.8819207,49.6362838 C58.005595,50.4588483 56.5174948,51.9833345 55.6411691,51.322541 C54.5719415,50.5191697 57.7520668,43.4012449 60.1853862,37.5034574 C63.4922756,29.4560347 59.6865971,26.9444711 55.2250522,27.1665635 C51.2209603,27.3667209 45.7508142,29.7823187 41.8321503,32.1650138 C40.7298539,32.8422586 39.9665136,33.2617665 39.685428,32.9875783 C39.4043424,32.7133902 39.6992067,32.3322686 40.4267223,31.720829 C50.8434238,22.9468077 65.7078914,23.1689001 67.0389144,29.5958707 C68.0943633,34.7204475 57.0934447,47.6237426 57.8154489,47.8321257 C57.8843424,47.8513188 58.0441754,47.7718043 58.2729019,47.615517 C61.8856785,42.9131899 68.7226722,35.6910736 71.2882672,35.9707456 C75.8848434,36.469768 77.4721503,42.5320684 77.4721503,42.5320684 L62.1392067,56.2963144 C65.4263986,57.1640077 68.8378199,57.4699643 72.2279749,57.2011353 Z M15.382547,84.0715756 L13.5747808,87.2165139 C12.582714,86.2861021 11.2526096,85.8208961 9.58446764,85.8208961 C7.98246347,85.8208961 6.71757829,86.3509933 5.78981211,87.4111875 C4.86204593,88.4713817 4.39724426,89.9337186 4.3954071,91.7981982 C4.3954071,95.5765111 6.20409186,97.4656676 9.82146138,97.4656676 C11.3444567,97.4783987 12.8177983,96.9272084 13.9550731,95.9192463 L15.5093111,99.2314394 C14.5238182,99.886372 13.4362398,100.374618 12.2906054,100.676411 C11.2199238,100.894048 10.1287634,100.996088 9.03607516,100.98076 C6.24175365,100.98076 4.03716075,100.170077 2.42229645,98.5487108 C0.80743215,96.9273448 -1.02798772e-14,94.6817437 0,91.8119076 C0,88.9731461 0.884592902,86.6800191 2.65377871,84.9325265 C4.42296451,83.1850339 6.83515658,82.3103736 9.89035491,82.3085457 C11.8680064,82.2666947 13.8023697,82.887638 15.382547,84.0715756 Z M16.1238413,91.6062664 C16.1238413,88.8643848 16.9211691,86.6279233 18.5158246,84.896882 C20.1104802,83.1658407 22.2149478,82.302148 24.8292276,82.3058038 C27.5849687,82.3058038 29.7206681,83.13568 31.2363257,84.7954324 C32.7519833,86.4551848 33.5125678,88.7254628 33.5180793,91.6062664 C33.5180793,94.4761026 32.7427975,96.761004 31.1922338,98.4609706 C29.6416701,100.160937 27.5206681,101.007265 24.8292276,100.999953 C22.0734864,100.999953 19.9350313,100.1454 18.4138622,98.4362937 C16.8926931,96.7271874 16.1293528,94.4514257 16.1238413,91.6090083 L16.1238413,91.6062664 Z M20.5164927,91.6062664 C20.5164927,95.5765111 21.954071,97.5616334 24.8292276,97.5616334 C26.0692733,97.6000031 27.2463784,97.0185271 27.965261,96.0124703 C28.7368685,94.9815228 29.1226722,93.5127882 29.1226722,91.6062664 C29.1226722,87.6945153 27.691524,85.7377257 24.8292276,85.7358978 C23.5872634,85.6991836 22.408413,86.2799905 21.6849269,87.2850609 C20.9078079,88.3178364 20.5183299,89.7591522 20.5164927,91.6090083 L20.5164927,91.6062664 Z M46.668476,86.5612042 C45.9343449,86.0740948 45.0706964,85.8163033 44.188309,85.8208961 C43.2072651,85.8208961 42.3364509,86.264167 41.5758664,87.1507087 C40.8080079,88.0568414 40.401937,89.2123241 40.4349896,90.3970966 L40.4349896,100.654476 L36.2049269,100.654476 L36.2049269,82.6457972 L40.4322338,82.6457972 L40.4322338,84.2909262 C41.6135282,82.9675113 43.1852192,82.3058038 45.1473069,82.3058038 C46.5913152,82.3058038 47.6936117,82.5242404 48.4541962,82.9611136 L46.6602088,86.5612042 L46.668476,86.5612042 Z M64.7323591,92.9360791 L51.8079332,92.9360791 C51.8850939,94.372825 52.3811273,95.486029 53.2932777,96.2839166 C54.205428,97.0818041 55.4344885,97.4766351 56.9804593,97.4766351 C58.9076409,97.4766351 60.371858,96.9776126 61.3731106,95.9795677 L63.0127766,99.1903111 C61.5283507,100.391255 59.3090605,100.991727 56.3549061,100.991727 C53.5991649,100.991727 51.4156994,100.187442 49.8045094,98.5788715 C48.1933194,96.9703009 47.3913987,94.7256138 47.3987474,91.8448101 C47.3987474,89.0060487 48.2805846,86.7074379 50.0442589,84.9489778 C51.6999647,83.2358687 53.9939414,82.2802212 56.3824635,82.3085457 C59.005929,82.3085457 61.1131524,83.0881541 62.7041336,84.6473708 C64.2951148,86.2065875 65.0896868,88.1907958 65.0878497,90.5999959 C65.0486567,91.3895104 64.9295575,92.1730815 64.7323591,92.9388209 L64.7323591,92.9360791 Z M51.9539875,89.7746895 L60.8467641,89.7746895 C60.5509812,87.1388273 59.0812526,85.8208961 56.4375783,85.8208961 C54.0364092,85.8227241 52.5418789,87.1415691 51.9539875,89.7774314 L51.9539875,89.7746895 Z M70.0757411,99.6619148 L69.1305219,100.991727 L66.7468058,100.991727 L66.7468058,75.930929 L70.971357,74.9219165 L70.971357,83.3312676 C72.0799264,82.6532663 73.3573049,82.2980071 74.6585386,82.3058038 C77.3040501,82.3058038 79.4388309,83.1384219 81.062881,84.803658 C82.6869311,86.4688942 83.4989562,88.6011641 83.4989562,91.200468 C83.4989562,94.2165378 82.6814196,96.6019748 81.0463466,98.3567791 C79.4112735,100.111583 77.1974948,100.988986 74.4050104,100.988986 C72.8543881,101.030168 71.3331757,100.5629 70.0757411,99.6591729 L70.0757411,99.6619148 Z M70.971357,86.9313582 L70.971357,96.3332704 C71.5957808,97.0660906 72.5253829,97.4708725 73.4901044,97.4300231 C75.5293528,97.4300231 76.9751983,96.9474519 77.8276409,95.9823096 C78.6800835,95.0171672 79.1053862,93.4753158 79.1035491,91.3567552 C79.1035491,87.700913 77.3453862,85.8729919 73.8290605,85.8729919 C72.5779541,85.8729919 71.6253862,86.2257807 70.971357,86.9313582 Z M84.6508559,91.6062664 C84.6508559,88.8643848 85.4481837,86.6279233 87.0428392,84.896882 C88.6374948,83.1658407 90.7410438,82.302148 93.3534864,82.3058038 C96.1092276,82.3058038 98.2458455,83.13568 99.7633403,84.7954324 C101.280835,86.4551848 102.04142,88.7254628 102.045094,91.6062664 C102.045094,94.4761026 101.269812,96.761004 99.7192484,98.4609706 C98.1686848,100.160937 96.0476827,101.007265 93.3562422,100.999953 C90.600501,100.999953 88.4620459,100.1454 86.9408768,98.4362937 C85.4197077,96.7271874 84.6554489,94.4532536 84.6481002,91.6144921 L84.6508559,91.6062664 Z M89.0435073,91.6062664 C89.0435073,95.5765111 90.480167,97.5616334 93.3534864,97.5616334 C94.5938586,97.6014935 95.7716333,97.0196868 96.4895198,96.0124703 C97.2611273,94.9815228 97.6469311,93.5127882 97.6469311,91.6062664 C97.6469311,87.6945153 96.2157829,85.7377257 93.3534864,85.7358978 C92.1115223,85.6991836 90.9326718,86.2799905 90.2091858,87.2850609 C89.4320668,88.3160084 89.0435073,89.7564103 89.0435073,91.6062664 Z M102.855282,91.6062664 C102.855282,88.8643848 103.65261,86.6279233 105.247265,84.896882 C106.841921,83.1658407 108.946388,82.302148 111.560668,82.3058038 C114.316409,82.3058038 116.452109,83.13568 117.967766,84.7954324 C119.483424,86.4551848 120.244927,88.7254628 120.252276,91.6062664 C120.252276,94.4761026 119.476994,96.761004 117.92643,98.4609706 C116.375866,100.160937 114.254864,101.007265 111.563424,100.999953 C108.807683,100.999953 106.669228,100.1454 105.148058,98.4362937 C103.626889,96.7271874 102.86263,94.4532536 102.855282,91.6144921 L102.855282,91.6062664 Z M107.250689,91.6062664 C107.250689,95.5765111 108.687349,97.5616334 111.560668,97.5616334 C112.80104,97.6014935 113.978815,97.0196868 114.696701,96.0124703 C115.468309,94.9815228 115.854113,93.5127882 115.854113,91.6062664 C115.854113,87.6945153 114.422965,85.7377257 111.560668,85.7358978 C110.318811,85.6996729 109.140179,86.2803722 108.416367,87.2850609 C107.639248,88.3160084 107.250689,89.7564103 107.250689,91.6062664 Z M122.195073,86.0237954 L120.10071,86.0237954 L120.10071,82.6457972 L122.195073,82.6457972 L122.195073,78.9771595 L126.42238,77.4307382 L126.42238,82.6403134 L131.382714,82.6403134 L131.382714,86.0210535 L126.42238,86.0210535 L126.42238,93.909447 C126.42238,95.2017873 126.624468,96.1157478 127.028643,96.6513287 C127.432818,97.1869096 128.142881,97.4528721 129.158831,97.4492163 C130.165676,97.452532 131.152131,97.1669375 132,96.6266518 L132,100.492705 C131.018956,100.83087 129.621795,100.999953 127.808518,100.999953 C125.99524,100.999953 124.609102,100.492705 123.650104,99.4782087 C122.680084,98.4637125 122.195073,97.0196548 122.195073,95.1460357 L122.195073,86.0265373 L122.195073,86.0237954 Z" id="Shape"/>
            </g>
        </g>
    </g>
</svg>