<?xml version="1.0" encoding="utf-8"?>
<!-- Generator: Adobe Illustrator 22.1.0, SVG Export Plug-In . SVG Version: 6.00 Build 0)  -->
<svg version="1.1" id="图层_1" xmlns="http://www.w3.org/2000/svg" xmlns:xlink="http://www.w3.org/1999/xlink" x="0px" y="0px"
	 viewBox="0 0 370 370" style="enable-background:new 0 0 370 370;" xml:space="preserve">
<style type="text/css">
	.st0{fill:#1E1E22;stroke:#FFFFFF;stroke-miterlimit:10;}
	.st1{fill:#632720;stroke:#FFFFFF;stroke-width:0.25;stroke-miterlimit:10;}
	.st2{fill:#9D7F63;stroke:#FFFFFF;stroke-width:0.25;stroke-miterlimit:10;}
	.st3{fill:#DEC1A7;stroke:#FFFFFF;stroke-width:0.25;stroke-miterlimit:10;}
	.st4{fill:#8D7464;stroke:#FFFFFF;stroke-width:0.25;stroke-miterlimit:10;}
	.st5{fill:#A98B74;stroke:#FFFFFF;stroke-width:0.25;stroke-miterlimit:10;}
	.st6{fill:#DABBAA;stroke:#FFFFFF;stroke-width:0.25;stroke-miterlimit:10;}
	.st7{fill:#231916;}
	.st8{font-family:'Arial-Black';}
	.st9{font-size:25.013px;}
	.st10{fill:none;stroke:#FFFFFF;stroke-miterlimit:10;}
	.st11{fill:#FFFFFF;stroke:#FFFFFF;stroke-miterlimit:10;}
	.st12{fill:#0A0709;stroke:#FFFFFF;stroke-miterlimit:10;}
	.st13{fill:url(#SVGID_1_);stroke:#FFFFFF;stroke-miterlimit:10;}
	.st14{fill:url(#SVGID_2_);stroke:#FFFFFF;stroke-miterlimit:10;}
	.st15{opacity:0.5;}
	.st16{clip-path:url(#SVGID_6_);}
	.st17{clip-path:url(#SVGID_7_);}
	.st18{clip-path:url(#SVGID_8_);}
	.st19{fill:url(#SVGID_9_);stroke:#FFFFFF;stroke-miterlimit:10;}
	.st20{fill:url(#SVGID_10_);stroke:#FFFFFF;stroke-miterlimit:10;}
	.st21{fill:url(#SVGID_11_);stroke:#FFFFFF;stroke-miterlimit:10;}
	.st22{fill:url(#SVGID_12_);stroke:#FFFFFF;stroke-miterlimit:10;}
	.st23{fill:url(#SVGID_13_);stroke:#FFFFFF;stroke-miterlimit:10;}
	.st24{fill:url(#SVGID_14_);stroke:#FFFFFF;stroke-miterlimit:10;}
	.st25{fill:url(#SVGID_15_);stroke:#FFFFFF;stroke-width:0.25;stroke-miterlimit:10;}
	.st26{fill:#D51F1A;}
	.st27{fill:url(#SVGID_16_);stroke:#FFFFFF;stroke-miterlimit:10;}
</style>
<title>logo_hardened_linux</title>
<rect x="-197.7" y="-197.7" width="765.4" height="765.4"/>
<g>
	<path class="st0" d="M187,157c1.7-1.6,7.8-4.9,7.8-4.9c5.6-4.9,21.1,4.2,21.1,4.2c-0.1-0.4-0.1-0.8-0.1-1.2
		c0.6-2.3-15.4-10.5-21-5.6L187,157z"/>
	<path class="st0" d="M141.5,212.6l-1.4,0.4l1.2-1.3c1.7-3-0.7-6.7-0.7-6.7c-1.1-1.7-2.1-3.6-2.9-5.5c0.4,2.2,1.4,8.7,0.7,12.3
		c0,0.2,0.9,1.7,0.4,1.8l-0.2,2.2c1.1-0.8,2.1-1.8,2.9-3L141.5,212.6z"/>
	<path class="st0" d="M212.5,150c0-0.2-0.1-0.3-0.1-0.5c-1.4-0.7-3-1.4-4.8-2C210.5,148.9,212.5,150,212.5,150z"/>
	<path class="st0" d="M213.2,177.2c-0.6,0.7-1,1.6-1,2.5c1.3,2,3.1,3.8,5.1,5.1c0,0-0.3-4,1.1-5.4c0,0,3.2,0,6.5-0.1
		c0.1-0.9,0.3-1.8,0.6-2.7C222,177.3,213.2,177.2,213.2,177.2z"/>
	<path class="st0" d="M168,188c-5-3.7-6.9-1.6-6.9-1.6c1.4,2-1.5,3.2-1.5,3.2c-2.9,4.3-10.3,4.3-10.3,4.3c-2.8,0-7.7,0.5-7.7,0.5
		c-1.5,1.3-0.5,4.3,0.5,6.5c0.1-0.2,0.2-0.4,0.3-0.6c0.8,2.4,1.9,4.8,3.4,6.9c0,0,2.4,3.7,0.7,6.7l-1.2,1.3l1.4-0.4l-1,3.2
		c0,0,4.7-1.8,5.3-3.2c0.2-3.1-0.6-6.3-2.2-8.9c0,0-4.5-7-2-9.3c0,0,4.9-0.5,7.7-0.5c0,0,7.4,0,10.3-4.3c0,0,2.9-1.2,1.5-3.2
		C166.8,188.2,167.4,188,168,188z"/>
	<path class="st0" d="M238.7,160.5c0,0-1-2.6,0.9-2.7c0,0,6.3-4.5-1-11.6c0,0,2.1,4,0.6,7.1c-0.8-0.5-1.6-1-2.5-1.4
		c-0.4,1.4-1.2,2.7-2.4,3.6c-1.9,0.1-0.9,2.6-0.9,2.6c0.5,1.7,0.7,3.5,0.7,5.3c1.4,5.9,0.6,6.7,0.6,6.7c-1.1,1.3-1.2,4.8-1.2,4.8
		c0.5,5.8-1.3,7.4-1.3,7.4c-0.6,1.3-1.4,1.6-2,1.6c0.3,0.9,0.9,1.7,1.6,2.2c0.9,0.3,1.8,0.2,2.6-0.3c0,0,1.8,1.1,3-1.3
		c0,0,1.8-1.5,1.3-7.4c0,0,0.1-3.5,1.2-4.8c0,0,0.7-0.8-0.6-6.7C239.4,164,239.2,162.2,238.7,160.5z"/>
	<path class="st0" d="M187.8,185.4c-2-1.3-5,1.2-9.8,2.7c-2,0.7-4.1,1.1-6.2,1.2c1.1,0.7,2.1,1.4,3,2.2c2.8,0.1,5.7-0.3,8.3-1.2
		c2.5-0.8,4.5-1.9,6.1-2.5C188.4,186.4,187.8,185.4,187.8,185.4z"/>
	<path class="st0" d="M222.1,207.7c-0.8-1.7-1.9-3.2-3.4-4.4c-1.4-1.8-2.5-3.8-3.3-6c-0.4-1.4-0.8-2.8-1-4.2c0,0-2-0.2-4.1-4.9
		c0,0-2-3.7-2.1-5.9c0,0,0.4-0.8,1.1-2.1c-1.4-1.5-2.6-3.2-3.7-4.9c-1.5,2.6-2.6,4.8-2.6,4.8c0.2,2.2,2.1,5.9,2.1,5.9
		c2.1,4.8,4.1,4.9,4.1,4.9c0.2,1.4,0.5,2.8,1,4.2c0.8,2.1,1.9,4.2,3.3,6c1.4,1.2,2.6,2.7,3.4,4.4c5.2,2.8,6.7,5.9,6.7,5.9
		c1.7,1.1,4.1,2.7,4.1,2.7c-1.3,0.6-2.6,1-4,1.1c0.3,0.4,0.5,0.8,0.5,1.3c0,0-0.7,1,0.1,1.4c0,0,6.4-0.3,8.5-1.6
		c0,0-2.4-1.6-4.1-2.7C228.8,213.6,227.3,210.5,222.1,207.7z"/>
	<path class="st0" d="M206.3,198.5c-0.7-0.6-1.3-0.9-1.3-0.9c-0.1-0.4-0.2-0.9-0.4-1.3c-0.4-0.3-0.7-0.6-1.1-0.9
		c-0.7-1.1-1.2-2.2-1.7-3.4c-2.1-1.6-6.3-6.3-6.3-6.3c0.5,2.6,1.5,5.2,2.8,7.5c2.9,1.9,3.1,3.8,3.1,3.8c0.3,1.2,0.1,2.4-0.5,3.5
		c0.2,1.8-0.3,3.6-1.2,5.1c0,0-1.1,3.6-3.2,5.5c0,0-0.8,0-1.7,0c-0.5,1.1-1.9,2.1-3.2,2.9c-0.7,1.6-1.2,3.4-1.2,5.2
		c0,0,2.1-1.5,3.5-1.6c0,0,5.1-1.9,6.1-4.3c0,0,2.6-5,3.9-7.9c0,0,3.5-2.6,2.6-6C206.5,199,206.4,198.8,206.3,198.5z"/>
	<path class="st0" d="M108.3,196.2c0,0,6.1,9.9,17.3,0.2c0,0,3.9-4,4-8.3c0,0-0.1-6.1,6.7-10.4c0,0-6.3-1.3-10.6,5.5
		c0,0-6.3,12.6-12.2,14.3C113.5,197.6,110,198.1,108.3,196.2z"/>
	<path class="st1" d="M253.5,112.3c-2.3-0.2-4.5,0.1-6.6,1c-1,0.3-1.9,0.7-2.8,1.2c-1.5,0.5-3,0.9-4.5,1.1c0,0-2,0-3.2-0.1
		c0,0-0.7,2.4-1.4,2.8c-0.7,0.2-1.5,0.4-2.2,0.5c0,0-0.7-0.4-1.4,0.5c0,0-1.8,0.7-2.2,0.9c0,0-5.4,2-6.4,2.2c-0.5-0.1-0.9,0-1.3,0.3
		c0,0-0.1,0-0.2,0.3l-7.2,2.5L173,140c0,0-0.1-0.2-0.5-0.2c-0.2,0.1-0.5,0.1-0.7,0.2c-0.3,0-0.5,0.1-0.6,0.4c0,0,0,0.1,0,0.1
		c-0.2,0.6,0.1,1.2,0.6,1.5c0.3,0.1,0.6,0,0.7-0.3c0,0,0.7-0.1,0.7-0.5l5.5-1.9l43.1-14.9c0.1,0.2,0.3,0.3,0.5,0.2
		c0,0,0.5-0.2,0.4-0.4c0,0,0.4-0.1,0.4-0.2l8.2-3l0.5-0.1c0.3,0.3,0.8,0.2,1.1-0.1c0,0,0,0,0,0c0.1-0.1,0.2-0.2,0.1-0.4
		c0.9-0.4,1.7-0.7,2.6-0.9c0,0,0.7,0,1.9,1.1c0,0,2-1.6,3-2.3c0,0,4.8-1.9,5.8-2c1.3-0.3,2.5-0.8,3.6-1.5l0.2-0.1l0.6-0.1
		c1-0.6,1.9-1.3,2.7-2.1L253.5,112.3z"/>
	<path class="st2" d="M253.1,112.3c0,0-1,0.5-4.2,1.7c0,0-6.6,2.2-8.3,2.6c-1.5,0.3-3.1,0.4-4.6,0.3l0.3-1.2l0-0.2
		c1.2,0.1,2.5,0.1,3.7,0.1c0,0,2.4-0.7,3.7-1.2c0,0,4.5-2.2,6.8-2.1C251.4,112.2,252.3,112.2,253.1,112.3z"/>
	<path class="st3" d="M253.3,112.3c-1.8-0.1-3.7,0.1-5.5,0.6c-1.4,0.4-2.7,1-4,1.6c2-0.9,4.1-1.5,6.2-1.9
		C250,112.5,252.9,112.2,253.3,112.3z"/>
	<path class="st4" d="M245.8,113.8l1.6-0.2c0,0,1-0.2-0.4,0.3c0,0-1.2,0.2-1.4,0.9c0,0,4.4-1.4,5.1-2.1
		C250.7,112.8,246.9,112.9,245.8,113.8z"/>
	<path class="st5" d="M253.5,112.6c0,0-4.2,3.1-7.5,3.6c-1.8,0.2-3.5,0.7-5.1,1.6c0,0-2.9,1.6-3.1,2.1c0,0-0.3,0.2,0.1,0.7
		c2.4-2.1,5.2-3.5,8.3-4.2C246.2,116.5,251.3,114.9,253.5,112.6z"/>
	<path class="st6" d="M253.3,112.4c0,0-10.5,3.7-11.9,4c0,0-1.1,0.4-5,0.2c2-0.1,4-0.3,6-0.7L253.3,112.4z"/>
	<text transform="matrix(1 0 0 1 80.2349 257.3308)" class="st7 st8 st9">Ha</text>
	<text transform="matrix(1 0 0 1 80.2349 257.3308)" class="st10 st8 st9">Ha</text>
	<text transform="matrix(1 0 0 1 117.7583 257.3308)" class="st7 st8 st9">r</text>
	<text transform="matrix(1 0 0 1 117.7583 257.3308)" class="st10 st8 st9">r</text>
	<text transform="matrix(1 0 0 1 129.4829 257.3308)" class="st7 st8 st9">dened</text>
	<text transform="matrix(1 0 0 1 129.4829 257.3308)" class="st10 st8 st9">dened</text>
	<polygon class="st11" points="190.9,119.8 191.6,120.5 190.6,120.1 191.1,120.2 	"/>
	<path class="st0" d="M165.8,123c0,0-8.7,11.8-7.1,20.4c0.5,2.8,2.7,5.9,7.5,8.3c0.3-3.1,0-6.2-0.8-9.2c-0.9-3.3-1.3-8.3,2.2-14
		c0,0-1.2-0.9,0.7-2.1C168.3,126.5,165.5,124.7,165.8,123z"/>
	<path class="st0" d="M166.8,118.8c0,0,1.4-8.4,8.4-8.4c1.8,0,3.1,0.8,5.2,3c1.5,1.4,3.4,2.3,5.4,2.7c1.8,0.4,3.6,1,5.4,1.7
		c0,0-7.7-1-13.5,3.1c0,0-3.1-2.5-6.2-0.6c0,0,3.7-6.6-0.3-4.7C171.2,115.7,168.3,116.8,166.8,118.8z"/>
	<path class="st0" d="M179.2,106.1l1.7,3.6c0,0-4.6,3.7-9,4.4c0,0-1.7,0.5-1.8-1c0,0,0.1-1.5,1.7-1.1c0,0-0.1,0.6,1,0.4
		C172.8,112.4,177.1,109.6,179.2,106.1z"/>
	<path class="st0" d="M165.9,129.2c0,0,1-2.7,0.1-2.1c0,0-1.2,1.5-1.3,0.7c0,0,0.1-0.8-0.9,0.5c0,0-5.1,6.6-6.1,12.9
		c0,0-2.4,12.3-2.6,17.4c0,0,0.1,0.9-0.9,2.5c0,0-0.1,2.9,1.6-0.5c0,0,2.3-5.3,3.5-14.4c-0.3-4.6,0.7-9.1,3-13.1c0.9-1.1,2-2,3-2.9
		C165.6,130,165.8,129.6,165.9,129.2z"/>
	<path class="st0" d="M173.8,105.4c0,0-2.6-0.8-4.2-0.1l-0.7,3.1l1.9,0C170.8,108.4,172.8,106,173.8,105.4z"/>
	<path class="st0" d="M169,105.4c0,0-1.8,0.3-2.5,0.9l0.2,3.1l1.7-0.6C168.5,107.7,168.7,106.5,169,105.4z"/>
	<path class="st0" d="M166.1,106.6c-0.8,0.4-1.5,0.9-1.9,1.7l0.9,2.4l1.3-0.6C166.4,110,166.1,107.4,166.1,106.6z"/>
	<path class="st0" d="M163.7,108.6c-0.6,0.4-1,1-1.3,1.7l1.7,2.3l1.2-1C164.5,110.7,163.9,109.7,163.7,108.6z"/>
	<path class="st0" d="M162.1,111.2l1.7,1.8c-0.2,0.5-0.3,1.1-0.3,1.7c-0.8-0.4-1.6-0.9-2.4-1.4C161.2,112.4,161.5,111.7,162.1,111.2
		z"/>
	<path class="st0" d="M161,113.9l-0.3,1.8l2.4,1.1l0.2-1.1C163.3,115.7,162,114.7,161,113.9z"/>
	<path class="st0" d="M160.9,116.5c0,0-0.1,1.5,0,1.9l2.2-0.6l-0.1-0.4C162.9,117.3,161,116.6,160.9,116.5z"/>
	<path class="st0" d="M183,129.7c-1.1-3.3-2.4-6-3.8-6.8c0,0,1.3,1.7,2.7,6.8L183,129.7z"/>
	<path class="st12" d="M171.3,148.9c-0.4-0.4-0.9-0.8-1.4-1.1c0,0-1.8-1.6,0.6-2.4c0,0,4.9-0.7,5.9,0.5c0,0,2.5,1.3,1.8,3.7
		c0,0-1.7,2.2-0.5,3.9c0,0,3.3,2.5,5.3,2.8c0,0,1.7,1.3,1.9,2.4c0,0,0.1,1.6-2.6,1c-2.9-0.4-5.5-1.9-7.2-4.2c-1-1.5-1.8-3.1-2.4-4.8
		C172.7,150.7,172.3,149.1,171.3,148.9z"/>
	<path class="st12" d="M177.1,135.1c0,0-2.9,4.9-2.5,12.7c0,0-0.5,7.6,14.5,8c0,0,3.9-9.4-0.1-19.4L177.1,135.1z"/>
	<path class="st11" d="M171.3,130.8c0,0,9.3,3.7,16.3,2.3c0,0,4.5,8.2,13,12.7c0,0-12.7,28.3-30.5,28.7h-1.8c0,0-9.7-14-3.1-28.4
		L171.3,130.8z"/>
	
		<linearGradient id="SVGID_1_" gradientUnits="userSpaceOnUse" x1="163.7984" y1="216.1533" x2="199.7603" y2="216.1533" gradientTransform="matrix(1 0 0 -1 0 368.6929)">
		<stop  offset="0" style="stop-color:#FFFFFF"/>
		<stop  offset="6.000000e-02" style="stop-color:#DDDDDD"/>
		<stop  offset="0.16" style="stop-color:#AAAAAA"/>
		<stop  offset="0.26" style="stop-color:#7C7C7C"/>
		<stop  offset="0.37" style="stop-color:#565656"/>
		<stop  offset="0.48" style="stop-color:#373737"/>
		<stop  offset="0.59" style="stop-color:#1F1F1F"/>
		<stop  offset="0.71" style="stop-color:#0D0D0D"/>
		<stop  offset="0.84" style="stop-color:#030303"/>
		<stop  offset="1" style="stop-color:#000000"/>
	</linearGradient>
	<path class="st13" d="M171.8,131.7c0,0,8.8,3.5,15.6,2.2c0,0,4.3,7.9,12.4,12.2c0,0-12.1,27-29.1,27.4h-1.7c0,0-9.2-13.4-2.9-27.2
		L171.8,131.7z"/>
	
		<radialGradient id="SVGID_2_" cx="178.9099" cy="216.3404" r="15.9092" gradientTransform="matrix(1 0 0 -1 0 368.6929)" gradientUnits="userSpaceOnUse">
		<stop  offset="0" style="stop-color:#DDCF00"/>
		<stop  offset="0" style="stop-color:#DDCE00"/>
		<stop  offset="0.2" style="stop-color:#DB9408"/>
		<stop  offset="0.39" style="stop-color:#D9650E"/>
		<stop  offset="0.57" style="stop-color:#D83F13"/>
		<stop  offset="0.74" style="stop-color:#D72516"/>
		<stop  offset="0.89" style="stop-color:#D61518"/>
		<stop  offset="1" style="stop-color:#D60F19"/>
	</radialGradient>
	<path class="st14" d="M172.5,133.7c0,0,8,3.2,14.1,2c0,0,3.9,7.1,11.2,11c0,0-10.9,24.4-26.3,24.7h-1.5c0,0-8.3-12.1-2.7-24.5
		L172.5,133.7z"/>
	<g class="st15">
		<g>
			<defs>
				<path id="SVGID_3_" d="M170.5,131.2c0,0,9.4,3.3,16.4,1.7c0,0,4.8,8.1,13.4,12.2c0,0-11.6,28.8-29.4,29.8l-1.8,0.1
					c0,0-10.2-13.7-4.2-28.3L170.5,131.2z"/>
			</defs>
			<defs>
				<path id="SVGID_4_" d="M170.9,132c0,0,9,3.2,15.7,1.6c0,0,4.6,7.7,12.8,11.7c0,0-11,27.5-28,28.5l-1.7,0.1c0,0-9.7-13-4-27.1
					L170.9,132z"/>
			</defs>
			<defs>
				<path id="SVGID_5_" d="M171.7,134c0,0,8.1,2.9,14.1,1.4c0,0,4.1,7,11.6,10.5c0,0-10,24.8-25.3,25.7l-1.5,0.1
					c0,0-8.8-11.8-3.6-24.5L171.7,134z"/>
			</defs>
			<clipPath id="SVGID_6_">
				<use xlink:href="#SVGID_3_"  style="overflow:visible;"/>
			</clipPath>
			<clipPath id="SVGID_7_" class="st16">
				<use xlink:href="#SVGID_4_"  style="overflow:visible;"/>
			</clipPath>
			<clipPath id="SVGID_8_" class="st17">
				<use xlink:href="#SVGID_5_"  style="overflow:visible;"/>
			</clipPath>
			<g class="st18">
				
					<rect x="159.7" y="150.8" transform="matrix(0.4201 -0.9075 0.9075 0.4201 -39.296 265.244)" class="st11" width="56.3" height="25.1"/>
			</g>
		</g>
		<path class="st10" d="M170.5,131.2c0,0,9.4,3.3,16.4,1.7c0,0,4.8,8.1,13.4,12.2c0,0-11.6,28.8-29.4,29.8l-1.8,0.1
			c0,0-10.2-13.7-4.2-28.3L170.5,131.2z"/>
		<path class="st10" d="M170.9,132c0,0,9,3.2,15.7,1.6c0,0,4.6,7.7,12.8,11.7c0,0-11,27.5-28,28.5l-1.7,0.1c0,0-9.7-13-4-27.1
			L170.9,132z"/>
		<path class="st10" d="M171.7,134c0,0,8.1,2.9,14.1,1.4c0,0,4.1,7,11.6,10.5c0,0-10,24.8-25.3,25.7l-1.5,0.1c0,0-8.8-11.8-3.6-24.5
			L171.7,134z"/>
	</g>
	
		<radialGradient id="SVGID_9_" cx="250.1756" cy="105.9269" r="17.6012" gradientTransform="matrix(1 0 0 -1 0 368.6929)" gradientUnits="userSpaceOnUse">
		<stop  offset="0" style="stop-color:#DDCF00"/>
		<stop  offset="1" style="stop-color:#D60F19"/>
	</radialGradient>
	<path class="st19" d="M216.7,239.4h5.5v13.5h8.6v4.5h-14.2V239.4z"/>
	
		<radialGradient id="SVGID_10_" cx="250.1756" cy="105.9269" r="17.6012" gradientTransform="matrix(1 0 0 -1 0 368.6929)" gradientUnits="userSpaceOnUse">
		<stop  offset="0" style="stop-color:#DDCF00"/>
		<stop  offset="1" style="stop-color:#D60F19"/>
	</radialGradient>
	<path class="st20" d="M233.2,239.4h4.9v3.4h-5L233.2,239.4z M233.2,244.3h4.9v13h-5L233.2,244.3z"/>
	
		<radialGradient id="SVGID_11_" cx="250.1756" cy="105.9269" r="17.6012" gradientTransform="matrix(1 0 0 -1 0 368.6929)" gradientUnits="userSpaceOnUse">
		<stop  offset="0" style="stop-color:#DDCF00"/>
		<stop  offset="1" style="stop-color:#D60F19"/>
	</radialGradient>
	<path class="st21" d="M241.3,244.4h4.6v2.1c0.6-0.8,1.3-1.4,2.1-1.8c0.8-0.4,1.7-0.6,2.6-0.6c1.2-0.1,2.4,0.4,3.2,1.2
		c0.9,1.1,1.3,2.4,1.2,3.8v8.2h-5v-7.1c0.1-0.6-0.1-1.2-0.4-1.7c-0.3-0.4-0.8-0.5-1.3-0.5c-0.6,0-1.1,0.2-1.5,0.7
		c-0.4,0.7-0.6,1.6-0.6,2.5v6.3h-5L241.3,244.4z"/>
	
		<radialGradient id="SVGID_12_" cx="250.1681" cy="105.9269" r="17.6012" gradientTransform="matrix(1 0 0 -1 0 368.6929)" gradientUnits="userSpaceOnUse">
		<stop  offset="0" style="stop-color:#DDCF00"/>
		<stop  offset="1" style="stop-color:#D60F19"/>
	</radialGradient>
	<path class="st22" d="M271.7,257.4h-4.6v-2.1c-0.6,0.8-1.3,1.4-2.1,1.8c-0.8,0.4-1.7,0.6-2.6,0.5c-1.2,0.1-2.4-0.4-3.2-1.2
		c-0.8-0.8-1.2-2.1-1.2-3.8v-8.2h5v7.1c-0.1,0.6,0.1,1.2,0.4,1.7c0.3,0.4,0.8,0.5,1.3,0.5c0.6,0,1.1-0.2,1.5-0.7
		c0.4-0.7,0.6-1.6,0.6-2.5v-6.2h5L271.7,257.4z"/>
	
		<radialGradient id="SVGID_13_" cx="250.1756" cy="105.9269" r="17.5937" gradientTransform="matrix(1 0 0 -1 0 368.6929)" gradientUnits="userSpaceOnUse">
		<stop  offset="0" style="stop-color:#DDCF00"/>
		<stop  offset="1" style="stop-color:#D60F19"/>
	</radialGradient>
	<path class="st23" d="M273.6,244.4h5.9l2.1,3.6l2.4-3.6h5.5l-4.4,6.2l4.7,6.8H284l-2.4-4.2l-2.8,4.2h-5.4l4.7-6.8L273.6,244.4z"/>
	<path class="st0" d="M228.9,143.1c0,0-4.6,3.1-4.3,8.6c0,0,1.6,0.8,2.7-0.3C226.3,148.5,226.9,145.3,228.9,143.1z"/>
	
		<linearGradient id="SVGID_14_" gradientUnits="userSpaceOnUse" x1="180.3024" y1="253.9385" x2="173.1003" y2="253.9385" gradientTransform="matrix(1 0 0 -1 0 368.6929)">
		<stop  offset="0" style="stop-color:#C70820"/>
		<stop  offset="0.13" style="stop-color:#C60920;stop-opacity:0.98"/>
		<stop  offset="0.27" style="stop-color:#C30A20;stop-opacity:0.91"/>
		<stop  offset="0.42" style="stop-color:#BF0D21;stop-opacity:0.8"/>
		<stop  offset="0.57" style="stop-color:#B91122;stop-opacity:0.65"/>
		<stop  offset="0.72" style="stop-color:#B11623;stop-opacity:0.45"/>
		<stop  offset="0.88" style="stop-color:#A71C24;stop-opacity:0.22"/>
		<stop  offset="1" style="stop-color:#9E2125;stop-opacity:0"/>
	</linearGradient>
	<path class="st24" d="M173.1,113.4c0.4,0.2,0.8,0.2,1.3,0.2c0.5-0.1,1,0,1.4,0.3c0.3,0.1,0.5,0.1,0.8,0.1c0.5,0.1,1,0.2,1.5,0.4
		c-0.1,1.7,1.7,1.5,2.2,0.9c-0.2,0.5-0.6,0.8-1.1,0.7c-0.5,0-1-0.3-1.8-1.1c-0.3-0.2-0.7-0.3-1-0.4c-0.3-0.1-0.7-0.2-1-0.4
		c-0.3-0.2-0.7-0.3-1.1-0.3C173.8,113.8,173.4,113.7,173.1,113.4z"/>
	<path class="st11" d="M179.7,115.4c-0.1,0.1-0.2,0.1-0.2,0.1s0-0.1,0.1-0.2c0.1-0.1,0.2-0.1,0.2-0.1S179.8,115.3,179.7,115.4z"/>
	
		<linearGradient id="SVGID_15_" gradientUnits="userSpaceOnUse" x1="238.1445" y1="203.9425" x2="225.4471" y2="203.9425" gradientTransform="matrix(1 0 0 -1 0 368.6929)">
		<stop  offset="0" style="stop-color:#C70820"/>
		<stop  offset="0.13" style="stop-color:#C60920;stop-opacity:0.98"/>
		<stop  offset="0.27" style="stop-color:#C30A20;stop-opacity:0.91"/>
		<stop  offset="0.42" style="stop-color:#BF0D21;stop-opacity:0.8"/>
		<stop  offset="0.57" style="stop-color:#B91122;stop-opacity:0.65"/>
		<stop  offset="0.72" style="stop-color:#B11623;stop-opacity:0.45"/>
		<stop  offset="0.88" style="stop-color:#A71C24;stop-opacity:0.22"/>
		<stop  offset="1" style="stop-color:#9E2125;stop-opacity:0"/>
	</linearGradient>
	<path class="st25" d="M225.4,162.4c0.7,0.3,1.5,0.4,2.2,0.4c0.9-0.2,1.8-0.1,2.5,0.5c0.5,0.2,0.9,0.2,1.4,0.3c0,0,1.9,0.6,3.2,1
		c0.8,2.6,2.4,1.9,3.4,1.2c-0.3,0.8-1.1,1.4-2,1.3c-0.9,0-1.8-0.6-3.2-2c-0.6-0.3-1.2-0.6-1.8-0.7c-0.6-0.2-1.2-0.4-1.7-0.7
		c-0.6-0.4-1.3-0.6-2-0.5C226.7,163.2,226,162.9,225.4,162.4z"/>
	<path class="st11" d="M237.2,165.9c-0.2,0.1-0.3,0.2-0.4,0.1c0-0.1,0-0.2,0.2-0.3c0.2-0.1,0.3-0.2,0.4-0.1
		C237.4,165.6,237.3,165.8,237.2,165.9z"/>
	<g>
		<path class="st26" d="M240.1,115.6c1.5,0.2,3,0.2,4.4,0c0,0,1.5-0.3,1-0.5c0,0-0.9-0.1,0.9-0.3c1.4-0.1,2.8-0.3,4.2-0.7
			c0.9-0.7,1.9-1.3,2.9-1.8c-1.6-0.2-3.3-0.1-4.9,0.2c-1.3,0.4-2.6,0.8-3.9,1.4C244.9,113.9,241.1,115.4,240.1,115.6z"/>
		<path class="st10" d="M240.1,115.6c1.5,0.2,3,0.2,4.4,0c0,0,1.5-0.3,1-0.5c0,0-0.9-0.1,0.9-0.3c1.4-0.1,2.8-0.3,4.2-0.7
			c0.9-0.7,1.9-1.3,2.9-1.8c-1.6-0.2-3.3-0.1-4.9,0.2c-1.3,0.4-2.6,0.8-3.9,1.4C244.9,113.9,241.1,115.4,240.1,115.6z"/>
	</g>
	<g>
		<g>
			<path class="st26" d="M236,117.1c0.7,0.1,1.4,0.1,2.1,0c0,0,0.7-0.2,0.5-0.2c0,0-0.4-0.1,0.4-0.1c0.7,0,1.3-0.1,2-0.3
				c0.4-0.3,0.9-0.6,1.4-0.9c-0.8-0.1-1.5-0.1-2.3,0.1c-0.6,0.2-1.2,0.4-1.8,0.7C238.2,116.3,236.5,117,236,117.1z"/>
			<path class="st10" d="M236,117.1c0.7,0.1,1.4,0.1,2.1,0c0,0,0.7-0.2,0.5-0.2c0,0-0.4-0.1,0.4-0.1c0.7,0,1.3-0.1,2-0.3
				c0.4-0.3,0.9-0.6,1.4-0.9c-0.8-0.1-1.5-0.1-2.3,0.1c-0.6,0.2-1.2,0.4-1.8,0.7C238.2,116.3,236.5,117,236,117.1z"/>
		</g>
	</g>
	<g>
		<g>
			<path class="st26" d="M237.5,117c0.7,0.1,1.4,0.1,2.1,0c0,0,0.7-0.1,0.5-0.2c0,0-0.4-0.1,0.4-0.1c0.7,0,1.3-0.2,2-0.3
				c0.4-0.3,0.9-0.6,1.4-0.9c-0.8-0.1-1.5-0.1-2.3,0.1c-0.6,0.2-1.2,0.4-1.8,0.7C239.8,116.2,238,116.9,237.5,117z"/>
			<path class="st10" d="M237.5,117c0.7,0.1,1.4,0.1,2.1,0c0,0,0.7-0.1,0.5-0.2c0,0-0.4-0.1,0.4-0.1c0.7,0,1.3-0.2,2-0.3
				c0.4-0.3,0.9-0.6,1.4-0.9c-0.8-0.1-1.5-0.1-2.3,0.1c-0.6,0.2-1.2,0.4-1.8,0.7C239.8,116.2,238,116.9,237.5,117z"/>
		</g>
	</g>
	<g>
		<g>
			<path class="st26" d="M240.7,116c0.7,0.1,1.4,0.1,2.1,0c0,0,0.7-0.1,0.5-0.2c0,0-0.4-0.1,0.4-0.1c0.7,0,1.3-0.2,2-0.3
				c0.4-0.3,0.9-0.6,1.4-0.9c-0.8-0.1-1.5-0.1-2.3,0.1c-0.6,0.2-1.2,0.4-1.8,0.7C243,115.2,241.2,115.9,240.7,116z"/>
			<path class="st10" d="M240.7,116c0.7,0.1,1.4,0.1,2.1,0c0,0,0.7-0.1,0.5-0.2c0,0-0.4-0.1,0.4-0.1c0.7,0,1.3-0.2,2-0.3
				c0.4-0.3,0.9-0.6,1.4-0.9c-0.8-0.1-1.5-0.1-2.3,0.1c-0.6,0.2-1.2,0.4-1.8,0.7C243,115.2,241.2,115.9,240.7,116z"/>
		</g>
	</g>
	<g>
		<g>
			<path class="st26" d="M244.7,115.2c0.7,0.1,1.4,0.1,2.1,0c0,0,0.7-0.1,0.5-0.2c0,0-0.4-0.1,0.4-0.1c0.7,0,1.3-0.2,2-0.3
				c0.4-0.3,0.9-0.6,1.4-0.9c-0.8-0.1-1.5-0.1-2.3,0.1c-0.6,0.2-1.2,0.4-1.8,0.7C246.9,114.4,245.2,115.1,244.7,115.2z"/>
			<path class="st10" d="M244.7,115.2c0.7,0.1,1.4,0.1,2.1,0c0,0,0.7-0.1,0.5-0.2c0,0-0.4-0.1,0.4-0.1c0.7,0,1.3-0.2,2-0.3
				c0.4-0.3,0.9-0.6,1.4-0.9c-0.8-0.1-1.5-0.1-2.3,0.1c-0.6,0.2-1.2,0.4-1.8,0.7C246.9,114.4,245.2,115.1,244.7,115.2z"/>
		</g>
	</g>
	<g>
		<g>
			<path class="st26" d="M242.2,116c0.7,0.1,1.4,0.1,2.1,0c0,0,0.7-0.1,0.5-0.2c0,0-0.4-0.1,0.4-0.1c0.7,0,1.3-0.1,2-0.3
				c0.4-0.3,0.9-0.6,1.4-0.9c-0.8-0.1-1.5-0.1-2.3,0.1c-0.6,0.2-1.2,0.4-1.8,0.7C244.5,115.2,242.7,115.9,242.2,116z"/>
			<path class="st10" d="M242.2,116c0.7,0.1,1.4,0.1,2.1,0c0,0,0.7-0.1,0.5-0.2c0,0-0.4-0.1,0.4-0.1c0.7,0,1.3-0.1,2-0.3
				c0.4-0.3,0.9-0.6,1.4-0.9c-0.8-0.1-1.5-0.1-2.3,0.1c-0.6,0.2-1.2,0.4-1.8,0.7C244.5,115.2,242.7,115.9,242.2,116z"/>
		</g>
	</g>
	
		<linearGradient id="SVGID_16_" gradientUnits="userSpaceOnUse" x1="253.4548" y1="253.9013" x2="240.2333" y2="253.9013" gradientTransform="matrix(1 0 0 -1 0 368.6929)">
		<stop  offset="0" style="stop-color:#C70820"/>
		<stop  offset="1" style="stop-color:#9E2125;stop-opacity:0"/>
	</linearGradient>
	<path class="st27" d="M240.9,115.9c-0.2,0.4-0.4,0.8-0.7,1.3c5.9-1.1,13.2-4.7,13.2-4.7c-0.8,0-1.5,0.1-2.3,0.2
		c-2.9,0.3-9.9,2.7-10.9,3C240.6,115.8,240.9,115.8,240.9,115.9z"/>
</g>
</svg>
