<svg xmlns="http://www.w3.org/2000/svg" viewBox="0 0 242 242">
  <g fill="none" fill-rule="evenodd">
    <g fill-rule="nonzero" transform="translate(66 66)">
      <path fill="#000" d="M25 0h60a10 10 0 0 1 10 9.9V69A10 10 0 0 1 85 79H25a10 10 0 0 1-10-9.9V10A10 10 0 0 1 25 0ZM15 20H4.7C2 20 0 17.8 0 15s2-5 4.7-5H15v10ZM15 37H4.7C2 37 0 34.8 0 32s2-5 4.7-5H15v10ZM15 54H4.7C2 54 0 51.8 0 49s2-5 4.7-5H15v10ZM15 70H4.7C2 70 0 67.8 0 65s2-5 4.7-5H15v10ZM95 20h10.3c2.6 0 4.7-2.2 4.7-5s-2-5-4.7-5H95v10ZM95 37h10.3c2.6 0 4.7-2.2 4.7-5s-2-5-4.7-5H95v10ZM95 54h10.3c2.6 0 4.7-2.2 4.7-5s-2-5-4.7-5H95v10ZM95 70h10.3c2.6 0 4.7-2.2 4.7-5s-2-5-4.7-5H95v10Z"/>
      <path fill="#FFF" d="M62.7 34.7C71.7 19.5 87 14 87 14c-14-1-23.6 4.2-27.2 6.4-3.6 2.2-6.4 1-6.4 1C29.8 16 21.9 31.7 20 37V70a5 5 0 0 0 5 5h27.8a70.5 70.5 0 0 1 9.9-40.3Z"/>
      <circle cx="46" cy="29" r="2" fill="#000"/>
      <path fill="#FFF" d="m67.9 74 .1-2.8h-6.3s-.7-5.1-.4-8.6c.2-4.2.5-6.8 1-10.2.5-2.5 3-10.2 4-13.9.2-.5-.2-.8-.7 0A67.8 67.8 0 0 0 58.1 74"/>
      <path fill="#FFF" d="M66 74h5.7c3 0 6.4-.5 8.5-2.8 3.7-4.2 1.5-12.6-4.5-13.4a7 7 0 0 0-2.9-8.9c-1.9-1-5.9-1.8-6 1.3m3 .7c1.8-.3 3 1.6 3.3 3 .6 2 0 4.1-1.5 5.6 4.5-.6 8 3.7 7.4 7.5-.7 4.7-6.4 4-10 4.1"/>
      <g fill="#000">
        <path d="M2 103.6V87.5h3.2v13.3h8.3v2.7H2zM15.1 90v-3h3.1v3h-3Zm0 13.6v-12h3.1v12h-3ZM32.2 103.6h-3v-6.7c0-1-.3-1.6-.6-2-.3-.5-.8-.8-1.4-.8-.3 0-.6 0-1 .2l-.8.5a4 4 0 0 0-.8.8 3 3 0 0 0-.5 1v7H21v-12h2.8V94c.4-.8 1-1.4 1.9-1.8.9-.4 1.8-.6 2.9-.6.7 0 1.3.1 1.8.4.5.2.9.6 1.1 1 .3.5.4 1 .5 1.5l.2 1.7v7.5ZM38.6 103.8c-1.3 0-2.2-.4-2.9-1.2-.6-.8-1-2-1-3.5v-7.4h3.1v6.8c0 1.8.7 2.7 2 2.7a3 3 0 0 0 1.8-.6c.5-.3 1-.8 1.4-1.6v-7.3h3v8.4c0 .3 0 .5.2.6.1.2.3.3.6.3v2.6H46l-.6.1c-.5 0-1-.1-1.3-.4-.4-.2-.6-.6-.6-1l-.1-1c-.5.9-1.2 1.5-2 1.9-.9.4-1.8.6-2.8.6ZM51 91.7l2.6 3.7.2.4.2-.4 2.6-3.7h3.2l-4.3 5.9 4.3 6h-3.2L54 99.9l-.2-.4-.2.4-2.6 3.7h-3.2l4.3-6-4.2-5.9z"/>
      </g>
      <g fill="#000">
        <path d="M74.3 99.3a4 4 0 0 1-1.4 3 4.4 4.4 0 0 1-3.1 1.2h-7.6V87.2h7.7c.6 0 1 .1 1.5.4.5.2.9.6 1.2 1 .3.3.6.8.7 1.3.2.4.3 1 .3 1.4 0 .9-.2 1.6-.6 2.3-.4.7-1 1.2-1.7 1.6a4 4 0 0 1 2.2 1.5c.5.8.8 1.6.8 2.6ZM63.8 88.6v6h5.5c.4 0 .7 0 1-.2l1-.7.5-1c.2-.3.2-.7.2-1 0-.5 0-.9-.2-1.3a3 3 0 0 0-.5-.9 3 3 0 0 0-.9-.7l-1-.2h-5.6Zm8.9 10.5-.2-1.2c-.2-.4-.3-.7-.6-1a3 3 0 0 0-.9-.7c-.3-.2-.7-.3-1-.3h-6.2v6.2h6c.4 0 .8 0 1.1-.3.3-.1.7-.3 1-.6l.5-1 .3-1.2ZM82 103.8a5.6 5.6 0 0 1-4.3-1.9 6.5 6.5 0 0 1-1.6-4.3 6.5 6.5 0 0 1 1.7-4.4 5.5 5.5 0 0 1 4.1-1.9 5.6 5.6 0 0 1 4.2 1.9 6.5 6.5 0 0 1 1.3 6.8c-.3.7-.7 1.3-1.2 2a5.5 5.5 0 0 1-4.3 1.8Zm-4.3-6.2a5.2 5.2 0 0 0 1.2 3.4c.4.4.9.8 1.4 1 .5.3 1 .4 1.6.4.6 0 1.2-.1 1.7-.4.5-.2 1-.6 1.4-1 .4-.4.7-1 1-1.5a5.2 5.2 0 0 0-1-5.3c-.4-.5-.9-.8-1.4-1a3.8 3.8 0 0 0-3.3 0c-.5.2-1 .5-1.4 1l-.9 1.5c-.2.6-.3 1.2-.3 1.9Z"/>
      </g>
      <path fill="#000" d="M96 104a6 6 0 0 1-4.3-1.8c-.6-.5-1-1.2-1.3-1.9-.3-.7-.4-1.5-.4-2.3a6 6 0 0 1 6-6 6 6 0 0 1 4.3 1.8c.5.5 1 1.2 1.2 1.9.3.7.5 1.5.5 2.3 0 .8-.2 1.6-.4 2.3-.3.7-.7 1.4-1.3 2A6.5 6.5 0 0 1 96 104Zm-4.4-6a4.7 4.7 0 0 0 2.7 4.3c.5.3 1 .4 1.7.4.6 0 1.1-.1 1.7-.4a4.4 4.4 0 0 0 2.4-2.5 4.7 4.7 0 0 0 0-3.6l-1-1.5a4.4 4.4 0 0 0-3.1-1.3 4 4 0 0 0-1.7.3l-1.4 1a4.7 4.7 0 0 0-1.3 3.3ZM109 103.3l-.3.2a6.2 6.2 0 0 1-1.2.4l-.8.1-.9-.1a1.9 1.9 0 0 1-1.2-1.2l-.1-1v-8.5H103V92h1.4v-4h1.4v4h2.4v1.2h-2.4v8.1c0 .4.2.8.4 1 .2.2.5.3.9.3.3 0 .7-.1 1-.3l.5-.3.4 1.3Z"/>
    </g>
  </g>
</svg>