<?xml version="1.0" encoding="UTF-8"?>
<svg width="242px" height="242px" viewBox="0 0 242 242" version="1.1" xmlns="http://www.w3.org/2000/svg" xmlns:xlink="http://www.w3.org/1999/xlink">
    <title>Linux Boot Logo</title>
    <defs></defs>
    <g id="Artboard" stroke="none" stroke-width="1" fill="none" fill-rule="evenodd" transform="translate(-76.000000, -76.000000)">
        <g id="logo" transform="translate(76.000000, 76.000000)">
            <rect id="Rectangle" fill="#FFFFFF" x="0" y="0" width="242" height="242"></rect>
            <g id="linux_logo_black" transform="translate(66.000000, 66.000000)" fill-rule="nonzero">
                <path d="M25,0 L85,0 C90.525,0 95,4.4190625 95,9.875 L95,69.125 C95,74.5809375 90.525,79 85,79 L25,79 C19.475,79 15,74.5809375 15,69.125 L15,9.875 C15,4.4190625 19.475,0 25,0 Z" id="Shape" fill="#000000"></path>
                <path d="M15,20 L4.65,20 C2.075,20 0,17.7688172 0,15 C0,12.2311828 2.075,10 4.65,10 L15,10 L15,20 Z" id="Shape" fill="#000000"></path>
                <path d="M15,37 L4.65,37 C2.075,37 0,34.7688172 0,32 C0,29.2311828 2.075,27 4.65,27 L15,27 L15,37 Z" id="Shape" fill="#000000"></path>
                <path d="M15,54 L4.65,54 C2.075,54 0,51.7688172 0,49 C0,46.2311828 2.075,44 4.65,44 L15,44 L15,54 Z" id="Shape" fill="#000000"></path>
                <path d="M15,70 L4.65,70 C2.075,70 0,67.7688172 0,65 C0,62.2311828 2.075,60 4.65,60 L15,60 L15,70 Z" id="Shape" fill="#000000"></path>
                <path d="M95,20 L105.35,20 C107.925,20 110,17.7688172 110,15 C110,12.2311828 107.925,10 105.35,10 L95,10 L95,20 Z" id="Shape" fill="#000000"></path>
                <path d="M95,37 L105.35,37 C107.925,37 110,34.7688172 110,32 C110,32 110,32 110,32 C110,29.2311828 107.925,27 105.35,27 L95,27 L95,37 Z" id="Shape" fill="#000000"></path>
                <path d="M95,54 L105.35,54 C107.925,54 110,51.7688172 110,49 C110,49 110,49 110,49 C110,46.2311828 107.925,44 105.35,44 L95,44 L95,54 Z" id="Shape" fill="#000000"></path>
                <path d="M95,70 L105.35,70 C107.925,70 110,67.7688172 110,65 C110,62.2311828 107.925,60 105.35,60 C105.35,60 105.35,60 105.35,60 L95,60 L95,70 Z" id="Shape" fill="#000000"></path>
                <path d="M62.6656794,34.6779094 C71.6205109,19.5322965 87,14.1196021 87,14.1196021 C73.0096261,13.151276 63.4098482,18.3156817 59.8130322,20.5006226 C56.2162162,22.6855635 53.363569,21.5682642 53.363569,21.5682642 C29.7734173,15.9569387 21.9348389,31.6487868 20,36.9373369 L20,70.0342253 C20,72.7654014 22.2325065,75 24.9611255,75 L52.8426509,75 C51.9992595,60.872371 55.4224361,46.8192285 62.6656794,34.6779094 Z" id="Shape" fill="#FFFFFF"></path>
                <circle id="Oval" fill="#000000" cx="46" cy="29" r="2"></circle>
                <path d="M67.8523317,74 L68,71.1560859 L61.6502628,71.1560859 C61.6502628,71.1560859 61.0349782,66.0759315 61.2564807,62.6486504 C61.5272059,58.3949326 61.8225425,55.818395 62.363993,52.4154208 C62.7577751,49.8631902 65.2927477,42.1821913 66.3756486,38.5361475 C66.5479283,37.9770875 66.080312,37.661097 65.6126957,38.5847614 C59.9520773,49.5228928 57.367882,61.7492929 58.1308349,74" id="Shape" fill="#FFFFFF"></path>
                <path d="M66,73.9160496 C66,74.0396856 71.1712,73.9902312 71.6576,73.9902312 C74.6528,73.9407768 78.0832,73.4956872 80.1824,71.1713305 C83.8944,67.017161 81.6928,58.5851861 75.6512,57.7939157 C77.1616,54.7030158 75.8816,50.6724823 72.8096,48.9415783 C70.9152,47.8783088 66.896,47.0870384 66.768,50.2026655 M69.7376,50.9197543 C71.5552,50.6477551 72.7584,52.4775678 73.1424,53.9364726 C73.68,55.9146485 73.0656,58.0164605 71.5808,59.450638 C76.0608,58.8819125 79.5424,63.2338995 78.9792,67.017161 C78.2624,71.6906017 72.6048,70.9735129 69.0464,71.0971489" id="Shape" fill="#FFFFFF"></path>
                <g id="Group" transform="translate(2.000000, 87.000000)" fill="#000000">
                    <polygon id="Shape" points="0 16.5565217 0 0.468115942 3.175 0.468115942 3.175 13.7971014 11.5 13.7971014 11.5 16.5318841 0 16.5318841"></polygon>
                    <path d="M13.125,3.0057971 L13.125,0 L16.2,0 L16.2,3.0057971 L13.125,3.0057971 Z M13.125,16.5565217 L13.125,4.68115942 L16.2,4.68115942 L16.2,16.5565217 L13.125,16.5565217 Z" id="Shape"></path>
                    <path d="M30.2,16.5565217 L27.125,16.5565217 L27.125,9.90434783 C27.125,8.94347826 26.95,8.25362319 26.625,7.81014493 C26.3,7.36666667 25.825,7.14492754 25.225,7.14492754 C24.925,7.14492754 24.6,7.1942029 24.275,7.3173913 C23.95,7.44057971 23.65,7.61304348 23.375,7.83478261 C23.1,8.05652174 22.825,8.30289855 22.6,8.62318841 C22.375,8.91884058 22.2,9.26376812 22.1,9.60869565 L22.1,16.5565217 L19,16.5565217 L19,4.68115942 L21.775,4.68115942 L21.775,6.87391304 C22.225,6.11014493 22.875,5.51884058 23.7,5.1 C24.55,4.68115942 25.5,4.45942029 26.55,4.45942029 C27.3,4.45942029 27.925,4.60724638 28.4,4.87826087 C28.875,5.14927536 29.25,5.4942029 29.5,5.93768116 C29.75,6.38115942 29.95,6.87391304 30.05,7.44057971 C30.15,8.00724638 30.2,8.57391304 30.2,9.14057971 L30.2,16.5565217 Z" id="Shape"></path>
                    <path d="M36.575,16.7782609 C35.325,16.7782609 34.4,16.384058 33.75,15.5956522 C33.1,14.8072464 32.775,13.6492754 32.775,12.0971014 L32.775,4.68115942 L35.85,4.68115942 L35.85,11.4565217 C35.85,13.2797101 36.525,14.1913043 37.85,14.1913043 C38.45,14.1913043 39.025,14.0188406 39.575,13.6492754 C40.125,13.3043478 40.6,12.7623188 40.95,12.0231884 L40.95,4.68115942 L44.025,4.68115942 L44.025,13.057971 C44.025,13.3782609 44.075,13.6 44.2,13.7478261 C44.325,13.8956522 44.5,13.9695652 44.775,13.9695652 L44.775,16.5565217 C44.475,16.6057971 44.2,16.6550725 44,16.6797101 C43.8,16.7043478 43.6,16.7043478 43.425,16.7043478 C42.875,16.7043478 42.425,16.5811594 42.075,16.3347826 C41.725,16.0884058 41.525,15.7434783 41.475,15.3 L41.4,14.3391304 C40.875,15.1521739 40.175,15.7681159 39.325,16.1869565 C38.5,16.5811594 37.575,16.7782609 36.575,16.7782609 Z" id="Shape"></path>
                    <polygon id="Shape" points="49 4.68115942 51.6 8.40144928 51.775 8.82028986 52 8.40144928 54.575 4.68115942 57.75 4.68115942 53.45 10.6434783 57.825 16.5565217 54.65 16.5565217 51.975 12.8608696 51.775 12.4666667 51.6 12.8608696 48.95 16.5565217 45.775 16.5565217 50.125 10.6434783 45.85 4.68115942"></polygon>
                </g>
                <g id="Group" transform="translate(62.000000, 87.000000)" fill="#000000">
                    <path d="M12.2641509,12.325 C12.2641509,12.95 12.1415094,13.5 11.8962264,14.025 C11.6509434,14.55 11.3320755,14.975 10.9150943,15.35 C10.4981132,15.725 10.0320755,16.025 9.49245283,16.225 C8.95283019,16.425 8.36415094,16.525 7.7509434,16.525 L0.196226415,16.525 L0.196226415,0.2 L7.92264151,0.2 C8.48679245,0.2 8.97735849,0.325 9.44339623,0.575 C9.88490566,0.825 10.2773585,1.15 10.5962264,1.525 C10.9150943,1.925 11.1603774,2.35 11.3320755,2.85 C11.5037736,3.35 11.6018868,3.85 11.6018868,4.35 C11.6018868,5.175 11.4056604,5.925 10.9886792,6.625 C10.5716981,7.3 10.0075472,7.825 9.29622642,8.15 C10.2037736,8.425 10.9396226,8.95 11.4792453,9.7 C11.9943396,10.45 12.2641509,11.325 12.2641509,12.325 Z M1.79056604,1.625 L1.79056604,7.65 L7.28490566,7.65 C7.67735849,7.65 8.04528302,7.575 8.38867925,7.4 C8.73207547,7.225 9.02641509,7 9.24716981,6.725 C9.49245283,6.45 9.66415094,6.125 9.81132075,5.775 C9.95849057,5.425 10.0075472,5.025 10.0075472,4.625 C10.0075472,4.2 9.93396226,3.825 9.81132075,3.45 C9.68867925,3.075 9.49245283,2.775 9.27169811,2.5 C9.02641509,2.225 8.75660377,2.025 8.43773585,1.85 C8.11886792,1.7 7.7754717,1.6 7.40754717,1.6 L1.79056604,1.6 L1.79056604,1.625 Z M10.6698113,12.05 C10.6698113,11.65 10.5962264,11.275 10.4735849,10.9 C10.3264151,10.525 10.154717,10.2 9.90943396,9.9 C9.66415094,9.625 9.36981132,9.375 9.02641509,9.2 C8.68301887,9.025 8.31509434,8.925 7.92264151,8.925 L1.79056604,8.925 L1.79056604,15.1 L7.7754717,15.1 C8.19245283,15.1 8.56037736,15.025 8.90377358,14.85 C9.24716981,14.675 9.56603774,14.45 9.83584906,14.175 C10.1056604,13.9 10.3018868,13.55 10.4490566,13.175 C10.5962264,12.85 10.6698113,12.45 10.6698113,12.05 Z" id="Shape"></path>
                    <path d="M19.9169811,16.775 C19.0584906,16.775 18.2735849,16.6 17.5622642,16.275 C16.8509434,15.95 16.2377358,15.5 15.7226415,14.925 C15.2075472,14.35 14.790566,13.7 14.5207547,12.95 C14.2264151,12.2 14.1037736,11.4 14.1037736,10.575 C14.1037736,9.725 14.2509434,8.925 14.545283,8.175 C14.8396226,7.425 15.2566038,6.775 15.7716981,6.2 C16.2867925,5.625 16.9,5.175 17.6113208,4.85 C18.3226415,4.525 19.0830189,4.35 19.9415094,4.35 C20.7754717,4.35 21.5603774,4.525 22.2716981,4.85 C22.9830189,5.2 23.5962264,5.65 24.1113208,6.2 C24.6264151,6.775 25.0433962,7.425 25.3377358,8.175 C25.6320755,8.925 25.7792453,9.725 25.7792453,10.575 C25.7792453,11.4 25.6320755,12.2 25.3622642,12.95 C25.0679245,13.7 24.6754717,14.35 24.1603774,14.925 C23.645283,15.5 23.0320755,15.95 22.3207547,16.275 C21.5603774,16.6 20.7754717,16.775 19.9169811,16.775 Z M15.6735849,10.6 C15.6735849,11.275 15.7962264,11.9 16.0169811,12.475 C16.2377358,13.05 16.5566038,13.55 16.9245283,14 C17.3169811,14.425 17.7584906,14.775 18.2735849,15.025 C18.7886792,15.275 19.3528302,15.4 19.9415094,15.4 C20.5301887,15.4 21.0698113,15.275 21.609434,15.025 C22.1490566,14.775 22.590566,14.425 22.9830189,14 C23.3754717,13.575 23.6943396,13.05 23.9150943,12.475 C24.1358491,11.9 24.2584906,11.275 24.2584906,10.6 C24.2584906,9.95 24.1358491,9.325 23.9150943,8.725 C23.6943396,8.125 23.3754717,7.625 22.9830189,7.175 C22.590566,6.75 22.1490566,6.4 21.609434,6.15 C21.0943396,5.9 20.5301887,5.775 19.9415094,5.775 C19.3528302,5.775 18.8132075,5.9 18.2981132,6.15 C17.7830189,6.4 17.3415094,6.75 16.9490566,7.2 C16.5566038,7.65 16.2377358,8.15 16.0169811,8.75 C15.7716981,9.3 15.6735849,9.925 15.6735849,10.6 Z" id="Shape"></path>
                </g>
                <path d="M95.9747899,104 C95.092437,104 94.2857143,103.830986 93.5546218,103.517103 C92.8235294,103.203219 92.1932773,102.768612 91.6638655,102.21328 C91.1344538,101.657948 90.7058824,101.030181 90.4285714,100.305835 C90.1260504,99.5814889 90,98.8088531 90,98.0120724 C90,97.1911469 90.1512605,96.4185111 90.4537815,95.694165 C90.7563025,94.9698189 91.1848739,94.3420523 91.7142857,93.7867203 C92.2436975,93.2313883 92.8739496,92.7967807 93.605042,92.4828974 C94.3361345,92.1690141 95.1176471,92 96,92 C96.8571429,92 97.6638655,92.1690141 98.394958,92.4828974 C99.1260504,92.8209256 99.7563025,93.2555332 100.285714,93.7867203 C100.815126,94.3420523 101.243697,94.9698189 101.546218,95.694165 C101.848739,96.4185111 102,97.1911469 102,98.0120724 C102,98.8088531 101.848739,99.5814889 101.571429,100.305835 C101.268908,101.030181 100.865546,101.657948 100.336134,102.21328 C99.8067227,102.768612 99.1764706,103.203219 98.4453782,103.517103 C97.6638655,103.830986 96.8571429,104 95.9747899,104 Z M91.5882353,98.0362173 C91.5882353,98.6881288 91.7142857,99.2917505 91.9411765,99.8470825 C92.1680672,100.402414 92.4957983,100.885312 92.8739496,101.31992 C93.2773109,101.730382 93.7310924,102.06841 94.2605042,102.309859 C94.789916,102.551308 95.3697479,102.672032 95.9747899,102.672032 C96.5798319,102.672032 97.1344538,102.551308 97.6890756,102.309859 C98.2436975,102.06841 98.697479,101.730382 99.1008403,101.31992 C99.5042017,100.909457 99.8319328,100.402414 100.058824,99.8470825 C100.285714,99.2917505 100.411765,98.6881288 100.411765,98.0362173 C100.411765,97.4084507 100.285714,96.804829 100.058824,96.2253521 C99.8319328,95.6458753 99.5042017,95.1629779 99.1008403,94.7283702 C98.697479,94.3179074 98.2436975,93.9798793 97.6890756,93.7384306 C97.1596639,93.4969819 96.5798319,93.3762575 95.9747899,93.3762575 C95.3697479,93.3762575 94.8151261,93.4969819 94.2857143,93.7384306 C93.7563025,93.9798793 93.302521,94.3179074 92.8991597,94.7525151 C92.4957983,95.1871227 92.1680672,95.6700201 91.9411765,96.249497 C91.7142857,96.7806841 91.5882353,97.3843058 91.5882353,98.0362173 Z" id="Shape" fill="#000000"></path>
                <path d="M109,103.307573 C108.913357,103.357032 108.805054,103.406491 108.65343,103.48068 C108.501805,103.554869 108.32852,103.629057 108.133574,103.703246 C107.938628,103.777434 107.700361,103.851623 107.462094,103.901082 C107.202166,103.950541 106.942238,104 106.66065,104 C106.379061,104 106.097473,103.950541 105.815884,103.851623 C105.555957,103.752705 105.31769,103.629057 105.122744,103.431221 C104.927798,103.233385 104.754513,103.010819 104.646209,102.714065 C104.516245,102.417311 104.472924,102.095827 104.472924,101.724884 L104.472924,93.2426584 L103,93.2426584 L103,92.0061824 L104.429603,92.0061824 L104.429603,88 L105.794224,88 L105.794224,92.0061824 L108.176895,92.0061824 L108.176895,93.2426584 L105.794224,93.2426584 L105.794224,101.304482 C105.815884,101.749614 105.967509,102.071097 106.205776,102.268934 C106.444043,102.46677 106.725632,102.565688 107.050542,102.565688 C107.440433,102.565688 107.765343,102.491499 108.068592,102.343122 C108.350181,102.194745 108.545126,102.095827 108.631769,102.046368 L109,103.307573 Z" id="Shape" fill="#000000"></path>
            </g>
        </g>
    </g>
</svg>