<svg xmlns="http://www.w3.org/2000/svg" viewBox="0 0 312 80">
  <g fill="none" fill-rule="evenodd">
    <path fill-opacity=".5" fill="#0C6695" d="M42 0l42 31.5L42 63 0 31.5z"/>
    <path fill-opacity=".5" fill="#0C6695" opacity=".8" d="M42 14l37.8 28.35L42 70.7 4.2 42.35z"/>
    <path fill-opacity=".5" fill="#0C6695" opacity=".6" d="M42 28l33.6 25.2L42 78.4 8.4 53.2z"/>
    <path fill="#FFF" fill-rule="nonzero" d="M59.67 21.35v29.49l-8.4 6.3v17.41h-1.75V56.26l8.4-6.3V21.35z"/>
    <path d="M58.8 16.63a2.98 2.98 0 100 5.95 2.98 2.98 0 000-5.95zm0 1.75a1.23 1.23 0 110 2.45 1.23 1.23 0 010-2.45zM33.6 10.32a2.98 2.98 0 100 5.96 2.98 2.98 0 000-5.96zm0 1.75a1.23 1.23 0 110 2.46 1.23 1.23 0 010-2.46z" fill="#FFF" fill-rule="nonzero"/>
    <circle fill="#FFF" cx="33.6" cy="13.65" r="2.1"/>
    <path d="M42 19.43a2.98 2.98 0 100 5.95 2.98 2.98 0 000-5.95zm0 1.75a1.23 1.23 0 110 2.45 1.23 1.23 0 010-2.45zM50.4 24.32a2.98 2.98 0 100 5.96 2.98 2.98 0 000-5.96zm0 1.75a1.23 1.23 0 110 2.46 1.23 1.23 0 010-2.46zM42 39.73a2.98 2.98 0 100 5.95 2.98 2.98 0 000-5.95zm0 1.75a1.23 1.23 0 110 2.45 1.23 1.23 0 010-2.45zM25.2 30.63a2.98 2.98 0 100 5.95 2.98 2.98 0 000-5.95zm0 1.75a1.23 1.23 0 110 2.45 1.23 1.23 0 010-2.45z" fill="#FFF" fill-rule="nonzero"/>
    <path fill="#FFF" fill-rule="nonzero" d="M51.27 29.75V61.6h-1.75V29.75z"/>
    <path fill="#FFF" fill-rule="nonzero" d="M42.88 24.85v2.36l8.04 6.04-1.05 1.4-8.74-6.56v-3.24zM42.88 44.45v35h-1.76v-35z"/>
    <path fill="#FFF" fill-rule="nonzero" d="M34.48 15.05v41.21l8.05 6.04-1.05 1.4-8.75-6.56V15.05z"/>
    <path fill="#FFF" fill-rule="nonzero" d="M26.07 35.7v7.96l8.05 6.04-1.04 1.4-8.75-6.56V35.7z"/>
    <path fill="#0B2339" fill-rule="nonzero" d="M107.97 64V47.06h4.53V43.7H99.56v3.36h4.53V64zM124.98 43.7c2.93 0 5.13 1.74 5.13 5.3v2.44c0 2.7-1.16 4.3-2.9 5l3.63 7.56h-4.15l-3.25-7.2h-2.2V64h-3.86V43.7zm-.87 3.36h-2.87v6.38h2.87c1.13 0 2.09-.7 2.09-2.43V49.5c0-1.71-.93-2.44-2.09-2.44zM144.48 43.7l5.57 20.3h-4.09l-1.07-4.4h-5.69l-1.04 4.4h-4.09l5.57-20.3h4.84zm-2.43 4.06l-2.03 8.47h4.06l-2.03-8.47zM158.33 64V51.85l6.9 12.15h3.4V43.7h-3.9v12.12l-6.9-12.12h-3.36V64zM179.54 64.29c4.47 0 6.44-1.8 6.44-6.06v-.35c0-3.91-1.8-4.9-3.89-5.54-1.97-.58-3.91-.93-3.91-2.87v-.32c0-1.68.92-2.23 2.55-2.23h.6c1.69 0 3.34.2 3.9.4v-3.5c-.88-.2-2.44-.41-3.9-.41h-.6c-4.47 0-6.47 2.18-6.47 5.83v.4c0 3.9 1.8 4.85 3.89 5.49 1.97.58 3.91.8 3.91 2.84v.35c0 1.82-.78 2.46-2.78 2.46h-.7c-1.88 0-3.77-.4-4.52-.75v3.45c1.4.43 3.22.81 4.73.81h.75zM198.55 43.7c3.13 0 5.65 1.91 5.65 5.92v1.45c0 4.09-2.58 5.91-5.65 5.91h-3.45V64h-3.86V43.7zm-.64 3.36h-2.81v6.56h2.81c1.28 0 2.38-.81 2.38-2.84v-.84c0-2.03-1.07-2.88-2.38-2.88zM216.95 43.7L222.5 64h-4.08l-1.08-4.4h-5.68l-1.04 4.4h-4.1l5.57-20.3h4.85zm-2.44 4.06l-2.03 8.47h4.06l-2.03-8.47zM234.53 43.7c2.93 0 5.14 1.74 5.14 5.3v2.44c0 2.7-1.16 4.3-2.9 5l3.62 7.56h-4.14L233 56.8h-2.2V64h-3.86V43.7zm-.87 3.36h-2.87v6.38h2.87c1.13 0 2.1-.7 2.1-2.43V49.5c0-1.71-.94-2.44-2.1-2.44zM256.79 64v-3.36h-7.63v-5.1h5.28v-3.37h-5.28v-5.1h7.37V43.7H245.3V64zM265.82 64V51.85l6.9 12.15h3.4V43.7h-3.89v12.12l-6.9-12.12h-3.37V64zM288.77 64.29c2.9 0 4.04-.35 4.76-.52v-3.51c-.55.2-1.91.55-4.3.55-2.49 0-3.65-1.13-3.65-3.8v-6.23c0-3.16 1.51-3.89 3.75-3.89 2.29 0 3.13.23 3.85.5v-3.52c-.7-.23-1.8-.46-4.29-.46-4.78 0-7.2 1.89-7.2 7.37V57c0 5.45 2.5 7.28 7.08 7.28zM306.33 64v-6.2l5.6-14.1h-4.09l-3.42 10.06L301 43.7h-4.12l5.57 14.04V64zM105.61 35.29c3.3 0 5.51-1.48 5.51-5.68v-.35c0-4.27-2.03-5.05-4.17-5.57l-.52-.12c-1.92-.46-3.66-.91-3.66-3.77v-.34c0-2.67 1.5-3.4 3.54-3.4h.52c1.36 0 2.99.2 3.57.4v-1.7c-.64-.15-2.18-.35-3.54-.35h-.52c-3.3 0-5.4 1.48-5.4 5.07v.35c0 4.03 2.06 4.67 4.2 5.2 2.1.49 4.18.9 4.18 4.26v.35c0 2.95-1.39 4-3.77 4h-.7c-1.62 0-3.5-.5-4.31-.9v1.74c1.1.4 2.84.81 4.38.81h.7zM122.47 35v-7.16l5.46-13.14h-1.95l-4.4 11.2-4.38-11.2h-1.98l5.43 13.08V35zM136.99 35.29c3.3 0 5.5-1.48 5.5-5.68v-.35c0-4.27-2.02-5.05-4.17-5.57l-.51-.12c-1.93-.46-3.66-.91-3.66-3.77v-.34c0-2.67 1.5-3.4 3.53-3.4h.53c1.36 0 2.98.2 3.56.4v-1.7c-.64-.15-2.17-.35-3.54-.35h-.52c-3.3 0-5.4 1.48-5.4 5.07v.35c0 4.03 2.07 4.67 4.21 5.2 2.1.49 4.18.9 4.18 4.26v.35c0 2.95-1.4 4-3.77 4h-.7c-1.62 0-3.5-.5-4.32-.9v1.74c1.1.4 2.84.81 4.38.81h.7zM153.68 35V16.32h5.04V14.7H146.8v1.62h5.05V35zM174.54 35v-1.62h-8.5v-7.72h6.15v-1.62h-6.15v-7.72h8.24V14.7h-10.06V35zM182.1 35V18.9l5.56 12.45h1.62l5.57-12.45V35h1.66V14.7h-1.48l-6.56 14.59-6.55-14.59h-1.48V35z"/>
  </g>
</svg>