<?xml version="1.0" encoding="UTF-8"?>
<svg width="242px" height="242px" viewBox="0 0 242 242" version="1.1" xmlns="http://www.w3.org/2000/svg" xmlns:xlink="http://www.w3.org/1999/xlink">
    <title>Tianocore Logo</title>
    <defs></defs>
    <g id="Artboard" stroke="none" stroke-width="1" fill="none" fill-rule="evenodd" transform="translate(-76.000000, -76.000000)">
        <g id="logo" transform="translate(76.000000, 76.000000)">
            <rect id="Rectangle" fill="#FFFFFF" x="0" y="0" width="242" height="242"></rect>
            <g id="tianocore_logo" transform="translate(35.000000, 98.000000)" fill-rule="nonzero">
                <g id="_Gruppe_" transform="translate(157.457726, 18.250000)" fill="#000000" stroke="#FFFFFF" stroke-width="0.5">
                    <path d="M2.89894117,10.8784404 C3.6532367,11.8857798 4.66575952,12.7100917 5.91340508,13.0802752 C8.73623716,13.9334862 11.7208011,12.4995413 12.9426239,9.83256881 L14.5422741,10.3211009 C12.9770834,14.0329367 8.82455097,15.8646691 5.07417981,14.4975922 C1.32380866,13.1305152 -0.722811815,9.03908128 0.40772731,5.16880734 C1.59557287,1.14082569 5.64294597,-0.762385321 9.52450996,0.410091743 C11.4089093,0.961931102 12.9921515,2.26318652 13.9130149,4.01697248 L14.3003558,4.73944954 L2.89894117,10.8784404 Z M2.04950928,5.66697248 C1.67169025,6.88328697 1.6907523,8.19046489 2.10387292,9.39495413 L12.0170829,4.07889908 C11.2919545,3.05960601 10.2554974,2.31047251 9.06785537,1.94724771 C6.05882782,1.03761468 2.97640936,2.52247706 2.04950928,5.66697248 Z" id="_Zusammengesetzter_Pfad_"></path>
                </g>
                <g id="_Gruppe_2" fill="#FF6600">
                    <path d="M24.8219925,23.4767733 C31.3772986,19.8629651 41.3293705,14.677936 41.3293705,14.677936 C41.7364448,13.7285799 41.6716174,12.6433286 41.1544082,11.7489562 C40.637199,10.8545838 39.7280375,10.2555867 38.7006763,10.1323256 C38.7006763,10.1323256 29.2236861,16.1439535 22.8107676,19.999593 C22.9476788,12.5287791 23.429606,1.33485465 23.429606,1.33485465 C22.8091489,0.508093946 21.834597,0.0214037198 20.7995427,0.0214037198 C19.7644885,0.0214037198 18.7899366,0.508093946 18.1694794,1.33485465 C18.1694794,1.33485465 18.6472994,12.5287791 18.7883179,19.999593 C12.3740302,16.1425872 2.89840916,10.1323256 2.89840916,10.1323256 C1.87179405,10.2567416 0.963773994,10.8562065 0.447471877,11.7504075 C-0.0688302389,12.6446086 -0.133163705,13.7291955 0.273822311,14.677936 C0.273822311,14.677936 10.2272633,19.8629651 16.7812003,23.4767733 C10.2217869,27.0905814 0.273822311,32.2756105 0.273822311,32.2756105 C-0.133163705,33.224351 -0.0688302389,34.308938 0.447471877,35.203139 C0.963773994,36.09734 1.87179405,36.6968049 2.89840916,36.8212209 C2.89840916,36.8212209 12.3740302,30.809593 18.7883179,26.9539535 C18.6514067,34.4247674 18.1694794,45.6186919 18.1694794,45.6186919 C18.7899366,46.4454526 19.7644885,46.9321428 20.7995427,46.9321428 C21.834597,46.9321428 22.8091489,46.4454526 23.429606,45.6186919 C23.429606,45.6186919 22.9517861,34.4247674 22.8107676,26.9539535 C29.2236861,30.8109593 38.7006763,36.8212209 38.7006763,36.8212209 C39.7280375,36.6979598 40.637199,36.0989627 41.1544082,35.2045903 C41.6716174,34.3102179 41.7364448,33.2249666 41.3293705,32.2756105 C41.3293705,32.2756105 31.3772986,27.0905814 24.8219925,23.4767733 Z" id="_Zusammengesetzter_Pfad_2"></path>
                </g>
                <path d="M18.8379221,24.6417326 L0.501457726,35.2499896 C1.0146109,36.1489073 1.92303026,36.7504028 2.94941602,36.8708666 C2.94941602,36.8708666 12.4038353,30.8473371 18.8037709,26.9840643 C18.6671661,34.4696687 18.1863171,45.6857546 18.1863171,45.6857546 C18.8036243,46.5160337 19.7773139,47.0036708 20.8104956,47 L20.8104956,25.7807273 L20.8104956,23.5 L18.8379221,24.6417326 Z" id="_Pfad_" fill="#D85700"></path>
                <path d="M22.8163265,24.5 C22.8163265,25.2201848 22.8340556,26.0089586 22.8490571,26.8320269 L22.8490571,26.8430011 C29.2369732,30.7155375 38.6770148,36.75 38.6770148,36.75 C39.7013456,36.6293003 40.6078396,36.0265141 41.1195335,35.1258119 L22.8163265,24.5 Z" id="_Pfad_2" fill="#D85700"></path>
                <path d="M22.8176945,22.3619755 C23.4414795,22.7152972 24.1254543,23.0973776 24.8518355,23.5 L24.8600432,23.5 C31.4097858,19.8777681 41.3534113,14.6806527 41.3534113,14.6806527 C41.7645302,13.7314469 41.6989842,12.6428924 41.1769458,11.75 L22.8163265,22.3619755 L22.8176945,22.3619755 Z" id="_Pfad_3" fill="#D85700"></path>
                <path d="M18.8046647,22.3582663 L0.441982003,11.75 C-0.0797141795,12.6445431 -0.143253618,13.7345654 0.270969088,14.6837353 C0.270969088,14.6837353 10.2170802,19.8790341 16.7661908,23.5 L16.7757675,23.5 C17.496758,23.0934114 18.1794415,22.7114645 18.8046647,22.3582663 Z" id="_Pfad_4" fill="#D85700"></path>
                <path d="M20.5597668,21.25 L20.5597668,0 C19.5718346,-0.00575207473 18.6404871,0.483640083 18.0524781,1.31754787 C18.0524781,1.31754787 18.5079928,12.5498596 18.6424284,20.0462932 L18.6502596,20.0462932 C19.3289634,20.4822599 19.9698165,20.8853235 20.5597668,21.25 Z" id="_Pfad_5" fill="#D85700"></path>
                <path d="M63.5597503,13.75 C64.0160902,13.75 64.427496,14.0215593 64.6021297,14.4380503 C64.7767635,14.8545413 64.680234,15.3339431 64.357553,15.6527115 C64.0348719,15.9714799 63.5495857,16.0668388 63.1279826,15.8943226 C62.7063794,15.7218064 62.4314869,15.3153892 62.4314869,14.8645826 C62.4468282,14.2554036 62.943094,13.7651553 63.5597503,13.75 Z M64.4132337,18.411231 L64.4132337,32.75 L62.7076547,32.75 L62.7076547,18.4071181 L64.4132337,18.411231 Z" id="_Zusammengesetzter_Pfad_3" stroke="#FFFFFF" stroke-width="0.5" fill="#000000"></path>
                <path d="M81.2996687,29.9155683 C80.1558875,31.6309696 78.2716077,33.25 75.3550345,33.25 C71.1340898,33.2500175 67.7089309,29.8338762 67.696793,25.6119211 C67.696793,21.4073982 71.1529117,18 75.3550345,18 C78.2661022,18 80.1558875,19.5928726 81.2996687,21.333055 L81.2996687,18.4226551 L82.9912536,18.4226551 L82.9912536,32.8259682 L81.2996687,32.8259682 L81.2996687,29.9155683 Z M75.3550345,19.641058 C72.0724301,19.6554738 69.4228392,22.3285143 69.4365517,25.6119211 C69.4365517,28.9160648 72.0723411,31.6061885 75.3550345,31.6061885 C78.6143292,31.6061885 81.2996687,28.920195 81.2996687,25.6119211 C81.2929305,22.3267572 78.6393421,19.6614606 75.3550345,19.641058 Z" id="_Zusammengesetzter_Pfad_4" stroke="#FFFFFF" stroke-width="0.5" fill="#000000"></path>
                <path d="M86.2507289,18.4204894 L87.94232,18.4204894 L87.94232,21.0694354 C88.4391991,19.8065976 90.3551429,18 92.7913646,18 C96.4966237,18 98.5364431,20.3517272 98.5364431,23.7170118 L98.5364431,32.75 L96.844852,32.75 L96.844852,23.7170118 C96.844852,21.2913223 94.9798348,19.6326493 92.5422368,19.6326493 C90.1555655,19.6326493 88.0166454,21.5638871 87.94232,23.9142446 L87.94232,32.75 L86.2507289,32.75 L86.2507289,18.4204894 Z" id="_Pfad_6" stroke="#FFFFFF" stroke-width="0.5" fill="#000000"></path>
                <path d="M100.793015,25.6112725 C100.793015,21.4071079 104.204267,18 108.34883,18 C112.500336,18.0190016 115.851665,21.4440097 115.836685,25.6524753 C115.821704,29.860941 112.446079,33.2613421 108.294546,33.2499716 C104.143012,33.238601 100.785562,29.8197587 100.793015,25.6112725 Z M114.189513,25.6112725 C114.200358,24.0333145 113.59024,22.5160709 112.494251,21.3954893 C111.398262,20.2749077 109.906831,19.6434446 108.350188,19.6409182 C105.137201,19.6409182 102.510863,22.3280594 102.510863,25.6112725 C102.510863,28.9151346 105.137201,31.6050291 108.350188,31.6050291 C111.61342,31.6050291 114.184081,28.9192645 114.184081,25.6112725 L114.189513,25.6112725 Z" id="_Zusammengesetzter_Pfad_5" stroke="#FFFFFF" stroke-width="0.5" fill="#000000"></path>
                <path d="M129.438058,21.4028592 C128.317716,20.2816668 126.800415,19.6478154 125.215636,19.6389461 C121.962227,19.6389461 119.330086,22.3226238 119.330086,25.6016049 C119.330086,28.9012086 121.962227,31.587636 125.215636,31.587636 C126.800369,31.5798759 128.317915,30.9464166 129.438058,29.8250977 L130.629738,30.9923325 C128.19806,33.4465261 124.420415,33.9583347 121.423661,32.239604 C118.426908,30.5208733 116.960224,27.0012799 117.84937,23.6623967 C118.738516,20.3235135 121.761209,18.0000497 125.215636,18.0001429 C127.247539,17.9876567 129.19892,18.7938772 130.629738,20.2369992 L129.438058,21.4028592 Z" id="_Pfad_7" stroke="#FFFFFF" stroke-width="0.5" fill="#000000"></path>
                <path d="M131.632665,25.6112725 C131.632665,21.4071079 135.04256,18 139.18848,18 C143.339986,18.0190016 146.691315,21.4440097 146.676335,25.6524753 C146.661354,29.860941 143.285729,33.2613421 139.134196,33.2499716 C134.982663,33.238601 131.625213,29.8197587 131.632665,25.6112725 Z M145.029163,25.6112725 C145.040008,24.0333145 144.42989,22.5160709 143.333901,21.3954893 C142.237913,20.2749077 140.746481,19.6434446 139.189838,19.6409182 C135.976852,19.6409182 133.350513,22.3280594 133.350513,25.6112725 C133.350513,28.9151346 135.976852,31.6050291 139.189838,31.6050291 C142.45307,31.6050291 145.029163,28.9192645 145.029163,25.6112725 Z" id="_Zusammengesetzter_Pfad_6" stroke="#FFFFFF" stroke-width="0.5" fill="#000000"></path>
                <path d="M156.956268,18.2741616 L156.403225,19.8326767 C156.033709,19.704974 155.64562,19.6378978 155.254277,19.6340961 C153.111117,19.6476557 151.381409,21.3732291 151.382974,23.4961457 L151.382974,32.75 L149.685131,32.75 L149.685131,18.4220699 L151.384357,18.4220699 L151.384357,20.3284433 C152.121701,18.8852795 153.622849,17.9824956 155.25566,18.0002574 C155.833348,18.0047209 156.406913,18.0971007 156.956268,18.2741616 Z" id="_Pfad_8" stroke="#FFFFFF" stroke-width="0.5" fill="#000000"></path>
                <path d="M55.7261429,15.25 C55.1841436,15.541985 54.6258844,15.8394277 54.0622051,16.1436925 L54.0622051,18.4754795 L52.4023324,18.4754795 L52.4023324,20.1523468 L54.0676251,20.1523468 L54.0676251,29.3976298 C54.0676251,31.4920084 55.5852231,32.75 57.3968556,32.75 L58.6705539,32.75 L58.6705539,31.0731327 L57.3968556,31.0731327 C56.4917169,31.0731327 55.7315629,30.556019 55.7315629,29.3976298 L55.7315629,20.1523468 L58.6705539,20.1523468 L58.6705539,18.4754795 L55.7261429,18.4754795 L55.7261429,15.25 Z" id="_Pfad_9" stroke="#FFFFFF" stroke-width="0.5" fill="#000000"></path>
            </g>
        </g>
    </g>
</svg>