<svg xmlns="http://www.w3.org/2000/svg" id="Ebene_1" data-name="Ebene 1" viewBox="0 0 510.2 595.3"><defs><style>.cls-1,.cls-2{fill:none;stroke:#1d1d1b;stroke-miterlimit:10;stroke-width:12px}.cls-2{stroke-linecap:round}.cls-3{fill:#1d1d1b}</style></defs><g id="bild"><path id="kopf" d="M196.5 228.9a75.9 75.9 0 1 1 111.9-2.2" class="cls-1"/><g id="arm_links"><path d="M167.9 295.9v-9.7a71.1 71.1 0 0 1 45.5-66.1" class="cls-2"/><circle cx="167.8" cy="316.1" r="18.8" class="cls-1"/></g><g id="arm_rechts"><path d="M335.4 295.9v-9.7a71.1 71.1 0 0 0-45.4-66.1" class="cls-2"/><circle cx="335.6" cy="316.1" r="18.8" class="cls-1"/></g><g id="arme_mitte"><path d="M219.3 353.6v-76a32.2 32.2 0 0 1 32.2-32 32.2 32.2 0 0 1 32 32v78" class="cls-1"/><circle cx="219.3" cy="373.4" r="18.8" class="cls-1"/><circle cx="283.6" cy="373.4" r="18.8" class="cls-1"/></g><path id="mund" d="M267 194.7a15.6 15.6 0 1 1-31.2 0" class="cls-2"/><g id="augen"><path d="M209.6 171.5a10.6 10.6 0 0 1 21.2 0M272.1 171.5a10.6 10.6 0 1 1 21.2 0" class="cls-2"/></g></g><g id="text"><path d="M167.5 471c0 6.5-1.2 11.2-4.2 15a22.3 22.3 0 0 1-17.4 8.6 21 21 0 0 1-18-10.1 21.9 21.9 0 0 1-3.4-13v-16.8c0-3.4.1-4.2 1-5.7a6.6 6.6 0 0 1 5.8-3.4 6.8 6.8 0 0 1 5.8 3.4c.8 1.5.8 2.3.8 5.7v18a8.2 8.2 0 0 0 8.3 8.6c3 0 6.1-2 7.1-4.6.8-1.6 1-2.8 1-6.8v-15.2c0-3.4 0-4.2.8-5.7a6.6 6.6 0 0 1 5.8-3.4 6.8 6.8 0 0 1 6 3.4c.6 1.5.6 2.3.6 5.7ZM190.4 461.7c3.1 0 4 0 5.5.8a7 7 0 0 1 3.4 5.7 6.7 6.7 0 0 1-3.4 5.9c-1.3.8-2.4 1-4.9 1h-6c-3.2 0-4.2-.1-5.6-1a6.3 6.3 0 0 1-3.4-5.7 6.7 6.7 0 0 1 3.4-6c1.4-.7 2.2-.7 5.6-.7ZM221.2 443.2v7a19.5 19.5 0 0 1 13.3-4.8c13 0 22.8 10.6 22.8 24.6s-9.9 24.6-23.2 24.6c-5.5 0-9.2-1.4-13.5-5.1-1.2 3.4-3.2 4.9-6.4 4.9-2.4 0-4.5-1-5.4-2.8-.9-1.4-1-2.6-1-5.8v-50c0-3.2 0-4 1-5.4a6.6 6.6 0 0 1 5.8-3.4 6.4 6.4 0 0 1 5.7 3.4c.8 1.4 1 2 1 5.5Zm-.4 26.8a11.3 11.3 0 1 0 11.3-11.2 11.1 11.1 0 0 0-11.3 11.2ZM264.5 465.5c0-10.8 9.6-20.1 20.6-20.1a21.6 21.6 0 0 1 14.2 5.4 21 21 0 0 1 35 15.5v19.3c0 3.2 0 4-.8 5.5a6.8 6.8 0 0 1-5.8 3.3 6.5 6.5 0 0 1-5.7-3.3c-.8-1.5-.9-2.3-.9-5.5V469c0-3.5 0-4.8-.8-6.3a7.1 7.1 0 0 0-6.8-4.2 6.9 6.9 0 0 0-6 3.5c-1 1.8-1.2 3.5-1.2 7v16.6c0 3.2-.2 4-1 5.5a6.6 6.6 0 0 1-5.8 3.3 7 7 0 0 1-5.9-3.3c-.7-1.5-.8-2.3-.8-5.5V469a41.4 41.4 0 0 0-.4-5.8 7.6 7.6 0 0 0-7-4.8 7.2 7.2 0 0 0-6.9 4.8 17.3 17.3 0 0 0-.6 5.8v16.6c0 3.2 0 4-.8 5.5a6.9 6.9 0 0 1-5.8 3.3 6.7 6.7 0 0 1-5.9-3.3c-.8-1.5-.9-2.3-.9-5.5ZM380.7 450c3.3 2.5 4.5 4.1 4.5 7 0 3.7-3 6.5-7 6.5-1.5 0-2.3-.4-4-1.7-3-2.3-4.9-3-7.7-3a11.3 11.3 0 1 0-.3 22.5c3.4 0 4-.2 8.7-3.7a5.9 5.9 0 0 1 4-1.5 6.7 6.7 0 0 1 6.8 6.7c0 2.8-1.7 5.1-5.4 7.6a26.7 26.7 0 0 1-14 4.2 24.7 24.7 0 1 1-.3-49.3 26.2 26.2 0 0 1 14.7 4.7Z" class="cls-3"/></g></svg>