<svg enable-background="new 0 0 186 230.1" viewBox="0 0 186 230.1" xmlns="http://www.w3.org/2000/svg"><path d="m0 0h186v186h-186z" fill="none"/><circle cx="93" cy="93" fill="#046" r="93"/><path d="m116 76c-11 0-20-9-20-20s9-20 20-20v11c-5 0-9 4-9 9s4 9 9 9z" fill="#fc8"/><path d="m116 66c-5.5 0-10-4.5-10-10s4.5-10 10-10v1c-5 0-9 4-9 9s4 9 9 9z" fill="#fc8"/><g fill="#d95"><ellipse cx="116" cy="41.5" rx="4" ry="5.5"/><circle cx="86" cy="66" r="10"/><circle cx="126" cy="66" r="10"/><path d="m86.5 56h39v20h-39z"/><path d="m76 66.5h60v9.5h-60z"/><circle cx="36" cy="81" r="15"/><circle cx="36" cy="121" r="15"/></g><ellipse cx="15" cy="91" fill="#fc8" rx="4" ry="10"/><ellipse cx="15" cy="111" fill="#fc8" rx="4" ry="10"/><path d="m11 99h65v4h-65z" fill="#d95"/><ellipse cx="100.5" cy="100.5" fill="#fc8" rx="74.5" ry="34.5"/><ellipse cx="70" cy="95.5" fill="#d95" rx="15" ry="12.5"/><ellipse cx="70" cy="95.5" fill="#fc8" rx="14" ry="11.5"/><ellipse cx="70" cy="95.5" fill="#d95" rx="11" ry="8.5"/><ellipse cx="110" cy="95.5" fill="#d95" rx="15" ry="12.5"/><ellipse cx="110" cy="95.5" fill="#fc8" rx="14" ry="11.5"/><ellipse cx="110" cy="95.5" fill="#d95" rx="11" ry="8.5"/><ellipse cx="150" cy="95.5" fill="#d95" rx="15" ry="12.5"/><ellipse cx="150" cy="95.5" fill="#fc8" rx="14" ry="11.5"/><ellipse cx="150" cy="95.5" fill="#d95" rx="11" ry="8.5"/><path d="m1.7 198.4h6.3v17.2c0 1.4.2 2.7.6 3.8s1 2 1.7 2.8c.8.8 1.7 1.3 2.9 1.7 1.1.4 2.5.6 4 .6s2.8-.2 4-.6c1.1-.4 2.1-1 2.9-1.7s1.3-1.7 1.7-2.8.6-2.4.6-3.8v-17.2h6.3v18c0 2.1-.3 3.9-1 5.6s-1.7 3.1-3 4.3-2.9 2.1-4.9 2.8c-1.9.7-4.1 1-6.6 1s-4.6-.3-6.6-1c-1.9-.7-3.5-1.6-4.9-2.8s-2.3-2.6-3-4.3-1-3.5-1-5.6v-18z" fill="#046"/><path d="m38.7 211.6h18.4v4.4h-18.4z" fill="#d95"/><path d="m64.3 198.4h16.7c2 0 3.8.2 5.3.7 1.5.4 2.8 1 3.8 1.8s1.7 1.7 2.2 2.7.7 2.2.7 3.4c0 2-.6 3.7-1.9 5.2 1.4.9 2.5 2 3.2 3.3.7 1.4 1.1 2.9 1.1 4.6 0 1.5-.2 2.8-.7 3.9-.5 1.2-1.2 2.2-2.2 3s-2.2 1.5-3.8 1.9c-1.5.4-3.3.7-5.4.7h-19zm19.1 12c.5 0 1.1 0 1.6.1.9-.9 1.3-1.8 1.3-2.9s-.4-2-1.3-2.6-2.2-.9-3.9-.9h-10.5v6.4h12.8zm.1 13.8c1.7 0 3-.4 3.9-1.1s1.3-1.8 1.3-3.1-.4-2.4-1.3-3.1-2.2-1.1-3.9-1.1h-12.9v8.4z" fill="#046"/><path d="m99.7 217.9c0-1.7.3-3.3 1-4.8s1.7-2.8 2.9-3.9c1.3-1.1 2.8-2 4.6-2.6s3.8-1 6.1-1 4.3.3 6.1 1 3.3 1.5 4.6 2.6 2.3 2.4 2.9 3.9 1 3.1 1 4.8-.3 3.3-1 4.8-1.7 2.8-2.9 3.9c-1.3 1.1-2.8 2-4.6 2.6s-3.8 1-6.1 1-4.3-.3-6.1-1c-1.8-.6-3.4-1.5-4.6-2.6-1.3-1.1-2.3-2.4-2.9-3.9s-1-3.1-1-4.8zm6.2 0c0 .9.2 1.8.6 2.7.4.8.9 1.6 1.7 2.2.7.6 1.6 1.2 2.7 1.5 1 .4 2.2.6 3.6.6 1.3 0 2.5-.2 3.6-.6 1-.4 1.9-.9 2.7-1.5.7-.6 1.3-1.4 1.7-2.2s.6-1.7.6-2.7c0-.9-.2-1.8-.6-2.7s-.9-1.6-1.7-2.3c-.7-.6-1.6-1.2-2.7-1.5-1-.4-2.2-.6-3.6-.6-1.3 0-2.5.2-3.6.6-1 .4-1.9.9-2.7 1.5-.7.6-1.3 1.4-1.7 2.3-.4.8-.6 1.7-.6 2.7z" fill="#046"/><path d="m133.7 217.9c0-1.7.3-3.3 1-4.8s1.7-2.8 2.9-3.9c1.3-1.1 2.8-2 4.6-2.6s3.8-1 6.1-1 4.3.3 6.1 1 3.3 1.5 4.6 2.6 2.3 2.4 2.9 3.9 1 3.1 1 4.8-.3 3.3-1 4.8-1.7 2.8-2.9 3.9c-1.3 1.1-2.8 2-4.6 2.6s-3.8 1-6.1 1-4.3-.3-6.1-1c-1.8-.6-3.4-1.5-4.6-2.6-1.3-1.1-2.3-2.4-2.9-3.9-.7-1.5-1-3.1-1-4.8zm6.2 0c0 .9.2 1.8.6 2.7.4.8.9 1.6 1.7 2.2.7.6 1.6 1.2 2.7 1.5 1 .4 2.2.6 3.6.6 1.3 0 2.5-.2 3.6-.6 1-.4 1.9-.9 2.7-1.5.7-.6 1.3-1.4 1.7-2.2s.6-1.7.6-2.7c0-.9-.2-1.8-.6-2.7s-.9-1.6-1.7-2.3c-.7-.6-1.6-1.2-2.7-1.5-1-.4-2.2-.6-3.6-.6-1.3 0-2.5.2-3.6.6-1 .4-1.9.9-2.7 1.5-.7.6-1.3 1.4-1.7 2.3-.4.8-.6 1.7-.6 2.7z" fill="#046"/><path d="m172.6 210.5h-5.7v-4.4h5.7v-7.3h5.9v7.3h5.7v4.4h-5.7v19.2h-5.9z" fill="#046"/></svg>