<?xml version="1.0" encoding="UTF-8"?>
<svg width="18px" height="18px" viewBox="0 0 18 18" version="1.1" xmlns="http://www.w3.org/2000/svg" xmlns:xlink="http://www.w3.org/1999/xlink">
    <!-- Generator: Sketch 48.2 (47327) - http://www.bohemiancoding.com/sketch -->
    <title>logo_telephone</title>
    <desc>Created with Sketch.</desc>
    <defs></defs>
    <g id="v3" stroke="none" stroke-width="1" fill="none" fill-rule="evenodd" transform="translate(-614.000000, -5843.000000)">
        <g id="footer" transform="translate(0.000000, 5763.000000)" fill="#FFFFFF">
            <g id="text" transform="translate(352.000000, 79.000000)">
                <g id="logo_telephone" transform="translate(262.000000, 1.000000)">
                    <path d="M9,18 C4.02943725,18 0,13.9705627 0,9 C0,4.02943725 4.02943725,0 9,0 C13.9705627,0 18,4.02943725 18,9 C18,13.9705627 13.9705627,18 9,18 Z M13.7758183,11.9095181 L12.2314742,10.3615021 C11.9238695,10.0544386 11.4144701,10.063768 11.0961494,10.3829251 L10.3181022,11.1625625 C10.2689464,11.1354093 10.2180668,11.1070468 10.1645728,11.0769567 C9.67324416,10.8041009 9.00077721,10.4301192 8.2931456,9.72036589 C7.58341674,9.00911529 7.20993572,8.33408805 6.93686363,7.84132939 C6.90804814,7.78912514 6.88043927,7.73879252 6.85317516,7.6909938 L7.37535908,7.16840415 L7.63208419,6.91078061 C7.95089334,6.59116271 7.9596845,6.08075308 7.65279802,5.77279692 L6.108454,4.22460814 C5.80156752,3.9170839 5.2919383,3.92641329 4.97312916,4.24603118 L4.53788012,4.68477153 L4.54977405,4.69660603 C4.40382916,4.88325137 4.28187324,5.09851834 4.19111736,5.33065883 C4.10745761,5.5516271 4.05537137,5.76248853 4.03155477,5.97378187 C3.82763413,7.66815984 4.60016526,9.21669415 6.69671534,11.3180235 C9.59478441,14.2224575 11.9302474,14.0030441 12.0310011,13.9923326 C12.2504356,13.9660433 12.4607341,13.9134935 12.6744515,13.8303065 C12.9040561,13.7404104 13.1186928,13.6183509 13.3048012,13.472392 L13.3143106,13.4808576 L13.7552481,13.0481065 C14.0733964,12.7285462 14.0825611,12.2179638 13.7758183,11.9095181 Z" id="Combined-Shape"></path>
                </g>
            </g>
        </g>
    </g>
</svg>