<svg xmlns="http://www.w3.org/2000/svg" xmlns:xlink="http://www.w3.org/1999/xlink" viewBox="0 0 570 570"><defs><filter id="b" width="117%" height="117%" x="-8.5%" y="-7.3%" filterUnits="objectBoundingBox"><feMorphology in="SourceAlpha" operator="dilate" radius="7" result="shadowSpreadOuter1"/><feOffset dy="6" in="shadowSpreadOuter1" result="shadowOffsetOuter1"/><feGaussianBlur in="shadowOffsetOuter1" result="shadowBlurOuter1" stdDeviation="11"/><feComposite in="shadowBlurOuter1" in2="SourceAlpha" operator="out" result="shadowBlurOuter1"/><feColorMatrix in="shadowBlurOuter1" values="0 0 0 0 0 0 0 0 0 0 0 0 0 0 0 0 0 0 0.174167799 0"/></filter><path id="a" d="M321.5 32 539 249.5v72L321.5 539h-72L32 321.5v-72L249.5 32h72Z"/></defs><g fill="none" fill-rule="evenodd"><mask id="c" fill="#fff"><use xlink:href="#a"/></mask><use xlink:href="#a" fill="#000" filter="url(#b)"/><use xlink:href="#a" fill="#FFF" stroke="#FFF" stroke-width="14"/><g mask="url(#c)"><path fill="#7CDECE" d="M32 7h531v563H32z"/><path fill="#7CDECE" d="M82.9 603.3h506.7V96.6H82.9z"/><path fill="#7173B0" d="M366.3 420.2s-28 13.9-43.8 17c-3 .6-26.3 6.8-26.3 6.8s0 24.3 23 24.7c6.9.1 52-2.2 58.6-9.7 6.5-7.5-11.5-38.8-11.5-38.8"/><path fill="#F9F9F9" d="M300.6 471s4 5.2 7 4.3c3.5-1 3.5-7.5 3.5-7.5l-48.7-171.3-16.7 5L300.6 471Z"/><path fill="#D1D1D1" d="m270.2 323.7-15.7 4.7-8.7-26.9 16.6-5z"/><path fill="#7173B0" d="M292 444.7s-7.3 7-5.3 13.6 18.3 15 17.3 6.7-12-20.3-12-20.3"/><path fill="#E6E6E6" d="M147.3 357.6 99.6 201l2.8-8.2L339 120.3l48.5 158.2-3 5z"/><path fill="#FFF" d="m150.9 351 236.7-72.5L339 120.3l-236.7 72.5z"/><path fill="#000" fill-rule="nonzero" d="M181.3 280.5c4.3-1.3 7.9-3.4 10.7-6.2a20 20 0 0 0 5.7-10 23 23 0 0 0-.6-12l-14.1-46-13.7 4.2 14 46c1 3.3 1 6.1 0 8.4a8.2 8.2 0 0 1-5.3 4.6c-3 .9-5.4.8-7.2-.4-1.9-1.1-3.3-3.3-4.3-6.6l-13.8 4.3c2 6.5 5.5 11 10.5 13.3 5 2.4 11 2.5 18.1.4Zm54.5-16.7a23 23 0 0 0 15-12 27 27 0 0 0 .7-20.2l-1.1-3.4a25.7 25.7 0 0 0-12.2-14.4 23.5 23.5 0 0 0-18.2-1.2 24.8 24.8 0 0 0-11.3 7c-3 3.1-4.7 7-5.5 11.4-.7 4.4-.3 9 1.2 14l.2.5a27.5 27.5 0 0 0 12 16.7c5.7 3.2 12 3.8 19.2 1.6Zm-3.3-10.6c-3.2 1-6.1.5-8.7-1.4-2.5-2-4.5-5.3-5.9-10-1.6-5.2-2-9.4-1-12.4s3.2-5 6.4-6c3.3-1 6.2-.6 8.7 1.4a19 19 0 0 1 6 9.8c1.6 5.4 2 9.6.9 12.6-1 3-3.2 5-6.4 6Zm24.9-57.5a7.8 7.8 0 0 0 4.8-3.5c1-1.7 1.1-3.6.5-5.6-.6-2-1.8-3.4-3.5-4.2-1.7-.9-3.7-1-6-.3a7.8 7.8 0 0 0-4.8 3.6 6.8 6.8 0 0 0-.5 5.5c.6 2 1.8 3.4 3.5 4.3 1.8.8 3.8 1 6 .2Zm23.5 53.3-15-49.3-13.3 4 15 49.4 13.3-4Zm23.8-7.2L294 206.9a9.5 9.5 0 0 1 7-7.3c2.8-.8 5-.8 6.6 0 1.6 1 2.8 2.8 3.7 5.6l9.6 31.6 13.2-4-9.7-32c-2-6-4.7-10.2-8.2-12.5-3.5-2.3-7.8-2.7-13-1a18 18 0 0 0-12.2 10.9l-2.2-5.6-12.4 3.8 15 49.4 13.3-4Z"/><g><path fill="#7173B0" d="M464.3 513.2s21-8.5 36.8-37.3c15.9-28.8 44.7-30.7 75-25 0 0-15.9 3.5-21 16.4-6.3 15.6-2.6 58.8-35.5 66-37.5 8.2-55.3-20-55.3-20"/><path fill="#7173B0" d="M524.4 453.6c-4.8 2.1-9.2 5-13.2 8.9 25.4 14.5 24.7 57.4 15.6 68.4 10.7-4.9 16.4-14.6 19.9-25.2 1.6-33.3-16.4-48.2-22.3-52.1M549.9 448.4c-3.9 0-7.7.3-11.4 1 5 2.8 12.7 9 15.8 20.3l.8-2.4c1.2-3.2 3.2-5.8 5.3-8-1.5-7.7-7.9-10.2-10.5-11M497.4 482c-2.5 4-5.2 7.6-7.8 10.7a42 42 0 0 1 .2 39.4c3.4 1.2 7.2 2 11.3 2.4 14.9-24-1.2-48.6-3.7-52.4"/><path fill="#4F529F" d="m489.6 492.7-3.9 4.5c-1.2 1.5-7.5 8.3-9.3 9.9l4.3 21c2.7 1.5 5.7 3 9.1 4a42 42 0 0 0-.2-39.4M511.2 462.5c-3.7 3.6-7.1 8-10 13.4a111 111 0 0 1-3.8 6.2c2.5 3.8 18.6 28.4 3.7 52.4a59.7 59.7 0 0 0 25.7-3.6c9-11 9.9-53.9-15.6-68.4M538.5 449.3a56 56 0 0 0-14.1 4.3c5.9 4 23.9 18.8 22.3 52 4.1-13 5-27.3 7.6-36a33.5 33.5 0 0 0-15.8-20.3M549.9 448.4c2.6.7 9 3.2 10.5 11a36.2 36.2 0 0 1 15.7-8.4c-9-1.7-17.8-2.8-26.2-2.6"/><path fill="#7173B0" d="M444.4 419s-29 3.6-38.6 3.6c-9.6 0-38.5-3.5-38.5-3.5s-27 28.2-35.5 83c-.3 1.9-.5 3.8-.5 5.8l-.7 42.7c-.1 4.8 3.5 8.8 8 8.8h37.5c4 0 7.6-3.2 8-7.4 1.5-18.1 21.8-17.2 21.8-17.2s20.2-.9 21.7 17.2c.4 4.2 4 7.4 8 7.4H473c4.6 0 8.2-4 8.1-8.8l-.7-45.5c41.2-40.9-36-86-36-86"/><path fill="#EC6463" d="m375.3 528.2-.7-.7 58.6-58.8.7.7z"/><path fill="#FFF" d="M438.4 453.8a4.3 4.3 0 1 1-8.4-1.8 4.3 4.3 0 0 1 8.4 1.8m-2.3-9.5a8.8 8.8 0 0 0-9.4 13.2l-43.6 43.7 3.1 3.2 43.8-43.8a8.7 8.7 0 0 0 12.7-5.8c1-4.8-2-9.4-6.6-10.5"/><path fill="#FFF" d="M403 458c-17 0-27.5 12.6-27.5 28.5 0 8 3 15.3 8.2 20.4l7.4-7.4a19.3 19.3 0 0 1-4.4-13c0-10.8 6.3-18.8 16.3-18.8s16.3 8 16.3 18.8c0 10.7-6.2 18-16.3 18-1.7 0-3.3-.2-4.8-.6l-7.7 7.7c3.6 1.7 7.8 2.6 12.5 2.6 17 0 27.6-12.6 27.6-27.7 0-15.9-10.6-28.5-27.6-28.5"/><path fill="#EC6463" d="m391.1 499.5-7.4 7.4c1.1 1 2.3 2 3.5 2.8l7.4-7.3c-1.3-.8-2.5-1.8-3.5-2.9"/><path fill="#221F1D" d="M444.3 431.4c15.3 21.5 31.6 47.2 36 73.7l1-.8.7-.9c-4.4-25.8-22.7-52.9-37.7-72"/><path fill="#4F529F" d="M493 339.7c45.7-65.5 24-87.2 24-87.2-34.3-10.5-71 22-71 22s34 20.6 47 65.2"/><path fill="#EC6463" d="M493 339.7c45.7-65.5 24-87.2 24-87.2-11-1.3-28.6 9.3-36.8 15-5.6 4-21.7 16.7-21.7 16.7 11 10.2 26.6 28.5 34.4 55.5"/><path fill="#4F529F" d="M318.7 339.7c-45.8-65.5-24.2-87.2-24.2-87.2 34.4-10.5 71 22 71 22s-34 20.6-46.8 65.2"/><path fill="#EC6463" d="M318.7 339.7c-45.8-65.5-24.2-87.2-24.2-87.2 11-1.3 28.7 9.3 36.9 15 5.6 4 21.7 16.7 21.7 16.7a121.4 121.4 0 0 0-34.4 55.5"/><path fill="#7173B0" d="M493 339.7C472 260 406 264 406 264s-66.2-4-87 75.6c-.4 1.2 0 2 0 3.6l86.5 23v.2h.4l87-23.1c0-1.6.3-2.5 0-3.6"/><path fill="#AEADD5" d="M527 384.3c-4-1.1-14.8-5.8-12.2-8.4l7.7-8c-7.5-.9-29.7-20-29.7-24.6-11.6-17.4-57.5-53.2-80 19.8 0 0-4.2-1.5-7-1.6-2.8.1-7 1.6-7 1.6-22.5-73-68.4-37.2-80-19.8 0 4.6-22.2 23.7-29.7 24.6l7.7 8c2.6 2.6-8.3 7.3-12.1 8.4 0 0 18 35.8 121.1 39 103.1-3.2 121.1-39 121.1-39"/><path fill="#4F529F" d="M390.7 371.6c-13-68.8-58-41.7-66.2-24.1-5.6 11.8-4 17.4-15.4 27.2-5.2 4.5-7.5 17.4 14.2 23.5 19.1 5.4 38.2 7.4 53-4.3 6-4.6 15.5-16 14.4-22.3"/><path fill="#221F1D" d="M373.9 364.4a17.3 17.3 0 1 1-34.6.9 17.3 17.3 0 0 1 34.6-.9"/><path fill="#FFF" d="M368.2 357.6a6.2 6.2 0 1 1-12.4.3 6.2 6.2 0 0 1 12.4-.3M353.1 364.2a2.8 2.8 0 1 1-5.5.1 2.8 2.8 0 0 1 5.5-.1"/><path fill="#4F529F" d="M421 371.6c13-68.8 57.9-41.7 66.1-24.1 5.6 11.8 4 17.4 15.4 27.2 5.2 4.5 7.5 17.4-14.2 23.5-19.1 5.4-38.2 7.4-53-4.3-6-4.6-15.5-16-14.4-22.3"/><path fill="#221F1D" d="M437.7 364.4a17.3 17.3 0 1 0 34.6.9 17.3 17.3 0 0 0-34.6-.9"/><path fill="#FFF" d="M443.4 357.6a6.2 6.2 0 1 0 12.4.3 6.2 6.2 0 0 0-12.4-.3M458.5 364.2a2.8 2.8 0 1 0 5.5.1 2.8 2.8 0 0 0-5.5-.1"/><path fill="#221F1D" d="M418.3 396.5c-.6 0-1.1.5-1.1 1.1 0 2.9-2.3 5.2-5.2 5.2-2.8 0-5-2.2-5.1-5v-9.1l5.7-6.8c.3-.6-.2-1.4-1-1.4H400c-.8 0-1.3.8-1 1.4l5.7 6.8v9.2a5.2 5.2 0 0 1-10.2-.3 1.1 1.1 0 1 0-2.2 0c0 4 3.3 7.4 7.3 7.4 2.6 0 4.9-1.4 6.2-3.5a7.3 7.3 0 0 0 13.6-3.9c0-.6-.5-1-1.1-1"/><path fill="#221F1D" d="M479.8 398.5c-9 3.3-27.3 5-43.4-6.2-14.9-10.4-17.4-36.5-14.9-42.3 4.3-10 20.7-13.3 48-13.7 27.3-.4 29.4 12 29.4 12 3.7 31.5-8.6 46.4-19 50.2m-104.7-6.2a49.5 49.5 0 0 1-43.4 6.2c-10.5-3.8-22.8-18.7-19-50.2 0 0 2-12.4 29.3-12 27.3.4 43.7 3.6 48 13.7 2.5 5.8 0 32-15 42.3m38.1-54s-5-.8-7.4-.8c-2.5 0-7.4.9-7.4.9-52.4-19-97.2-6.4-101.5-5.1-.2 0-.3.2-.3.4v15c0 .3.2.5.4.5 7.8 1 7 6.2 7 6.2 0 7.4 3.8 20.3 3.8 20.3s7 27.8 31.8 29.9c0 0 33.5 4.5 48.4-19.1 7.6-12 11.2-28.2 12.8-31.1 1.7-3 5-3 5-3s3.3 0 5 3c1.6 2.9 5.2 19 12.8 31 14.9 23.7 48.4 19.2 48.4 19.2 24.8-2.1 31.8-30 31.8-30s3.8-12.8 3.8-20.2c0 0-.8-5.2 7-6.2.2 0 .4-.2.4-.5v-15c0-.2-.1-.4-.3-.4a172.3 172.3 0 0 0-101.5 5"/></g></g></g></svg>