<?xml version="1.0" encoding="UTF-8"?>
<svg width="570px" height="570px" viewBox="0 0 570 570" version="1.1" xmlns="http://www.w3.org/2000/svg" xmlns:xlink="http://www.w3.org/1999/xlink">
    <title>oscar_join_square</title>
    <defs>
        <path d="M321.5,32 L539,249.5 L539,321.5 L321.5,539 L249.5,539 L32,321.5 L32,249.5 L249.5,32 L321.5,32 Z" id="path-1"></path>
        <filter x="-8.5%" y="-7.3%" width="117.0%" height="117.0%" filterUnits="objectBoundingBox" id="filter-3">
            <feMorphology radius="7" operator="dilate" in="SourceAlpha" result="shadowSpreadOuter1"></feMorphology>
            <feOffset dx="0" dy="6" in="shadowSpreadOuter1" result="shadowOffsetOuter1"></feOffset>
            <feGaussianBlur stdDeviation="11" in="shadowOffsetOuter1" result="shadowBlurOuter1"></feGaussianBlur>
            <feComposite in="shadowBlurOuter1" in2="SourceAlpha" operator="out" result="shadowBlurOuter1"></feComposite>
            <feColorMatrix values="0 0 0 0 0   0 0 0 0 0   0 0 0 0 0  0 0 0 0.174167799 0" type="matrix" in="shadowBlurOuter1"></feColorMatrix>
        </filter>
    </defs>
    <g id="oscar_join_square" stroke="none" stroke-width="1" fill="none" fill-rule="evenodd">
        <mask id="mask-2" fill="white">
            <use xlink:href="#path-1"></use>
        </mask>
        <g id="Combined-Shape">
            <use fill="black" fill-opacity="1" filter="url(#filter-3)" xlink:href="#path-1"></use>
            <use stroke="#FFFFFF" stroke-width="14" fill="#FFFFFF" fill-rule="evenodd" xlink:href="#path-1"></use>
        </g>
        <g id="location" mask="url(#mask-2)">
            <g transform="translate(-457.000000, -130.000000)">
                <rect id="Rectangle" fill="#7CDECE" x="489" y="137" width="531" height="563"></rect>
                <g id="Group-76" stroke-width="1" fill="none" transform="translate(539.000000, 226.000000)">
                    <polygon id="Fill-1" fill="#7CDECE" points="0.852293803 507.258368 507.552294 507.258368 507.552294 0.558368473 0.852293803 0.558368473"></polygon>
                    <g id="Group-14" transform="translate(17.050059, 24.219022)">
                        <path d="M267.291344,300.02591 C267.291344,300.02591 239.222408,313.839042 223.474434,316.93434 C220.382184,317.541677 197.128865,323.750968 197.128865,323.750968 C197.128865,323.750968 197.159712,348.068205 220.129342,348.489097 C227.034947,348.61592 272.229337,346.288636 278.717248,338.801512 C285.204653,331.314388 267.291344,300.02591 267.291344,300.02591" id="Fill-2" fill="#7173B0"></path>
                        <path d="M201.520468,350.789501 C201.520468,350.789501 205.471368,356.0221 208.581317,355.078757 C212.021477,354.035369 212.062437,347.590622 212.062437,347.590622 L163.312591,176.282109 L146.699394,181.322705 L201.520468,350.789501 Z" id="Fill-4" fill="#F9F9F9"></path>
                        <polygon id="Fill-6" fill="#D1D1D1" points="171.056517 203.493748 155.407656 208.241792 146.699293 181.322907 163.312996 176.282312"></polygon>
                        <path d="M193.002392,324.475882 C193.002392,324.475882 185.615883,331.425902 187.64974,338.031831 C189.684102,344.638266 205.959503,353.066207 204.942069,344.786816 C203.925141,336.507425 193.002392,324.475882 193.002392,324.475882" id="Fill-8" fill="#7173B0"></path>
                        <polygon id="Fill-10" fill="#E6E6E6" points="48.2289422 237.39883 0.472762864 80.8296137 3.26918883 72.5663914 239.982349 0.121467448 288.495029 158.267638 285.503916 163.171305"></polygon>
                        <polygon id="Fill-12" fill="#FFFFFF" points="51.7815663 230.71236 288.494726 158.267436 239.982551 0.121770611 3.26888542 72.5666946"></polygon>
                    </g>
                    <path d="M85.6485303,166.071779 C90.1333008,166.071779 94.1568714,165.149379 97.7192423,163.30458 C101.281613,161.459781 104.04086,158.843665 105.996984,155.456232 C107.953107,152.068799 108.931168,148.164504 108.931168,143.743347 L108.931168,143.743347 L108.931168,95.6513406 L94.6180712,95.6513406 L94.6180712,143.743347 C94.6180712,147.210297 93.8069957,149.882076 92.1848447,151.758682 C90.5626937,153.635288 88.3839222,154.573591 85.6485303,154.573591 C82.5632627,154.573591 80.304974,153.762515 78.8736643,152.140364 C77.4423546,150.518213 76.7266997,148.00547 76.7266997,144.602133 L76.7266997,144.602133 L62.3181818,144.602133 C62.3181818,151.440613 64.3697258,156.728507 68.4728136,160.465816 C72.5759015,164.203125 78.3011404,166.071779 85.6485303,166.071779 Z M142.614657,166.071779 C150.057468,166.071779 155.989452,163.678311 160.410608,158.891375 C164.831765,154.104439 167.042343,147.751014 167.042343,139.831101 L167.042343,139.831101 L166.946923,136.300537 C166.438012,128.984954 163.980931,123.196101 159.575678,118.933979 C155.170424,114.671856 149.484944,112.540795 142.519237,112.540795 C137.620977,112.540795 133.319096,113.638133 129.613594,115.832808 C125.908092,118.027483 123.069328,121.128654 121.097301,125.136321 C119.125274,129.143988 118.139261,133.708276 118.139261,138.829184 L118.139261,138.829184 L118.139261,139.449418 C118.139261,147.655594 120.357791,154.144198 124.794851,158.91523 C129.231911,163.686263 135.171847,166.071779 142.614657,166.071779 Z M142.614657,154.955273 C139.179514,154.955273 136.539543,153.659143 134.694744,151.066882 C132.849944,148.474621 131.927545,144.729361 131.927545,139.831101 C131.927545,134.32851 132.849944,130.265181 134.694744,127.641113 C136.539543,125.017045 139.147707,123.705011 142.519237,123.705011 C145.922573,123.705011 148.562544,125.024997 150.43915,127.664968 C152.315757,130.304939 153.25406,134.026345 153.25406,138.829184 C153.25406,144.459002 152.315757,148.554138 150.43915,151.114592 C148.562544,153.675046 145.95438,154.955273 142.614657,154.955273 Z M183.168433,107.29266 C185.490335,107.29266 187.35899,106.624715 188.774396,105.288826 C190.189802,103.952937 190.897505,102.235365 190.897505,100.136111 C190.897505,98.0686636 190.197754,96.3669954 188.798251,95.0311063 C187.398748,93.6952173 185.522142,93.0272727 183.168433,93.0272727 C180.782917,93.0272727 178.898359,93.6952173 177.514759,95.0311063 C176.13116,96.3669954 175.43936,98.0686636 175.43936,100.136111 C175.43936,102.235365 176.147063,103.952937 177.56247,105.288826 C178.977876,106.624715 180.84653,107.29266 183.168433,107.29266 Z M190.08643,165.117572 L190.08643,113.495002 L176.250436,113.495002 L176.250436,165.117572 L190.08643,165.117572 Z M214.943509,165.117572 L214.943509,128.714595 C216.883729,125.406679 219.794058,123.752721 223.674498,123.752721 C226.632538,123.752721 228.747696,124.412714 230.019971,125.7327 C231.292246,127.052686 231.928384,129.175795 231.928384,132.102028 L231.928384,132.102028 L231.928384,165.117572 L245.716668,165.117572 L245.716668,131.768056 C245.653054,125.374872 244.285358,120.572033 241.61358,117.359538 C238.941802,114.147043 234.870521,112.540795 229.399737,112.540795 C223.197395,112.540795 218.251424,114.846794 214.561826,119.458792 L214.561826,119.458792 L214.132433,113.495002 L201.155225,113.495002 L201.155225,165.117572 L214.943509,165.117572 Z" id="Join" fill="#000000" fill-rule="nonzero" transform="translate(154.017425, 129.549526) rotate(-17.000000) translate(-154.017425, -129.549526) "></path>
                    <g id="Group-75" transform="translate(202.649805, 154.106656)">
                        <path d="M179.686988,263.112032 C179.686988,263.112032 200.585863,254.609696 216.465323,225.76856 C232.309848,196.989354 261.167185,195.078626 291.405698,200.853452 C291.405698,200.853452 275.561173,204.320074 270.422778,217.169774 C264.178632,232.783025 267.853327,275.992697 234.971951,283.168082 C197.436198,291.359239 179.686988,263.112032 179.686988,263.112032" id="Fill-15" fill="#7173B0"></path>
                        <path d="M239.726523,203.45979 C234.988608,205.626365 230.580291,208.545759 226.592199,212.367216 C252.000144,226.92916 251.227537,269.829177 242.135984,280.806728 C252.898819,275.892338 258.578445,266.186914 262.002016,255.559629 C263.626213,222.251327 245.649171,207.4178 239.726523,203.45979" id="Fill-17" fill="#7173B0"></path>
                        <path d="M265.24798,198.243663 C261.356084,198.304579 257.555829,198.618296 253.874552,199.229993 C258.759294,202.075781 266.596245,208.236915 269.602123,219.552042 C269.85679,218.70125 270.12867,217.904775 270.422828,217.169723 C271.691099,213.998036 273.611985,211.399465 275.785006,209.282131 C274.220553,201.4585 267.879705,198.953333 265.24798,198.243663" id="Fill-19" fill="#7173B0"></path>
                        <path d="M212.783591,231.971473 C210.226291,235.9772 207.596085,239.514891 204.988155,242.629723 C215.324183,260.470973 207.128267,278.316791 205.194724,282.036214 C208.599563,283.171788 212.354758,284.014457 216.464361,284.407873 C231.336798,260.356756 215.224949,235.787853 212.783591,231.971473" id="Fill-21" fill="#7173B0"></path>
                        <path d="M204.987902,242.629774 C203.663939,244.211049 202.345545,245.684198 201.045884,247.053283 C199.821154,248.639127 193.555238,255.379978 191.774596,256.947039 L196.044188,277.931549 C198.749832,279.484904 201.798745,280.904244 205.194471,282.036265 C207.12852,278.316842 215.32393,260.471024 204.987902,242.629774" id="Fill-23" fill="#4F529F"></path>
                        <path d="M226.591997,212.367114 C222.815537,215.986026 219.414242,220.411058 216.465069,225.768103 C215.263123,227.95143 214.031812,230.016479 212.783793,231.971371 C215.225151,235.787752 231.336494,260.356654 216.464057,284.407771 C221.989768,284.937232 228.1524,284.656003 234.972204,283.168133 C237.583677,282.598061 239.962254,281.799048 242.135782,280.806627 C251.227334,269.829075 252.000448,226.929566 226.591997,212.367114" id="Fill-25" fill="#4F529F"></path>
                        <path d="M253.874603,199.230145 C248.915436,200.055048 244.175496,201.425148 239.726675,203.459739 C245.649322,207.417749 263.626365,222.251276 262.002168,255.559578 C266.183665,242.581448 267.002345,228.230679 269.601667,219.551687 C266.596296,208.23656 258.758838,202.075425 253.874603,199.230145" id="Fill-27" fill="#4F529F"></path>
                        <path d="M265.24798,198.243663 C267.879705,198.953333 274.220553,201.4585 275.785006,209.282131 C282.41748,202.820985 291.405749,200.853909 291.405749,200.853909 C282.465579,199.146234 273.645907,198.111171 265.24798,198.243663" id="Fill-29" fill="#4F529F"></path>
                        <path d="M159.732304,168.976978 C159.732304,168.976978 130.780795,172.486241 121.149531,172.486241 C111.518267,172.486241 82.6816877,168.976978 82.6816877,168.976978 C82.6816877,168.976978 55.6966315,197.185097 47.1660547,251.943408 C46.866834,253.863781 46.6962123,255.80446 46.6622905,257.747677 L45.9186379,300.475607 C45.8360158,305.300653 49.4853955,309.259678 54.0157297,309.259678 L91.4517424,309.259678 C95.4722368,309.259678 99.0942765,306.128094 99.4557716,301.866012 C100.989848,283.788713 121.206743,284.662349 121.206743,284.662349 C121.206743,284.662349 141.42465,283.788713 142.95822,301.866012 C143.319715,306.128094 146.941755,309.259678 150.962249,309.259678 L188.397755,309.259678 C192.928596,309.259678 196.577976,305.300145 196.493931,300.475607 L195.704615,255.024737 C236.964174,214.131899 159.732304,168.976978 159.732304,168.976978" id="Fill-31" fill="#7173B0"></path>
                        <polygon id="Fill-33" fill="#EC6463" points="90.6515926 278.064904 89.9787256 277.39026 148.584988 218.629776 149.257855 219.303912"></polygon>
                        <path d="M153.742268,203.701169 C153.235466,206.02511 150.945997,207.497244 148.627669,206.989612 C146.309847,206.481472 144.842096,204.18545 145.348391,201.861509 C145.855193,199.537568 148.144663,198.064926 150.462485,198.573066 C152.780813,199.080698 154.24907,201.377228 153.742268,203.701169 M151.413814,194.20895 C146.6921,193.173887 142.027091,196.17298 140.995261,200.907668 C140.493522,203.209781 140.948681,205.495142 142.086328,207.358153 L98.445661,251.11353 L101.596846,254.273542 L145.301306,210.453188 C146.028347,210.857263 146.823231,211.166411 147.676845,211.353728 C152.398559,212.388283 157.063568,209.38919 158.095399,204.65501 C159.127736,199.920322 156.136541,195.243505 151.413814,194.20895" id="Fill-35" fill="#FFFFFF"></path>
                        <path d="M118.366829,207.858425 C101.347191,207.858425 90.8850962,220.539083 90.8850962,236.351833 C90.8850962,244.347552 93.8170548,251.662027 99.0982256,256.778455 L106.452677,249.404586 C103.628054,246.224776 102.049423,241.708878 102.049423,236.351833 C102.049423,225.62759 108.373563,217.642532 118.366829,217.642532 C128.43857,217.642532 134.684234,225.62759 134.684234,236.351833 C134.684234,247.076076 128.43857,254.434208 118.366829,254.434208 C116.629222,254.434208 115.009075,254.20222 113.508921,253.775301 L105.85778,261.44715 C109.473744,263.167009 113.667392,264.141663 118.366829,264.141663 C135.387478,264.141663 145.927037,251.45999 145.927037,236.351833 C145.927037,220.539083 135.387478,207.858425 118.366829,207.858425" id="Fill-37" fill="#FFFFFF"></path>
                        <path d="M106.452576,249.404484 L99.0986306,256.778353 C100.166915,257.812908 101.335445,258.753043 102.591059,259.595205 L109.91817,252.249256 C108.618509,251.480193 107.454029,250.531428 106.452576,249.404484" id="Fill-39" fill="#EC6463"></path>
                        <path d="M159.673472,181.267724 C174.9955,202.769003 191.233923,228.539979 195.70097,255.024686 C195.858934,254.866812 196.216886,254.511977 196.55661,254.160188 C196.967722,253.733777 197.354532,253.315995 197.354532,253.315995 C192.995326,227.540451 174.680584,200.424757 159.673472,181.267724" id="Fill-41" fill="#221F1D"></path>
                        <path d="M208.265003,89.5745854 C254.052363,24.0712193 232.433536,2.42221891 232.433536,2.42221891 C198.096053,-8.0883106 161.377461,24.3402644 161.377461,24.3402644 C161.377461,24.3402644 195.416229,45.0339006 208.265003,89.5745854" id="Fill-43" fill="#4F529F"></path>
                        <path d="M208.265003,89.5745854 C254.052363,24.0712193 232.433536,2.42221891 232.433536,2.42221891 C221.39882,1.08968378 203.727074,11.7418427 195.562043,17.442555 C189.943173,21.366046 173.816641,34.138078 173.816641,34.138078 C184.877684,44.3105243 200.470073,62.5543263 208.265003,89.5745854" id="Fill-45" fill="#EC6463"></path>
                        <path d="M34.0492993,89.5745854 C-11.7375552,24.0712193 9.88076625,2.42221891 9.88076625,2.42221891 C44.2182491,-8.0883106 80.9368408,24.3402644 80.9368408,24.3402644 C80.9368408,24.3402644 46.8985787,45.0339006 34.0492993,89.5745854" id="Fill-47" fill="#4F529F"></path>
                        <path d="M34.0492993,89.5745854 C-11.7375552,24.0712193 9.88076625,2.42221891 9.88076625,2.42221891 C20.915988,1.08968378 38.587228,11.7418427 46.7522592,17.442555 C52.3711293,21.366046 68.4981672,34.138078 68.4981672,34.138078 C57.4366181,44.3105243 41.8442284,62.5543263 34.0492993,89.5745854" id="Fill-49" fill="#EC6463"></path>
                        <path d="M208.265003,89.5745854 C187.417769,9.9412705 121.260106,13.8906508 121.260106,13.8906508 C121.260106,13.8906508 55.1075058,9.89253779 34.2597664,89.5258527 C33.9620646,90.6654875 34.2612853,91.552829 34.3660886,93.1122759 L120.823173,116.058785 L120.823173,116.246101 L121.265169,116.22275 L208.15868,93.1605009 C208.26399,91.6015617 208.563717,90.7142203 208.265003,89.5745854" id="Fill-51" fill="#7173B0"></path>
                        <path d="M242.281747,134.156033 C238.418711,133.059547 227.5774,128.37613 230.141282,125.805987 C233.851417,122.086565 237.855203,117.837681 237.855203,117.837681 C230.372659,116.921912 208.162984,97.7892458 208.158934,93.1606532 C196.539447,75.7615516 150.611842,40.0353963 128.167246,113.018726 C128.167246,113.018726 123.903729,111.490753 121.138848,111.426283 L121.138848,111.430344 C118.373461,111.498367 114.121083,113.02228 114.121083,113.02228 C91.6764871,40.0394573 45.7488823,75.7656127 34.1299016,93.1647143 C34.1253449,97.7933068 11.9161763,116.925973 4.43363173,117.841234 C4.43363173,117.841234 8.43741837,122.08961 12.1475535,125.810048 C14.7114351,128.380191 3.86961828,133.063608 0.00708814025,134.160094 C0.00708814025,134.160094 18.0231155,169.980162 121.149987,173.119868 L121.149987,173.1153 C224.267239,169.974578 242.281747,134.156033 242.281747,134.156033" id="Fill-53" fill="#AEADD5"></path>
                        <path d="M106.01944,121.533144 C93.0162469,52.6824492 48.0926266,79.7519486 39.8324117,97.3683169 C34.294549,109.179401 35.7855899,114.755743 24.4298829,124.589598 C19.2373139,129.087222 16.9043032,141.990223 38.69274,148.10161 C57.7588247,153.44901 76.8562997,155.538425 91.735825,143.777089 C97.5582259,139.174894 107.194046,127.753671 106.01944,121.533144" id="Fill-55" fill="#4F529F"></path>
                        <path d="M89.2518875,114.296894 C89.473645,123.866781 81.9171812,131.804629 72.372494,132.027987 C62.8283132,132.25033 54.9108605,124.673409 54.6880904,115.10403 C54.4663329,105.534143 62.023303,97.5962947 71.5674838,97.3729364 C81.112171,97.1505934 89.0296236,104.727007 89.2518875,114.296894" id="Fill-57" fill="#221F1D"></path>
                        <path d="M83.5604652,107.494924 C83.64046,110.940225 80.920133,113.797688 77.4839039,113.877894 C74.048181,113.9581 71.1977361,111.230591 71.1177413,107.78529 C71.0377466,104.340496 73.7585799,101.482526 77.1943027,101.40232 C80.6305318,101.322114 83.4804705,104.05013 83.5604652,107.494924" id="Fill-59" fill="#FFFFFF"></path>
                        <path d="M68.4977116,114.088206 C68.5331523,115.619226 67.324118,116.889322 65.7971301,116.924856 C64.2696359,116.960391 63.002884,115.748672 62.9674433,114.217145 C62.9320026,112.686126 64.1415431,111.415522 65.6680247,111.379987 C67.1955189,111.344961 68.4622709,112.556679 68.4977116,114.088206" id="Fill-61" fill="#FFFFFF"></path>
                        <path d="M136.280989,121.533144 C149.283676,52.6824492 194.207296,79.7519486 202.467511,97.3683169 C208.005374,109.179401 206.514839,114.755743 217.87004,124.589598 C223.062609,129.087222 225.39562,141.990223 203.607183,148.10161 C184.541098,153.44901 165.443623,155.538425 150.564098,143.777089 C144.741697,139.174894 135.106383,127.753671 136.280989,121.533144" id="Fill-63" fill="#4F529F"></path>
                        <path d="M153.048086,114.296894 C152.826329,123.866781 160.382792,131.804629 169.92748,132.027987 C179.47166,132.25033 187.389113,124.673409 187.611883,115.10403 C187.833641,105.534143 180.276671,97.5962947 170.73249,97.3729364 C161.187803,97.1505934 153.27035,104.727007 153.048086,114.296894" id="Fill-65" fill="#221F1D"></path>
                        <path d="M158.739458,107.494924 C158.659463,110.940225 161.37979,113.797688 164.816019,113.877894 C168.251742,113.9581 171.102187,111.230591 171.182182,107.78529 C171.262176,104.340496 168.541343,101.482526 165.10562,101.40232 C161.669897,101.322114 158.819453,104.05013 158.739458,107.494924" id="Fill-67" fill="#FFFFFF"></path>
                        <path d="M173.802262,114.088206 C173.766821,115.619226 174.975856,116.889322 176.502844,116.924856 C178.030338,116.960391 179.29709,115.748672 179.33253,114.217145 C179.367971,112.686126 178.158431,111.415522 176.631949,111.379987 C175.104455,111.344961 173.837703,112.556679 173.802262,114.088206" id="Fill-69" fill="#FFFFFF"></path>
                        <path d="M133.609621,146.429926 C133.004091,146.429926 132.513997,146.922329 132.513997,147.528442 C132.513997,150.37626 130.202757,152.69411 127.361932,152.69411 C124.573761,152.69411 122.309607,150.458496 122.226574,147.682762 L122.226574,138.59868 L122.238219,138.598172 L127.913288,131.798944 C128.260607,131.154758 127.730515,130.409046 126.924998,130.409046 L115.390063,130.409046 C114.58404,130.409046 114.053948,131.154758 114.401774,131.798944 L120.076842,138.598172 L120.076842,147.800025 C119.932548,150.51992 117.700797,152.69411 114.952623,152.69411 C112.111798,152.69411 109.800558,150.37626 109.800558,147.528442 C109.800558,146.922329 109.310464,146.429926 108.70544,146.429926 C108.099911,146.429926 107.609816,146.922329 107.609816,147.528442 C107.609816,151.587471 110.904283,154.890635 114.952623,154.890635 C117.566122,154.890635 119.848503,153.503783 121.150189,151.436197 L121.164366,151.436197 C122.465546,153.503783 124.748433,154.890635 127.361932,154.890635 C131.410272,154.890635 134.704739,151.587471 134.704739,147.528442 C134.704739,146.922329 134.214644,146.429926 133.609621,146.429926" id="Fill-71" fill="#221F1D"></path>
                        <path d="M195.190776,148.395529 C186.090616,151.712907 167.890804,153.372357 151.759209,142.174494 C136.85285,131.827929 134.386177,105.678767 136.868545,99.8724677 C141.170034,89.8086548 157.549713,86.6014331 184.849686,86.1861897 C212.149658,85.7719617 214.217876,98.2135249 214.217876,98.2135249 C217.940668,129.732423 205.657934,144.579148 195.190776,148.395529 M90.540967,142.174494 C74.4088661,153.372357 56.2090534,151.712907 47.1094002,148.395529 C36.6422423,144.579148 24.3595078,129.732423 28.081794,98.2140326 C28.081794,98.2140326 30.1500121,85.7719617 57.4499843,86.1861897 C84.7499564,86.6014331 101.130142,89.8086548 105.432137,99.8724677 C107.913492,105.678767 105.44682,131.827929 90.540967,142.174494 M128.595673,88.2598682 C128.595673,88.2598682 123.63195,87.4303968 121.150088,87.4303968 C118.668226,87.4303968 113.704503,88.2598682 113.704503,88.2598682 C61.3930154,69.3307624 16.5620472,81.9007567 12.2838483,83.1810057 C12.0843678,83.2409063 11.9501994,83.4246693 11.9501994,83.6338139 L11.9501994,98.6201385 C11.9501994,98.8612639 12.1324659,99.0602558 12.3704249,99.0902062 C20.1947191,100.056738 19.3957845,105.264032 19.3957845,105.264032 C19.3957845,112.728767 23.118577,125.585573 23.118577,125.585573 C23.118577,125.585573 30.1500121,153.372357 54.9686289,155.446036 C54.9686289,155.446036 88.472749,160.008129 103.363919,136.368701 C110.964431,124.302786 114.53179,108.167182 116.186365,105.263524 C117.840939,102.360374 121.150088,102.360374 121.150088,102.360374 C121.150088,102.360374 124.459237,102.360374 126.113305,105.263524 C127.768386,108.167182 131.336252,124.302786 138.936763,136.368701 C153.827427,160.007621 187.332054,155.446036 187.332054,155.446036 C212.149658,153.372357 219.181599,125.585066 219.181599,125.585066 C219.181599,125.585066 222.904392,112.728767 222.904392,105.263524 C222.904392,105.263524 222.105457,100.056738 229.929245,99.0896985 C230.16771,99.0602558 230.34947,98.8612639 230.34947,98.6201385 L230.34947,83.6338139 C230.34947,83.4246693 230.215808,83.2409063 230.015822,83.1810057 C225.738129,81.9007567 180.906654,69.3307624 128.595673,88.2598682" id="Fill-73" fill="#221F1D"></path>
                    </g>
                </g>
            </g>
        </g>
    </g>
</svg>