<svg width="584" height="321" viewBox="0 0 584 321" fill="none" xmlns="http://www.w3.org/2000/svg">
<g clip-path="url(#clip0_2104_6208)">
<path d="M83.9702 282.733V288.742C83.9702 308.245 75.7294 320.898 59.3679 320.898C43.0065 320.898 34.7656 308.228 34.7656 288.742V282.733C34.7656 263.23 43.0065 250.56 59.3164 250.56C75.6264 250.56 83.9702 263.23 83.9702 282.733ZM43.264 288.742C43.264 292.313 43.5558 295.541 44.1052 298.391L72.931 267.488C70.3385 261.273 65.7717 257.942 59.3679 257.942C48.8952 257.942 43.264 266.87 43.264 282.733V288.742ZM75.4375 282.733C75.4375 279.557 75.2144 276.673 74.768 274.08L46.1311 304.795C48.7922 310.494 53.256 313.533 59.3679 313.533C69.8406 313.533 75.4204 304.606 75.4204 288.742V282.733H75.4375Z" fill="#1A1A1A"/>
<path d="M134.618 270.939C134.806 270.698 135.201 270.698 135.442 270.887L140.197 275.351C140.438 275.54 140.438 275.935 140.249 276.175L122.394 295.197L140.249 314.22C140.438 314.46 140.438 314.855 140.197 315.044L135.442 319.508C135.201 319.697 134.806 319.697 134.618 319.456L117.243 300.726L99.8344 319.456C99.6455 319.697 99.2507 319.697 99.0103 319.508L94.2547 315.044C94.0143 314.855 94.0143 314.46 94.2032 314.22L112.058 295.197L94.2032 276.175C94.0143 275.935 94.0143 275.54 94.2547 275.351L99.0103 270.887C99.2507 270.698 99.6455 270.698 99.8344 270.939L117.243 289.669L134.618 270.939Z" fill="#1A1A1A"/>
<path d="M150 313.053C150 312.658 150.189 312.469 150.584 312.469H165.04V277.926H152.524C152.215 277.926 151.957 277.703 151.94 277.394C151.94 277.394 151.94 277.359 151.94 277.342V271.522C151.94 271.127 152.129 270.938 152.524 270.938H172.714C173.023 270.938 173.28 271.162 173.298 271.471C173.298 271.471 173.298 271.505 173.298 271.522V312.469H187.65C187.959 312.469 188.217 312.692 188.234 313.001C188.234 313.001 188.234 313.035 188.234 313.053V318.873C188.234 319.267 188.045 319.456 187.65 319.456H150.584C150.189 319.456 150 319.267 150 318.873V313.053ZM173.675 259.693C173.675 260.088 173.486 260.277 173.091 260.277H163.58C163.185 260.277 162.996 260.088 162.996 259.693V250.182C162.996 249.787 163.185 249.598 163.58 249.598H173.091C173.486 249.598 173.675 249.787 173.675 250.182V259.693Z" fill="#1A1A1A"/>
<path d="M236.838 249.117C237.147 249.135 237.404 249.392 237.422 249.701V318.89C237.404 319.199 237.147 319.456 236.838 319.473H230.245C229.936 319.456 229.679 319.199 229.662 318.89V311.027C226.262 316.95 221.215 320.641 212.785 320.641C201.042 320.641 192.32 310.46 192.32 295.129C192.32 279.797 201.54 269.805 214.056 269.805C221.146 269.805 226.279 273.102 229.198 277.857V249.718C229.215 249.409 229.473 249.152 229.782 249.135H236.872L236.838 249.117ZM229.37 294.236C229.37 283.763 223.738 277.068 215.309 277.068C206.879 277.068 201.042 283.866 201.042 295.112C201.042 306.357 206.381 313.344 215.017 313.344C223.653 313.344 229.37 306.546 229.37 295.97V294.219V294.236Z" fill="#1A1A1A"/>
<path d="M294.026 297.344H258.796C258.985 306.46 264.325 313.362 273.252 313.362C279.759 313.362 283.931 309.67 286.541 305.207C286.729 304.812 287.021 304.726 287.416 304.915L293.236 308.211C293.631 308.4 293.717 308.795 293.425 309.19C288.858 316.658 282.558 320.641 273.63 320.641C258.402 320.641 250.35 310.168 250.35 294.253C250.35 279.403 259.466 269.805 273.046 269.805C287.897 269.805 294.009 280.965 294.009 292.897V297.361L294.026 297.344ZM285.682 290.545C285.682 282.785 281.407 276.192 272.686 276.192C263.964 276.192 259.002 283.471 258.814 290.545H285.682Z" fill="#1A1A1A"/>
<path d="M0 159.533L1.0301 160.563L41.7535 119.771C41.3415 119.633 40.7234 119.359 40.2942 119.221L0 159.533Z" fill="#F96360"/>
<path d="M55.677 105.95L72.4334 89.0567C72.4334 88.37 72.5707 87.5974 72.5707 86.9106L53.8057 105.813C54.3551 105.95 54.9903 105.95 55.5397 105.95H55.677Z" fill="#F96360"/>
<path d="M97.8426 63.7847L96.8125 62.7546L88.709 70.8581C88.8463 71.2702 89.121 71.8882 89.2584 72.3174L97.8426 63.8019V63.7847Z" fill="#F96360"/>
<path d="M89.3271 72.3002C89.1898 71.8882 88.9151 71.2701 88.7778 70.8409C83.4384 58.2393 71.472 49.5864 55.5397 49.5864C33.444 49.5864 19.1256 65.9307 19.1256 86.4298C18.9882 96.2673 22.8683 105.813 29.9932 112.749L42.5948 100.147C39.556 96.2673 38.0967 91.3571 38.234 86.4298C38.234 74.721 44.8782 66.0681 55.5397 66.2054C66.2013 66.3428 72.5708 74.8583 72.7081 86.4298V86.9792C72.7081 87.6659 72.7081 88.4385 72.5708 89.1252C71.5407 99.1001 65.3772 105.882 55.8144 106.019H55.6771C55.1277 106.019 54.4925 106.019 53.9431 105.882L40.3629 119.462C40.7749 119.599 41.393 119.874 41.8222 120.011C46.3203 121.608 50.8871 122.432 55.6771 122.432C77.7728 122.432 92.0913 105.95 92.0913 86.4298C91.8852 81.657 91.0611 76.7297 89.3271 72.3002Z" fill="#1A1A1A"/>
<path d="M48.8093 104.628C46.3885 103.598 44.0365 102.002 42.3025 99.8555L29.7695 112.457C31.6409 114.328 33.7869 115.925 36.0017 117.23L48.8093 104.628Z" fill="#F96360"/>
<path d="M156.353 74.8583C156.353 92.6619 143.202 100.542 131.493 100.542H121.656V121.659H102.891V50.8226H130.944C146.241 50.7539 156.353 61.8962 156.353 74.8583ZM121.656 83.9919H129.622C134.961 83.9919 137.863 80.2492 137.863 75.6137C138.137 71.253 134.824 67.5103 130.515 67.3729H121.656V83.9919Z" fill="#1A1A1A"/>
<path d="M220.116 121.522H166.379L166.516 50.6853H219.275V67.167H185.35V77.8285H209.66V94.1728H185.213V105.04H220.185L220.116 121.522Z" fill="#1A1A1A"/>
<path d="M249.131 50.7539L273.442 73.8797V50.7539H292.207L292.069 121.591H273.304V98.3275L250.041 76.3691L249.904 121.591H231.139L231.276 50.7539H249.148H249.131Z" fill="#1A1A1A"/>
<path d="M116.608 3.33478C113.277 6.66545 112.247 11.713 114.187 16.0737L34.1309 96.1128L40.2256 102.208L120.213 22.1685C126.171 24.5892 132.952 21.8938 135.373 16.0737C137.244 11.713 136.266 6.80279 132.952 3.33478C128.454 -1.09467 121.106 -1.09467 116.608 3.33478ZM127.75 14.6144C126.153 16.3484 123.527 16.3484 121.793 14.7518L121.655 14.6144C120.196 12.7431 120.625 9.97895 122.548 8.51963C124.145 7.33501 126.153 7.33501 127.733 8.51963C129.467 10.1163 129.467 12.7431 127.87 14.4771C127.87 14.6144 127.733 14.6144 127.733 14.6144H127.75Z" fill="#1A1A1A"/>
<path d="M159.393 156.219L168.818 146.794L167.788 145.764L158.088 155.464L159.41 156.219H159.393Z" fill="#F96360"/>
<path d="M145.691 167.773L136.764 176.701L138.223 177.25L147.151 168.323H147.013C147.013 168.323 146.532 168.254 145.691 167.773Z" fill="#F96360"/>
<path d="M123.87 191.672L122.411 191.123L112.573 200.96L114.033 201.509L123.87 191.672Z" fill="#F96360"/>
<path d="M100.264 213.201L78.46 235.005L79.4901 236.035L101.448 214.077C100.762 213.459 100.126 213.184 100.264 213.184V213.201Z" fill="#F96360"/>
<path d="M130.377 164.048C136.128 164.048 142.978 166.675 145.674 167.791C146.567 168.065 146.996 168.34 146.996 168.34H147.133L159.391 156.082L158.069 155.395L152.73 152.494C145.537 149.163 137.57 147.584 129.604 147.721C117.209 147.721 102.598 154.502 102.598 168.975C102.598 182.556 113.123 187.603 122.394 191.071L123.853 191.62C130.497 193.904 135.836 195.638 135.836 199.449C135.836 202.643 131.613 204.222 125.999 204.222C121.776 204.085 117.758 203.037 114.015 201.458L112.556 200.909L109.363 203.947L100.298 213.218C100.298 213.218 100.71 213.493 101.62 214.111C109.311 218.609 117.964 220.893 126.892 220.893C139.013 220.893 155.357 214.248 155.357 198.522C155.357 186.539 146.704 181.01 138.326 177.542L136.867 176.993C129.312 173.954 122.256 172.358 122.256 168.89C122.256 165.353 126.136 164.048 130.36 164.048H130.377Z" fill="#1A1A1A"/>
<path d="M233.835 184.736C233.835 204.119 219.499 220.738 197.558 220.738C175.617 220.738 161.281 204.119 161.281 184.736C161.281 164.374 175.48 147.893 197.558 147.893C219.654 147.824 233.835 164.168 233.835 184.736ZM214.726 184.736C214.726 173.027 208.22 164.374 197.558 164.374C186.896 164.374 180.252 173.027 180.252 184.736C180.252 196.445 186.896 204.256 197.558 204.256C208.22 204.188 214.726 196.084 214.726 184.736Z" fill="#1A1A1A"/>
<path d="M284.858 148.871H303.76V193.389C303.76 210.008 288.738 220.669 273.853 220.669C258.968 220.669 243.945 210.008 243.945 193.389V148.871H262.71V192.496C262.71 200.187 268.05 204.205 273.853 204.205C279.656 204.205 284.858 199.981 284.858 192.496V148.871Z" fill="#1A1A1A"/>
<path d="M336.724 197.561V219.657H317.959V148.888H345.72C361.292 148.888 371.404 159.893 371.404 172.838C371.404 184.547 365.447 191.191 359.695 194.23L375.422 219.639H353.463L340.724 197.544H336.707L336.724 197.561ZM352.931 172.976C352.931 168.752 349.6 165.284 345.583 165.284H336.793V181.01H344.828C349.051 181.148 352.794 177.972 352.931 173.662V172.976Z" fill="#1A1A1A"/>
<path d="M443.785 153.661L450.567 146.88L449.537 145.85L442.48 152.906C442.961 153.043 443.802 153.661 443.802 153.661H443.785Z" fill="#F96360"/>
<path d="M402.445 192.771C402.582 193.32 402.72 193.801 402.994 194.23L430.481 166.743C430.481 166.743 429.588 166.331 429.159 166.057L402.428 192.788L402.445 192.771Z" fill="#F96360"/>
<path d="M360.125 235.022L361.155 236.052L389.895 207.45C389.62 207.038 389.346 206.763 389.002 206.265L360.125 235.005V235.022Z" fill="#F96360"/>
<path d="M419.407 164.46C422.6 164.46 425.776 165.009 428.832 165.919L429.244 166.057C429.794 166.331 430.566 166.743 430.566 166.743L436.524 160.786L443.872 153.438C443.872 153.438 443.185 153.026 442.55 152.751L442.412 152.614L441.726 152.202C441.039 151.79 432.163 147.704 418.874 147.704C396.779 147.704 382.598 164.185 382.598 184.547C382.598 192.238 384.881 199.707 389.242 205.939C389.517 206.351 389.791 206.626 390.135 207.123C396.504 215.227 406.342 220.549 418.874 220.549C427.115 220.549 435.356 218.678 442.687 215.072L436.73 199.775C436.73 199.775 427.167 204.273 419.561 204.273C411.183 204.273 405.844 200.256 403.217 194.161C403.08 193.749 402.805 193.131 402.667 192.702C401.775 190.075 401.483 187.517 401.483 184.873C401.346 173.456 407.372 164.443 419.424 164.443L419.407 164.46Z" fill="#1A1A1A"/>
<path d="M471.959 203.226V192.359H496.407V176.014H471.822V165.353H505.747V148.871H452.988V219.708H482.209L498.691 203.226H471.959Z" fill="#1A1A1A"/>
<path d="M511.017 203.226H498.759L482.277 219.708H494.536L511.017 203.226Z" fill="#F96360"/>
<path d="M511.155 203.226L466.912 247.469C460.955 245.049 454.173 247.607 451.753 253.564C449.332 259.522 451.89 266.303 457.847 268.724C463.805 271.145 470.586 268.586 473.007 262.629C474.329 259.728 474.329 256.397 473.007 253.564L523.413 203.158L511.155 203.226ZM459.289 255.092C461.023 253.358 463.788 253.358 465.384 254.955C467.118 256.689 467.118 259.453 465.522 261.05C463.788 262.784 461.023 262.784 459.427 261.187L459.289 261.05C457.555 259.59 457.555 256.963 459.289 255.092C459.289 255.184 459.289 255.184 459.289 255.092Z" fill="#1A1A1A"/>
<path d="M325.306 79.0818H319.555V50.7539H338.457V55.8014H325.169V62.3082H335.144V67.3557H325.169L325.306 79.0646V79.0818Z" fill="#F96360"/>
<path d="M342.475 50.7539H348.226V79.0818H342.475V50.7539Z" fill="#F96360"/>
<path d="M360.415 69.519V79.0818H354.664V50.7539H365.051C371.146 50.7539 375.026 54.9773 375.026 60.0248C375.3 63.9049 373.017 67.3729 369.412 68.8151L375.781 79.0646H368.862L363.386 69.5018H360.415V69.519ZM369.343 60.0935C369.48 57.8101 367.609 55.8701 365.463 55.8701H360.415V64.523H365.326C367.609 64.4543 369.549 62.4456 369.343 60.0935Z" fill="#F96360"/>
<path d="M402.581 59.6986L396.349 67.8021H393.155L387.061 59.6986H386.923V79.0818H381.172V50.7539H386.923L394.889 61.1408L402.856 50.7539H408.47V79.0818H402.718L402.581 59.6986Z" fill="#F96360"/>
<path d="M414.135 50.7539H419.749L421.345 72.4204H421.483L426.393 62.3082H430.891L435.664 72.4204H435.801L437.398 50.7539H443.012L439.973 79.0818H434.222L428.608 67.8021H428.333L422.719 79.0818H416.968L414.135 50.7539Z" fill="#F96360"/>
<path d="M470.997 79.0818H465.246V69.9482H454.378V79.0131H448.627V60.7288C448.764 54.634 453.674 49.8612 459.769 50.0672H459.907C465.521 50.0672 471.049 54.7027 471.049 60.7288L470.98 79.0818H470.997ZM465.177 61.4327C465.177 57.4153 462.894 55.0632 459.701 55.0632C456.507 55.0632 454.224 57.2093 454.224 61.4327V64.9007H465.091V61.4327H465.16H465.177Z" fill="#F96360"/>
<path d="M482.826 69.519V79.0818H477.074V50.7539H487.461C493.556 50.7539 497.436 54.9773 497.436 60.0248C497.711 63.9049 495.427 67.3729 491.822 68.8151L498.191 79.0646H491.41L485.933 69.5018H482.826V69.519ZM491.753 60.0935C491.891 57.8101 490.019 55.8701 487.873 55.8701H482.826V64.523H487.736C489.882 64.4543 491.753 62.4456 491.753 60.0935Z" fill="#F96360"/>
<path d="M523.893 79.0818H503.531V50.7539H523.618V55.8014H509.283V62.3082H519.395V67.3557H509.283V73.9999H523.893V79.0474V79.0818Z" fill="#F96360"/>
<path d="M341.153 120.149C338.251 121.608 335.058 122.157 331.882 122.157C321.77 122.157 317.684 114.466 317.684 107.684C317.684 99.1688 323.435 92.9367 332.157 92.9367C335.058 92.7993 337.908 93.3487 340.672 94.5333L338.938 99.3061C336.929 98.4134 334.715 97.9842 332.569 97.9842C327.384 97.9842 323.504 101.452 323.504 107.684C323.504 113.161 326.697 117.11 332.569 117.11C334.852 116.972 337.204 116.423 339.35 115.376L341.153 120.149Z" fill="#F96360"/>
<path d="M372.881 107.684C373.155 115.376 367.267 121.677 359.592 122.02H358.562C349.772 122.02 344.227 115.513 344.227 107.684C344.227 99.4436 349.703 92.9368 358.562 92.9368C367.421 92.9368 372.898 99.4436 372.898 107.684H372.881ZM367.061 107.684C367.061 102.208 363.867 97.9843 358.545 97.9843C353.223 97.9843 350.029 102.208 350.029 107.684C350.029 113.161 353.36 117.11 358.545 117.11C363.73 117.11 366.923 113.161 367.061 107.684Z" fill="#F96360"/>
<path d="M395.232 104.766V93.3487H400.984V121.677H395.232V112.251L383.524 101.109H383.386V121.608H377.635V93.28H382.974L395.095 104.697H395.232V104.766Z" fill="#F96360"/>
<path d="M413.312 121.728H407.561V93.4001H426.463V98.4477H413.312V104.954H423.287V110.002H413.312V121.711V121.728Z" fill="#F96360"/>
<path d="M450.911 121.728H430.549V93.4001H450.636V98.4477H436.3V104.954H446.412V110.002H436.3V116.646H450.911V121.694V121.728Z" fill="#F96360"/>
<path d="M461.435 112.045V121.608H455.615V93.4346H466.002C472.097 93.4346 475.977 97.658 475.977 102.706C476.252 106.586 473.968 110.054 470.363 111.496L476.732 121.745H469.813L464.337 112.182L461.435 112.045ZM470.363 102.62C470.5 100.336 468.629 98.3962 466.483 98.3962H461.435V107.049H466.345C468.629 106.98 470.5 105.109 470.363 102.62Z" fill="#F96360"/>
<path d="M502.639 121.728H482.277V93.4001H502.364V98.4477H488.029V104.954H498.141V110.002H488.029V116.646H502.639V121.694V121.728Z" fill="#F96360"/>
<path d="M524.992 104.766V93.3487H530.744V121.677H524.992V112.251L513.283 101.109H513.146V121.608H507.395V93.28H512.734L524.855 104.697H524.992V104.766Z" fill="#F96360"/>
<path d="M559.002 120.149C556.101 121.608 552.908 122.157 549.731 122.157C539.619 122.157 535.533 114.466 535.533 107.684C535.533 99.1688 541.285 92.9367 550.006 92.9367C552.908 92.7993 555.758 93.3487 558.522 94.5333L556.788 99.3061C554.779 98.4134 552.564 97.9842 550.418 97.9842C545.233 97.9842 541.353 101.452 541.353 107.684C541.353 113.161 544.392 117.11 550.418 117.11C552.702 116.972 555.054 116.423 557.2 115.376L559.002 120.149Z" fill="#F96360"/>
<path d="M584 121.728H563.639V93.4001H583.726V98.4477H569.39V104.954H579.502V110.002H569.39V116.646H584V121.694V121.728Z" fill="#F96360"/>
<path d="M342.287 292.588V297.653H333.548V320.916H327.796V297.653H319.023V292.588H342.287Z" fill="#F96360"/>
<path d="M351.66 311.319V320.916H345.908V292.588H356.347C362.373 292.588 366.304 296.76 366.304 301.773C366.304 307.147 363.077 309.705 360.725 310.598L367.111 320.916H360.227L354.733 311.319H351.66ZM360.639 301.893C360.639 299.507 358.905 297.653 356.518 297.653H351.66V306.305H356.518C358.905 306.305 360.639 304.28 360.639 301.893Z" fill="#F96360"/>
<path d="M372.365 292.588H378.151V320.916H372.365V292.588Z" fill="#F96360"/>
<path d="M405.087 301.773C405.087 308.658 400.109 311.765 395.49 311.765H390.357V320.916H384.605V292.588H395.164C401.242 292.588 405.07 296.76 405.07 301.773H405.087ZM390.357 306.717H395.284C398.203 306.717 399.456 304.537 399.456 302.151C399.456 299.764 397.671 297.653 395.61 297.653H390.357V306.717Z" fill="#F96360"/>
<path d="M324.775 278.269H319.023V249.942H337.909V255.006H324.758V261.565H334.664V266.578H324.758V278.269H324.775Z" fill="#F96360"/>
<path d="M341.961 249.942H347.747V278.269H341.961V249.942Z" fill="#F96360"/>
<path d="M374.615 278.269H354.219V249.942H374.254V255.006H359.97V261.565H370.048V266.578H359.97V273.222H374.615V278.287V278.269Z" fill="#F96360"/>
<path d="M399.028 273.205V278.269H379.49V249.942H385.242V273.205H399.045H399.028Z" fill="#F96360"/>
<path d="M411.166 249.942C420.472 249.942 425.811 255.607 425.811 264.106C425.811 272.604 420.472 278.269 411.166 278.269H403.08V249.942H411.166ZM410.6 273.205C417.244 273.205 420.077 269.531 420.077 264.106C420.077 258.32 417.244 255.006 410.6 255.006H408.814V273.205H410.6Z" fill="#F96360"/>
</g>
<defs>
<clipPath id="clip0_2104_6208">
<rect width="584" height="320.912" fill="white" transform="translate(0 0.00415039)"/>
</clipPath>
</defs>
</svg>
