<?xml version="1.0" encoding="UTF-8"?>
<svg width="18px" height="18px" viewBox="0 0 18 18" version="1.1" xmlns="http://www.w3.org/2000/svg" xmlns:xlink="http://www.w3.org/1999/xlink">
    <!-- Generator: Sketch 50 (54983) - http://www.bohemiancoding.com/sketch -->
    <title>icon_imprint</title>
    <desc>Created with Sketch.</desc>
    <defs></defs>
    <g id="Page-1" stroke="none" stroke-width="1" fill="none" fill-rule="evenodd">
        <g id="Artboard-4" transform="translate(-13.000000, -35.000000)">
            <g id="icon_imprint" transform="translate(13.000000, 35.000000)">
                <circle id="Combined-Shape-Copy" fill="#FFFFFF" cx="9" cy="9" r="9"></circle>
                <path d="M5.828125,8.7265625 C5.828125,8.3932275 5.94010305,8.06770992 6.1640625,7.75 C6.38802195,7.43229008 6.70312297,7.15104289 7.109375,6.90625 C6.37499633,6.37499734 6.0078125,5.73437875 6.0078125,4.984375 C6.0078125,4.27082977 6.29687211,3.70833539 6.875,3.296875 C7.45312789,2.88541461 8.22134937,2.6796875 9.1796875,2.6796875 C10.1744841,2.6796875 11.1380162,2.90364359 12.0703125,3.3515625 L11.3046875,5.078125 C10.9244773,4.86979063 10.5429707,4.70572977 10.1601562,4.5859375 C9.77734184,4.46614523 9.44270977,4.40625 9.15625,4.40625 C8.59374719,4.40625 8.3125,4.59895641 8.3125,4.984375 C8.3125,5.20833445 8.4309884,5.41406156 8.66796875,5.6015625 C8.9049491,5.78906344 9.23958117,5.97135328 9.671875,6.1484375 C10.5833379,6.51823102 11.2408834,6.91406039 11.6445312,7.3359375 C12.0481791,7.75781461 12.25,8.22135164 12.25,8.7265625 C12.25,9.12760617 12.1666675,9.48567551 12,9.80078125 C11.8333325,10.115887 11.5312522,10.4296859 11.09375,10.7421875 C11.7447949,11.2317733 12.0703125,11.8671836 12.0703125,12.6484375 C12.0703125,13.424483 11.7669301,14.0429664 11.1601562,14.5039062 C10.5533824,14.9648461 9.72135945,15.1953125 8.6640625,15.1953125 C7.60155719,15.1953125 6.68489969,14.9713564 5.9140625,14.5234375 L5.9140625,12.6171875 C6.32552289,12.8463553 6.79947648,13.04427 7.3359375,13.2109375 C7.87239852,13.377605 8.3203107,13.4609375 8.6796875,13.4609375 C9.40364945,13.4609375 9.765625,13.21094 9.765625,12.7109375 C9.765625,12.4921864 9.68489664,12.3033862 9.5234375,12.1445312 C9.36197836,11.9856763 9.00000281,11.7812513 8.4375,11.53125 C7.70312133,11.2031234 7.16797043,10.9114596 6.83203125,10.65625 C6.49609207,10.4010404 6.2447925,10.1197932 6.078125,9.8125 C5.9114575,9.5052068 5.828125,9.14323125 5.828125,8.7265625 Z M8.1015625,8.484375 C8.1015625,8.75000133 8.21614469,8.98697813 8.4453125,9.1953125 C8.67448031,9.40364687 9.07812211,9.65885266 9.65625,9.9609375 C9.86979273,9.71614461 9.9765625,9.43750156 9.9765625,9.125 C9.9765625,8.82812352 9.86718859,8.56770945 9.6484375,8.34375 C9.42968641,8.11979055 9.06510672,7.90104273 8.5546875,7.6875 C8.25260266,7.8541675 8.1015625,8.11978984 8.1015625,8.484375 Z" id="ยง" fill="#4F51A9"></path>
            </g>
        </g>
    </g>
</svg>