<?xml version="1.0" encoding="UTF-8"?>
<svg width="18px" height="18px" viewBox="0 0 18 18" version="1.1" xmlns="http://www.w3.org/2000/svg" xmlns:xlink="http://www.w3.org/1999/xlink">
    <!-- Generator: Sketch 50 (54983) - http://www.bohemiancoding.com/sketch -->
    <title>icon_mail</title>
    <desc>Created with Sketch.</desc>
    <defs></defs>
    <g id="Page-1" stroke="none" stroke-width="1" fill="none" fill-rule="evenodd">
        <g id="Artboard-4" transform="translate(-42.000000, -33.000000)">
            <g id="icon_mail" transform="translate(42.000000, 33.000000)">
                <circle id="Combined-Shape" fill="#FFFFFF" cx="9" cy="9" r="9"></circle>
                <path d="M15,12.4999588 C15,12.763028 14.9260033,13.0069056 14.8074652,13.2214763 L11.0185734,8.98224551 L14.7663862,5.70324093 C14.9121784,5.93460435 15,6.20637908 15,6.50006595 L15,12.4999588 Z M9.00001237,9.75196478 L14.2149725,5.18899832 C14.0009707,5.07184508 13.7599869,5 13.500034,5 L4.49999073,5 C4.23971633,5 3.99865832,5.07184508 3.78552217,5.18899832 L9.00001237,9.75196478 Z M10.4539036,9.47591149 L9.24678336,10.5327885 C9.1761749,10.5942958 9.08825439,10.6250124 9.00001237,10.6250124 C8.91172088,10.6250124 8.82380037,10.5942958 8.75319191,10.5327885 L7.54579966,9.47586203 L3.70897816,13.7692796 C3.93895645,13.9135633 4.20848043,14 4.49996599,14 L13.500034,14 C13.7914701,14 14.0611177,13.9135633 14.2910218,13.7692796 L10.4539036,9.47591149 Z M3.23366329,5.7032162 C3.08789578,5.93457962 3,6.20635435 3,6.50006595 L3,12.4999835 C3,12.7630527 3.07365043,13.0069303 3.19263372,13.221501 L6.9810804,8.9815283 L3.23366329,5.7032162 Z" id="Shape" fill="#4F51A9" fill-rule="nonzero"></path>
            </g>
        </g>
    </g>
</svg>