<?xml version="1.0" encoding="UTF-8"?>
<svg width="18px" height="18px" viewBox="0 0 18 18" version="1.1" xmlns="http://www.w3.org/2000/svg" xmlns:xlink="http://www.w3.org/1999/xlink">
    <!-- Generator: Sketch 48.2 (47327) - http://www.bohemiancoding.com/sketch -->
    <title>icon_pin</title>
    <desc>Created with Sketch.</desc>
    <defs></defs>
    <g id="v3" stroke="none" stroke-width="1" fill="none" fill-rule="evenodd" transform="translate(-352.000000, -5843.000000)">
        <g id="footer" transform="translate(0.000000, 5763.000000)" fill="#FFFFFF">
            <g id="text" transform="translate(352.000000, 79.000000)">
                <g id="icon_pin" transform="translate(0.000000, 1.000000)">
                    <path d="M9,18 C4.02943725,18 0,13.9705627 0,9 C0,4.02943725 4.02943725,0 9,0 C13.9705627,0 18,4.02943725 18,9 C18,13.9705627 13.9705627,18 9,18 Z M9,15.5229262 C11.6666667,11.9804014 13,9.47275933 13,8 C13,5.790861 11.209139,4 9,4 C6.790861,4 5,5.790861 5,8 C5,9.47275933 6.33333333,11.9804014 9,15.5229262 Z M9,10.4 C10.3254834,10.4 11.4,9.3254834 11.4,8 C11.4,6.6745166 10.3254834,5.6 9,5.6 C7.6745166,5.6 6.6,6.6745166 6.6,8 C6.6,9.3254834 7.6745166,10.4 9,10.4 Z" id="Combined-Shape"></path>
                </g>
            </g>
        </g>
    </g>
</svg>