<svg width="657" height="85" viewBox="0 0 657 85" fill="none" xmlns="http://www.w3.org/2000/svg">
<g clip-path="url(#clip0_1398_2477)">
<path d="M132.93 23.3404C132.93 18.4204 135.25 15.7104 140.66 15.7104H157.94V5.86035H136.89C125.79 5.86035 120.57 11.4604 120.57 20.9204V28.0704H107.15V38.5004H120.57V76.9304H132.93V38.5004H150.41V28.0704H132.93V23.3404Z" fill="#13110C"/>
<path d="M169.92 36.2803V28.0703H157.66V76.9303H169.92V51.2403C169.92 43.5203 173.69 40.0403 184.11 40.0403H197.15V27.7803H185.76C174.94 27.7803 171.18 33.4803 169.92 36.2803Z" fill="#13110C"/>
<path d="M240.18 35.4098C239.12 33.3798 234.19 27.0098 223.86 27.0098C211.21 27.0098 200.78 36.6698 200.78 52.4998C200.78 68.3298 211.21 77.9898 223.76 77.9898C234.48 77.9898 239.31 71.2298 240.27 69.1998V76.9198H252.53V28.0698H240.17V35.4098H240.18ZM227.05 67.1798C218.75 67.1798 213.34 60.8098 213.34 52.4998C213.34 44.1898 218.75 37.8198 227.05 37.8198C235.35 37.8198 240.38 44.1898 240.38 52.4998C240.38 60.8098 235.07 67.1798 227.05 67.1798Z" fill="#13110C"/>
<path d="M329.14 27.01C318.81 27.01 313.4 33.48 311.18 37.92C308.09 31.26 301.72 27.01 293.41 27.01C284.62 27.01 279.22 32.71 277.38 36.28V28.07H265.12V76.93H277.38V50.86C277.38 43.33 282.11 38.02 289.45 38.02C296.79 38.02 301.04 43.14 301.04 50.86V76.93H313.4V50.86C313.4 43.33 318.13 38.02 325.47 38.02C332.81 38.02 337.06 43.14 337.06 50.86V76.93H349.42V48.44C349.42 35.98 341.5 27 329.14 27V27.01Z" fill="#13110C"/>
<path d="M383.59 26.8096C368.62 26.8096 358 37.3296 358 52.4996C358 67.6696 368.62 78.1796 384.55 78.1796C400.48 78.1796 407.82 67.6496 408.59 62.6296H396.42C395.55 63.9796 392.36 67.9396 384.54 67.9396C376.72 67.9396 370.92 62.1496 370.35 54.5196H409.17V53.1696C409.17 37.1396 398.64 26.8096 383.58 26.8096H383.59ZM370.75 46.0196C372.29 40.0296 376.93 36.3596 383.59 36.3596C389.87 36.3596 394.5 39.8396 396.24 46.0196H370.75Z" fill="#13110C"/>
<path d="M470.95 60.6097L458.98 27.6797H448.07L436 60.8997L424.7 28.0697H411.28L429.53 77.3197H440.34L452.7 43.3297L465.16 77.3197H476.26L494.13 28.0697H482.15L470.95 60.6097Z" fill="#13110C"/>
<path d="M522.58 26.8096C507.52 26.8096 496.22 37.6196 496.22 52.4996C496.22 67.3796 507.52 78.1796 522.58 78.1796C537.64 78.1796 548.85 67.3696 548.85 52.4996C548.85 37.6296 537.46 26.8096 522.58 26.8096ZM522.58 67.1696C514.28 67.1696 508.68 60.6996 508.68 52.4896C508.68 44.2796 514.28 37.8096 522.58 37.8096C530.88 37.8096 536.39 44.1796 536.39 52.4896C536.39 60.7996 530.79 67.1696 522.58 67.1696Z" fill="#13110C"/>
<path d="M569.69 36.2803V28.0703H557.43V76.9303H569.69V51.2403C569.69 43.5203 573.46 40.0403 583.88 40.0403H596.92V27.7803H585.53C574.72 27.7803 570.95 33.4803 569.69 36.2803Z" fill="#13110C"/>
<path d="M628.9 50.8604L654.87 28.0704H638.74L616.34 47.9604V5.86035H604.18V76.9304H616.34V54.7204L639.71 76.9304H656.22L628.9 50.8604Z" fill="#13110C"/>
<path d="M86.25 31.4004L79.65 27.5904C76.56 25.8004 74.65 22.5004 74.65 18.9304V11.3104C74.65 9.75041 73.94 8.28041 72.73 7.30041C69.14 4.39041 65.09 2.04041 60.71 0.350412C59.25 -0.209588 57.62 -0.0995876 56.27 0.680412L49.66 4.50041C46.57 6.29041 42.75 6.29041 39.66 4.50041L33.05 0.680412C31.7 -0.0995876 30.06 -0.219588 28.61 0.350412C24.23 2.04041 20.18 4.40041 16.59 7.30041C15.38 8.28041 14.67 9.75041 14.67 11.3104V18.9304C14.67 22.5004 12.76 25.8004 9.67002 27.5904L3.07002 31.4004C1.72002 32.1804 0.80002 33.5304 0.56002 35.0704C0.21002 37.3304 0.0200195 39.6504 0.0200195 42.0104C0.0200195 44.3704 0.21002 46.6904 0.56002 48.9504C0.80002 50.4904 1.72002 51.8504 3.07002 52.6304L9.67002 56.4404C12.76 58.2304 14.67 61.5304 14.67 65.1004V72.7204C14.67 74.2804 15.38 75.7504 16.59 76.7304C20.18 79.6304 24.23 81.9904 28.61 83.6804C30.07 84.2404 31.7 84.1304 33.05 83.3504L39.66 79.5304C42.75 77.7404 46.56 77.7404 49.66 79.5304L56.27 83.3504C57.62 84.1304 59.26 84.2504 60.71 83.6804C65.09 81.9904 69.14 79.6304 72.73 76.7304C73.94 75.7504 74.65 74.2804 74.65 72.7204V65.1004C74.65 61.5304 76.56 58.2304 79.65 56.4404L86.25 52.6304C87.6 51.8504 88.52 50.5004 88.76 48.9504C89.11 46.6904 89.3 44.3704 89.3 42.0104C89.3 39.6504 89.11 37.3304 88.76 35.0704C88.52 33.5304 87.6 32.1804 86.25 31.4004ZM44.65 68.8404C29.84 68.8404 17.83 56.8304 17.83 42.0204C17.83 27.2104 29.83 15.2004 44.65 15.2004C59.47 15.2004 71.47 27.2104 71.47 42.0204C71.47 56.8304 59.46 68.8404 44.65 68.8404Z" fill="#13110C"/>
</g>
<defs>
<clipPath id="clip0_1398_2477">
<rect width="656.22" height="84.05" fill="white"/>
</clipPath>
</defs>
</svg>
