<svg width="482" height="482" viewBox="0 0 482 482" fill="none" xmlns="http://www.w3.org/2000/svg">
<g clip-path="url(#clip0_426_4250)">
<path d="M38.0558 254.97C38.0558 260.006 39.1612 263.872 40.6059 266.211C42.5 269.275 45.3252 270.573 48.2054 270.573C51.9204 270.573 55.3189 269.651 61.8682 260.593C67.115 253.333 73.2974 243.142 77.4572 236.753L84.5018 225.929C89.3955 218.412 95.0596 210.056 101.554 204.392C106.856 199.769 112.575 197.2 118.331 197.2C127.994 197.2 137.199 202.8 144.244 213.303C151.953 224.806 155.696 239.294 155.696 254.245C155.696 263.134 153.944 269.665 150.963 274.824C148.082 279.814 142.469 284.8 133.025 284.8V270.573C141.111 270.573 143.129 263.143 143.129 254.64C143.129 242.523 140.304 229.075 134.08 219.467C129.664 212.652 123.94 208.487 117.643 208.487C110.832 208.487 105.351 213.624 99.1919 222.783C95.9173 227.649 92.5555 233.579 88.7809 240.271L84.6257 247.632C76.2785 262.432 74.1642 265.803 69.9906 271.366C62.6754 281.108 56.4288 284.8 48.2054 284.8C38.4503 284.8 32.2816 280.576 28.4612 274.21C25.3425 269.023 23.8106 262.216 23.8106 254.461L38.0558 254.97Z" fill="#0081FB"/>
<path d="M35.0426 214.307C41.5736 204.24 50.9985 197.2 61.8086 197.2C68.0689 197.2 74.2926 199.053 80.7915 204.36C87.9003 210.161 95.477 219.715 104.929 235.46L108.319 241.11C116.501 254.741 121.156 261.753 123.88 265.06C127.384 269.307 129.838 270.573 133.025 270.573C141.111 270.573 143.129 263.143 143.129 254.64L155.696 254.245C155.696 263.134 153.944 269.665 150.963 274.824C148.082 279.814 142.469 284.8 133.025 284.8C127.155 284.8 121.954 283.525 116.203 278.099C111.781 273.935 106.613 266.537 102.636 259.887L90.8081 240.129C84.8733 230.213 79.4293 222.82 76.2785 219.472C72.8892 215.871 68.5321 211.523 61.5792 211.523C55.9518 211.523 51.1728 215.472 47.1735 221.513L35.0426 214.307Z" fill="url(#paint0_linear_426_4250)"/>
<path d="M61.5792 211.523C55.9518 211.523 51.1728 215.472 47.1735 221.513C41.5185 230.048 38.0558 242.761 38.0558 254.97C38.0558 260.006 39.1612 263.872 40.6059 266.211L28.4612 274.21C25.3425 269.023 23.8106 262.216 23.8106 254.461C23.8106 240.358 27.6815 225.659 35.0426 214.307C41.5736 204.24 50.9985 197.2 61.8086 197.2L61.5792 211.523Z" fill="url(#paint1_linear_426_4250)"/>
<path d="M183.388 199.97H199.867L227.885 250.659L255.908 199.97H272.029V283.259H258.586V219.426L234.012 263.629H221.4L196.831 219.426V283.259H183.388V199.97ZM314.15 231.025C304.509 231.025 298.703 238.28 297.313 247.265H330.032C329.358 238.01 324.019 231.025 314.15 231.025ZM283.985 252.383C283.985 233.478 296.203 219.719 314.384 219.719C332.266 219.719 342.943 233.304 342.943 253.392V257.084H297.313C298.932 266.858 305.417 273.444 315.874 273.444C324.217 273.444 329.431 270.898 334.375 266.243L341.516 274.989C334.788 281.176 326.23 284.745 315.397 284.745C295.717 284.745 283.985 270.394 283.985 252.383V252.383ZM359.243 232.217H346.869V221.21H359.243V203.007H372.213V221.21H391.012V232.217H372.213V260.116C372.213 269.642 375.258 273.026 382.743 273.026C386.16 273.026 388.118 272.733 391.012 272.251V283.139C387.407 284.158 383.968 284.625 380.244 284.625C366.241 284.625 359.243 276.975 359.243 261.661V232.217ZM445.627 242.922C443.022 236.345 437.211 231.502 428.671 231.502C417.572 231.502 410.468 239.376 410.468 252.204C410.468 264.711 417.008 272.967 428.139 272.967C436.89 272.967 443.136 267.876 445.627 261.542V242.922ZM458.597 283.259H445.865V274.572C442.306 279.686 435.83 284.745 425.341 284.745C408.473 284.745 397.199 270.623 397.199 252.204C397.199 233.611 408.743 219.719 426.057 219.719C434.615 219.719 441.329 223.141 445.865 229.181V221.21H458.597V283.259Z" fill="#192830"/>
</g>
<defs>
<linearGradient id="paint0_linear_426_4250" x1="51.7874" y1="250.861" x2="142.597" y2="255.447" gradientUnits="userSpaceOnUse">
<stop stop-color="#0064E1"/>
<stop offset="0.4" stop-color="#0064E1"/>
<stop offset="0.83" stop-color="#0073EE"/>
<stop offset="1" stop-color="#0082FB"/>
</linearGradient>
<linearGradient id="paint1_linear_426_4250" x1="44.4492" y1="260.951" x2="44.4492" y2="227.47" gradientUnits="userSpaceOnUse">
<stop stop-color="#0082FB"/>
<stop offset="1" stop-color="#0064E0"/>
</linearGradient>
<clipPath id="clip0_426_4250">
<rect width="434.786" height="87.5993" fill="white" transform="translate(23.8106 197.2)"/>
</clipPath>
</defs>
</svg>
