<svg xmlns="http://www.w3.org/2000/svg" viewBox="0 0 415 254">
  <path fill="#000505" fill-rule="evenodd" d="M151.8 184.3h11.6v4.8h-17.2v-23h5.6v18.2zm-28.7 4.8h17.5v-4.8h-11.9v-4.2H139v-4.7h-10.3v-4.5h11.9v-4.8H123v23zm45.1 0h17.5v-4.8h-11.9v-4.2h10.4v-4.7h-10.4v-4.5h11.9v-4.8h-17.5v23zm-53-21a8 8 0 0 1 2.5 6c0 1.6-.7 3.3-2 5.5l-6 9.5h-6.4l4.4-6.8h.1-.2c-5-.4-8.6-3.7-8.6-8.1 0-5 4-8.5 9.4-8.5 2.6 0 5 .8 6.7 2.4zm-2.7 5.8c0-2.2-1.9-3.9-4.1-3.9-2.3 0-4.1 1.7-4.1 3.9s1.8 3.9 4 3.9c2.4 0 4.2-1.7 4.2-3.9zm91.4 4.7l-8.4-12.5h-4.1v23h5.6v-12l5.4 8.4h3l5.4-8.2V189h5.6v-23h-4.2l-8.3 12.5zM272 171h7.5v18h5.6v-18h7.5v-5H272v5zm36.8 4.6l-3.3-.8c-1.6-.4-2.7-.9-2.7-2.3 0-.7.3-1.4 1-1.8.5-.4 1.4-.6 2.4-.6 2.2 0 3.5 1 3.9 2.9h5.7c-.2-1.9-1.5-7.6-10-7.6-2.6 0-4.9.7-6.5 2a6.8 6.8 0 0 0-2.6 5.5c0 3.6 2.1 5.8 6.7 6.7l3.8.8c1.8.4 2.6 1 2.6 2.1 0 1.4-1.2 2.2-3.4 2.2-2.7 0-4.6-1.2-5-3.3H296a8.2 8.2 0 0 0 3.5 6 12 12 0 0 0 7 2c5.8 0 9.6-3 9.6-7.5-.1-3.4-2.2-5.3-7.1-6.3zM222.7 189h17.5v-4.8h-11.9v-4.2h10.4v-4.7h-10.4v-4.5h11.9v-4.8h-17.5v23zm39-9.8l-11.5-13.2H246v23h5.7v-12.9l11.3 13h4.3v-23h-5.6v13.1zm-111 35.7h3c-.3 3.1-2.7 5.2-6 5.2a6.2 6.2 0 0 1-6.5-6.3c0-3.7 2.8-6.3 6.4-6.3 3.4 0 5.8 2.1 6.2 5.2h-3.2c-.3-1.5-1.4-2.5-3-2.5-2 0-3.3 1.5-3.3 3.5s1.4 3.5 3.3 3.5c1.6.1 2.7-.8 3-2.3zm9.5 9h-3l1.6-3.9-4.1-8.7h3l2.5 5.3 2.2-5.3h3l-5.2 12.6zm16.3-8.3c0 2.6-2 4.5-4.3 4.5-1 0-1.7-.2-2.4-.6v.4h-3v-12.6h3v4.5a4.4 4.4 0 0 1 6.7 3.9zm-2.9 0c0-1.2-.8-2.1-2-2.1-.6 0-1.3.2-1.8.8v2.7c.5.6 1.2.8 1.8.8 1.2 0 2-1 2-2.2zm13 .7h-6.1c.2.9.7 1.5 2 1.5.6 0 1-.2 1.3-.6h2.9c-.5 1.8-2.1 3-4.3 3-2.9 0-4.8-2-4.8-4.6 0-2.6 1.9-4.5 4.6-4.5 2.5 0 4.5 1.7 4.5 4.4v.8zm-6.1-1.6h3.4c-.2-1-.8-1.5-1.6-1.5-1 0-1.6.6-1.8 1.5zm13.5-.9c-1.4.1-2.2.5-3 1.1v5h-2.9v-8.7h3v1c.7-.7 1.7-1.1 3-1.1v2.7zm16-2.2h-3c-.3-1-.8-1.7-2.1-1.7-1.1 0-1.8.5-1.8 1.3 0 .7.5 1 1.5 1.2l1.7.4c2.2.5 3.7 1.4 3.7 3.4 0 2.4-2 4-5 4-2.8 0-5.3-1.4-5.5-4.3h3c.2 1 1.1 1.7 2.6 1.7 1 0 1.7-.4 1.7-1 0-.5-.3-1-1.3-1.1l-2-.5c-2.4-.5-3.5-1.5-3.5-3.5 0-2.4 2-4 4.8-4 2 0 5 .8 5.2 4zm10.3 4.7h-6.2c.2.9.8 1.5 2 1.5.6 0 1-.2 1.3-.6h3c-.5 1.8-2.2 3-4.4 3-2.8 0-4.7-2-4.7-4.6 0-2.6 1.8-4.5 4.6-4.5 2.5 0 4.4 1.7 4.4 4.4v.8zm-6.2-1.6h3.5c-.2-1-.8-1.5-1.7-1.5-1 0-1.5.6-1.8 1.5zm14 1.7h2.7c-.2 2.2-2 3.7-4.5 3.7-2.7 0-4.8-1.9-4.8-4.6 0-2.5 2-4.4 4.8-4.4 2.4 0 4.3 1.5 4.5 3.7H228c-.1-.8-.8-1.3-1.7-1.3-1.3 0-2 .8-2 2 0 1.3.8 2.1 2 2.1.9 0 1.5-.5 1.7-1.2zm13 3.5h-2.9v-.6a4 4 0 0 1-2.3.9c-2.3 0-3.7-1.6-3.7-4v-5h2.9v4.5c0 1.2.6 1.9 1.6 1.9.5 0 1-.3 1.6-1v-5.4h3v8.7h-.1zm8-6c-1.4 0-2.3.4-3 1v5h-3v-8.7h3v1c.7-.7 1.7-1.1 3-1.1v2.7zm1.2-5.6c0-1 .7-1.7 1.7-1.7s1.7.7 1.7 1.7-.7 1.6-1.7 1.6-1.7-.7-1.7-1.6zm3.2 3v8.6h-3v-8.7h3zm9 8.4c-1.2.4-1.8.5-2.7.5-2 0-3.5-1.6-3.5-3.9v-2.6h-1.7v-2.5h1.7v-2.9h3v3h2.9v2.4h-3v2.5c0 .9.6 1.3 1.4 1.3.4 0 .9 0 1.5-.2l.4 2.4zm5.8 4.2h-3l1.6-3.9-4.1-8.7h3l2.5 5.3 2.2-5.3h3.1l-5.3 12.6zM151.8 31v110.3H263V31H151.8zm84.1 82h-57v-5.5h57v5.4zm-23-23l3.8-3.8 7.6 7.6h11.6V99H222l-9.1-9zm23-19.5h-12.5l-28.8 28.6H179V91h12.3l11.3-11.2-12.1-12h-11.6v-5.4h14L206.3 76l13.7-13.6h15.8v8.1z"/>
</svg>
