<svg xmlns="http://www.w3.org/2000/svg" fill="none" viewBox="0 0 1183 1183"><g clip-path="url(#a)"><path fill="#0081FB" d="M93.4 625.8a54 54 0 0 0 6.3 27.6 21.3 21.3 0 0 0 18.6 10.7c9.1 0 17.5-2.3 33.5-24.5 13-17.8 28.1-42.8 38.3-58.5l17.3-26.6c12-18.4 26-39 41.8-52.9a63.7 63.7 0 0 1 41.2-17.6c23.7 0 46.3 13.7 63.6 39.5 19 28.3 28.1 63.8 28.1 100.5 0 21.8-4.3 37.9-11.6 50.5a48.5 48.5 0 0 1-44 24.5v-35c19.8 0 24.8-18.2 24.8-39 0-29.8-7-62.8-22.2-86.3-10.9-16.8-25-27-40.4-27-16.7 0-30.1 12.6-45.2 35-8 12-16.3 26.6-25.6 43l-10.2 18c-20.5 36.4-25.7 44.7-36 58.3-17.9 24-33.2 33-53.4 33-24 0-39-10.4-48.4-26a94.2 94.2 0 0 1-11.5-48.5l35 1.3Z"/><path fill="url(#b)" d="M86 526c16-24.7 39.2-42 65.7-42 15.4 0 30.6 4.5 46.6 17.6 17.4 14.2 36 37.7 59.2 76.3l8.4 13.9a578 578 0 0 0 38.1 58.8c8.6 10.4 14.7 13.5 22.5 13.5 19.8 0 24.8-18.3 24.8-39.1l30.8-1c0 21.8-4.3 37.9-11.6 50.5a48.5 48.5 0 0 1-44 24.5 54.8 54.8 0 0 1-41.3-16.4 229.2 229.2 0 0 1-33.3-44.7l-29-48.5a333.4 333.4 0 0 0-35.7-50.7c-8.3-8.9-19-19.5-36-19.5-13.9 0-25.6 9.6-35.4 24.5L86 526Z"/><path fill="url(#c)" d="M151.1 519.2c-13.8 0-25.5 9.6-35.3 24.5a155.6 155.6 0 0 0-22.4 82 54 54 0 0 0 6.3 27.7L69.9 673a94.2 94.2 0 0 1-11.5-48.5C58.4 590 68 553.8 86 526c16-24.7 39.2-42 65.7-42l-.6 35.2Z"/><path fill="#192830" d="M450.1 490.8h40.4l68.8 124.4 68.8-124.4h39.6v204.4h-33V538.5L574.3 647h-31l-60.2-108.5v156.7h-33V490.8Zm321 76.2c-23.7 0-38 17.8-41.4 39.9H810c-1.6-22.7-14.7-39.9-39-39.9ZM697 619.4c0-46.4 30-80.1 74.6-80.1 43.9 0 70.1 33.3 70.1 82.6v9h-112c4 24 19.9 40.2 45.6 40.2 20.4 0 33.2-6.2 45.4-17.6l17.5 21.4a91.1 91.1 0 0 1-64.1 24c-48.3 0-77.1-35.3-77.1-79.5ZM881.7 570h-30.4v-27h30.4v-44.6h31.8V543h46.2v27h-46.2v68.5c0 23.4 7.5 31.7 25.9 31.7 8.4 0 13.2-.7 20.3-1.9V695a94.8 94.8 0 0 1-26.4 3.7c-34.4 0-51.6-18.8-51.6-56.4V570Zm212 26.3a43 43 0 0 0-41.6-28c-27.2 0-44.7 19.3-44.7 50.8 0 30.7 16 51 43.4 51a44.8 44.8 0 0 0 43-28v-45.8Zm31.9 99h-31.3V674a58.7 58.7 0 0 1-50.4 25c-41.4 0-69-34.7-69-79.9 0-45.6 28.3-79.7 70.8-79.7 21 0 37.5 8.4 48.6 23.2V543h31.3v152.3Z"/></g><defs><linearGradient id="b" x1="127.1" x2="350" y1="615.7" y2="627" gradientUnits="userSpaceOnUse"><stop stop-color="#0064E1"/><stop offset=".4" stop-color="#0064E1"/><stop offset=".8" stop-color="#0073EE"/><stop offset="1" stop-color="#0082FB"/></linearGradient><linearGradient id="c" x1="109.1" x2="109.1" y1="640.5" y2="558.3" gradientUnits="userSpaceOnUse"><stop stop-color="#0082FB"/><stop offset="1" stop-color="#0064E0"/></linearGradient><clipPath id="a"><path fill="#fff" d="M0 0h1067.1v215H0z" transform="translate(58.4 484)"/></clipPath></defs></svg>
