<svg xmlns="http://www.w3.org/2000/svg" fill="none" viewBox="0 0 370 370">
  <g clip-path="url(#a)">
    <path fill="#000" d="M567.7-197.7h-765.4v765.4h765.4v-765.4Z"/>
    <path fill="#1E1E22" stroke="#fff" stroke-miterlimit="10" d="M187 157c1.7-1.6 7.8-4.9 7.8-4.9 5.6-4.9 21.1 4.2 21.1 4.2l-.1-1.2c.6-2.3-15.4-10.5-21-5.6L187 157ZM141.5 212.6l-1.4.4 1.2-1.3c1.7-3-.7-6.7-.7-6.7a36 36 0 0 1-2.9-5.5c.4 2.2 1.4 8.7.7 12.3 0 .2.9 1.7.4 1.8l-.2 2.2c1.1-.8 2.1-1.8 2.9-3v-.2ZM212.5 150l-.1-.5c-1.4-.7-3-1.4-4.8-2l4.9 2.5ZM213.2 177.2a4 4 0 0 0-1 2.5c1.3 2 3.1 3.8 5.1 5.1 0 0-.3-4 1.1-5.4l6.5-.1.6-2.7c-3.5.7-12.3.6-12.3.6ZM168 188c-5-3.7-6.9-1.6-6.9-1.6 1.4 2-1.5 3.2-1.5 3.2-2.9 4.3-10.3 4.3-10.3 4.3-2.8 0-7.7.5-7.7.5-1.5 1.3-.5 4.3.5 6.5l.3-.6a26 26 0 0 0 3.4 6.9s2.4 3.7.7 6.7l-1.2 1.3 1.4-.4-1 3.2s4.7-1.8 5.3-3.2c.2-3.1-.6-6.3-2.2-8.9 0 0-4.5-7-2-9.3 0 0 4.9-.5 7.7-.5 0 0 7.4 0 10.3-4.3 0 0 2.9-1.2 1.5-3.2.5-.4 1.1-.6 1.7-.6ZM238.7 160.5s-1-2.6.9-2.7c0 0 6.3-4.5-1-11.6 0 0 2.1 4 .6 7.1l-2.5-1.4a6.8 6.8 0 0 1-2.4 3.6c-1.9.1-.9 2.6-.9 2.6.5 1.7.7 3.5.7 5.3 1.4 5.9.6 6.7.6 6.7-1.1 1.3-1.2 4.8-1.2 4.8.5 5.8-1.3 7.4-1.3 7.4-.6 1.3-1.4 1.6-2 1.6.3.9.9 1.7 1.6 2.2a3 3 0 0 0 2.6-.3s1.8 1.1 3-1.3c0 0 1.8-1.5 1.3-7.4 0 0 .1-3.5 1.2-4.8 0 0 .7-.8-.6-6.7.1-1.6-.1-3.4-.6-5.1ZM187.8 185.4c-2-1.3-5 1.2-9.8 2.7a22 22 0 0 1-6.2 1.2c1.1.7 2.1 1.4 3 2.2 2.8.1 5.7-.3 8.3-1.2 2.5-.8 4.5-1.9 6.1-2.5l-1.4-2.4ZM222.1 207.7c-.8-1.7-1.9-3.2-3.4-4.4a21.9 21.9 0 0 1-3.3-6c-.4-1.4-.8-2.8-1-4.2 0 0-2-.2-4.1-4.9 0 0-2-3.7-2.1-5.9l1.1-2.1a35 35 0 0 1-3.7-4.9l-2.6 4.8c.2 2.2 2.1 5.9 2.1 5.9 2.1 4.8 4.1 4.9 4.1 4.9a21.3 21.3 0 0 0 4.3 10.2c1.4 1.2 2.6 2.7 3.4 4.4 5.2 2.8 6.7 5.9 6.7 5.9l4.1 2.7c-1.3.6-2.6 1-4 1.1.3.4.5.8.5 1.3 0 0-.7 1 .1 1.4 0 0 6.4-.3 8.5-1.6l-4.1-2.7c.1 0-1.4-3.1-6.6-5.9ZM206.3 198.5l-1.3-.9-.4-1.3-1.1-.9c-.7-1.1-1.2-2.2-1.7-3.4-2.1-1.6-6.3-6.3-6.3-6.3.5 2.6 1.5 5.2 2.8 7.5 2.9 1.9 3.1 3.8 3.1 3.8.3 1.2.1 2.4-.5 3.5.2 1.8-.3 3.6-1.2 5.1 0 0-1.1 3.6-3.2 5.5h-1.7c-.5 1.1-1.9 2.1-3.2 2.9-.7 1.6-1.2 3.4-1.2 5.2 0 0 2.1-1.5 3.5-1.6 0 0 5.1-1.9 6.1-4.3 0 0 2.6-5 3.9-7.9 0 0 3.5-2.6 2.6-6l-.2-.9ZM108.3 196.2s6.1 9.9 17.3.2c0 0 3.9-4 4-8.3 0 0-.1-6.1 6.7-10.4 0 0-6.3-1.3-10.6 5.5 0 0-6.3 12.6-12.2 14.3 0 .1-3.5.6-5.2-1.3Z"/>
    <path fill="#632720" stroke="#fff" stroke-miterlimit="10" stroke-width=".3" d="M253.5 112.3c-2.3-.2-4.5.1-6.6 1-1 .3-1.9.7-2.8 1.2-1.5.5-3 .9-4.5 1.1l-3.2-.1s-.7 2.4-1.4 2.8l-2.2.5s-.7-.4-1.4.5l-2.2.9s-5.4 2-6.4 2.2c-.5-.1-.9 0-1.3.3l-.2.3-7.2 2.5L173 140s-.1-.2-.5-.2l-.7.2c-.3 0-.5.1-.6.4v.1c-.2.6.1 1.2.6 1.5.3.1.6 0 .7-.3 0 0 .7-.1.7-.5l5.5-1.9 43.1-14.9c.1.2.3.3.5.2 0 0 .5-.2.4-.4l.4-.2 8.2-3 .5-.1c.3.3.8.2 1.1-.1.1-.1.2-.2.1-.4.9-.4 1.7-.7 2.6-.9 0 0 .7 0 1.9 1.1l3-2.3s4.8-1.9 5.8-2c1.3-.3 2.5-.8 3.6-1.5l.2-.1.6-.1a14 14 0 0 0 2.7-2.1l.1-.2Z"/>
    <path fill="#9D7F63" stroke="#fff" stroke-miterlimit="10" stroke-width=".3" d="m253.1 112.3-4.2 1.7s-6.6 2.2-8.3 2.6c-1.5.3-3.1.4-4.6.3l.3-1.2v-.2l3.7.1 3.7-1.2s4.5-2.2 6.8-2.1h2.6Z"/>
    <path fill="#DEC1A7" stroke="#fff" stroke-miterlimit="10" stroke-width=".3" d="M253.3 112.3c-1.8-.1-3.7.1-5.5.6-1.4.4-2.7 1-4 1.6a27.7 27.7 0 0 1 9.5-2.2Z"/>
    <path fill="#8D7464" stroke="#fff" stroke-miterlimit="10" stroke-width=".3" d="m245.8 113.8 1.6-.2s1-.2-.4.3c0 0-1.2.2-1.4.9 0 0 4.4-1.4 5.1-2.1 0 .1-3.8.2-4.9 1.1Z"/>
    <path fill="#A98B74" stroke="#fff" stroke-miterlimit="10" stroke-width=".3" d="M253.5 112.6s-4.2 3.1-7.5 3.6c-1.8.2-3.5.7-5.1 1.6 0 0-2.9 1.6-3.1 2.1 0 0-.3.2.1.7 2.4-2.1 5.2-3.5 8.3-4.2a19 19 0 0 0 7.3-3.8Z"/>
    <path fill="#DABBAA" stroke="#fff" stroke-miterlimit="10" stroke-width=".3" d="M253.3 112.4s-10.5 3.7-11.9 4c0 0-1.1.4-5 .2 2-.1 4-.3 6-.7l10.9-3.5Z"/>
    <path stroke="#fff" stroke-miterlimit="10" d="M82 241.4h5.6v6.3h6v-6.3h5.6v18h-5.5V252h-6v7.2H82v-17.9ZM107.1 250.5l-4.7-.5c.1-.8.4-1.4.7-2l1.5-1.2a15.1 15.1 0 0 1 4.5-.8c1.4 0 2.6.1 3.5.3 1 .2 1.7.5 2.3 1 .4.4.8 1 1 1.6.3.7.4 1.3.4 2v7.1l.6 1.3h-4.7a5 5 0 0 1-.3-.7 6 6 0 0 1-.2-.9c-.7.7-1.3 1.1-2 1.4a8 8 0 0 1-3 .5c-1.6 0-2.7-.3-3.5-1a3.4 3.4 0 0 1-1.2-2.7c0-1 .3-1.8.8-2.4.6-.7 1.7-1.2 3.2-1.5a80 80 0 0 0 5.4-1.3c0-.7-.1-1-.4-1.3-.2-.3-.7-.4-1.3-.4-.8 0-1.4.1-1.8.4-.3.2-.6.6-.8 1.1Zm4.3 2.7-2.1.6a5 5 0 0 0-2 .8c-.2.3-.4.6-.4 1 0 .3.2.6.4.9.3.2.7.4 1.3.4.5 0 1-.2 1.5-.5.5-.2.8-.5 1-1 .2-.3.3-.8.3-1.4v-.8ZM119.3 246.3h4.7v2.2a5 5 0 0 1 1.3-2 3 3 0 0 1 1.8-.4c.7 0 1.5.2 2.4.6l-1.5 3.6a4 4 0 0 0-1.4-.4c-.7 0-1.2.3-1.5.8-.5.8-.8 2.2-.8 4.3v4.3h-5v-13ZM144.6 241.4v18H140v-2c-.7.8-1.3 1.4-1.8 1.6a5 5 0 0 1-2.4.6c-1.8 0-3.1-.7-4-2-1-1.3-1.4-3-1.4-4.9 0-2.2.5-3.8 1.5-5a5 5 0 0 1 4-1.6c.7 0 1.4 0 2 .3.7.3 1.2.7 1.7 1.2v-6.2h5Zm-5 11.4c0-1-.2-1.8-.6-2.3a2 2 0 0 0-1.6-.7c-.6 0-1 .2-1.5.7-.4.5-.6 1.3-.6 2.4 0 1 .2 1.8.6 2.3.4.5 1 .8 1.5.8a2 2 0 0 0 1.6-.8c.4-.5.7-1.3.7-2.4ZM162 254h-9.9c0 .9.3 1.5.6 1.8.5.6 1.2.9 2 .9.4 0 .9-.1 1.3-.4.3-.1.6-.4.9-.8l4.9.5a7 7 0 0 1-2.7 2.8c-1 .5-2.6.8-4.6.8-1.7 0-3-.2-4-.7a6 6 0 0 1-2.5-2.3 7 7 0 0 1-1-3.7c0-2 .7-3.7 2-5a7.4 7.4 0 0 1 5.4-1.8c1.8 0 3.3.2 4.4.8 1 .6 1.9 1.4 2.4 2.4a9 9 0 0 1 .9 4.2v.6Zm-5-2.3c0-1-.3-1.7-.8-2-.4-.5-1-.7-1.6-.7-.8 0-1.4.3-2 1-.2.3-.4 1-.5 1.7h5ZM164.4 246.3h4.6v2.2c.7-.9 1.4-1.5 2-1.9.8-.4 1.7-.5 2.7-.5 1.3 0 2.4.4 3.2 1.2.8.8 1.2 2 1.2 3.8v8.2h-5v-7.1c0-.8-.2-1.4-.5-1.7-.3-.4-.7-.6-1.3-.6-.6 0-1 .3-1.4.7-.4.5-.6 1.3-.6 2.5v6.2h-5v-13ZM195.4 254h-10c.2.9.4 1.5.7 1.8.5.6 1.1.9 1.9.9.5 0 1-.1 1.4-.4.3-.1.5-.4.9-.8l4.9.5a7 7 0 0 1-2.8 2.8c-1 .5-2.5.8-4.5.8-1.7 0-3-.2-4-.7a6 6 0 0 1-2.5-2.3 7 7 0 0 1-1-3.7c0-2 .7-3.7 2-5a7.4 7.4 0 0 1 5.3-1.8c1.9 0 3.4.2 4.4.8 1.1.6 2 1.4 2.5 2.4a9 9 0 0 1 .8 4.2v.6Zm-5-2.3c-.1-1-.4-1.7-.8-2-.4-.5-1-.7-1.7-.7s-1.4.3-1.8 1c-.3.3-.5 1-.6 1.7h4.9ZM211.4 241.4v18h-4.7v-2c-.6.8-1.2 1.4-1.8 1.6a5 5 0 0 1-2.4.6c-1.7 0-3-.7-4-2s-1.4-3-1.4-4.9c0-2.2.5-3.8 1.5-5a5 5 0 0 1 4-1.6c.7 0 1.4 0 2 .3.7.3 1.3.7 1.8 1.2v-6.2h5Zm-5 11.4c0-1-.2-1.8-.7-2.3a2 2 0 0 0-1.6-.7c-.6 0-1 .2-1.4.7-.4.5-.6 1.3-.6 2.4 0 1 .2 1.8.6 2.3.4.5.9.8 1.5.8a2 2 0 0 0 1.6-.8c.4-.5.6-1.3.6-2.4Z"/>
    <path fill="#fff" stroke="#fff" stroke-miterlimit="10" d="m190.9 119.8.7.7-1-.4.5.1-.2-.4Z"/>
    <path fill="#1E1E22" stroke="#fff" stroke-miterlimit="10" d="M165.8 123s-8.7 11.8-7.1 20.4c.5 2.8 2.7 5.9 7.5 8.3a26 26 0 0 0-.8-9.2c-.9-3.3-1.3-8.3 2.2-14 0 0-1.2-.9.7-2.1 0 .1-2.8-1.7-2.5-3.4ZM166.8 118.8s1.4-8.4 8.4-8.4c1.8 0 3.1.8 5.2 3a11 11 0 0 0 5.4 2.7c1.8.4 3.6 1 5.4 1.7 0 0-7.7-1-13.5 3.1 0 0-3.1-2.5-6.2-.6 0 0 3.7-6.6-.3-4.7 0 .1-2.9 1.2-4.4 3.2Z"/>
    <path fill="#1E1E22" stroke="#fff" stroke-miterlimit="10" d="m179.2 106.1 1.7 3.6s-4.6 3.7-9 4.4c0 0-1.7.5-1.8-1 0 0 .1-1.5 1.7-1.1 0 0-.1.6 1 .4 0 0 4.3-2.8 6.4-6.3ZM165.9 129.2s1-2.7.1-2.1c0 0-1.2 1.5-1.3.7 0 0 .1-.8-.9.5 0 0-5.1 6.6-6.1 12.9 0 0-2.4 12.3-2.6 17.4 0 0 .1.9-.9 2.5 0 0-.1 2.9 1.6-.5 0 0 2.3-5.3 3.5-14.4a23 23 0 0 1 3-13.1c.9-1.1 2-2 3-2.9.3-.2.5-.6.6-1ZM173.8 105.4s-2.6-.8-4.2-.1l-.7 3.1h1.9s2-2.4 3-3ZM169 105.4s-1.8.3-2.5.9l.2 3.1 1.7-.6c.1-1.1.3-2.3.6-3.4ZM166.1 106.6a4 4 0 0 0-1.9 1.7l.9 2.4 1.3-.6-.3-3.5ZM163.7 108.6c-.6.4-1 1-1.3 1.7l1.7 2.3 1.2-1a6.3 6.3 0 0 1-1.6-3ZM162.1 111.2l1.7 1.8c-.2.5-.3 1.1-.3 1.7l-2.4-1.4a3 3 0 0 1 1-2.1ZM161 113.9l-.3 1.8 2.4 1.1.2-1.1-2.3-1.8ZM160.9 116.5v1.9l2.2-.6-.1-.4-2.1-.9ZM183 129.7c-1.1-3.3-2.4-6-3.8-6.8 0 0 1.3 1.7 2.7 6.8h1.1Z"/>
    <path fill="#0A0709" stroke="#fff" stroke-miterlimit="10" d="m171.3 148.9-1.4-1.1s-1.8-1.6.6-2.4c0 0 4.9-.7 5.9.5 0 0 2.5 1.3 1.8 3.7 0 0-1.7 2.2-.5 3.9 0 0 3.3 2.5 5.3 2.8 0 0 1.7 1.3 1.9 2.4 0 0 .1 1.6-2.6 1-2.9-.4-5.5-1.9-7.2-4.2-1-1.5-1.8-3.1-2.4-4.8 0 0-.4-1.6-1.4-1.8Z"/>
    <path fill="#0A0709" stroke="#fff" stroke-miterlimit="10" d="M177.1 135.1s-2.9 4.9-2.5 12.7c0 0-.5 7.6 14.5 8 0 0 3.9-9.4-.1-19.4l-11.9-1.3Z"/>
    <path fill="#fff" stroke="#fff" stroke-miterlimit="10" d="M171.3 130.8s9.3 3.7 16.3 2.3c0 0 4.5 8.2 13 12.7 0 0-12.7 28.3-30.5 28.7h-1.8s-9.7-14-3.1-28.4l6.1-15.3Z"/>
    <path fill="url(#b)" stroke="#fff" stroke-miterlimit="10" d="M171.8 131.7s8.8 3.5 15.6 2.2c0 0 4.3 7.9 12.4 12.2 0 0-12.1 27-29.1 27.4H169s-9.2-13.4-2.9-27.2l5.7-14.6Z"/>
    <path fill="url(#c)" stroke="#fff" stroke-miterlimit="10" d="M172.5 133.7s8 3.2 14.1 2c0 0 3.9 7.1 11.2 11 0 0-10.9 24.4-26.3 24.7H170s-8.3-12.1-2.7-24.5l5.2-13.2Z"/>
    <g stroke="#fff" stroke-miterlimit="10" opacity=".5">
      <path d="M170.5 131.2s9.4 3.3 16.4 1.7c0 0 4.8 8.1 13.4 12.2 0 0-11.6 28.8-29.4 29.8l-1.8.1s-10.2-13.7-4.2-28.3l5.6-15.5Z" opacity=".5"/>
      <path d="M170.9 132s9 3.2 15.7 1.6c0 0 4.6 7.7 12.8 11.7 0 0-11 27.5-28 28.5l-1.7.1s-9.7-13-4-27.1l5.2-14.8Z" opacity=".5"/>
      <path d="M171.7 134s8.1 2.9 14.1 1.4c0 0 4.1 7 11.6 10.5 0 0-10 24.8-25.3 25.7l-1.5.1s-8.8-11.8-3.6-24.5l4.7-13.2Z" opacity=".5"/>
    </g>
    <path fill="url(#d)" stroke="#fff" stroke-miterlimit="10" d="M216.7 241.4h5.5v13.5h8.6v4.5h-14.2v-18h.1Z"/>
    <path fill="url(#e)" stroke="#fff" stroke-miterlimit="10" d="M233.2 241.4h4.9v3.4h-5l.1-3.4Zm0 4.9h4.9v13h-5l.1-13Z"/>
    <path fill="url(#f)" stroke="#fff" stroke-miterlimit="10" d="M241.3 246.4h4.6v2.1a6 6 0 0 1 2.1-1.8c.8-.4 1.7-.6 2.6-.6 1.2-.1 2.4.4 3.2 1.2a5.3 5.3 0 0 1 1.2 3.8v8.2h-5v-7.1c.1-.6-.1-1.2-.4-1.7-.3-.4-.8-.5-1.3-.5-.6 0-1.1.2-1.5.7-.4.7-.6 1.6-.6 2.5v6.3h-5l.1-13.1Z"/>
    <path fill="url(#g)" stroke="#fff" stroke-miterlimit="10" d="M271.7 259.4h-4.6v-2.1a6 6 0 0 1-2.1 1.8c-.8.4-1.7.6-2.6.5-1.2.1-2.4-.4-3.2-1.2-.8-.8-1.2-2.1-1.2-3.8v-8.2h5v7.1c-.1.6.1 1.2.4 1.7.3.4.8.5 1.3.5.6 0 1.1-.2 1.5-.7.4-.7.6-1.6.6-2.5v-6.2h5l-.1 13.1Z"/>
    <path fill="url(#h)" stroke="#fff" stroke-miterlimit="10" d="M273.6 246.4h5.9l2.1 3.6 2.4-3.6h5.5l-4.4 6.2 4.7 6.8H284l-2.4-4.2-2.8 4.2h-5.4l4.7-6.8-4.5-6.2Z"/>
    <path fill="#1E1E22" stroke="#fff" stroke-miterlimit="10" d="M228.9 143.1s-4.6 3.1-4.3 8.6c0 0 1.6.8 2.7-.3-1-2.9-.4-6.1 1.6-8.3Z"/>
    <path fill="url(#i)" stroke="#fff" stroke-miterlimit="10" d="M173.1 113.4c.4.2.8.2 1.3.2.5-.1 1 0 1.4.3l.8.1 1.5.4c-.1 1.7 1.7 1.5 2.2.9-.2.5-.6.8-1.1.7-.5 0-1-.3-1.8-1.1l-1-.4-1-.4a2 2 0 0 0-1.1-.3c-.5 0-.9-.1-1.2-.4Z"/>
    <path fill="#fff" stroke="#fff" stroke-miterlimit="10" d="m179.7 115.4-.2.1.1-.2.2-.1-.1.2Z"/>
    <path fill="url(#j)" stroke="#fff" stroke-miterlimit="10" stroke-width=".3" d="M225.4 162.4c.7.3 1.5.4 2.2.4.9-.2 1.8-.1 2.5.5l1.4.3 3.2 1c.8 2.6 2.4 1.9 3.4 1.2a2 2 0 0 1-2 1.3c-.9 0-1.8-.6-3.2-2-.6-.3-1.2-.6-1.8-.7l-1.7-.7c-.6-.4-1.3-.6-2-.5-.7 0-1.4-.3-2-.8Z"/>
    <path fill="#fff" stroke="#fff" stroke-miterlimit="10" d="M237.2 165.9c-.2.1-.3.2-.4.1 0-.1 0-.2.2-.3.2-.1.3-.2.4-.1l-.2.3Z"/>
    <path fill="#D51F1A" d="M240.1 115.6c1.5.2 3 .2 4.4 0 0 0 1.5-.3 1-.5 0 0-.9-.1.9-.3 1.4-.1 2.8-.3 4.2-.7.9-.7 1.9-1.3 2.9-1.8-1.6-.2-3.3-.1-4.9.2-1.3.4-2.6.8-3.9 1.4a34 34 0 0 1-4.6 1.7Z"/>
    <path stroke="#fff" stroke-miterlimit="10" d="M240.1 115.6c1.5.2 3 .2 4.4 0 0 0 1.5-.3 1-.5 0 0-.9-.1.9-.3 1.4-.1 2.8-.3 4.2-.7.9-.7 1.9-1.3 2.9-1.8-1.6-.2-3.3-.1-4.9.2-1.3.4-2.6.8-3.9 1.4a34 34 0 0 1-4.6 1.7Z"/>
    <path fill="#D51F1A" d="M236 117.1h2.1l.5-.2s-.4-.1.4-.1a7 7 0 0 0 2-.3l1.4-.9a6 6 0 0 0-2.3.1l-1.8.7c-.1-.1-1.8.6-2.3.7Z"/>
    <path stroke="#fff" stroke-miterlimit="10" d="M236 117.1h2.1l.5-.2s-.4-.1.4-.1a7 7 0 0 0 2-.3l1.4-.9a6 6 0 0 0-2.3.1l-1.8.7c-.1-.1-1.8.6-2.3.7Z"/>
    <path fill="#D51F1A" d="M237.5 117h2.1s.7-.1.5-.2c0 0-.4-.1.4-.1.7 0 1.3-.2 2-.3l1.4-.9a6 6 0 0 0-2.3.1l-1.8.7-2.3.7Z"/>
    <path stroke="#fff" stroke-miterlimit="10" d="M237.5 117h2.1s.7-.1.5-.2c0 0-.4-.1.4-.1.7 0 1.3-.2 2-.3l1.4-.9a6 6 0 0 0-2.3.1l-1.8.7-2.3.7Z"/>
    <path fill="#D51F1A" d="M240.7 116h2.1s.7-.1.5-.2c0 0-.4-.1.4-.1.7 0 1.3-.2 2-.3l1.4-.9a6 6 0 0 0-2.3.1l-1.8.7-2.3.7Z"/>
    <path stroke="#fff" stroke-miterlimit="10" d="M240.7 116h2.1s.7-.1.5-.2c0 0-.4-.1.4-.1.7 0 1.3-.2 2-.3l1.4-.9a6 6 0 0 0-2.3.1l-1.8.7-2.3.7Z"/>
    <path fill="#D51F1A" d="M244.7 115.2h2.1s.7-.1.5-.2c0 0-.4-.1.4-.1.7 0 1.3-.2 2-.3l1.4-.9a6 6 0 0 0-2.3.1l-1.8.7c-.1-.1-1.8.6-2.3.7Z"/>
    <path stroke="#fff" stroke-miterlimit="10" d="M244.7 115.2h2.1s.7-.1.5-.2c0 0-.4-.1.4-.1.7 0 1.3-.2 2-.3l1.4-.9a6 6 0 0 0-2.3.1l-1.8.7c-.1-.1-1.8.6-2.3.7Z"/>
    <path fill="#D51F1A" d="M242.2 116h2.1s.7-.1.5-.2c0 0-.4-.1.4-.1a7 7 0 0 0 2-.3l1.4-.9a6 6 0 0 0-2.3.1l-1.8.7-2.3.7Z"/>
    <path stroke="#fff" stroke-miterlimit="10" d="M242.2 116h2.1s.7-.1.5-.2c0 0-.4-.1.4-.1a7 7 0 0 0 2-.3l1.4-.9a6 6 0 0 0-2.3.1l-1.8.7-2.3.7Z"/>
    <path fill="url(#k)" stroke="#fff" stroke-miterlimit="10" d="m240.9 115.9-.7 1.3a62.6 62.6 0 0 0 13.2-4.7l-2.3.2c-2.9.3-9.9 2.7-10.9 3l.7.2Z"/>
  </g>
  <defs>
    <radialGradient id="c" cx="0" cy="0" r="1" gradientTransform="translate(179 152.4) scale(15.9092)" gradientUnits="userSpaceOnUse">
      <stop stop-color="#DDCE00"/>
      <stop offset=".2" stop-color="#DB9408"/>
      <stop offset=".4" stop-color="#D9650E"/>
      <stop offset=".6" stop-color="#D83F13"/>
      <stop offset=".7" stop-color="#D72516"/>
      <stop offset=".9" stop-color="#D61518"/>
      <stop offset="1" stop-color="#D60F19"/>
    </radialGradient>
    <radialGradient id="d" cx="0" cy="0" r="1" gradientTransform="translate(250.2 264.8) scale(17.6012)" gradientUnits="userSpaceOnUse">
      <stop stop-color="#DDCF00"/>
      <stop offset="1" stop-color="#D60F19"/>
    </radialGradient>
    <radialGradient id="e" cx="0" cy="0" r="1" gradientTransform="translate(250.2 264.8) scale(17.6012)" gradientUnits="userSpaceOnUse">
      <stop stop-color="#DDCF00"/>
      <stop offset="1" stop-color="#D60F19"/>
    </radialGradient>
    <radialGradient id="f" cx="0" cy="0" r="1" gradientTransform="translate(250.2 264.8) scale(17.6012)" gradientUnits="userSpaceOnUse">
      <stop stop-color="#DDCF00"/>
      <stop offset="1" stop-color="#D60F19"/>
    </radialGradient>
    <radialGradient id="g" cx="0" cy="0" r="1" gradientTransform="translate(250.2 264.8) scale(17.6012)" gradientUnits="userSpaceOnUse">
      <stop stop-color="#DDCF00"/>
      <stop offset="1" stop-color="#D60F19"/>
    </radialGradient>
    <radialGradient id="h" cx="0" cy="0" r="1" gradientTransform="translate(250.2 264.8) scale(17.5937)" gradientUnits="userSpaceOnUse">
      <stop stop-color="#DDCF00"/>
      <stop offset="1" stop-color="#D60F19"/>
    </radialGradient>
    <linearGradient id="b" x1="163.8" x2="199.8" y1="152.5" y2="152.5" gradientUnits="userSpaceOnUse">
      <stop stop-color="#fff"/>
      <stop offset=".1" stop-color="#DDD"/>
      <stop offset=".2" stop-color="#AAA"/>
      <stop offset=".3" stop-color="#7C7C7C"/>
      <stop offset=".4" stop-color="#565656"/>
      <stop offset=".5" stop-color="#373737"/>
      <stop offset=".6" stop-color="#1F1F1F"/>
      <stop offset=".7" stop-color="#0D0D0D"/>
      <stop offset=".8" stop-color="#030303"/>
      <stop offset="1"/>
    </linearGradient>
    <linearGradient id="i" x1="180.3" x2="173.1" y1="114.8" y2="114.8" gradientUnits="userSpaceOnUse">
      <stop stop-color="#C70820"/>
      <stop offset=".1" stop-color="#C60920"/>
      <stop offset=".3" stop-color="#C30A20" stop-opacity=".9"/>
      <stop offset=".4" stop-color="#BF0D21" stop-opacity=".8"/>
      <stop offset=".6" stop-color="#B91122" stop-opacity=".7"/>
      <stop offset=".7" stop-color="#B11623" stop-opacity=".5"/>
      <stop offset=".9" stop-color="#A71C24" stop-opacity=".2"/>
      <stop offset="1" stop-color="#9E2125" stop-opacity="0"/>
    </linearGradient>
    <linearGradient id="j" x1="238.1" x2="225.4" y1="164.8" y2="164.8" gradientUnits="userSpaceOnUse">
      <stop stop-color="#C70820"/>
      <stop offset=".1" stop-color="#C60920"/>
      <stop offset=".3" stop-color="#C30A20" stop-opacity=".9"/>
      <stop offset=".4" stop-color="#BF0D21" stop-opacity=".8"/>
      <stop offset=".6" stop-color="#B91122" stop-opacity=".7"/>
      <stop offset=".7" stop-color="#B11623" stop-opacity=".5"/>
      <stop offset=".9" stop-color="#A71C24" stop-opacity=".2"/>
      <stop offset="1" stop-color="#9E2125" stop-opacity="0"/>
    </linearGradient>
    <linearGradient id="k" x1="253.5" x2="240.2" y1="114.8" y2="114.8" gradientUnits="userSpaceOnUse">
      <stop stop-color="#C70820"/>
      <stop offset="1" stop-color="#9E2125" stop-opacity="0"/>
    </linearGradient>
    <clipPath id="a">
      <path fill="#fff" d="M0 0h370v370H0z"/>
    </clipPath>
  </defs>
</svg>