<svg xmlns="http://www.w3.org/2000/svg" viewBox="0 0 242 242">
  <g fill="none" fill-rule="evenodd">
    <g fill-rule="nonzero">
      <path fill="#000" stroke="#FFF" stroke-width=".5" d="M195.4 127.1a6 6 0 0 0 3 2.2c2.8.9 5.8-.6 7-3.2l1.6.5a7.5 7.5 0 0 1-9.5 4.1 7.6 7.6 0 0 1-4.6-9.3c1.2-4 5.2-6 9-4.7 2 .5 3.5 1.8 4.5 3.6l.4.7-11.4 6.1Zm-.9-5.2a6 6 0 0 0 0 3.7l10-5.3c-.8-1-1.8-1.7-3-2.1-3-1-6 .6-7 3.7Z"/>
      <path fill="#F60" d="M59.8 121.5a1005 1005 0 0 1 16.5-8.8 3.3 3.3 0 0 0-2.6-4.6L57.8 118c.1-7.5.6-18.7.6-18.7a3.3 3.3 0 0 0-5.2 0l.6 18.7-15.9-9.9a3.3 3.3 0 0 0-2.6 4.6s10 5.2 16.5 8.8l-16.5 8.8a3.3 3.3 0 0 0 2.6 4.5s9.5-6 15.9-9.8c-.1 7.4-.6 18.6-.6 18.6a3.3 3.3 0 0 0 5.2 0l-.6-18.6c6.4 3.8 15.9 9.8 15.9 9.8a3.3 3.3 0 0 0 2.6-4.5s-10-5.2-16.5-8.8Z"/>
      <path fill="#D85700" d="m53.8 122.6-18.3 10.6c.5 1 1.4 1.6 2.4 1.7l15.9-10c-.1 7.6-.6 18.8-.6 18.8.6.8 1.6 1.3 2.6 1.3v-23.5l-2 1.1ZM57.8 122.5v2.3a992 992 0 0 1 15.9 10c1-.2 2-.8 2.4-1.7l-18.3-10.6ZM57.8 120.4l2 1.1 16.6-8.8c.4-1 .3-2-.2-3l-18.4 10.7ZM53.8 120.4l-18.4-10.7c-.5 1-.5 2-.1 3 0 0 10 5.2 16.5 8.8l2-1.1ZM55.6 119.3V98c-1 0-2 .5-2.5 1.3 0 0 .4 11.2.5 18.7l2 1.3Z"/>
      <path fill="#000" stroke="#FFF" stroke-width=".5" d="M98.6 111.8c.4 0 .8.2 1 .6.2.5 0 1-.2 1.3-.4.3-.9.4-1.3.2s-.7-.6-.7-1c0-.6.5-1.1 1.2-1.2Zm.8 4.6v14.3h-1.7v-14.3h1.7ZM116.3 128a7 7 0 0 1-6 3.3 7.7 7.7 0 0 1-7.6-7.7c0-4.2 3.5-7.6 7.7-7.6a7 7 0 0 1 5.9 3.3v-2.9h1.7v14.4h-1.7V128Zm-6-10.4a6 6 0 0 0-5.9 6 6 6 0 0 0 6 6 6 6 0 0 0 0-12ZM121.3 116.4h1.6v2.7c.5-1.3 2.5-3.1 4.9-3.1 3.7 0 5.7 2.4 5.7 5.7v9h-1.7v-9c0-2.4-1.8-4-4.3-4-2.3 0-4.5 1.9-4.6 4.2v8.8h-1.6v-14.3ZM135.8 123.6c0-4.2 3.4-7.6 7.5-7.6 4.2 0 7.6 3.4 7.5 7.7 0 4.2-3.4 7.6-7.5 7.5a7.6 7.6 0 0 1-7.5-7.6Zm13.4 0a6 6 0 0 0-1.7-4.2 5.8 5.8 0 0 0-4.1-1.8 6 6 0 0 0-5.9 6 6 6 0 0 0 5.9 6c3.2 0 5.8-2.7 5.8-6ZM164.4 119.4a6 6 0 0 0-4.2-1.8 6 6 0 0 0-5.9 6 6 6 0 0 0 6 6 6 6 0 0 0 4.1-1.8l1.2 1.2a7.6 7.6 0 1 1 0-10.8l-1.2 1.2ZM166.6 123.6c0-4.2 3.4-7.6 7.6-7.6 4.1 0 7.5 3.4 7.5 7.7 0 4.2-3.4 7.6-7.6 7.5a7.6 7.6 0 0 1-7.5-7.6Zm13.4 0a6 6 0 0 0-1.7-4.2 5.8 5.8 0 0 0-4.1-1.8 6 6 0 0 0-5.8 6 6 6 0 0 0 5.8 6c3.3 0 5.8-2.7 5.8-6ZM192 116.3l-.6 1.5-1.1-.2a3.9 3.9 0 0 0-4 3.9v9.3h-1.6v-14.4h1.7v2a4.3 4.3 0 0 1 3.9-2.4l1.7.3ZM90.7 113.3l-1.6.8v2.4h-1.7v1.7h1.7v9.2c0 2 1.5 3.3 3.3 3.3h1.3v-1.6h-1.3c-1 0-1.7-.5-1.7-1.7v-9.2h3v-1.7h-3v-3.3Z"/>
    </g>
  </g>
</svg>