<svg xmlns="http://www.w3.org/2000/svg" fill="none" viewBox="0 0 182 85">
  <path fill="#000" d="M30.6 63.4c0-3.4-1-5.9-3-7.8-2.3-2.3-5.9-3.7-11.7-3.7H0v32.5h10.9v-9.3H13l9.3 9.3h13L24.2 73.3c3.9-1.9 6.4-5.2 6.4-9.9Zm-10.9.8c0 2-1.6 3.2-4.2 3.2h-4.7V61h4.7c2.6 0 4.2 1 4.2 3.2Z"/>
  <path fill="#000" d="M54.5 69.9c0 3.9-2.1 5.5-5 5.5s-5-1.7-5-5.8V51.9H33.4v17.9c0 10.8 6.3 15.2 16 15.2s16.2-4.4 16.2-15.5V51.9H54.5v18ZM89.9 63.3h-10V51.9H69.1v32.5h10.8V72.7h10v11.7h10.8V51.9H89.9v11.4ZM134.8 63.4c0-3.4-1-5.9-3-7.8-2.3-2.3-5.9-3.7-11.7-3.7h-15.9v32.5h10.9v-9.3h2.1l9.3 9.3h13l-11.1-11.1c3.9-1.9 6.4-5.2 6.4-9.9Zm-10.8.8c0 2-1.6 3.2-4.2 3.2h-4.7V61h4.7c2.6 0 4.2 1 4.2 3.2ZM1.1 38.9l3.5 3.6 3.5-3.6V47h1.1v-9.6H8.1l-3.5 3.5-3.5-3.5H0V47h1.1v-8.1ZM18.7 46h-5.9v-3.3H18v-1h-5.2v-3.3h5.8v-1h-6.9V47h7v-1ZM24.3 47h1.1v-8.6h3.2v-1h-7.5v1h3.2V47ZM32.2 43.3H35l3.7 3.7h1.4l-3.9-3.9c1.5-.3 2.6-1.2 2.6-2.8a3 3 0 0 0-.7-1.9c-.6-.6-1.6-1-2.7-1h-4.1V47h1.1v-3.7h-.2Zm0-4.9h3c1.6 0 2.5.7 2.5 1.9s-1 2-2.5 2h-3v-3.9ZM46.1 47.2c2.9 0 4.9-2.3 4.9-5s-2-5-4.9-5a4.9 4.9 0 0 0-4.9 5c0 2.7 1.9 5 4.9 5Zm-3.8-5c0-2.2 1.6-3.9 3.8-3.9 2.2 0 3.8 1.8 3.8 4s-1.6 3.9-3.8 3.9c-2.2 0-3.8-1.8-3.8-4ZM54.3 43.6h2.3c2 0 3.8-1.1 3.8-3.2 0-1.9-1.4-3.1-3.6-3.1h-3.6V47h1.1v-3.4Zm0-5.2h2.4c1.6 0 2.6.7 2.6 2.1 0 1.3-1 2.1-2.6 2.1h-2.4v-4.2ZM72 42.2c0-2.7-2-5-4.9-5a4.9 4.9 0 0 0-4.9 5c0 2.7 2 5 4.9 5 2.9 0 4.9-2.3 4.9-5Zm-4.9 4c-2.2 0-3.8-1.8-3.8-4s1.6-3.9 3.8-3.9c2.2 0 3.8 1.8 3.8 4 0 2.1-1.6 3.9-3.8 3.9ZM80.6 46h-5.4v-8.6h-1.1V47h6.5v-1ZM89.9 46h-6v-3.3h5.3v-1h-5.3v-3.3h5.9v-1h-7V47h7.1v-1ZM85 0l56.7 56.7h3.7L88.7 0H85ZM127.6 47.1h-3.7L94.7 17.8v-3.7l32.9 33ZM119.5 47.1h-3.7L94.7 26v-3.7l24.8 24.8ZM111.3 47.1h-3.7l-12.9-13v-3.7l16.6 16.7ZM93.2 0l56.7 56.7h3.7L96.9 0h-3.7ZM101.4 0l56.7 56.7h3.7L105.1 0h-3.7ZM161.8 48.5v3.7L109.5 0h3.7l48.6 48.5ZM161.8 40.4v3.7L127.3 9.6h3.7l30.8 30.8ZM168.8 39.2h-3.7L125.9 0h3.7l39.2 39.2ZM177 39.2h-3.7L134 0h3.7L177 39.2ZM181.4 35.5v3.7L142.2 0h3.7l35.5 35.5ZM181.4 27.4v3.7L160 9.6h3.7l17.7 17.8ZM181.4 19.2v3.7L168.1 9.6h3.7l9.6 9.6Z"/>
</svg>