<svg aria-hidden="true" focusable="false" viewBox="0 0 32 32" fill="none" xmlns="http://www.w3.org/2000/svg">
  <path fill="currentColor" d="M2 6h28v2H2zM2 12h28v2H2zM7.127 18.09c.03-.06.084-.09.16-.09h1.61c.038 0 .068.015.091.045.03.023.046.053.046.09v7.639a.14.14 0 0 1-.046.102.124.124 0 0 1-.091.034H7.275a.168.168 0 0 1-.102-.034.164.164 0 0 1-.035-.102v-4.542c0-.03-.007-.046-.022-.046-.016 0-.03.012-.046.034l-.982 1.56c-.03.06-.084.09-.16.09h-.81c-.077 0-.13-.03-.16-.09l-.994-1.571c-.015-.023-.03-.034-.046-.034-.015 0-.022.015-.022.045v4.554a.14.14 0 0 1-.046.102.124.124 0 0 1-.092.034H2.137a.168.168 0 0 1-.103-.034.164.164 0 0 1-.034-.102v-7.638c0-.038.011-.068.034-.09A.143.143 0 0 1 2.137 18h1.61a.18.18 0 0 1 .16.09l1.587 2.464c.023.045.046.045.069 0l1.564-2.464ZM15.712 19.469a.14.14 0 0 1-.045.102.124.124 0 0 1-.092.034H11.99c-.038 0-.057.018-.057.056v1.39c0 .038.019.056.057.056h2.295c.038 0 .069.015.091.046.03.022.046.052.046.09v1.322a.14.14 0 0 1-.046.102.124.124 0 0 1-.091.034H11.99c-.038 0-.057.018-.057.056v1.492c0 .037.019.056.057.056h3.585c.038 0 .069.015.092.045.03.023.045.053.045.09v1.334a.14.14 0 0 1-.045.102.124.124 0 0 1-.092.034h-5.4a.168.168 0 0 1-.104-.034.164.164 0 0 1-.034-.102v-7.638c0-.038.012-.068.034-.09a.143.143 0 0 1 .103-.046h5.401c.038 0 .069.015.092.045.03.023.045.053.045.09v1.334ZM21.047 18.136c0-.038.01-.068.034-.09a.143.143 0 0 1 .102-.046h1.622c.038 0 .069.015.091.045.03.023.046.053.046.09v7.639a.14.14 0 0 1-.046.102.124.124 0 0 1-.091.034h-1.553c-.076 0-.13-.03-.16-.09l-2.626-4.317c-.015-.023-.03-.03-.046-.023-.015 0-.023.015-.023.045l.012 4.249a.14.14 0 0 1-.046.102.124.124 0 0 1-.091.034H16.65a.168.168 0 0 1-.102-.034.164.164 0 0 1-.035-.102v-7.638c0-.038.012-.068.035-.09A.143.143 0 0 1 16.65 18h1.565c.076 0 .13.03.16.09l2.614 4.305c.016.023.03.034.046.034.015-.007.023-.026.023-.056l-.011-4.237ZM26.963 26c-.602 0-1.135-.113-1.599-.339a2.642 2.642 0 0 1-1.073-.983c-.252-.422-.377-.908-.377-1.458v-5.084c0-.038.011-.068.034-.09a.143.143 0 0 1 .103-.046h1.621a.11.11 0 0 1 .092.045c.03.023.045.053.045.09v5.085c0 .354.103.64.309.86.213.21.495.316.845.316.342 0 .616-.106.822-.317.213-.218.32-.505.32-.859v-5.084c0-.038.01-.068.034-.09A.143.143 0 0 1 28.24 18h1.622c.038 0 .069.015.091.045.03.023.046.053.046.09v5.085c0 .55-.126 1.036-.377 1.458-.251.422-.609.75-1.073.983-.457.226-.986.339-1.587.339Z" />
</svg>