<svg class="intro__decoration" viewBox="0 0 1440 1576" xmlns="http://www.w3.org/2000/svg">
  <g fill-rule="evenodd" fill="none" id="background-shape-01" stroke-width="1" stroke="none">
    <path class="intro__decoration-item" d="M1803.00217,-363.002169 L1284.21751,155.782486 C1287.9275,159.492466 1287.9275,165.507534 1284.21751,169.217514 C1280.50753,172.927495 1274.49247,172.927495 1270.78249,169.217514 C1267.0725,165.507534 1267.0725,159.492466 1270.78249,155.782486 C1274.00761,152.557363 1278.97468,152.135871 1282.65512,154.51801" id="decoline" stroke-width="5" stroke="#F96360"></path>
    <path class="intro__decoration-item" d="M1711.00217,-201.002169 L1192.21751,317.782486 C1195.9275,321.492466 1195.9275,327.507534 1192.21751,331.217514 C1188.50753,334.927495 1182.49247,334.927495 1178.78249,331.217514 C1175.0725,327.507534 1175.0725,321.492466 1178.78249,317.782486 C1182.00761,314.557363 1186.97468,314.135871 1190.65512,316.51801" id="decoline" stroke-width="5" stroke="#F96360"></path>
    <path class="intro__decoration-item" d="M1711.00217,-91.0021685 L1192.21751,427.782486 C1195.9275,431.492466 1195.9275,437.507534 1192.21751,441.217514 C1188.50753,444.927495 1182.49247,444.927495 1178.78249,441.217514 C1175.0725,437.507534 1175.0725,431.492466 1178.78249,427.782486 C1182.00761,424.557363 1186.97468,424.135871 1190.65512,426.51801" id="decoline" stroke-width="5" stroke="#F96360"></path>
  </g>
</svg>