<svg width="1707" height="947" viewBox="0 0 1707 947" fill="none" xmlns="http://www.w3.org/2000/svg">
<path d="M0.668945 465.979L3.67361 468.984L122.489 350.131C121.043 349.624 119.616 349.042 118.263 348.441L0.668945 465.979Z" fill="#F96360"/>
<path d="M163.333 309.38L212.515 260.161C212.722 258.095 212.891 255.935 212.929 253.794L157.812 308.949C159.458 309.307 161.143 309.452 162.826 309.38H163.333Z" fill="#F96360"/>
<path d="M286.411 186.209L283.425 183.204L259.782 206.978C260.383 208.406 260.965 209.795 261.51 211.185L286.411 186.209Z" fill="#F96360"/>
<path d="M261.548 211.185C261.003 209.758 260.421 208.368 259.82 206.979C244.046 170.172 209.117 144.839 162.751 144.839C98.1701 144.839 56.5181 192.744 56.5557 252.255C56.2866 266.512 58.9423 280.673 64.3587 293.864C69.7752 307.054 77.8375 318.995 88.0482 328.949L124.761 292.217C116.031 280.741 111.558 266.589 112.104 252.18C112.311 217.983 131.484 192.782 162.808 193.082C194.131 193.383 212.816 218.453 213.023 252.217V253.739C213.093 255.869 212.955 258.001 212.61 260.105C209.699 289.024 191.502 308.93 163.446 309.325H162.939C161.25 309.397 159.558 309.252 157.906 308.893V308.893L118.301 348.441C119.691 349.042 121.137 349.625 122.527 350.132C135.481 354.931 149.181 357.404 162.995 357.437C227.577 357.437 269.229 309.099 269.154 252.556C269.098 238.423 266.523 224.413 261.548 211.185V211.185Z" fill="white"/>
<path d="M143.465 305.85C136.089 302.981 129.586 298.244 124.592 292.104L87.8789 328.817C93.4262 334.15 99.57 338.826 106.189 342.751L143.465 305.85Z" fill="#F96360"/>
<path d="M457.131 218.697C457.131 270.621 418.728 294.001 384.55 293.813H355.893V355.427H300.983L301.359 148.613H382.804C428.024 148.425 457.394 180.725 457.131 218.697ZM355.893 245.532H379.104C394.728 245.532 403.254 234.734 403.348 221.232C403.692 215.152 401.609 209.184 397.556 204.638C393.503 200.093 387.813 197.341 381.733 196.988C380.82 196.941 379.905 196.941 378.992 196.988H355.724L355.893 245.532Z" fill="white"/>
<path d="M643.308 355.277H486.296L486.69 148.463H640.679V196.594H541.544V227.823H612.66V275.578H541.3V307.24H643.439L643.308 355.277Z" fill="white"/>
<path d="M728.095 148.425L799.042 216.03V148.425H853.915L853.539 355.239H798.667V287.165L730.837 223.129L730.461 355.239H675.589L675.983 148.425H728.095Z" fill="white"/>
<path d="M466.09 456.233L493.47 428.891L490.484 425.886L462.24 454.092L466.09 456.233Z" fill="#F96360"/>
<path d="M426.034 490.261L399.913 516.307L404.119 518.035L430.26 491.988H429.865C429.865 491.988 428.476 491.275 426.034 490.261Z" fill="#F96360"/>
<path d="M362.429 559.687L358.203 558.091L329.302 586.823L333.509 588.607L362.429 559.687Z" fill="#F96360"/>
<path d="M293.417 622.653L229.568 686.314L232.572 689.3L296.928 625.019C294.619 623.592 293.304 622.653 293.304 622.653H293.417Z" fill="#F96360"/>
<path d="M381.377 479.331C398.278 479.331 417.884 486.843 426.034 490.261C428.475 491.275 429.921 491.989 429.921 491.989H430.334L466.015 456.308L462.259 454.167L446.803 445.717C425.553 436.204 402.479 431.454 379.199 431.802C342.918 431.802 300.327 451.595 300.327 493.773C300.327 533.49 331.181 548.232 358.054 558.222L362.279 559.818C381.49 566.673 397.433 571.818 397.433 582.654C397.433 591.949 385.189 596.588 368.739 596.588C356.587 596.142 344.629 593.409 333.491 588.532L329.265 586.748L320.214 595.649L293.454 622.541C293.454 622.541 294.768 623.461 297.078 624.888C319.497 637.92 344.986 644.739 370.917 644.644C406.372 644.644 454.071 625.188 454.071 579.236C454.071 544.326 428.738 528.251 404.269 517.904L400.044 516.176C377.978 507.444 357.453 502.786 357.453 492.702C357.453 482.618 369.133 479.331 381.377 479.331Z" fill="white"/>
<path d="M683.57 539.687C683.57 596.194 641.786 644.737 577.637 644.737C513.488 644.737 471.704 596.194 471.704 539.687C471.704 480.176 513.018 432.046 577.637 432.046C642.256 432.046 683.57 479.745 683.57 539.687ZM627.871 539.687C627.871 505.491 608.867 480.176 577.637 480.176C546.407 480.176 526.933 505.491 526.933 539.687C526.933 572.983 546.351 596.663 577.637 596.663C608.923 596.663 627.871 572.983 627.871 539.687Z" fill="white"/>
<path d="M832.564 434.881H887.849V564.87C887.849 613.414 843.963 644.606 800.489 644.606C757.016 644.606 713.129 613.414 713.129 564.87V434.881H767.983V562.297C767.983 584.719 783.607 596.532 800.489 596.532C817.372 596.532 832.564 584.288 832.564 562.297V434.881V434.881Z" fill="white"/>
<path d="M984.092 577.208V641.77H929.219V434.881H1010.25C1055.83 434.881 1085.37 466.956 1085.37 504.946C1085.37 539.086 1068.05 558.541 1051.17 567.368L1097.2 641.77H1033.05L995.904 577.151L984.092 577.208ZM1031.36 505.453C1031.45 499.599 1029.21 493.949 1025.14 489.744C1021.06 485.539 1015.49 483.125 1009.63 483.031C1009.01 482.995 1008.38 482.995 1007.75 483.031H984.092V529.096H1007.72C1010.67 529.245 1013.63 528.81 1016.42 527.816C1019.21 526.821 1021.77 525.287 1023.97 523.301C1026.17 521.314 1027.95 518.915 1029.22 516.239C1030.48 513.563 1031.21 510.664 1031.36 507.706C1031.4 506.943 1031.4 506.192 1031.36 505.453V505.453Z" fill="white"/>
<path d="M1296.73 448.684L1316.56 428.891L1313.55 425.886L1292.89 446.543C1294.36 447.313 1296.65 448.74 1296.65 448.74L1296.73 448.684Z" fill="#F96360"/>
<path d="M1176.2 562.898C1176.64 564.341 1177.18 565.753 1177.82 567.123L1258 486.937C1258 486.937 1255.64 485.622 1254.08 484.909L1176.2 562.898Z" fill="#F96360"/>
<path d="M1052.6 686.314L1055.58 689.3L1139.41 605.601C1138.53 604.475 1137.7 603.348 1136.88 602.184L1052.6 686.314Z" fill="#F96360"/>
<path d="M1225.5 480.59C1234.79 480.734 1244.02 482.155 1252.93 484.815L1254.04 485.284C1255.6 485.998 1257.8 487.162 1257.97 487.294L1275.26 470.036L1296.61 448.684C1296.61 448.684 1294.34 447.257 1292.86 446.487L1292.31 446.186L1290.04 445.097C1287.92 443.839 1262.17 432.046 1223.36 432.046C1158.78 432.046 1117.4 480.176 1117.4 539.687C1117.25 562.041 1124.07 583.887 1136.92 602.184C1137.71 603.348 1138.55 604.475 1139.45 605.602C1157.85 629.282 1186.89 644.775 1223.36 644.775C1247.48 644.728 1271.29 639.206 1292.97 628.625L1275.67 583.931C1275.67 583.931 1247.81 596.963 1225.44 596.963C1201.03 596.963 1185.22 585.151 1177.74 567.424C1177.16 565.978 1176.62 564.513 1176.15 563.199C1173.83 555.811 1172.7 548.105 1172.78 540.363C1172.78 506.561 1190.47 480.59 1225.5 480.59Z" fill="white"/>
<path d="M1379.13 593.696V562.053H1450.47V514.354H1378.72V483.087H1477.89V435.013H1323.84V641.827H1409.1L1457.21 593.696H1379.13Z" fill="white"/>
<path d="M1493.51 593.696H1457.21L1409.1 641.826H1445.4L1493.51 593.696Z" fill="#F96360"/>
<path d="M341.283 9.98594C336.544 14.7713 333.332 20.856 332.055 27.4689C330.778 34.0818 331.493 40.925 334.11 47.1309L100.292 280.949L118.019 298.639L351.837 64.8208C357.48 67.2646 363.683 68.1227 369.777 67.3029C375.871 66.4831 381.627 64.0163 386.423 60.1683C391.219 56.3202 394.875 51.2366 396.997 45.465C399.119 39.6933 399.626 33.4522 398.463 27.4138C397.301 21.3754 394.514 15.7683 390.401 11.1965C386.289 6.6247 381.007 3.2613 375.125 1.4685C369.243 -0.324305 362.983 -0.478584 357.02 1.02227C351.057 2.52313 345.616 5.62227 341.283 9.98594V9.98594ZM373.79 42.9057C372.682 44.0712 371.355 45.007 369.884 45.6596C368.414 46.3121 366.83 46.6686 365.222 46.7087C363.614 46.7488 362.014 46.4718 360.514 45.8933C359.013 45.3149 357.641 44.4464 356.476 43.3376C356.328 43.2029 356.19 43.0587 356.062 42.9057C354.223 40.4685 353.327 37.4487 353.539 34.4028C353.751 31.3568 355.056 28.4902 357.215 26.3312C359.374 24.1722 362.241 22.8664 365.287 22.6545C368.333 22.4426 371.353 23.3389 373.79 25.1782C376.137 27.4216 377.498 30.5042 377.576 33.75C377.653 36.9957 376.44 40.1397 374.203 42.4925C374.072 42.7179 373.921 42.7179 373.79 42.9057V42.9057Z" fill="white"/>
<path d="M950.571 231.072H933.67V148.35H988.88V163.11H950.496V182.284H979.359V196.931H950.496L950.571 231.072Z" fill="#F96360"/>
<path d="M1000.97 148.35H1017.88V231.072H1000.97V148.35Z" fill="#F96360"/>
<path d="M1053.39 203.091V231.072H1036.49V148.35H1067C1084.6 148.35 1096.03 160.537 1096.03 175.185C1096.39 180.646 1095 186.08 1092.08 190.705C1089.15 195.331 1084.84 198.911 1079.75 200.931L1098.4 231.072H1078.33L1062.29 203.091H1053.39ZM1079.68 175.523C1079.8 172.358 1078.66 169.274 1076.51 166.95C1074.36 164.626 1071.37 163.251 1068.2 163.129H1053.46V188.443H1067.62C1069.25 188.402 1070.85 188.04 1072.33 187.38C1073.82 186.719 1075.16 185.772 1076.27 184.593C1077.39 183.414 1078.27 182.025 1078.85 180.508C1079.43 178.99 1079.7 177.373 1079.66 175.749L1079.68 175.523Z" fill="#F96360"/>
<path d="M1176.41 174.472L1158.44 198.114H1149.05L1131.19 174.472H1130.72V231.072H1113.82V148.35H1130.49L1153.91 178.734L1176.95 148.35H1193.59V231.072H1176.69V174.472H1176.41Z" fill="#F96360"/>
<path d="M1210.17 148.35H1226.74L1231.58 211.729H1232.05L1246.23 182.19H1259.49L1273.53 211.729H1274L1278.85 148.425H1295.39L1286.53 231.147H1269.63L1253.22 198.302H1252.37L1235.96 231.147H1219.06L1210.17 148.35Z" fill="#F96360"/>
<path d="M1376.14 231.072H1359.24V204.349H1327.45V231.072H1310.55V177.42C1310.73 168.995 1314.25 160.988 1320.33 155.154C1326.41 149.32 1334.55 146.137 1342.98 146.303H1343.3C1359.84 146.303 1375.94 159.674 1375.94 177.401L1376.14 231.072ZM1359.24 179.542C1359.24 167.636 1352.27 161.138 1343.41 161.138C1334.55 161.138 1327.45 167.636 1327.45 179.542V189.589H1359.24V179.542Z" fill="#F96360"/>
<path d="M1410.62 203.091V231.072H1393.72V148.35H1424.2C1441.79 148.35 1453.27 160.537 1453.27 175.185C1453.63 180.654 1452.23 186.095 1449.3 190.723C1446.36 195.35 1442.03 198.925 1436.93 200.931L1455.71 231.072H1435.69L1419.62 203.091H1410.62ZM1436.91 175.523C1436.97 173.95 1436.71 172.381 1436.16 170.906C1435.61 169.431 1434.77 168.079 1433.7 166.928C1432.62 165.777 1431.33 164.849 1429.9 164.197C1428.47 163.545 1426.92 163.182 1425.34 163.129H1410.66V188.443H1424.84C1426.47 188.402 1428.07 188.039 1429.56 187.377C1431.05 186.714 1432.39 185.764 1433.52 184.582C1434.64 183.399 1435.51 182.007 1436.1 180.485C1436.68 178.962 1436.96 177.34 1436.91 175.711V175.523Z" fill="#F96360"/>
<path d="M1530.69 231.072H1471.15V148.35H1529.59V163.11H1487.9V182.284H1517.44V196.931H1487.9V216.293H1530.69V231.072Z" fill="#F96360"/>
<path d="M997.257 350.695C988.901 354.755 979.689 356.739 970.402 356.478C940.863 356.478 929.088 333.944 929.088 314.263C929.088 289.231 945.99 271.259 971.285 271.259C979.806 270.827 988.31 272.403 996.111 275.86L990.872 289.832C985.03 287.26 978.719 285.924 972.337 285.907C956.975 285.907 945.633 295.954 945.633 314.263C945.633 330.469 954.741 341.699 972.337 341.699C979.207 341.406 985.953 339.759 992.186 336.854L997.257 350.695Z" fill="#F96360"/>
<path d="M1089.59 314.47C1089.8 319.77 1088.97 325.059 1087.14 330.037C1085.3 335.014 1082.51 339.581 1078.91 343.477C1075.31 347.373 1070.97 350.521 1066.16 352.743C1061.34 354.964 1056.13 356.214 1050.83 356.422C1049.84 356.422 1048.84 356.422 1047.87 356.422C1022.12 356.422 1006.29 337.305 1006.29 314.47C1006.29 290.62 1022.12 271.465 1047.87 271.465C1073.61 271.465 1089.59 290.601 1089.59 314.47ZM1072.69 314.47C1072.69 298.301 1063.3 286.301 1047.96 286.301C1032.62 286.301 1023.27 298.376 1023.27 314.47C1023.27 330.563 1032.86 341.774 1047.96 341.774C1063.06 341.774 1072.37 330.676 1072.37 314.47H1072.69Z" fill="#F96360"/>
<path d="M1155.15 306.113V272.648H1172.05V355.37H1155.15V327.727L1120.88 295.221H1120.37V355.314H1103.47V272.648H1119.13L1154.46 306.113H1155.15Z" fill="#F96360"/>
<path d="M1207.77 355.37H1190.87V272.648H1246.02V287.409H1207.77V306.582H1236.73V321.23H1207.77V355.37Z" fill="#F96360"/>
<path d="M1317.51 355.37H1257.83V272.648H1316.33V287.409H1274.59V306.582H1304.13V321.23H1274.59V340.591H1317.51V355.37Z" fill="#F96360"/>
<path d="M1348.37 327.389V355.37H1331.47V272.648H1361.95C1379.58 272.648 1391.02 284.836 1391.02 299.484C1391.36 304.944 1389.98 310.375 1387.05 314.999C1384.13 319.624 1379.82 323.205 1374.73 325.23L1393.51 355.37H1373.44L1357.34 327.389H1348.37ZM1374.66 299.822C1374.78 296.657 1373.64 293.573 1371.49 291.248C1369.34 288.924 1366.35 287.55 1363.19 287.428H1348.44V312.761H1362.62C1364.25 312.719 1365.85 312.358 1367.33 311.697C1368.82 311.036 1370.16 310.089 1371.27 308.91C1372.39 307.731 1373.27 306.343 1373.85 304.825C1374.43 303.308 1374.7 301.69 1374.66 300.066V299.822Z" fill="#F96360"/>
<path d="M1468.4 355.37H1408.86V272.648H1467.35V287.409H1425.64V306.582H1455.18V321.23H1425.64V340.591H1468.4V355.37Z" fill="#F96360"/>
<path d="M1534.11 306.113V272.648H1551.01V355.37H1534.11V327.727L1499.84 295.221H1499.37V355.314H1482.47V272.648H1498.23L1533.55 306.113H1534.11Z" fill="#F96360"/>
<path d="M1633.27 350.694C1624.92 354.746 1615.72 356.729 1606.45 356.478C1576.91 356.478 1565.14 333.943 1565.14 314.263C1565.14 289.231 1582.04 271.259 1607.33 271.259C1615.86 270.817 1624.36 272.394 1632.16 275.86L1626.96 289.831C1621.11 287.26 1614.79 285.924 1608.4 285.907C1593.02 285.907 1581.72 295.953 1581.72 314.263C1581.72 330.469 1590.79 341.699 1608.4 341.699C1615.28 341.414 1622.03 339.768 1628.27 336.854L1633.27 350.694Z" fill="#F96360"/>
<path d="M1706.41 355.37H1646.73V272.648H1705.23V287.409H1663.61V306.582H1693.15V321.23H1663.61V340.591H1706.35L1706.41 355.37Z" fill="#F96360"/>
<path d="M1493.51 593.696L1364.33 722.858C1357.11 719.759 1349.03 719.271 1341.49 721.48C1333.95 723.689 1327.42 728.455 1323.01 734.961C1318.6 741.466 1316.6 749.303 1317.35 757.125C1318.09 764.947 1321.54 772.265 1327.09 777.821C1332.65 783.377 1339.97 786.824 1347.79 787.569C1355.61 788.315 1363.45 786.311 1369.95 781.904C1376.46 777.497 1381.23 770.962 1383.44 763.421C1385.64 755.88 1385.16 747.806 1382.06 740.586L1529.34 593.282L1493.51 593.696ZM1341.98 745.224C1343.73 743.428 1345.98 742.191 1348.43 741.67C1350.88 741.149 1353.43 741.367 1355.76 742.296C1358.09 743.226 1360.09 744.826 1361.51 746.893C1362.93 748.96 1363.71 751.402 1363.74 753.909C1363.77 756.417 1363.06 758.877 1361.69 760.979C1360.32 763.082 1358.36 764.731 1356.06 765.719C1353.75 766.707 1351.21 766.989 1348.74 766.53C1346.28 766.071 1344 764.891 1342.21 763.139L1341.98 762.914C1339.66 760.639 1338.33 757.538 1338.29 754.288C1338.24 751.038 1339.48 747.901 1341.74 745.562C1341.84 745.466 1341.92 745.351 1341.98 745.224V745.224Z" fill="white"/>
<path d="M662.635 750.535L657.338 784.354L657.542 785.169C657.542 785.169 665.079 783.132 675.062 783.132C700.936 783.132 721.105 802.486 721.105 828.767C721.105 854.437 703.38 876.439 669.561 876.439C650.004 876.439 634.113 869.309 634.113 869.309L639.817 850.77C639.817 850.77 657.134 857.9 669.154 857.9C690.342 857.9 700.121 844.861 700.121 828.767C700.121 812.265 688.712 801.875 670.58 801.875C656.727 801.875 644.91 807.987 644.91 807.987L635.539 791.892L643.892 731.792H712.548V750.535H662.635Z" fill="#F96360"/>
<path d="M568.025 748.498C549.893 748.498 535.632 754.814 535.632 754.814L529.928 737.701C529.928 737.701 546.43 730.163 568.025 730.163C595.325 730.163 614.679 747.072 614.679 773.353C614.679 792.096 602.048 804.727 595.528 811.043L550.912 854.844V855.659H614.475V874.402H525.039V853.214L576.174 802.282C583.101 795.356 593.695 785.169 593.695 772.334C593.695 758.073 580.453 748.498 568.025 748.498Z" fill="#F96360"/>
<path d="M460.602 857.697C479.753 857.697 489.124 844.25 489.124 829.99C489.124 813.895 487.698 786.799 485.457 771.112C483.827 759.703 474.659 749.11 460.806 749.11C446.749 749.11 437.581 759.703 435.951 771.112C433.71 786.799 432.284 813.895 432.284 829.99C432.284 844.25 441.044 857.697 460.602 857.697ZM460.602 730.367C485.05 730.367 502.774 748.091 505.83 770.501C508.275 787.818 509.701 809.413 509.701 829.378C509.701 853.418 490.55 875.828 460.602 875.828C430.858 875.828 411.708 853.418 411.708 829.378C411.708 809.413 413.134 787.818 415.578 770.501C418.634 748.091 436.359 730.367 460.602 730.367Z" fill="#F96360"/>
<path d="M344.601 748.498C326.47 748.498 312.209 754.814 312.209 754.814L306.504 737.701C306.504 737.701 323.006 730.163 344.601 730.163C371.901 730.163 391.255 747.072 391.255 773.353C391.255 792.096 378.624 804.727 372.105 811.043L327.488 854.844V855.659H391.051V874.402H301.615V853.214L352.75 802.283C359.677 795.356 370.271 785.169 370.271 772.335C370.271 758.074 357.029 748.498 344.601 748.498Z" fill="#F96360"/>
<path d="M1022.81 854.713C1022.81 847.04 1022.49 840.094 1021.52 834.52C1020.79 830.482 1018.29 826.686 1013.6 826.686C1009 826.686 1006.25 830.482 1005.53 834.52C1004.56 840.094 1004.23 847.04 1004.23 854.713C1004.23 859.398 1006.98 864.729 1013.52 864.729C1020.15 864.729 1022.81 859.398 1022.81 854.713ZM1031.94 832.905C1033.15 839.771 1033.31 846.959 1033.31 855.925C1033.31 865.456 1025.48 874.341 1013.52 874.341C1001.73 874.341 993.734 865.456 993.734 855.925C993.734 846.959 993.895 839.771 995.107 832.905C996.642 824.101 1003.83 816.67 1013.44 816.67C1023.05 816.67 1030.4 824.101 1031.94 832.905Z" fill="#F96360"/>
<path d="M983.624 817.235V873.776H972.639V827.332H965.369V817.235H983.624Z" fill="#F96360"/>
<path d="M897.969 856.087V847.929H939.566V856.087H897.969Z" fill="#F96360"/>
<path d="M836.68 817.235H871.331V826.039L853.561 875.553L843.303 871.999L859.619 827.574V827.251H836.68V817.235Z" fill="#F96360"/>
<path d="M822.539 854.713C822.539 847.04 822.216 840.094 821.247 834.52C820.52 830.482 818.016 826.686 813.331 826.686C808.727 826.686 805.981 830.482 805.254 834.52C804.285 840.094 803.962 847.04 803.962 854.713C803.962 859.398 806.708 864.729 813.25 864.729C819.874 864.729 822.539 859.398 822.539 854.713ZM831.666 832.905C832.878 839.771 833.04 846.959 833.04 855.925C833.04 865.456 825.205 874.341 813.25 874.341C801.458 874.341 793.461 865.456 793.461 855.925C793.461 846.959 793.623 839.771 794.835 832.905C796.369 824.101 803.558 816.67 813.17 816.67C822.782 816.67 830.132 824.101 831.666 832.905Z" fill="#F96360"/>
<path d="M1142.5 771.009H1136.37V790.152H1124.9V733.612H1145.74C1157.77 733.612 1165.61 741.931 1165.61 751.947C1165.61 762.69 1159.14 767.778 1154.46 769.555L1167.22 790.152H1153.49L1142.5 771.009ZM1146.06 760.994C1150.82 760.994 1154.3 756.955 1154.3 752.189C1154.3 747.424 1150.82 743.708 1146.06 743.708H1136.37V760.994H1146.06Z" fill="#F96360"/>
<path d="M1115.2 780.056V790.152H1074.49V733.612H1114.48V743.708H1085.96V756.793H1106.07V766.809H1085.96V780.056H1115.2Z" fill="#F96360"/>
<path d="M1062.36 749.928C1062.36 754.936 1059.7 758.167 1056.55 760.428C1061.31 763.255 1063.98 767.294 1063.98 774.159C1063.98 784.013 1055.82 790.152 1045.88 790.152H1021.33V733.612H1042.33C1053.72 733.612 1062.36 739.104 1062.36 749.928ZM1043.38 780.056C1050.08 780.056 1052.83 777.713 1052.83 773.352C1052.83 768.748 1049.11 766.244 1043.06 766.244H1032.88V780.056H1043.38ZM1032.88 743.708V756.147H1042.49C1047.82 756.147 1050.89 753.32 1050.89 749.928C1050.89 745.485 1046.85 743.708 1042.9 743.708H1032.88Z" fill="#F96360"/>
<path d="M983.111 732.804C1000.72 732.804 1011.62 745.889 1011.62 762.205C1011.62 777.794 1000.72 790.879 983.111 790.879C965.503 790.879 954.68 777.794 954.68 762.205C954.68 745.889 965.503 732.804 983.111 732.804ZM983.111 780.863C993.531 780.863 999.993 773.271 999.993 762.205C999.993 751.139 993.531 742.901 983.111 742.901C972.773 742.901 966.23 751.139 966.23 762.205C966.23 773.271 972.773 780.863 983.111 780.863Z" fill="#F96360"/>
<path d="M906.743 733.612H953.187V743.708H935.74V790.152H924.271V743.708H906.743V733.612Z" fill="#F96360"/>
<path d="M899.689 777.633L903.081 787.002C903.081 787.002 896.216 790.96 884.746 790.96C864.634 790.96 856.476 775.533 856.476 762.205C856.476 745.082 868.026 732.804 885.392 732.804C896.781 732.804 902.354 735.954 902.354 735.954L898.8 745.485C898.8 745.485 893.308 742.82 886.119 742.82C875.619 742.82 867.865 749.686 867.865 762.205C867.865 773.271 874.084 780.944 886.119 780.944C892.904 780.944 899.689 777.633 899.689 777.633Z" fill="#F96360"/>
<path d="M821.489 732.804C839.097 732.804 850.001 745.889 850.001 762.205C850.001 777.794 839.097 790.879 821.489 790.879C803.881 790.879 793.057 777.794 793.057 762.205C793.057 745.889 803.881 732.804 821.489 732.804ZM821.489 780.863C831.908 780.863 838.37 773.271 838.37 762.205C838.37 751.139 831.908 742.901 821.489 742.901C811.15 742.901 804.607 751.139 804.607 762.205C804.607 773.271 811.15 780.863 821.489 780.863Z" fill="#F96360"/>
</svg>
