<svg width="868" height="400" viewBox="0 0 868 400" fill="none" xmlns="http://www.w3.org/2000/svg">
<path d="M47 212.444L48.3634 213.807L102.277 159.876C101.621 159.646 100.973 159.382 100.36 159.109L47 212.444Z" fill="#F96360"/>
<path d="M120.812 141.385L143.129 119.051C143.223 118.113 143.299 117.134 143.316 116.162L118.307 141.189C119.053 141.352 119.818 141.418 120.582 141.385H120.812Z" fill="#F96360"/>
<path d="M176.659 85.4943L175.304 84.1309L164.576 94.9187C164.849 95.5663 165.113 96.1969 165.36 96.8275L176.659 85.4943Z" fill="#F96360"/>
<path d="M165.378 96.8277C165.131 96.18 164.866 95.5495 164.594 94.9189C157.436 78.2173 141.586 66.7222 120.548 66.7222C91.243 66.7222 72.343 88.4598 72.36 115.464C72.2379 121.933 73.4429 128.358 75.9007 134.344C78.3585 140.329 82.0169 145.748 86.6501 150.264L103.309 133.597C99.3478 128.389 97.3178 121.968 97.5658 115.429C97.6595 99.9123 106.36 88.4769 120.573 88.6132C134.786 88.7495 143.265 100.125 143.359 115.447V116.137C143.391 117.103 143.328 118.071 143.171 119.025C141.851 132.148 133.594 141.181 120.863 141.36H120.633C119.866 141.393 119.099 141.327 118.349 141.164V141.164L100.378 159.109C101.008 159.382 101.664 159.646 102.295 159.876C108.173 162.054 114.39 163.176 120.658 163.191C149.963 163.191 168.863 141.257 168.829 115.6C168.804 109.187 167.635 102.83 165.378 96.8277V96.8277Z" fill="white"/>
<path d="M111.795 139.783C108.448 138.481 105.497 136.331 103.231 133.545L86.5723 150.204C89.0894 152.624 91.8772 154.746 94.8805 156.527L111.795 139.783Z" fill="#F96360"/>
<path d="M254.125 100.236C254.125 123.797 236.7 134.406 221.191 134.321H208.188V162.279H183.271L183.442 68.4349H220.398C240.918 68.3497 254.245 83.0062 254.125 100.236ZM208.188 112.413H218.72C225.809 112.413 229.678 107.513 229.721 101.387C229.877 98.6277 228.931 95.9197 227.092 93.8571C225.254 91.7946 222.671 90.546 219.913 90.3856C219.498 90.3643 219.083 90.3643 218.669 90.3856H208.111L208.188 112.413Z" fill="white"/>
<path d="M338.605 162.211H267.359L267.538 68.3667H337.412V90.2066H292.429V104.377H324.699V126.047H292.318V140.414H338.665L338.605 162.211Z" fill="white"/>
<path d="M377.077 68.3496L409.27 99.026V68.3496H434.17L433.999 162.194H409.1V131.304L378.321 102.247L378.151 162.194H353.252L353.431 68.3496H377.077Z" fill="white"/>
<path d="M258.19 208.021L270.614 195.614L269.259 194.251L256.443 207.05L258.19 208.021Z" fill="#F96360"/>
<path d="M240.015 223.461L228.162 235.28L230.071 236.064L241.932 224.245H241.753C241.753 224.245 241.123 223.922 240.015 223.461Z" fill="#F96360"/>
<path d="M211.153 254.965L209.235 254.24L196.121 267.278L198.03 268.087L211.153 254.965Z" fill="#F96360"/>
<path d="M179.837 283.536L150.865 312.423L152.229 313.778L181.431 284.61C180.383 283.962 179.786 283.536 179.786 283.536H179.837Z" fill="#F96360"/>
<path d="M219.752 218.503C227.421 218.503 236.317 221.911 240.015 223.462C241.123 223.922 241.779 224.246 241.779 224.246H241.967L258.157 208.056L256.453 207.084L249.44 203.25C239.797 198.933 229.327 196.778 218.763 196.935C202.3 196.935 182.974 205.917 182.974 225.055C182.974 243.078 196.975 249.767 209.168 254.3L211.086 255.024C219.803 258.135 227.037 260.47 227.037 265.386C227.037 269.604 221.482 271.709 214.017 271.709C208.503 271.507 203.077 270.267 198.023 268.053L196.105 267.244L191.998 271.283L179.855 283.485C179.855 283.485 180.452 283.903 181.5 284.551C191.673 290.464 203.239 293.558 215.006 293.515C231.094 293.515 252.738 284.687 252.738 263.835C252.738 247.995 241.242 240.7 230.139 236.005L228.222 235.221C218.21 231.259 208.896 229.146 208.896 224.57C208.896 219.994 214.196 218.503 219.752 218.503Z" fill="white"/>
<path d="M356.875 245.89C356.875 271.53 337.915 293.557 308.807 293.557C279.698 293.557 260.738 271.53 260.738 245.89C260.738 218.886 279.485 197.046 308.807 197.046C338.128 197.046 356.875 218.69 356.875 245.89ZM331.601 245.89C331.601 230.372 322.977 218.886 308.807 218.886C294.636 218.886 285.799 230.372 285.799 245.89C285.799 260.998 294.61 271.743 308.807 271.743C323.003 271.743 331.601 260.998 331.601 245.89Z" fill="white"/>
<path d="M424.482 198.333H449.569V257.316C449.569 279.344 429.654 293.498 409.928 293.498C390.201 293.498 370.287 279.344 370.287 257.316V198.333H395.178V256.149C395.178 266.323 402.267 271.683 409.928 271.683C417.588 271.683 424.482 266.127 424.482 256.149V198.333V198.333Z" fill="white"/>
<path d="M493.239 262.915V292.211H468.34V198.333H505.109C525.79 198.333 539.194 212.887 539.194 230.125C539.194 245.617 531.337 254.445 523.677 258.45L544.562 292.211H515.454L498.599 262.889L493.239 262.915ZM514.687 230.355C514.728 227.699 513.712 225.135 511.864 223.227C510.015 221.319 507.484 220.224 504.828 220.181C504.544 220.165 504.259 220.165 503.976 220.181H493.239V241.084H503.959C505.3 241.151 506.642 240.954 507.908 240.503C509.173 240.051 510.338 239.355 511.334 238.454C512.33 237.553 513.139 236.464 513.715 235.249C514.29 234.035 514.62 232.72 514.687 231.378C514.704 231.031 514.704 230.69 514.687 230.355V230.355Z" fill="white"/>
<path d="M635.102 204.596L644.1 195.614L642.737 194.251L633.363 203.624C634.028 203.974 635.068 204.621 635.068 204.621L635.102 204.596Z" fill="#F96360"/>
<path d="M580.412 256.422C580.613 257.077 580.858 257.717 581.145 258.339L617.531 221.953C617.531 221.953 616.457 221.357 615.75 221.033L580.412 256.422Z" fill="#F96360"/>
<path d="M524.324 312.423L525.679 313.778L563.718 275.799C563.317 275.288 562.942 274.776 562.567 274.248L524.324 312.423Z" fill="#F96360"/>
<path d="M602.78 219.073C606.998 219.139 611.187 219.784 615.229 220.991L615.732 221.204C616.439 221.527 617.436 222.056 617.513 222.115L625.361 214.284L635.05 204.596C635.05 204.596 634.019 203.948 633.345 203.599L633.098 203.462L632.067 202.968C631.104 202.397 619.422 197.046 601.808 197.046C572.504 197.046 553.732 218.886 553.732 245.89C553.663 256.033 556.757 265.946 562.585 274.248C562.943 274.777 563.326 275.288 563.736 275.799C572.086 286.544 585.26 293.574 601.808 293.574C612.757 293.553 623.557 291.047 633.397 286.246L625.548 265.966C625.548 265.966 612.903 271.879 602.754 271.879C591.677 271.879 584.502 266.519 581.11 258.475C580.846 257.819 580.599 257.155 580.386 256.558C579.335 253.206 578.821 249.709 578.861 246.196C578.861 230.858 586.888 219.073 602.78 219.073Z" fill="white"/>
<path d="M672.493 270.396V256.038H704.865V234.394H672.305V220.206H717.306V198.392H647.406V292.236H686.093L707.924 270.396H672.493Z" fill="white"/>
<path d="M724.395 270.396H707.923L686.092 292.236H702.563L724.395 270.396Z" fill="#F96360"/>
<path d="M201.558 5.53124C199.407 7.70263 197.95 10.4637 197.37 13.4643C196.791 16.465 197.115 19.5702 198.303 22.3862L92.2051 128.484L100.249 136.511L206.347 30.4132C208.907 31.5221 211.722 31.9115 214.487 31.5395C217.253 31.1675 219.864 30.0482 222.041 28.3021C224.217 26.556 225.876 24.2492 226.839 21.6303C227.801 19.0113 228.031 16.1793 227.504 13.4393C226.977 10.6993 225.712 8.15507 223.846 6.08055C221.98 4.00604 219.583 2.47985 216.914 1.66635C214.245 0.852843 211.405 0.782837 208.699 1.46387C205.993 2.1449 203.524 3.55117 201.558 5.53124V5.53124ZM216.308 20.4689C215.805 20.9978 215.203 21.4225 214.536 21.7186C213.869 22.0147 213.15 22.1764 212.421 22.1946C211.691 22.2128 210.965 22.0871 210.284 21.8246C209.603 21.5622 208.98 21.1681 208.452 20.6649C208.385 20.6038 208.322 20.5384 208.264 20.4689C207.43 19.3631 207.023 17.9928 207.119 16.6107C207.215 15.2285 207.808 13.9277 208.787 12.9481C209.767 11.9684 211.068 11.3759 212.45 11.2797C213.832 11.1836 215.202 11.5903 216.308 12.4249C217.373 13.4429 217.991 14.8416 218.026 16.3144C218.061 17.7872 217.511 19.2139 216.496 20.2815C216.436 20.3837 216.368 20.3837 216.308 20.4689V20.4689Z" fill="white"/>
<path d="M478.03 105.851H470.361V68.3154H495.414V75.0131H477.996V83.7133H491.093V90.3598H477.996L478.03 105.851Z" fill="#F96360"/>
<path d="M500.9 68.3154H508.569V105.851H500.9V68.3154Z" fill="#F96360"/>
<path d="M524.683 93.1548V105.851H517.014V68.3154H530.861C538.845 68.3154 544.034 73.8457 544.034 80.4923C544.196 82.9704 543.567 85.4358 542.24 87.5347C540.913 89.6336 538.955 91.2581 536.647 92.1749L545.108 105.851H535.999L528.722 93.1548H524.683ZM536.612 80.6456C536.668 79.2095 536.15 77.8101 535.174 76.7554C534.198 75.7007 532.842 75.0771 531.406 75.0216H524.717V86.5083H531.142C531.879 86.4895 532.605 86.3255 533.279 86.0257C533.953 85.7259 534.56 85.2962 535.068 84.7611C535.575 84.226 535.972 83.5961 536.236 82.9075C536.499 82.2189 536.624 81.485 536.604 80.7479L536.612 80.6456Z" fill="#F96360"/>
<path d="M580.507 80.1685L572.352 90.8967H568.091L559.988 80.1685H559.775V105.851H552.105V68.3154H559.672L570.298 82.1028L580.754 68.3154H588.304V105.851H580.635V80.1685H580.507Z" fill="#F96360"/>
<path d="M595.826 68.3154H603.342L605.54 97.0746H605.753L612.187 83.6707H618.203L624.577 97.0746H624.79L626.988 68.3495H634.495L630.474 105.886H622.804L615.357 90.9819H614.973L607.526 105.886H599.857L595.826 68.3154Z" fill="#F96360"/>
<path d="M671.138 105.851H663.469V93.7257H649.042V105.851H641.373V81.5063C641.456 77.6836 643.052 74.0499 645.811 71.4028C648.57 68.7556 652.266 67.3112 656.089 67.3866H656.234C663.741 67.3866 671.044 73.4537 671.044 81.4977L671.138 105.851ZM663.469 82.4692C663.469 77.0667 660.307 74.1184 656.285 74.1184C652.263 74.1184 649.042 77.0667 649.042 82.4692V87.028H663.469V82.4692Z" fill="#F96360"/>
<path d="M686.782 93.1548V105.851H679.113V68.3154H692.943C700.928 68.3154 706.134 73.8457 706.134 80.4923C706.296 82.9739 705.665 85.4427 704.333 87.5425C703 89.6423 701.035 91.2645 698.721 92.1749L707.242 105.851H698.158L690.864 93.1548H686.782ZM698.712 80.6456C698.737 79.9316 698.621 79.2196 698.371 78.5504C698.121 77.8812 697.741 77.2679 697.253 76.7456C696.766 76.2233 696.18 75.8022 695.53 75.5064C694.879 75.2105 694.177 75.0458 693.463 75.0216H686.799V86.5083H693.233C693.972 86.4895 694.701 86.3251 695.376 86.0244C696.052 85.7237 696.662 85.2928 697.171 84.7561C697.68 84.2195 698.078 83.5877 698.342 82.897C698.607 82.2063 698.733 81.4702 698.712 80.7309V80.6456Z" fill="#F96360"/>
<path d="M741.267 105.851H714.246V68.3154H740.764V75.0131H721.847V83.7133H735.251V90.3598H721.847V99.1452H741.267V105.851Z" fill="#F96360"/>
<path d="M499.213 160.132C495.422 161.974 491.242 162.875 487.028 162.756C473.624 162.756 468.281 152.531 468.281 143.601C468.281 132.242 475.95 124.087 487.428 124.087C491.295 123.891 495.154 124.606 498.694 126.175L496.316 132.514C493.665 131.348 490.802 130.741 487.906 130.733C480.935 130.733 475.788 135.292 475.788 143.601C475.788 150.954 479.921 156.05 487.906 156.05C491.023 155.917 494.084 155.17 496.913 153.852L499.213 160.132Z" fill="#F96360"/>
<path d="M541.113 143.694C541.209 146.099 540.83 148.5 539.997 150.758C539.165 153.016 537.896 155.089 536.263 156.857C534.63 158.625 532.664 160.053 530.478 161.061C528.293 162.069 525.93 162.636 523.525 162.731C523.073 162.731 522.622 162.731 522.178 162.731C510.496 162.731 503.312 154.056 503.312 143.694C503.312 132.872 510.496 124.181 522.178 124.181C533.861 124.181 541.113 132.864 541.113 143.694ZM533.444 143.694C533.444 136.357 529.183 130.912 522.221 130.912C515.259 130.912 511.016 136.392 511.016 143.694C511.016 150.997 515.37 156.084 522.221 156.084C529.072 156.084 533.299 151.048 533.299 143.694H533.444Z" fill="#F96360"/>
<path d="M570.861 139.902V124.717H578.53V162.253H570.861V149.71L555.309 134.96H555.079V162.228H547.41V124.717H554.517L570.545 139.902H570.861Z" fill="#F96360"/>
<path d="M594.736 162.253H587.066V124.717H612.093V131.415H594.736V140.115H607.875V146.762H594.736V162.253Z" fill="#F96360"/>
<path d="M644.534 162.253H617.453V124.717H643.997V131.415H625.054V140.115H638.458V146.762H625.054V155.547H644.534V162.253Z" fill="#F96360"/>
<path d="M658.534 149.557V162.253H650.865V124.717H664.695C672.697 124.717 677.886 130.248 677.886 136.894C678.044 139.372 677.415 141.836 676.088 143.934C674.761 146.033 672.805 147.658 670.498 148.577L679.019 162.253H669.91L662.608 149.557H658.534ZM670.464 137.047C670.519 135.611 670.002 134.212 669.025 133.157C668.049 132.103 666.694 131.479 665.258 131.423H658.568V142.919H665.002C665.739 142.9 666.465 142.736 667.139 142.436C667.813 142.136 668.421 141.707 668.928 141.171C669.435 140.636 669.832 140.007 670.096 139.318C670.359 138.629 670.484 137.895 670.464 137.158V137.047Z" fill="#F96360"/>
<path d="M713.003 162.253H685.982V124.717H712.526V131.415H693.6V140.115H707.004V146.762H693.6V155.547H713.003V162.253Z" fill="#F96360"/>
<path d="M742.818 139.902V124.717H750.487V162.253H742.818V149.71L727.267 134.96H727.054V162.228H719.385V124.717H726.534L742.562 139.902H742.818Z" fill="#F96360"/>
<path d="M787.809 160.131C784.023 161.97 779.849 162.87 775.641 162.756C762.237 162.756 756.895 152.531 756.895 143.6C756.895 132.241 764.564 124.087 776.042 124.087C779.909 123.886 783.768 124.602 787.307 126.174L784.946 132.514C782.293 131.347 779.426 130.741 776.527 130.733C769.548 130.733 764.419 135.292 764.419 143.6C764.419 150.954 768.534 156.05 776.527 156.05C779.648 155.92 782.713 155.173 785.543 153.851L787.809 160.131Z" fill="#F96360"/>
<path d="M821 162.253H793.92V124.717H820.464V131.415H801.58V140.115H814.984V146.762H801.58V155.547H820.975L821 162.253Z" fill="#F96360"/>
<path d="M724.395 270.396L665.777 329.005C662.501 327.599 658.837 327.378 655.415 328.38C651.994 329.382 649.028 331.545 647.028 334.497C645.029 337.449 644.12 341.005 644.458 344.554C644.796 348.104 646.36 351.424 648.881 353.946C651.402 356.467 654.723 358.031 658.272 358.369C661.822 358.707 665.378 357.798 668.33 355.798C671.282 353.799 673.444 350.833 674.447 347.411C675.449 343.99 675.228 340.326 673.821 337.049L740.653 270.209L724.395 270.396ZM655.637 339.154C656.431 338.339 657.449 337.778 658.562 337.541C659.675 337.305 660.833 337.404 661.89 337.826C662.947 338.248 663.855 338.974 664.499 339.912C665.143 340.85 665.494 341.958 665.509 343.095C665.523 344.233 665.199 345.35 664.579 346.303C663.959 347.257 663.069 348.006 662.024 348.454C660.978 348.903 659.822 349.031 658.704 348.822C657.585 348.614 656.554 348.078 655.739 347.283L655.637 347.181C654.584 346.149 653.981 344.742 653.96 343.267C653.939 341.792 654.502 340.369 655.526 339.308C655.573 339.264 655.61 339.212 655.637 339.154V339.154Z" fill="white"/>
<path d="M203.338 343.119C196.405 343.119 189.564 346.447 189.564 346.447L186.144 335.816C186.144 335.816 194.186 331.933 204.725 331.933C216.835 331.933 225.895 340.253 225.895 352.455C225.895 360.313 220.071 366.784 217.02 369.835L200.657 385.643V386.013H225.802V397.568H184.018V386.013L206.389 363.826C209.255 360.96 213.415 356.893 213.415 352.086C213.415 347.001 208.423 343.119 203.338 343.119Z" fill="#F96360"/>
<path d="M268.416 375.751C268.416 366.969 268.046 359.019 266.937 352.64C266.105 348.018 263.239 343.673 257.877 343.673C252.608 343.673 249.465 348.018 248.633 352.64C247.524 359.019 247.154 366.969 247.154 375.751C247.154 381.113 250.297 387.214 257.785 387.214C265.365 387.214 268.416 381.113 268.416 375.751ZM278.862 350.791C280.249 358.649 280.434 366.877 280.434 377.138C280.434 388.046 271.467 398.215 257.785 398.215C244.288 398.215 235.136 388.046 235.136 377.138C235.136 366.877 235.321 358.649 236.708 350.791C238.464 340.715 246.692 332.21 257.693 332.21C268.693 332.21 277.106 340.715 278.862 350.791Z" fill="#F96360"/>
<path d="M307.157 343.119C300.224 343.119 293.383 346.447 293.383 346.447L289.963 335.816C289.963 335.816 298.005 331.933 308.544 331.933C320.654 331.933 329.714 340.253 329.714 352.455C329.714 360.313 323.89 366.784 320.839 369.835L304.476 385.643V386.013H329.621V397.568H287.836V386.013L310.208 363.826C313.074 360.96 317.234 356.893 317.234 352.086C317.234 347.001 312.242 343.119 307.157 343.119Z" fill="#F96360"/>
<path d="M353.839 356.708L354.023 356.985C355.872 355.968 358.646 354.859 361.511 354.859C373.437 354.859 382.681 362.809 382.681 376.768C382.681 389.895 373.159 398.493 360.864 398.493C344.594 398.493 338.955 385.92 338.955 371.776C338.955 353.565 348.107 337.295 369.462 331.748L373.067 343.026C367.52 344.228 358.738 347.464 353.839 356.708ZM360.864 366.23C354.948 366.23 351.435 370.667 351.435 376.768C351.435 382.038 354.948 387.307 360.864 387.307C366.781 387.307 370.386 382.13 370.386 376.768C370.386 371.406 366.781 366.23 360.864 366.23Z" fill="#F96360"/>
<path d="M412.088 340.346C412.088 344.708 424.916 343.682 424.916 352.001C424.916 357.426 419.272 359.698 414.8 359.698C409.596 359.698 406.187 357.462 406.187 357.462L408.093 353.101C410.219 354.457 412.235 355.153 414.727 355.153C417.256 355.153 419.491 354.347 419.491 352.295C419.491 347.823 406.81 348.923 406.81 340.823C406.81 335.618 411.758 333.309 416.339 333.309C420.701 333.309 423.706 334.702 423.706 334.702L422.13 339.1C422.13 339.1 419.235 337.744 416.413 337.744C414.214 337.744 412.088 338.514 412.088 340.346Z" fill="#F96360"/>
<path d="M447.43 354.75V359.332H428.958V333.676H447.1V338.257H434.162V344.195H443.289V348.739H434.162V354.75H447.43Z" fill="#F96360"/>
<path d="M461.395 333.676C466.893 333.676 470.375 337.451 470.375 341.996C470.375 348.226 465.867 351.048 461.688 351.048H457.034V359.332H451.829V333.676H461.395ZM457.034 338.257V346.467H461.505C464.144 346.467 465.28 344.488 465.28 342.325C465.28 340.163 463.668 338.257 461.798 338.257H457.034Z" fill="#F96360"/>
<path d="M471.848 333.676H492.923V338.257H485.006V359.332H479.802V338.257H471.848V333.676Z" fill="#F96360"/>
<path d="M514.684 354.75V359.332H496.211V333.676H514.354V338.257H501.416V344.195H510.542V348.739H501.416V354.75H514.684Z" fill="#F96360"/>
<path d="M538.618 341.776H538.471L532.9 349.106H529.968L524.434 341.776H524.287V359.332H519.083V333.676H524.25L531.507 343.095L538.654 333.676H543.822V359.332H538.618V341.776Z" fill="#F96360"/>
<path d="M568.304 341.079C568.304 343.352 567.094 344.818 565.665 345.844C567.827 347.127 569.037 348.959 569.037 352.075C569.037 356.546 565.335 359.332 560.827 359.332H549.685V333.676H559.214C564.382 333.676 568.304 336.168 568.304 341.079ZM559.691 354.75C562.733 354.75 563.979 353.687 563.979 351.708C563.979 349.619 562.293 348.483 559.544 348.483H554.926V354.75H559.691ZM554.926 338.257V343.901H559.287C561.706 343.901 563.099 342.619 563.099 341.079C563.099 339.063 561.267 338.257 559.471 338.257H554.926Z" fill="#F96360"/>
<path d="M592.281 354.75V359.332H573.809V333.676H591.951V338.257H579.013V344.195H588.139V348.739H579.013V354.75H592.281Z" fill="#F96360"/>
<path d="M604.67 350.645H601.884V359.332H596.68V333.676H606.136C611.597 333.676 615.152 337.451 615.152 341.996C615.152 346.87 612.22 349.179 610.094 349.986L615.885 359.332H609.654L604.67 350.645ZM606.282 346.101C608.445 346.101 610.021 344.268 610.021 342.106C610.021 339.943 608.445 338.257 606.282 338.257H601.884V346.101H606.282Z" fill="#F96360"/>
<path d="M414.104 371.693V397.349H409.119V376.275H405.821V371.693H414.104Z" fill="#F96360"/>
<path d="M424.776 376.238L424.079 380.636C424.666 380.49 425.582 380.416 426.498 380.416C431.263 380.416 435.001 384.008 435.001 388.846C435.001 393.611 431.776 397.716 425.545 397.716C421.733 397.716 418.508 396.14 418.508 396.14L419.828 391.705C419.828 391.705 423.09 393.171 425.472 393.171C428.624 393.171 430.053 391.192 430.053 388.846C430.053 386.464 428.404 384.961 425.728 384.961C423.236 384.961 420.927 386.281 420.927 386.281L418.838 382.689L420.377 371.693H433.572V376.238H424.776Z" fill="#F96360"/>
<path d="M447.823 389.323V385.621H466.699V389.323H447.823Z" fill="#F96360"/>
<path d="M486.69 371.693V397.349H481.706V376.275H478.407V371.693H486.69Z" fill="#F96360"/>
<path d="M489.628 371.693H505.352V375.688L497.289 398.156L492.634 396.543L500.037 376.385V376.238H489.628V371.693Z" fill="#F96360"/>
</svg>
