<svg version="1.2" xmlns="http://www.w3.org/2000/svg" viewBox="0 0 1008 560"><style>.s0{fill:#f96360}.s1{fill:#fff}</style><path id="Layer" class="s0" d="m0 275.7 1.8 1.8L72 207.2q-1.3-.4-2.5-1z"/><path class="s0" d="m96.1 183.1 29.1-29.1c.1-1.2.2-2.5.2-3.7l-32.5 32.6q1.4.3 2.9.2zm72.8-72.8-1.8-1.8-14 14.1q.6 1.3 1 2.5z"/><path class="s1" d="M154.2 125.1q-.5-1.3-1.1-2.5c-9.3-21.8-29.9-36.7-57.3-36.7-38.2 0-62.8 28.3-62.8 63.5-.1 8.4 1.4 16.8 4.6 24.6s8 14.8 14 20.7L73.3 173c-5.1-6.8-7.8-15.2-7.4-23.7.1-20.2 11.4-35.1 29.9-34.9s29.6 15 29.7 34.9v.9q.1 1.9-.3 3.8c-1.7 17.1-12.4 28.9-29 29.1h-.3q-1.5.1-3-.3l-23.4 23.4c.8.4 1.7.7 2.5 1 7.7 2.9 15.8 4.3 23.9 4.3 38.2 0 62.8-28.5 62.8-62-.1-8.3-1.6-16.6-4.5-24.4"/><path class="s0" d="M84.4 181c-4.4-1.7-8.2-4.5-11.2-8.1l-21.7 21.7c3.3 3.2 6.9 5.9 10.9 8.3z"/><path fill-rule="evenodd" class="s1" d="M269.7 129.5c0 30.7-22.6 44.5-42.8 44.4h-17v36.5h-32.4l.2-122.3h48.1c26.7-.1 44.1 19 43.9 41.4m-59.8 15.9h13.7c9.3 0 14.3-6.4 14.4-14.4.2-3.6-1.1-7.1-3.5-9.8s-5.7-4.3-9.3-4.5q-.8-.1-1.6 0h-13.8z"/><path class="s1" d="M379.8 210.3H287l.2-122.3h91v28.5h-58.6v18.4h42.1v28.2h-42.2v18.8h60.3zM429.9 88l41.9 39.9V88h32.4l-.2 122.2h-32.4V170l-40.1-37.9-.2 78.1h-32.5l.3-122.2z"/><path class="s0" d="m275 269.9 16.2-16.1-1.7-1.8-16.7 16.7zm-23.6 20.2-15.5 15.4 2.5 1 15.5-15.4h-.3s-.8-.4-2.2-1m-37.6 41-2.5-.9-17.1 16.9 2.5 1.1zM173 368.3 135.3 406l1.7 1.7 38.1-38c-1.4-.8-2.2-1.4-2.2-1.4z"/><path class="s1" d="M225 283.6c10 0 21.6 4.4 26.4 6.5 1.4.6 2.3 1 2.3 1h.2L275 270l-2.2-1.3-9.2-5c-12.5-5.6-26.2-8.4-39.9-8.2-21.4 0-46.6 11.7-46.6 36.6 0 23.5 18.2 32.2 34.1 38.1l2.5 1c11.3 4 20.8 7.1 20.8 13.5 0 5.5-7.3 8.2-17 8.2-7.2-.2-14.2-1.9-20.8-4.7l-2.5-1.1-5.4 5.3-15.8 15.9s.8.5 2.2 1.4c13.2 7.7 28.3 11.7 43.6 11.6 20.9 0 49.1-11.5 49.1-38.6 0-20.7-14.9-30.2-29.4-36.3l-2.5-1c-13-5.2-25.2-7.9-25.2-13.9s6.9-7.9 14.2-7.9"/><path fill-rule="evenodd" class="s1" d="M403.6 319.3c0 33.4-24.7 62.1-62.6 62.1-38 0-62.6-28.7-62.6-62.1 0-35.2 24.4-63.7 62.6-63.7 38.1 0 62.6 28.2 62.6 63.7m-33 0c0-20.2-11.2-35.2-29.6-35.2-18.5 0-30 15-30 35.2 0 19.7 11.5 33.7 30 33.7 18.4 0 29.6-14 29.6-33.7"/><path class="s1" d="M491.6 257.3h32.7v76.9c0 28.7-26 47.1-51.7 47.1-25.6 0-51.6-18.4-51.6-47.1v-76.9h32.4v75.3c0 13.3 9.3 20.3 19.2 20.3 10 0 19-7.3 19-20.3z"/><path fill-rule="evenodd" class="s1" d="M581.1 341.5v38.1h-32.4V257.3h47.9c26.9 0 44.4 19 44.4 41.4 0 20.2-10.2 31.7-20.2 36.9l27.2 44h-37.9l-22-38.2zm28-42.4c0-3.4-1.3-6.8-3.7-9.3s-5.7-3.9-9.2-3.9q-.5-.1-1.1 0h-14v27.2h14c1.7.1 3.5-.2 5.1-.8 1.7-.6 3.2-1.5 4.5-2.6 1.3-1.2 2.3-2.6 3.1-4.2.7-1.6 1.2-3.3 1.3-5.1z"/><path class="s0" d="m765.9 265.5 11.7-11.7-1.8-1.8-12.2 12.2c.9.5 2.3 1.3 2.3 1.3M694.7 333q.4 1.3.9 2.5l47.4-47.4s-1.4-.8-2.3-1.2zm-73.1 73 1.8 1.7 49.5-49.5q-.7-.9-1.5-2z"/><path class="s1" d="M723.8 284.3c5.5.1 11 1 16.2 2.5l.7.3c.9.4 2.2 1.1 2.3 1.2l10.2-10.2 12.6-12.6s-1.3-.9-2.2-1.3l-.3-.2-1.4-.6c-1.2-.8-16.4-7.8-39.4-7.8-38.1 0-62.6 28.5-62.6 63.7-.1 13.2 4 26.1 11.6 36.9q.7 1.1 1.5 2c10.8 14 28 23.2 49.5 23.2 14.3 0 28.4-3.3 41.2-9.5l-10.2-26.5s-16.5 7.7-29.7 7.7c-14.5 0-23.8-6.9-28.2-17.4-.4-.9-.7-1.7-1-2.5-1.3-4.4-2-8.9-1.9-13.5 0-20 10.4-35.4 31.1-35.4m90.8 66.9v-18.7h42.2v-28.2h-42.5v-18.5H873v-28.4h-91.1v122.3h50.4l28.4-28.5z"/><path class="s0" d="M882.2 351.2h-21.5l-28.4 28.5h21.5z"/><path fill-rule="evenodd" class="s1" d="M210.6.8c3.5-.9 7.2-.8 10.7.3s6.6 3 9 5.8c2.4 2.7 4.1 6 4.8 9.5.7 3.6.4 7.3-.9 10.7-1.2 3.4-3.4 6.4-6.2 8.7-2.9 2.3-6.3 3.7-9.9 4.2s-7.2 0-10.6-1.4L69.3 176.8l-10.4-10.5L197 28.1c-1.5-3.7-1.9-7.7-1.2-11.6.8-3.9 2.7-7.5 5.5-10.4 2.5-2.5 5.8-4.4 9.3-5.3m10.1 24.6c1.4-1.4 2.1-3.3 2-5.2 0-1.9-.8-3.8-2.2-5.1-1.4-1.1-3.2-1.6-5-1.5s-3.5.9-4.8 2.2-2 3-2.2 4.8c-.1 1.8.4 3.6 1.5 5l.3.3q1 .9 2.3 1.5 1.4.5 2.8.4 1.5 0 2.8-.6t2.3-1.6c.1-.1.2-.1.2-.2"/><path class="s0" d="M561.3 136.8h-9.9V87.9H584v8.8h-22.7V108h17.1v8.7h-17.1zm29.8-48.9h10v48.9h-10z"/><path fill-rule="evenodd" class="s0" d="M622.1 120.3v16.5h-10V87.9h18c10.4 0 17.2 7.2 17.2 15.9.2 3.2-.6 6.4-2.3 9.2-1.8 2.7-4.3 4.8-7.3 6l11 17.8h-11.9l-9.4-16.5zm15.5-16.3c.1-1.9-.6-3.7-1.9-5.1-1.3-1.3-3-2.2-4.9-2.2h-8.7v14.9h8.4q1.4 0 2.8-.6c.8-.4 1.6-.9 2.3-1.6q1-1.1 1.5-2.5.5-1.3.5-2.8z"/><path class="s0" d="m694.8 103.4-10.6 14h-5.6l-10.5-14h-.3v33.4h-10V87.9h9.9l13.8 18 13.6-18h9.9v48.9h-10v-33.4zm20-15.5h9.7l2.9 37.5h.3l8.4-17.5h7.8l8.3 17.5h.3l2.8-37.4h9.8l-5.2 48.9h-10l-9.7-19.4h-.5l-9.7 19.4h-10z"/><path fill-rule="evenodd" class="s0" d="M812.8 136.8h-10V121h-18.7v15.8h-10v-31.7c.1-5 2.2-9.7 5.7-13.1 3.6-3.5 8.5-5.4 13.4-5.3h.2c9.8 0 19.3 7.9 19.3 18.4zm-10-30.5c0-7-4.1-10.8-9.3-10.8-5.3 0-9.5 3.8-9.5 10.8v6h18.8zm30.4 14v16.5h-10V87.9h18c10.4 0 17.2 7.2 17.2 15.9.2 3.2-.6 6.4-2.3 9.2-1.8 2.7-4.3 4.8-7.3 6l11.1 17.8H848l-9.5-16.5zm15.6-16.3q0-1.4-.5-2.7-.5-1.4-1.4-2.4-1-1-2.3-1.6t-2.7-.6h-8.7v14.9h8.4q1.5 0 2.8-.6t2.3-1.6q1-1.1 1.6-2.5.5-1.3.5-2.8z"/><path class="s0" d="M904.2 136.8H869V87.9h34.5v8.8h-24.6V108h17.4v8.7h-17.4v11.4h25.3zm-315.3 70.8c-4.9 2.4-10.4 3.5-15.8 3.4-17.5 0-24.5-13.3-24.5-25 0-14.8 10-25.4 25-25.4 5-.3 10 .7 14.7 2.7l-3.1 8.3c-3.5-1.5-7.2-2.3-11-2.3-9.1 0-15.8 5.9-15.8 16.7 0 9.6 5.4 16.2 15.8 16.2 4.1-.1 8.1-1.1 11.7-2.8z"/><path fill-rule="evenodd" class="s0" d="M643.5 186.1c.1 3.2-.4 6.3-1.5 9.2-1 3-2.7 5.7-4.8 8s-4.7 4.2-7.6 5.5c-2.8 1.3-5.9 2-9 2.1h-1.8c-15.2 0-24.5-11.3-24.5-24.8 0-14.1 9.3-25.4 24.5-25.4 15.3 0 24.7 11.3 24.7 25.4m-10 0c0-9.5-5.5-16.6-14.6-16.6s-14.6 7.1-14.6 16.6c0 9.6 5.7 16.2 14.6 16.2s14.4-6.6 14.4-16.2z"/><path class="s0" d="M682.2 181.2v-19.8h10v48.9h-10V194L662 174.8h-.3v35.5h-10v-48.9h9.3l20.8 19.8zm31.1 29.1h-10v-48.9h32.6v8.7h-22.6v11.4h17.1v8.6h-17.1zm64.9 0h-35.3v-48.9h34.6v8.7h-24.7v11.4h17.5v8.6h-17.5v11.5h25.4z"/><path fill-rule="evenodd" class="s0" d="M796.4 193.8v16.5h-10v-48.9h18c10.5 0 17.2 7.2 17.2 15.9.2 3.2-.6 6.4-2.3 9.2-1.7 2.7-4.3 4.8-7.3 6l11.1 17.8h-11.9l-9.5-16.5zm15.6-16.3c0-1.9-.6-3.7-1.9-5.1s-3.1-2.2-4.9-2.2h-8.7v14.9h8.3c1 0 2-.2 2.8-.6q1.4-.6 2.4-1.6 1-1.1 1.5-2.5.5-1.3.5-2.8z"/><path class="s0" d="M867.4 210.3h-35.2v-48.9h34.5v8.7h-24.6v11.4h17.4v8.6h-17.4v11.5h25.3zm38.8-29.1v-19.8h10v48.9h-10V194l-20.3-19.2h-.2v35.5h-10v-48.9h9.3l20.8 19.8zm58.6 26.4c-5 2.4-10.4 3.5-15.9 3.4-17.4 0-24.4-13.3-24.4-25 0-14.8 10-25.4 25-25.4 5-.3 10 .7 14.6 2.7l-3.1 8.3c-3.4-1.5-7.1-2.3-10.9-2.3-9.1 0-15.8 5.9-15.8 16.7 0 9.6 5.4 16.2 15.8 16.2 4-.1 8-1.1 11.7-2.8zm43.2 2.7h-35.3v-48.9h34.6v8.7h-24.6v11.4h17.5v8.6h-17.5v11.5h25.3z"/><path fill-rule="evenodd" class="s1" d="m903.4 351-87.1 87c1.9 4.3 2.1 9.1.8 13.5-1.3 4.5-4.1 8.4-7.9 11-3.9 2.6-8.5 3.8-13.1 3.3-4.6-.4-9-2.5-12.3-5.7-3.2-3.3-5.3-7.6-5.7-12.3-.5-4.6.7-9.2 3.3-13.1 2.6-3.8 6.5-6.6 11-7.9 4.4-1.4 9.2-1.1 13.5.8l76.3-76.4zm-110.9 90c-1.3 1.4-2 3.3-2 5.2s.8 3.7 2.2 5.1l.1.1c1.1 1.1 2.4 1.8 3.9 2 1.4.3 2.9.1 4.3-.4 1.3-.6 2.5-1.6 3.3-2.8q1.2-1.95 1.2-4.2c0-1.5-.4-3-1.3-4.2-.8-1.2-2-2.1-3.4-2.7-1.4-.5-2.9-.7-4.3-.4-1.5.3-2.8 1.1-3.8 2.1z"/><path fill-rule="evenodd" class="s0" d="M203.2 442.5c-10.7 0-19.1 3.7-19.1 3.7l-3.4-10.1s9.8-4.4 22.5-4.4c16.2 0 27.6 9.9 27.6 25.5 0 11.1-7.4 18.5-11.3 22.3l-26.4 25.9v.4h37.6v11.1h-52.9v-12.5l30.3-30.1c4.1-4.1 10.3-10.1 10.3-17.7 0-8.4-7.8-14.1-15.2-14.1m68.6-10.7c14.4 0 24.9 10.4 26.7 23.7 1.5 10.2 2.3 23 2.3 34.8 0 14.2-11.3 27.5-29 27.5-17.6 0-28.9-13.3-28.9-27.5 0-11.8.8-24.6 2.3-34.8 1.8-13.3 12.3-23.7 26.6-23.7m0 75.2c11.3 0 16.8-7.9 16.8-16.3 0-9.5-.8-25.6-2.1-34.8-1-6.8-6.4-13-14.6-13-8.3 0-13.7 6.2-14.7 13-1.3 9.2-2.1 25.3-2.1 34.8 0 8.4 5.1 16.3 16.7 16.3m63.5-64.5c-10.7 0-19.2 3.7-19.2 3.7l-3.3-10.1s9.7-4.4 22.5-4.4c16.1 0 27.5 9.9 27.5 25.5 0 11.1-7.4 18.5-11.3 22.3l-26.3 25.9v.4h37.5v11.1h-52.8v-12.5l30.2-30.1c4.1-4.1 10.3-10.1 10.3-17.7 0-8.4-7.8-14.1-15.1-14.1m89.5 40.6h12v11.1h-12v22.7H412v-22.7h-38.9v-12.6l27.4-51 10.4 6.4-24.2 45.4v.7H412v-20h12.8zm50.7-40.6c0 5.7 16.7 4.3 16.7 15.2 0 7-7.4 10-13.2 10-6.8 0-11.2-2.9-11.2-2.9l2.5-5.7c2.7 1.8 5.4 2.7 8.6 2.7 3.3 0 6.2-1.1 6.2-3.8 0-5.8-16.5-4.4-16.5-14.9 0-6.8 6.4-9.8 12.4-9.8 5.7 0 9.6 1.8 9.6 1.8l-2.1 5.7s-3.7-1.7-7.4-1.7c-2.9 0-5.6 1-5.6 3.4m46 18.7v6h-24.1v-33.4h23.7v5.9h-16.9v7.8h11.9v5.9h-11.9v7.8zm18.2-27.4c7.2 0 11.7 4.9 11.7 10.8 0 8.1-5.9 11.8-11.3 11.8H534v10.8h-6.8v-33.4zm-5.6 5.9v10.7h5.8c3.4 0 4.9-2.5 4.9-5.4 0-2.8-2.1-5.3-4.5-5.3zm19.3-5.9h27.4v5.9h-10.3v27.5h-6.8v-27.5h-10.3zm55.7 27.5v6h-24v-33.5h23.6v6h-16.8v7.7h11.9v6h-11.9v7.8zm31.1-16.9h-.2l-7.2 9.5H629l-7.2-9.5h-.2v22.9h-6.8v-33.5h6.7l9.5 12.3 9.3-12.3h6.7v33.5h-6.8zm38.7-.9c0 2.9-1.6 4.8-3.4 6.2 2.8 1.6 4.4 4 4.4 8.1 0 5.8-4.9 9.4-10.7 9.4h-14.5v-33.4h12.4c6.7 0 11.8 3.3 11.8 9.7m-11.2 17.8c3.9 0 5.6-1.4 5.6-4 0-2.7-2.2-4.2-5.8-4.2h-6v8.2zm-6.2-21.5v7.3h5.7c3.1 0 4.9-1.6 4.9-3.6 0-2.7-2.4-3.7-4.7-3.7zm48.6 21.5v5.9h-24v-33.4h23.6v6h-16.8v7.7h11.8v5.9h-11.8v7.9zm16.1-5.4h-3.6v11.3h-6.8v-33.4h12.3c7.1 0 11.8 4.9 11.8 10.9 0 6.3-3.9 9.3-6.6 10.4l7.5 12.1h-8.1zm2.1-5.9c2.8 0 4.9-2.4 4.9-5.2s-2.1-5-4.9-5h-5.7V450zM491 493c.7 4 .8 8.3.8 13.6 0 5.6-4.7 10.9-11.7 10.9s-11.7-5.3-11.7-10.9c0-5.3.1-9.6.8-13.6.9-5.2 5.2-9.6 10.8-9.6 5.7 0 10.1 4.4 11 9.6m-5.4 12.9c0-4.6-.2-8.7-.8-12-.4-2.4-1.9-4.6-4.7-4.6-2.7 0-4.3 2.2-4.7 4.6-.6 3.3-.8 7.4-.8 12 0 2.7 1.6 5.9 5.5 5.9s5.5-3.2 5.5-5.9m26.8-7.1v.2c3 1.2 4.9 3.9 4.9 8.2 0 6-4.5 10.4-12.6 10.4-5.1 0-9.1-1.9-9.1-1.9l1.7-5.7s3.9 1.7 7.3 1.7c4.1 0 6.2-1.6 6.2-4.5 0-2.8-2.2-4.5-4.8-4.5-1.3 0-3.2.1-3.2.1v-5.7c2.8 0 6.8-1.3 6.8-4.7 0-1.8-1.8-3.4-4.5-3.4-3.5 0-6.9 1.8-6.9 1.8l-2-5.4s3.8-2.2 9.9-2.2c6 0 10 3.7 10 9.3 0 3.1-2 5.3-3.7 6.3m21.4 3h24.6v4.9h-24.6zm63.6-8.9c.7 4 .8 8.3.8 13.6 0 5.6-4.6 10.9-11.7 10.9-7 0-11.7-5.3-11.7-10.9 0-5.3.1-9.6.8-13.6.9-5.2 5.2-9.6 10.9-9.6 5.6 0 10 4.4 10.9 9.6m-5.4 12.9c0-4.6-.2-8.7-.8-12-.4-2.3-1.9-4.6-4.7-4.6-2.7 0-4.3 2.3-4.7 4.6-.6 3.3-.8 7.4-.8 12 0 2.7 1.6 5.9 5.5 5.9s5.5-3.2 5.5-5.9m18.4-16.3-.9 5.8c.8-.2 2-.3 3.2-.3 6.2 0 11 4.7 11 11 0 6.2-4.2 11.5-12.3 11.5-4.9 0-9.1-2-9.1-2l1.7-5.8s4.2 1.9 7.3 1.9c4.1 0 6-2.6 6-5.6 0-3.1-2.2-5.1-5.6-5.1-3.3 0-6.3 1.7-6.3 1.7l-2.7-4.6 2-14.4h17.2v5.9z"/></svg>