<svg fill="none" viewBox="0 0 1008 515">
    <path d="m0 275.412 1.7461 1.747 70.0935-70.148c-.7483-.25-1.7461-.749-2.4944-.998L0 275.412ZM96.0357 182.796l29.1853-29.207c.249-1.248.249-2.496.249-3.745l-32.677 32.703c.9977.249 1.9955.249 2.9933.249h.2494ZM168.873 109.902l-1.746-1.747-13.969 13.98c.25.748.749 1.747.998 2.496l14.717-14.729ZM84.3118 180.799c-4.49-1.747-8.2317-4.493-11.225-8.238L51.3853 194.28c3.2427 2.995 6.7349 5.991 10.726 8.238l22.2005-21.719ZM274.887 269.67l16.213-16.227-1.746-1.747-16.712 16.726 2.245 1.248ZM251.439 289.89l-15.465 15.478c.748.249 1.746.749 2.494.998l15.466-15.477h-.25s-.998-.499-2.245-.999ZM213.772 330.831c-.748-.25-1.746-.749-2.494-.999l-16.962 16.975c.748.25 1.497.749 2.494.999l16.962-16.975ZM172.864 368.027l-37.666 37.695 1.746 1.747 38.165-37.945c-1.497-.748-2.245-1.497-2.245-1.497ZM765.791 265.176l11.724-11.733-1.747-1.747-12.222 12.232c.998.499 2.245 1.248 2.245 1.248ZM694.699 332.828c.25.998.499 1.747.998 2.496l47.394-47.431s-1.496-.749-2.245-1.248l-46.147 46.183ZM621.612 405.722l1.746 1.747 49.639-49.428c-.498-.749-.997-1.248-1.496-1.997l-49.889 49.678ZM882.031 351.051h-21.203l-28.436 28.459h21.202l28.437-28.459Z" fill="#F96360"/>
    <path d="M201.301 5.804c-5.987 5.9913-7.234 14.7286-4.241 21.9681L58.8687 166.071l10.4766 10.484L207.537 38.2568c7.234 2.9956 15.964 1.7475 21.951-4.2438 7.732-7.7388 7.732-20.4702 0-28.209-7.733-7.7387-20.455-7.7387-28.187 0Zm19.207 19.4717c-2.994 2.9956-7.733 2.9956-10.477 0-2.744-2.9956-2.993-7.7387 0-10.4847 2.994-2.746 7.733-2.9957 10.477 0 2.993 2.9956 2.993 7.4891 0 10.4847Z" fill="#fff"/>
    <path d="M561.247 136.614h-9.977V87.6848h32.677v8.7373h-22.7v11.2339h17.212v8.737h-17.212v20.221ZM590.931 87.6848h9.977v48.9292h-9.977V87.6848ZM622.111 119.888v16.476h-9.978V87.6848h17.96c10.477 0 17.212 7.2395 17.212 15.9772 0 9.236-5.488 13.73-9.729 15.227l10.976 17.725h-11.973l-9.479-16.476h-4.989v-.25Zm15.465-16.226c0-4.2443-2.993-7.2399-7.233-7.2399h-8.481V111.4h8.481c4.24 0 7.233-3.495 7.233-7.738ZM694.699 102.913l-10.726 13.979h-5.487l-10.477-13.979h-.25v33.451h-9.977V87.6848h9.728l13.719 17.9742 13.72-17.9742h9.728v48.9292h-9.978v-33.701ZM714.904 87.6848h9.729l2.743 37.4452h.25l8.481-17.474h7.733l8.231 17.474h.25l2.744-37.4452h9.728l-5.238 48.9292h-9.978l-9.728-19.472h-.499l-9.729 19.472h-9.977l-4.74-48.9292ZM812.935 136.613h-9.977v-15.727h-18.709v15.727h-9.978V104.91c0-11.234 9.479-18.4735 19.457-18.4735 9.978 0 19.207 7.9884 19.207 18.4735v31.703Zm-9.977-30.455c0-6.99-4.241-10.9842-9.479-10.9842-5.239 0-9.479 3.7445-9.479 10.9842v5.991h18.708v-5.991h.25ZM833.14 119.888v16.476h-9.977V87.6848h17.959c10.477 0 17.212 7.2395 17.212 15.9772 0 9.236-5.488 13.73-9.728 15.227l10.975 17.725h-11.973l-9.479-16.476h-4.989v-.25Zm15.715-16.226c0-4.2443-2.993-7.2399-7.234-7.2399h-8.481V111.4h8.481c4.241 0 7.234-3.495 7.234-7.738ZM904.232 136.614H869.06V87.6848h34.673v8.7373h-24.695v11.2339h17.461v8.737h-17.461v11.483h25.194v8.738ZM588.935 207.261s-5.986 3.495-15.964 3.495c-17.461 0-24.446-13.231-24.446-24.964 0-14.729 9.978-25.463 24.945-25.463 9.728 0 14.717 2.746 14.717 2.746l-2.993 8.238s-4.74-2.247-10.976-2.247c-8.98 0-15.715 5.992-15.715 16.726 0 9.486 5.488 16.226 15.715 16.226 5.987 0 11.724-2.746 11.724-2.746l2.993 7.989ZM643.314 185.792c0 13.48-9.479 24.714-24.695 24.714-15.216 0-24.695-11.234-24.695-24.714 0-14.229 9.479-25.463 24.695-25.463 15.466 0 24.695 11.483 24.695 25.463Zm-9.978 0c0-9.486-5.487-16.726-14.717-16.726-8.98 0-14.717 7.24-14.717 16.726 0 9.486 5.737 16.226 14.717 16.226 9.23 0 14.717-6.49 14.717-16.226ZM682.227 180.799v-19.721h9.978v48.929h-9.978v-16.476l-20.205-19.222h-.249v35.698h-9.978v-48.929h9.229l20.953 19.721h.25ZM713.158 210.007h-9.978v-48.929h32.677v8.737h-22.699v11.234h17.212v8.737h-17.212v20.221ZM778.263 210.007h-35.172v-48.929h34.673v8.737h-24.695v11.234h17.461v8.737h-17.461v11.483h25.194v8.738ZM796.472 193.531v16.476h-9.978v-48.929h17.96c10.477 0 17.212 7.239 17.212 15.977 0 9.236-5.488 13.73-9.729 15.228l10.976 17.724H810.94l-9.479-16.476h-4.989Zm15.465-16.476c0-4.244-2.993-7.24-7.233-7.24h-8.482v14.978h8.482c4.24 0 7.233-3.494 7.233-7.738ZM867.314 210.007h-35.171v-48.929h34.672v8.737H842.12v11.234h17.461v8.737H842.12v11.483h25.194v8.738ZM906.227 180.799v-19.721h9.978v48.929h-9.978v-16.476l-20.205-19.222h-.249v35.698h-9.978v-48.929h9.229l20.953 19.721h.25ZM964.846 207.261s-5.986 3.495-15.964 3.495c-17.461 0-24.445-13.231-24.445-24.964 0-14.729 9.977-25.463 24.944-25.463 9.728 0 14.717 2.746 14.717 2.746l-2.993 8.238s-4.74-2.247-10.976-2.247c-8.98 0-15.715 5.992-15.715 16.726 0 9.486 5.488 16.226 15.715 16.226 5.987 0 11.724-2.746 11.724-2.746l2.993 7.989ZM1008 210.007h-35.172v-48.929h34.672v8.737h-24.694v11.234h17.464v8.737h-17.464v11.483H1008v8.738Z" fill="#F96360"/>
    <path d="M154.156 124.631c-.25-.749-.749-1.748-.998-2.496-9.23-21.719-29.933-36.697-57.3721-36.697-38.1648 0-62.8596 28.209-62.8596 63.408 0 17.724 6.7349 33.95 18.7082 45.433l21.7016-21.718c-4.7395-5.991-7.4833-13.98-7.4833-23.715 0-20.221 11.4743-35.199 29.9331-34.949 18.4591 0 29.6841 15.227 29.6841 35.198v.999c0 1.248 0 2.496-.25 3.744-1.746 17.225-12.472 28.709-29.1846 29.208h-.2495c-.9977 0-1.9955 0-2.9933-.25L69.345 206.262c.7483.25 1.7461.749 2.4944.999 6.9844 2.746 15.216 4.243 23.9465 4.243 38.1651 0 62.8601-28.458 62.8601-61.909 0-8.987-1.746-17.475-4.49-24.964ZM269.648 129.124c0 30.706-22.7 44.436-42.905 44.436h-16.962v36.447h-32.427l.249-122.3222h48.143c26.69 0 44.151 18.9722 43.902 41.4392Zm-59.867 15.977h13.72c9.229 0 14.218-6.49 14.218-14.479 0-7.988-5.239-14.229-14.468-14.229h-13.719l.249 28.708ZM379.652 210.007h-92.793l.25-122.3222h91.047v28.4582h-58.62v18.473h42.156v28.209h-42.156v18.723h60.366l-.25 28.459ZM429.791 87.6848l41.906 39.9422V87.6848h32.428l-.25 122.3222h-32.427v-40.192l-40.161-37.945-.249 78.137H398.61l.25-122.3222h30.931ZM224.998 283.4c9.978 0 21.452 4.493 26.441 6.49 1.497.5 2.245.999 2.245.999h.249l21.203-21.219-2.245-1.248-9.229-4.993s-15.965-8.238-39.911-8.238c-21.452 0-46.646 11.733-46.646 36.696 0 23.466 18.209 32.203 34.174 38.195.748.249 1.746.749 2.494.998 11.225 3.994 20.704 7.24 20.704 13.73 0 5.492-7.234 8.238-16.962 8.238-7.484 0-14.967-2.246-20.954-4.743-.748-.249-1.746-.749-2.494-.998l-5.488 5.242-15.715 15.977s.749.499 2.245 1.498c5.488 3.245 21.452 11.732 43.653 11.732 20.953 0 49.14-11.483 49.14-38.693 0-20.72-14.966-30.206-29.434-36.197-.749-.25-1.746-.749-2.495-.999-12.971-5.242-25.193-7.988-25.193-13.98 0-6.49 6.984-8.487 14.218-8.487ZM403.599 319.098c0 33.451-24.695 62.159-62.61 62.159-38.165 0-62.611-28.708-62.611-62.159 0-35.199 24.446-63.658 62.611-63.658 37.915 0 62.61 28.209 62.61 63.658Zm-32.927 0c0-20.221-11.225-35.199-29.683-35.199-18.459 0-29.934 14.978-29.934 35.199 0 19.721 11.475 33.701 29.934 33.701 18.209 0 29.683-13.98 29.683-33.701ZM491.653 257.188h32.677v76.888c0 28.708-25.942 47.181-51.635 47.181-25.443 0-51.635-18.473-51.635-47.181v-76.888h32.428v75.39c0 13.231 9.229 20.221 19.207 20.221 9.728 0 18.958-7.24 18.958-20.221v-75.39ZM581.203 341.315v38.195h-32.428V257.188h47.893c26.94 0 44.401 18.972 44.401 41.44 0 20.22-10.227 31.703-20.205 36.946l27.189 43.936h-37.915l-21.951-38.195h-6.984Zm27.937-42.438c0-6.99-4.989-13.231-13.969-13.231h-13.968v27.211h13.968c8.98 0 13.969-6.491 13.969-13.98ZM723.884 284.149c5.488 0 12.472 1.248 16.214 2.496.249 0 .499.25.748.25.998.499 2.245 1.248 2.245 1.248l10.227-10.235 12.722-12.732s-1.247-.749-2.245-1.248c0 0-.25 0-.25-.25-.997-.499-1.247-.748-1.247-.748-1.247-.749-16.463-7.739-39.412-7.739-38.165 0-62.61 28.458-62.61 63.657 0 13.73 3.991 26.462 11.474 36.946.499.749.998 1.248 1.497 1.997 10.975 13.98 27.938 23.217 49.639 23.217 23.697 0 41.158-9.487 41.158-9.487l-10.227-26.461s-16.463 7.739-29.684 7.739c-14.467 0-23.697-6.99-28.187-17.475-.249-.749-.748-1.747-.997-2.496-1.248-4.244-1.996-8.738-1.996-13.481-.249-19.721 10.227-35.198 30.931-35.198ZM814.681 351.051v-18.723h42.156V304.12h-42.405v-18.474h58.619v-28.458h-91.047V379.51h50.388l28.436-28.459h-46.147ZM882.28 351.051l-76.329 76.389c-7.234-2.996-15.965-1.747-21.951 4.244-7.733 7.739-7.733 20.47 0 28.209 7.732 7.739 20.454 7.739 28.187 0 5.986-5.991 7.234-14.729 4.24-21.968l87.056-87.123-21.203.249Zm-89.55 89.62c2.994-2.996 7.733-2.996 10.477 0 2.993 2.995 2.993 7.739 0 10.485-2.993 2.995-7.733 2.995-10.477 0-2.993-2.996-2.993-7.739 0-10.485Z" fill="#fff"/>
    <path d="M203.273 438.934c7.41 0 15.305 5.709 15.305 14.211 0 7.653-6.316 13.726-10.446 17.856l-30.488 30.367V514h53.324v-11.175H193.07v-.486l26.601-26.115c3.887-3.765 11.418-11.296 11.418-22.471 0-15.669-11.539-25.751-27.816-25.751-12.875 0-22.714 4.494-22.714 4.494l3.401 10.203s8.503-3.765 19.313-3.765Zm69.162 65.106c-11.661 0-16.884-8.017-16.884-16.52 0-9.595.85-25.75 2.187-35.103.971-6.802 6.437-13.119 14.818-13.119 8.26 0 13.726 6.317 14.698 13.119 1.336 9.353 2.186 25.508 2.186 35.103 0 8.503-5.587 16.52-17.005 16.52Zm0-75.917c-14.455 0-25.022 10.568-26.844 23.929-1.458 10.325-2.308 23.2-2.308 35.104 0 14.333 11.418 27.694 29.152 27.694 17.855 0 29.273-13.361 29.273-27.694 0-11.904-.85-24.779-2.308-35.104-1.822-13.361-12.389-23.929-26.965-23.929Zm64.048 10.811c7.409 0 15.304 5.709 15.304 14.211 0 7.653-6.316 13.726-10.446 17.856l-30.488 30.367V514h53.324v-11.175H326.28v-.486l26.601-26.115c3.887-3.765 11.417-11.296 11.417-22.471 0-15.669-11.539-25.751-27.815-25.751-12.876 0-22.714 4.494-22.714 4.494l3.401 10.203s8.502-3.765 19.313-3.765Zm63.817 0c7.409 0 15.305 5.709 15.305 14.211 0 7.653-6.317 13.726-10.447 17.856l-30.488 30.367V514h53.324v-11.175h-37.897v-.486l26.601-26.115c3.887-3.765 11.418-11.296 11.418-22.471 0-15.669-11.54-25.751-27.816-25.751-12.876 0-22.714 4.494-22.714 4.494l3.401 10.203s8.502-3.765 19.313-3.765ZM477.922 438.575c0-2.407 2.793-3.419 5.682-3.419 3.708 0 7.513 1.782 7.513 1.782l2.071-5.779s-3.949-1.83-9.68-1.83c-6.02 0-12.521 3.034-12.521 9.872 0 10.643 16.663 9.199 16.663 15.074 0 2.697-2.938 3.756-6.261 3.756-3.275 0-5.923-.915-8.716-2.697l-2.505 5.731s4.479 2.938 11.317 2.938c5.876 0 13.292-2.986 13.292-10.113 0-10.932-16.855-9.584-16.855-15.315Zm46.437 18.926h-17.433v-7.898h11.992v-5.971h-11.992v-7.802h17v-6.019h-23.838v33.71h24.271v-6.02Zm18.35-27.69h-12.57v33.71h6.839v-10.884h6.116c5.49 0 11.413-3.708 11.413-11.894 0-5.972-4.575-10.932-11.798-10.932Zm-5.731 6.019h6.26c2.456 0 4.575 2.505 4.575 5.346s-1.493 5.442-4.96 5.442h-5.875V435.83Zm19.466-6.019v6.019h10.45v27.691h6.838V435.83h10.402v-6.019h-27.69Zm56.282 27.69h-17.433v-7.898h11.992v-5.971h-11.992v-7.802h17v-6.019h-23.838v33.71h24.271v-6.02Zm31.448-17.047v23.067h6.839v-33.71h-6.79l-9.391 12.376-9.535-12.376h-6.791v33.71h6.839v-23.067h.192l7.272 9.631h3.853l7.32-9.631h.192Zm39.006-.915c0-6.454-5.153-9.728-11.943-9.728h-12.521v33.71h14.64c5.923 0 10.787-3.66 10.787-9.535 0-4.094-1.589-6.501-4.43-8.187 1.878-1.348 3.467-3.275 3.467-6.26Zm-11.317 17.962h-6.26v-8.235h6.067c3.612 0 5.827 1.493 5.827 4.238 0 2.601-1.637 3.997-5.634 3.997Zm-6.26-21.671h5.971c2.36 0 4.768 1.06 4.768 3.709 0 2.022-1.83 3.708-5.009 3.708h-5.73v-7.417Zm49.082 21.671h-17.433v-7.898h11.991v-5.971h-11.991v-7.802h16.999v-6.019h-23.838v33.71h24.272v-6.02Zm16.278-5.393 6.55 11.413h8.186l-7.609-12.28c2.794-1.06 6.646-4.094 6.646-10.498 0-5.972-4.671-10.932-11.847-10.932h-12.424v33.71h6.838v-11.413h3.66Zm2.119-5.972h-5.779V435.83h5.779c2.841 0 4.912 2.216 4.912 5.057s-2.071 5.249-4.912 5.249ZM480.57 479.811h-10.883v6.019h4.334v27.691h6.549v-33.71Zm20.813 21.285c-2.553 4.816-7.128 6.502-10.017 7.128l1.878 5.875c11.124-2.89 15.892-11.365 15.892-20.852 0-7.368-2.938-13.918-11.413-13.918-6.405 0-11.365 4.479-11.365 11.317 0 7.272 4.815 11.414 11.028 11.414 1.492 0 2.937-.578 3.9-1.108l.097.144Zm-3.66-4.96c-3.082 0-4.961-2.697-4.961-5.49s1.879-5.49 4.961-5.49c3.082 0 4.912 2.745 4.912 5.49 0 3.179-1.83 5.49-4.912 5.49Zm20.776 6.839H543.3v-4.864h-24.801v4.864Zm43.749-17.819c2.648 0 5.249 2.023 5.249 4.672 0 2.504-2.167 4.623-3.66 6.116l-11.654 11.557v6.02h21.767v-6.02h-13.099v-.192l8.524-8.235c1.589-1.589 4.623-4.96 4.623-9.054 0-6.357-4.719-10.691-11.028-10.691-5.49 0-9.68 2.023-9.68 2.023l1.782 5.538s3.564-1.734 7.176-1.734Zm26.244-5.345h-10.884v6.019h4.335v27.691h6.549v-33.71Z" fill="#F96360"/>
</svg>