<svg xmlns="http://www.w3.org/2000/svg" fill="none" viewBox="0 0 175 175" aria-hidden="true" focusable="none">
  <path fill="#7173B0" d="M104.8 139.2s10.6-4.3 18.7-19c8.1-14.6 22.8-15.5 38.2-12.6 0 0-8.1 1.7-10.7 8.3-3.2 7.9-1.3 29.8-18 33.5-19.2 4.1-28.2-10.2-28.2-10.2Z"/>
  <path fill="#7173B0" d="M135.4 109a24 24 0 0 0-6.7 4.4c13 7.4 12.5 29.2 7.9 34.8 5.5-2.5 8.4-7.4 10.1-12.8.8-17-8.3-24.5-11.3-26.5ZM148.3 106.3c-1.9 0-3.8.2-5.7.5a17 17 0 0 1 8 10.3c0-.5.2-.9.4-1.2.6-1.5 1.5-3 2.7-4-.8-4-4-5.3-5.4-5.6ZM121.6 123.4a52.3 52.3 0 0 1-4 5.4c5.3 9 1.2 18.1.2 20 1.8.6 3.8 1 5.7 1.2 7.6-12.2-.6-24.7-1.9-26.6Z"/>
  <path fill="#4F51A9" d="m117.7 128.8-2 2.2c-.7.8-3.8 4.3-4.8 5l2.2 10.7c1.5.9 3 1.6 4.7 2.1 1-1.9 5.1-11-.1-20ZM128.7 113.4a28 28 0 0 0-5.2 6.8l-1.9 3.2c1.3 2 9.5 14.4 2 26.6a30.5 30.5 0 0 0 13-1.8c4.6-5.6 5-27.4-8-34.8ZM142.6 106.8c-2.5.4-5 1-7.2 2.1 3 2 12.1 9.5 11.3 26.5 2.1-6.6 2.5-14 3.9-18.3a17 17 0 0 0-8-10.3ZM148.3 106.3c1.4.3 4.6 1.6 5.4 5.6 3.4-3.3 8-4.3 8-4.3-4.6-.9-9-1.4-13.4-1.3Z"/>
  <path fill="#7173B0" d="M94.6 91.4S80 93.2 75 93.2c-4.9 0-19.6-1.8-19.6-1.8s-39.3 23-18.3 43.7l-.4 23c0 2.5 1.8 4.5 4.1 4.5h19A4.1 4.1 0 0 0 64 159c.7-9.2 11-8.8 11-8.8s10.3-.4 11.1 8.8a4.1 4.1 0 0 0 4 3.7h19.1c2.3 0 4.2-2 4.1-4.4L113 135c21-20.8-18.4-43.7-18.4-43.7"/>
  <path fill="#F96360" d="M89 116.6 59 146.4l.4.4L89.3 117l-.3-.4Z"/>
  <path fill="#fff" d="M90.4 104.2a4.5 4.5 0 0 0-4.7 6.7l-22.3 22.2 1.6 1.6 22.3-22.2 1.2.4a4.5 4.5 0 0 0 1.9-8.7Zm1.2 4.8a2.2 2.2 0 1 1-4.3-.9 2.2 2.2 0 0 1 4.3 1Z"/>
  <path fill="#fff" d="M73.6 111.1c-8.7 0-14 6.5-14 14.5 0 4 1.5 7.8 4.2 10.4l3.7-3.8a9.8 9.8 0 0 1-2.2-6.6c0-5.4 3.2-9.5 8.3-9.5 5.1 0 8.3 4 8.3 9.5 0 5.4-3.2 9.2-8.3 9.2a9 9 0 0 1-2.5-.4l-3.9 4c2 .9 4.2 1.3 6.4 1.3 8.7 0 14-6.4 14-14.1 0-8-5.4-14.5-14-14.5Z"/>
  <path fill="#F96360" d="m67.5 132.2-3.7 3.8c.5.5 1.1 1 1.8 1.4l3.7-3.7c-.7-.4-1.3-.9-1.8-1.5Z"/>
  <path fill="#221F1D" d="M55.4 97.6c-7.7 11-16 24-18.3 37.5l-.4-.5-.4-.4c2.2-13 11.5-26.8 19.1-36.6ZM94.6 97.6c7.8 11 16 24 18.4 37.5l.4-.5.4-.4c-2.2-13-11.6-26.8-19.2-36.6Z"/>
  <path fill="#4F51A9" d="M119.3 51C142.6 17.9 131.6 7 131.6 7c-17.4-5.4-36.1 11-36.1 11s17.3 10.6 23.8 33.2Z"/>
  <path fill="#F96360" d="M119.3 51C142.6 17.9 131.6 7 131.6 7c-5.6-.7-14.6 4.7-18.7 7.6-2.9 2-11 8.5-11 8.5a61.6 61.6 0 0 1 17.4 28Z"/>
  <path fill="#4F51A9" d="M30.7 51C7.4 17.9 18.4 7 18.4 7c17.4-5.4 36.1 11 36.1 11S37.2 28.6 30.7 51.2Z"/>
  <path fill="#F96360" d="M30.7 51C7.4 17.9 18.4 7 18.4 7 24 6.2 33 11.6 37 14.5c2.9 2 11.1 8.5 11.1 8.5a61.6 61.6 0 0 0-17.5 28Z"/>
  <path fill="#7173B0" d="M119.3 51c-10.6-40.3-44.2-38.3-44.2-38.3s-33.7-2-44.3 38.4c-.2.5 0 1 0 1.8l44 11.6v.1h.3L119.3 53c0-.8.2-1.2 0-1.8Z"/>
  <path fill="#AEADD5" d="M136.7 73.7c-2-.5-7.5-3-6.2-4.2l4-4c-3.9-.5-15.2-10.2-15.2-12.6-6-8.8-29.3-27-40.7 10.1 0 0-2.2-.8-3.6-.8s-3.6.8-3.6.8C60 26 36.6 44 30.7 53c0 2.3-11.3 12-15.1 12.4 0 0 2 2.2 4 4 1.2 1.4-4.3 3.8-6.3 4.3 0 0 9.2 18.2 61.7 19.8 52.5-1.6 61.7-19.8 61.7-19.8Z"/>
  <path fill="#4F51A9" d="M67.3 67.3c-6.6-35-29.5-21.2-33.7-12.2-2.8 6-2 8.8-7.8 13.8-2.7 2.3-3.9 8.8 7.2 12 9.7 2.6 19.5 3.7 27-2.3 3-2.3 7.9-8.1 7.3-11.3Z"/>
  <path fill="#221F1D" d="M50 72.6a8.8 8.8 0 1 0 0-17.5 8.8 8.8 0 0 0 0 17.5Z"/>
  <path fill="#fff" d="M52.7 63.4a3.2 3.2 0 1 0 0-6.3 3.2 3.2 0 0 0 0 6.3ZM46.8 65a1.4 1.4 0 1 0 0-2.8 1.4 1.4 0 0 0 0 2.8Z"/>
  <path fill="#4F51A9" d="M82.7 67.3c6.6-35 29.5-21.2 33.7-12.2 2.8 6 2 8.8 7.8 13.8 2.7 2.3 3.9 8.8-7.2 12-9.7 2.6-19.5 3.7-27-2.3-3-2.3-7.9-8.1-7.3-11.3Z"/>
  <path fill="#221F1D" d="M100 72.6a8.8 8.8 0 1 0 0-17.5 8.8 8.8 0 0 0 0 17.5Z"/>
  <path fill="#fff" d="M97.3 63.4a3.2 3.2 0 1 0 0-6.3 3.2 3.2 0 0 0 0 6.3ZM103.2 65a1.4 1.4 0 1 0 0-2.8 1.4 1.4 0 0 0 0 2.8Z"/>
  <path fill="#221F1D" d="M81.3 80a.6.6 0 0 0-.5.5 2.6 2.6 0 0 1-5.3 0V76l3-3.5a.5.5 0 0 0-.6-.7h-5.8a.5.5 0 0 0-.5.7l2.9 3.5v4.7a2.6 2.6 0 0 1-5.3-.2.6.6 0 1 0-1 0 3.7 3.7 0 0 0 6.8 2 3.7 3.7 0 0 0 6.9-2 .6.6 0 0 0-.6-.5Z"/>
  <path fill="#221F1D" d="M78.8 50.4S76.3 50 75 50c-1.3 0-3.8.4-3.8.4a88 88 0 0 0-51.8-2.3v7.6a.2.2 0 0 0 .2.2c4 .5 3.6 3.2 3.6 3.2a50 50 0 0 0 1.9 10.3s3.6 14 16.2 15.1c0 0 17 2.3 24.6-9.7 4-6 5.7-14.3 6.6-15.7.8-1.5 2.5-1.5 2.5-1.5s1.7 0 2.5 1.5c.9 1.4 2.7 9.6 6.6 15.7 7.5 12 24.6 9.7 24.6 9.7 12.6-1 16.2-15.1 16.2-15.1s1.9-6.6 1.9-10.3c0 0-.4-2.7 3.6-3.2a.2.2 0 0 0 .2-.2v-7.8h-.2c-2.2-.7-25-7-51.6 2.5ZM59.4 77.8a25.2 25.2 0 0 1-22 3.2c-5.4-2-11.7-9.5-9.8-25.5 0 0 1-6.3 15-6.1 13.9.2 22.2 1.8 24.4 7 1.3 2.9 0 16.1-7.6 21.4Zm53.3 3.2a25.2 25.2 0 0 1-22.1-3.2C83 72.5 81.7 59.3 83 56.3c2.2-5 10.5-6.7 24.4-7 14-.1 15 6.2 15 6.2 1.9 16-4.4 23.5-9.7 25.5ZM93.3 167.8c0 1-.7 1.7-1.8 1.7-1 0-1.7-.8-1.7-1.7 0-.9.7-1.6 1.7-1.6 1.1 0 1.8.7 1.8 1.6Zm-.9 0a.9.9 0 1 0-1.7 0 .9.9 0 0 0 1.2.9.9.9 0 0 0 .5-.9ZM96.2 168.5c0 .6-.6 1-1.3 1-.4 0-.9-.1-1.2-.3l.3-.7.9.3c.2 0 .5-.1.5-.3 0-.4-1.6-.4-1.6-1.4 0-.6.6-1 1.3-1 .3 0 .7.1 1 .3l-.2.6a2 2 0 0 0-.8-.2c-.3 0-.5.1-.5.3 0 .4 1.6.3 1.6 1.4ZM98.7 167H98v2.4h-.8V167h-.5v-.8h.5v-.6c0-.8.5-1 1-1 .2 0 .5.1.7.3l-.3.5a1 1 0 0 0-.4 0s-.2 0-.2.2v.6h.7v.8ZM101.7 168.5l.2.7c-.3.2-.7.3-1 .2-1.2 0-1.7-.6-1.7-1.6a1.6 1.6 0 0 1 1.6-1.6c.4 0 .7 0 1 .2l-.2.7-.7-.2a.8.8 0 0 0-.6.3.8.8 0 0 0-.3.6c0 .5.3 1 .8 1l.9-.3ZM102.6 168.5h1v1h-1v-1ZM104.3 165.3l.6-.7.6.7-.6.6-.6-.6Zm1 4.1h-.8v-3.2h.8v3.2ZM109.4 167.8c0 1-.6 1.7-1.7 1.7-1 0-1.7-.8-1.7-1.7 0-.9.6-1.6 1.7-1.6 1 0 1.7.7 1.7 1.6Zm-.8 0a.9.9 0 0 0-1.5-.6.9.9 0 1 0 1.5.6Z"/>
  <path fill="#fff" d="M131.8 105.4H18.4v65.1h113.4v-65.1Z"/>
  <path fill="#C7CFD1" d="M130.6 106.6v62.6h-111v-62.6h111Zm2.5-2.5H17v67.7h116V104Z"/>
  <path fill="#7173B0" d="M34 109.3c3.7 0 6.6-1.8 6.6-4 0-2-3-3.8-6.6-3.8-3.7 0-6.7 1.7-6.7 3.9 0 2.1 3 4 6.7 4ZM116.1 109.3c3.7 0 6.7-1.8 6.7-4 0-2-3-3.8-6.7-3.8s-6.7 1.7-6.7 3.9c0 2.1 3 4 6.7 4Z"/>
  <text xml:space="preserve" fill="#F96360" font-family="Roboto" font-size="24" font-weight="900" letter-spacing="0em" style="white-space:pre"><tspan x="39.5" y="134.2">{{year}}’s</tspan></text>
  <text xml:space="preserve" fill="#F96360" font-family="Roboto" font-size="24" font-weight="900" letter-spacing="0em" style="white-space:pre"><tspan x="37.3" y="159.2">Photos</tspan></text>
</svg>