<svg width="570" height="219" viewBox="0 0 570 219" fill="none" xmlns="http://www.w3.org/2000/svg"><mask id="a" style="mask-type:alpha" maskUnits="userSpaceOnUse" x="250" y="57" width="124" height="108"><path d="M370.084 129.238H253.782v35.247h116.302z" fill="#2E4242"/><path d="M370.084 129.238H253.782v5.485h116.302z" fill="#1D1D1B" style="mix-blend-mode:multiply" opacity=".3"/><path opacity=".3" d="M373.086 78.152H250.91v51.091h122.176z" fill="#C6C6C6"/><path d="M326.221 146.863h-28.576v17.623h28.576z" fill="#628483"/><path d="M325.35 146.867v17.623h-10.266l-17.03-17.623z" fill="#1D1D1B" style="mix-blend-mode:multiply" opacity=".4"/><path d="M373.698 130.113H250.372V77.262h123.344v52.851zm-121.565-1.761h119.823v-49.33H252.133z" fill="#1D1D1B"/><path d="M312.803 75h-1.761v71.846h1.761zm-57.538 3.152h-1.761v86.337h1.761zm3.52 0h-1.761v86.337h1.761zm4.559-4.023h-1.76v90.358h1.76zm5.856 4.023h-1.76v86.337h1.76zm7.82 0h-1.761v86.337h1.761zm9.766 0h-1.76v86.337h1.76zm11.73 0h-1.76v86.337h1.76zm71.847 0h-1.76v86.337h1.76zm-3.521 0h-1.76v86.337h1.76zm-4.559-4.023h-1.761v90.358h1.761zm-5.857 4.023h-1.76v86.337h1.76zm-7.82 0h-1.761v86.337h1.761zm-9.767 0h-1.76v86.337h1.76zm-11.729 0h-1.761v86.337h1.761z" fill="#1D1D1B"/><path d="M372.827 94.68H251.243v1.76h121.584zm-10.674-20.551H261.917v1.76h100.236zm10.674 37.398H251.243v1.761h121.584zm-2.742 22.606H253.986v1.167h116.099zm0 12.14H253.986v1.168h116.099z" fill="#1D1D1B"/><path d="M262.585 62.806c1.408-.296 2.131-.445 3.539-.704 1.631-.315 2.965.278 2.965 2.483 0 1.538-.519 2.52-1.612 3.003v.037c1.204.11 1.983.889 1.983 3.02 0 2.094-1.316 3.447-3.391 3.447h-3.503V62.788zm3.15 4.392c1.075-.111 1.612-.964 1.612-2.112 0-1.465-.797-1.613-1.779-1.446-.5.074-.741.13-1.223.223v3.502c.556-.074.834-.093 1.39-.167m.371 5.449c1.056-.019 1.63-.797 1.612-2.206 0-1.334-.723-2.02-1.742-1.927-.649.055-.982.093-1.631.148v4.04c.704-.018 1.056-.037 1.742-.055zm5.504-11.525a166 166 0 0 1 5.967-.927v1.872c-1.686.204-2.52.315-4.207.556 0 1.464 0 2.205.019 3.688 1.593-.149 2.372-.223 3.965-.371v1.853l-3.965.278c0 1.687 0 2.539.018 4.225 1.742-.037 2.613-.074 4.337-.093v1.872h-6.116c-.018-5.189-.037-7.783-.074-12.953zm8.209-1.242c1.556-.204 2.335-.297 3.91-.482 1.556-.186 2.817.741 2.835 3.54 0 1.927-.612 3.446-1.835 3.761v.037c1.112.074 1.705.89 1.761 2.965.018.946.037 2.131.074 3.04.037.722.297 1.093.537 1.296H285.1c-.167-.259-.259-.722-.297-1.297-.074-.89-.055-1.723-.092-2.78-.056-1.593-.426-2.297-1.631-2.242-.574.037-.871.056-1.445.075 0 2.501.018 3.743.055 6.244h-1.779l-.092-14.176zm3.224 6.097c1.131-.075 1.76-1.02 1.76-2.52 0-1.576-.537-2.354-1.686-2.224-.611.055-.908.092-1.501.166 0 1.872 0 2.817.037 4.689l1.409-.093zm5.892-7.135c1.112-.111 1.649-.148 2.761-.241.816 4.503 1.205 6.782 2.02 11.397h.037c.741-4.633 1.131-6.968 1.872-11.675 1.093-.074 1.63-.111 2.705-.167.019 6.356.037 9.525.056 15.882h-1.668c-.018-5.245-.037-7.876-.055-13.14h-.038c-.871 5.3-1.315 7.932-2.168 13.14h-1.482c-.927-5.17-1.39-7.728-2.317-12.769h-.037c.037 5.096.037 7.654.074 12.769h-1.667zm13.641-.912c0 4.615 0 6.913.037 11.527 0 2.02.555 2.928 1.63 2.928 1.057 0 1.613-.908 1.613-2.947 0-4.633-.001-6.949-.019-11.6.704 0 1.075-.019 1.779-.037v11.415c0 3.743-1.26 5.115-3.373 5.115-2.112 0-3.391-1.353-3.41-5.04 0-4.504-.018-6.765-.037-11.268a57 57 0 0 1 1.78-.074zm7.504-.164h3.169c3.502.018 3.929 3.372 3.91 8.153 0 4.781-.445 8.099-3.929 8.099h-3.15zm1.779 14.287h1.464c1.464 0 2.075-1.408 2.075-6.152 0-4.559-.518-6.171-2.057-6.171h-1.464v12.342zm9.785-14.103c.908.036 1.371.055 2.279.11 1.149 6.45 1.724 9.637 2.854 15.956h-1.853c-.26-1.557-.389-2.335-.667-3.91-1.297 0-1.946-.037-3.243-.037-.297 1.575-.426 2.353-.723 3.947h-1.853c1.279-6.468 1.909-9.674 3.188-16.048zm2.316 10.136c-.5-3.15-.741-4.744-1.26-7.913h-.037c-.537 3.132-.815 4.707-1.352 7.876 1.056.018 1.575.018 2.631.055zm5.615 1.634c0 1.353.297 2.872 1.483 2.872 1.093 0 1.538-1.204 1.556-2.724 0-1.871-.426-2.853-1.76-2.909-.278 0-.408 0-.686-.019v-1.742c.26 0 .389 0 .63.019 1.186.056 1.594-1.056 1.594-2.539 0-1.093-.352-2.223-1.26-2.297-1.093-.075-1.409 1.223-1.409 2.612-.667-.037-1-.055-1.686-.074 0-2.91 1.093-4.429 3.187-4.262 1.316.111 2.947 1.093 2.928 4.114 0 1.557-.685 3.04-1.779 3.224v.075c1.131.166 2.002 1.482 1.983 3.576 0 2.983-1.112 4.67-3.373 4.67-1.982 0-3.131-1.39-3.113-4.651.667 0 1.001.018 1.668.037zm7.061-10.673c2.39.24 3.595.389 5.985.685v1.928a331 331 0 0 0-4.225-.445c0 1.65 0 2.464-.018 4.114l3.965.278v1.927c-1.593-.093-2.39-.13-3.965-.222 0 1.89 0 2.835-.037 4.725 1.742.037 2.613.037 4.336.074v1.928h-6.115l.092-14.992zm14.973 10.356v.278c0 2.353-.834 4.651-3.447 4.651-2.798 0-3.651-2.279-3.614-7.301s.908-7.209 3.707-6.764c3.131.482 3.298 3.28 3.298 4.633v.241a57 57 0 0 1-1.76-.204v-.222c0-1.242-.315-2.669-1.557-2.817-1.279-.148-1.89.76-1.927 5.207-.037 4.448.556 5.578 1.853 5.615 1.464.019 1.649-1.946 1.668-3.169v-.222c.704.037 1.056.056 1.76.111zm2.037-8.005c.704.13 1.056.186 1.761.315 0 2.15 0 3.244-.019 5.393h.037c1.334-2.02 2.02-2.965 3.336-4.762.778.148 1.148.222 1.927.389a86 86 0 0 0-3.188 4.41c1.409 2.928 2.095 4.336 3.521 6.95h-2.001c-1.075-2.095-1.594-3.207-2.669-5.486-.389.575-.592.87-.981 1.464v4.003h-1.761c.018-5.078.037-7.617.055-12.676z" fill="#711513"/><path d="M261.584 62.806c1.445-.296 2.168-.445 3.632-.704 1.668-.315 3.02.278 3.02 2.483 0 1.538-.518 2.52-1.649 3.003v.037c1.223.11 2.02.889 2.039 3.02 0 2.094-1.353 3.447-3.466 3.447h-3.576V62.788zm3.206 4.392c1.093-.111 1.649-.964 1.649-2.112 0-1.465-.797-1.613-1.816-1.446-.5.074-.76.13-1.26.223v3.502c.574-.074.852-.093 1.408-.167zm.389 5.449c1.075-.019 1.649-.797 1.649-2.206 0-1.334-.741-2.02-1.779-1.927-.667.055-1.001.093-1.668.148v4.04c.723-.018 1.075-.037 1.779-.055zm5.615-11.525c2.428-.408 3.651-.593 6.079-.927v1.872c-1.724.204-2.576.315-4.3.556 0 1.464 0 2.205.019 3.688l4.04-.371v1.853c-1.631.111-2.428.167-4.04.278 0 1.687 0 2.539.018 4.225 1.779-.037 2.65-.074 4.429-.093v1.872h-6.245c-.018-5.189-.037-7.783-.074-12.953zm8.377-1.242a285 285 0 0 1 3.984-.482c1.594-.186 2.873.741 2.891 3.54 0 1.927-.63 3.446-1.853 3.761v.037c1.13.074 1.723.89 1.797 2.965.038.946.038 2.131.075 3.04.037.722.315 1.093.537 1.296h-2.038c-.186-.259-.26-.722-.316-1.297-.074-.89-.074-1.723-.092-2.78-.056-1.593-.426-2.297-1.668-2.242-.593.037-.871.056-1.464.075 0 2.501.019 3.743.037 6.244h-1.797l-.093-14.176zm3.28 6.097c1.149-.075 1.797-1.02 1.779-2.52 0-1.576-.537-2.354-1.723-2.224-.612.055-.927.092-1.538.166 0 1.872.018 2.817.037 4.689.574-.037.852-.056 1.445-.093zm6.022-7.135c1.131-.111 1.686-.148 2.817-.241.815 4.503 1.241 6.782 2.057 11.397h.037c.76-4.633 1.149-6.968 1.908-11.675 1.112-.074 1.65-.111 2.762-.167.018 6.356.037 9.525.055 15.882h-1.705c-.018-5.245-.037-7.876-.055-13.14h-.037c-.89 5.3-1.334 7.932-2.224 13.14h-1.52c-.945-5.17-1.408-7.728-2.353-12.769h-.037c.037 5.096.055 7.654.074 12.769h-1.705l-.092-15.196zm13.917-.912c0 4.615.019 6.913.037 11.527 0 2.02.575 2.928 1.668 2.928 1.075 0 1.649-.908 1.631-2.947 0-4.633 0-6.949-.019-11.6.723 0 1.093-.019 1.816-.037v11.415c0 3.743-1.297 5.115-3.447 5.115-2.149 0-3.484-1.353-3.484-5.04 0-4.504-.018-6.765-.037-11.268a60 60 0 0 1 1.817-.074zm7.652-.164h3.224c3.559.018 4.003 3.372 4.003 8.153s-.463 8.099-4.003 8.099h-3.205V57.766zm1.816 14.287h1.483c1.482 0 2.112-1.408 2.112-6.152 0-4.559-.537-6.171-2.112-6.171h-1.501v12.342zm9.97-14.103c.927.036 1.39.055 2.317.11 1.167 6.45 1.761 9.637 2.928 15.956h-1.89c-.278-1.557-.408-2.335-.686-3.91-1.316 0-1.983-.037-3.317-.037-.296 1.575-.445 2.353-.741 3.947h-1.89c1.297-6.468 1.945-9.674 3.261-16.048zm2.391 10.136c-.5-3.15-.76-4.744-1.279-7.913h-.037a851 851 0 0 0-1.371 7.876c1.075.018 1.612.018 2.687.055zm5.726 1.634c0 1.353.296 2.872 1.519 2.872 1.131 0 1.576-1.204 1.594-2.724 0-1.871-.445-2.853-1.798-2.909-.278 0-.426 0-.704-.019v-1.742c.26 0 .389 0 .649.019 1.204.056 1.631-1.056 1.631-2.539 0-1.093-.353-2.223-1.297-2.297-1.112-.075-1.427 1.223-1.446 2.612a55 55 0 0 0-1.705-.074c0-2.91 1.112-4.429 3.262-4.262 1.334.111 3.002 1.093 2.983 4.114 0 1.557-.704 3.04-1.816 3.224v.075c1.149.166 2.039 1.482 2.02 3.576 0 2.983-1.13 4.67-3.447 4.67-2.02 0-3.187-1.39-3.169-4.651.686 0 1.02.018 1.705.037zm7.191-10.673c2.446.24 3.669.389 6.115.685v1.928c-1.723-.185-2.576-.278-4.299-.445 0 1.65 0 2.464-.019 4.114l4.059.278v1.927c-1.631-.093-2.428-.13-4.059-.222 0 1.89 0 2.835-.037 4.725 1.779.037 2.65.037 4.429.074v1.928h-6.245l.093-14.992zm15.288 10.356v.278c0 2.353-.852 4.651-3.502 4.651-2.854 0-3.725-2.279-3.688-7.301s.945-7.209 3.799-6.764c3.206.482 3.373 3.28 3.373 4.633v.241a59 59 0 0 1-1.798-.204v-.222c0-1.242-.333-2.669-1.593-2.817-1.298-.148-1.928.76-1.965 5.207-.037 4.448.556 5.578 1.891 5.615 1.501.019 1.686-1.946 1.704-3.169v-.222c.723.037 1.075.056 1.798.111zm2.075-8.005c.723.13 1.075.186 1.798.315 0 2.15 0 3.244-.018 5.393h.037a100 100 0 0 1 3.409-4.762c.779.148 1.186.222 1.965.389-1.297 1.649-1.946 2.538-3.243 4.41 1.427 2.928 2.149 4.336 3.595 6.95h-2.039c-1.093-2.095-1.631-3.207-2.724-5.486-.407.575-.593.87-1 1.464v4.003h-1.798c.018-5.078.037-7.617.056-12.676z" fill="#F96360"/></mask><g mask="url(#a)"><path d="M369.98 42.422H235.532v130.587H369.98z" fill="#F96360"/></g><path d="m507.086 141.474-6.175-10.01-44.984-99.24a10.55 10.55 0 0 0 1.299-6.972c-.383-2.445-1.554-4.573-3.229-6.128l-.03-5.784s.203-2.086 3.891-2.475c3.687-.39 8.383-.9 8.383-.9L466.643 0h-61.819l.403 9.965s4.695.51 8.383.9 3.89 2.474 3.89 2.474l-.029 5.739a10.6 10.6 0 0 0-3.315 9.467 10.7 10.7 0 0 0 1.335 3.761l-45.004 99.154-4.286 8.678-8.717 2.318H352V164h165v-22.526zM453.967 5.664c0-.613 1.047-1.922 3.586-2.21 2.539-.285 6.833-.8 6.833-.8l-.204 4.93h-10.215zm22.797 88.842c.173.35 4.868 10.632 4.868 10.632l-1.249 1.752s-5.992-15.622-5.992-16.453c0-.439 2.199 3.719 2.373 4.069m-21.19-63.725-.393-.203-.268-.596s-.305-.475-.56-1.408l1.836.295a9.7 9.7 0 0 1-.612 1.912zm.762-2.881-2.205-.353a11 11 0 0 1-.095-.816v-.468l2.3-.37a9.6 9.6 0 0 1 0 2.01zm-.154-2.979-2.156.347-.006-1.453 1.557-.806c.262.606.468 1.244.605 1.912m-1.04-2.789-1.129.583-.01-2.19a9.3 9.3 0 0 1 1.139 1.607m-13.91 25.187v-8.43l.838-.723h1.499v9.153zm1.541 2.045v4.554l-1.783.007V49.36h1.783zm.396-31.173a9.3 9.3 0 0 1 1.882-.622l.929 5.951h-.134l-2.673-5.33zm1.591 5.326h-.406l-3.642-3.7a9.3 9.3 0 0 1 1.597-1.181zm.955 24.58h.795v-9.05c.216.258.413.595.557 1.03.592 1.8 5.372 13.805 5.372 13.805l-6.724.03zm.294-30.675a9 9 0 0 1 1.002-.063c.333 0 .654.02.978.053l-.952 6.105h-.075zm2.006 6.095.929-5.955a9 9 0 0 1 1.506.455v.924l-2.297 4.58h-.134zM423.462 3.876h24.54s2.392-.164 2.392 2.236c0 .982-.007 1.46-.007 1.46H421.08s-.007-.478-.007-1.46c0-2.4 2.392-2.236 2.392-2.236zm-2.445 14.118a9 9 0 0 1 1.421-.428l.929 5.95h-.134l-2.212-4.409v-1.113zM407.282 7.588l-.203-4.93s4.292.51 6.832.799c2.539.288 3.586 1.594 3.586 2.21v1.921zm10.13 12.927.049.05-.01 2.196-1.197-.62a9.5 9.5 0 0 1 1.161-1.623zm-1.6 2.498 1.633.844-.007 1.424-2.238-.36a9.5 9.5 0 0 1 .615-1.908zm-.766 2.877 2.385.383v.2c-.022.386-.062.736-.114 1.06l-2.274.367a9.6 9.6 0 0 1 0-2.01zm.151 2.979 1.904-.308c-.259.943-.563 1.421-.563 1.421l-.249.547-.487.252a9.7 9.7 0 0 1-.605-1.912M386.2 119.624l-4.136 10.763-3.06-2.583 4.958-10.501s4.181-5.994 4.135-5.513c-.042.481-1.894 7.834-1.894 7.834zm8.487-25.118c.174-.35 2.369-4.508 2.369-4.069 0 .831-5.991 16.453-5.991 16.453l-1.25-1.752s4.699-10.282 4.869-10.632zm36.467-15.89h-2.742l.282 8.947h2.457v6.982h-2.742l.281 8.947h2.458v6.327h-2.742l.268 9.791-21.87 5.166h-16.832l-.023.036 23.36-57.296h13.778l1.483 1.037.124 3.893h2.457v6.164zm0-28.584h-2.552v2.7h-1.155v-3.901l-.537-.793-.804 2.783h-1.964v.874h2.124v2.213l-7.254-.03s4.783-12.004 5.372-13.804c.337-1.028.956-1.505 1.506-1.725v5.762h3.304v2.576h1.96zm-7.761-32.61a9 9 0 0 1 1.001-.063q.5.002.979.053l-.953 6.105h-.075zm2.14 6.095h-.134l.929-5.955a9 9 0 0 1 1.885.616zm3.544-4.894a9.4 9.4 0 0 1 1.603 1.185l-3.658 3.712h-.406l2.457-4.897zm2.077 21.769-1.344.969h-2.903v-3.192h4.244v2.223zm-1.309-16.875h-1.452l2.974-3.018a9.4 9.4 0 0 1 1.162 1.633l-2.68 1.388zm4.349 0c-1.394-4.226-5.274-7.14-9.8-7.14a10.1 10.1 0 0 0-3.377.576v-3.008c0-1.977 1.329-2.429 1.934-2.429h25.561c.606 0 1.935.449 1.935 2.43v3.024a10.25 10.25 0 0 0-5.072-.458c-3.924.631-6.983 3.433-8.184 7.008h-3zm5.834-3.002 2.958 3.005h-1.453l-2.666-1.378a9.5 9.5 0 0 1 1.161-1.624zm20.467 109.934v-5.588h-10.399l-6.744-1.869v-1.676h-3.383v-12.822h3.383v-4.256h-3.383v-11.54h3.383v-4.255h-3.383V77.395h3.383V73.14h-3.383v-5.62h18.167l25.597 62.929zm28.895-.062-4.135-10.763s-1.852-7.353-1.895-7.834 4.136 5.513 4.136 5.513l4.957 10.501-3.059 2.583z" fill="#F96360"/><path d="M25 164q0-.57-.057-1.125C24.38 157.329 19.695 153 14 153c-6.075 0-11 4.925-11 11s4.925 11 11 11 11-4.925 11-11Zm0 0h490l33.222 33.222m0 0A10.97 10.97 0 0 1 556 194c6.075 0 11 4.925 11 11s-4.925 11-11 11-11-4.925-11-11c0-3.038 1.231-5.788 3.222-7.778Z" stroke="#F96360" stroke-width="5"/></svg>